<svg width="606" height="593" viewBox="0 0 606 593" fill="none" xmlns="http://www.w3.org/2000/svg">
<path fill-rule="evenodd" clip-rule="evenodd" d="M479.954 130.628C537.999 185.739 554.213 267.928 549.951 347.836C545.867 424.406 523.057 505.844 457.795 546.085C397.088 583.517 324.277 546.899 255.048 529.675C184.987 512.244 101.217 511.492 65.8247 448.562C28.2285 381.713 54.8994 300.555 87.0407 230.943C121.44 156.442 166.19 79.276 245.708 58.9743C328.929 37.7269 417.65 71.4745 479.954 130.628Z" fill="#0053CE" fill-opacity="0.32"/>
<path d="M349.824 102.184C352.749 101.547 355.743 102.675 358.498 103.849C411.215 126.311 452.348 174.293 466.489 229.824C480.631 285.355 467.458 347.167 431.905 392.107C396.352 437.048 339.23 464.091 281.936 463.108C280.771 469.763 279.606 476.417 278.442 483.072C278.44 477.432 278.35 471.463 275.391 466.662C272.432 461.861 265.499 459.048 260.967 462.405C254.775 469.799 259.56 483.2 269.036 484.999C267.182 489.346 260.036 487.992 257.633 483.923C255.231 479.854 255.776 474.787 255.406 470.076C255.036 465.366 252.862 459.949 248.228 459.025C234.471 456.281 220.978 452.217 207.995 446.906C199.592 443.469 189.907 436.718 191.876 427.856C193.331 421.31 201.076 417.805 207.724 418.685C214.371 419.566 220.106 423.62 225.539 427.55C228.373 417.757 231.207 407.964 234.041 398.171C225.121 398.584 222.617 385.515 215.101 380.694C180.716 358.633 157.793 319.641 155.241 278.867C152.688 238.094 170.569 196.547 201.935 170.371C233.301 144.195 277.376 134.036 317.035 143.843C321.741 138.054 330.537 136.05 337.286 139.228C343.597 136.008 343.274 127.077 342.481 120.037C341.689 112.998 342.902 103.693 349.824 102.184ZM238.538 430.675C235.94 427.798 238.489 429.499 238.489 429.499L238.538 430.999V431.685C238.538 431.685 232.241 429.248 229.217 428.261C280.939 445.732 341.129 435.568 384.246 402.082C427.363 368.596 452.11 312.795 447.986 258.357C443.861 203.92 410.989 152.485 363.318 125.877C362.182 125.243 360.908 124.6 359.635 124.877C358.001 125.231 357.073 126.916 356.355 128.426C353.962 133.46 351.569 138.493 349.176 143.526C354.813 146.836 357.825 154.066 356.205 160.399C388.464 180.845 410.928 216.069 415.86 253.942C420.793 291.815 408.1 331.618 382.154 359.644C356.207 387.67 317.499 403.388 279.359 401.385C270.421 400.915 260.793 399.677 253.091 404.237C244.185 409.509 240.986 420.62 238.538 430.675Z" fill="white"/>
<path d="M225.484 195.758C224.759 195.768 224.445 196.666 224.329 197.382C223.886 200.108 223.444 202.833 223.001 205.559C226.408 205.489 230.248 205.225 232.465 202.637C229.413 202.123 227.131 198.824 227.727 195.787C228.812 197.463 230.279 198.892 231.985 199.932C232.834 200.45 233.815 200.956 234.147 201.894C234.696 203.444 233.153 204.878 231.806 205.822C230.459 206.766 228.952 208.271 229.588 209.788C228.343 208.352 226.519 207.432 224.623 207.284C223.538 207.199 222.339 207.325 221.471 206.668C220.072 205.61 220.549 203.408 221.322 201.833C222.095 200.258 223.036 198.391 222.169 196.866C221.52 195.725 220 195.162 219.658 193.894C219.16 192.046 221.449 190.757 223.303 190.283C224.594 189.953 225.953 189.661 227.245 189.982C228.538 190.303 229.729 191.425 229.681 192.756C229.066 194.48 227.315 195.733 225.484 195.758V195.758ZM228.51 192.229C226.658 191.18 224.188 191.347 222.494 192.635C221.938 193.058 221.431 193.798 221.768 194.41C224.182 194.564 226.644 193.768 228.51 192.229Z" fill="#003B93"/>
<path d="M359.341 293.057C358.527 292.734 357.803 292.184 357.274 291.485C359.242 290.625 360.856 288.984 361.683 287.002C362.209 285.742 364.091 285.719 365.222 286.485C366.353 287.25 367.06 288.5 368.089 289.398C369.118 290.296 370.833 290.747 371.777 289.759C372.877 288.607 375.012 289.536 375.572 291.027C376.131 292.518 375.639 294.175 375.147 295.69C374.86 296.569 374.548 297.491 373.863 298.114C373.178 298.736 371.997 298.914 371.364 298.239C368.879 295.59 363.919 296.02 361.927 299.057C359.936 297.857 358.846 295.328 359.341 293.057ZM362.936 288.969C361.157 290.767 360.554 293.631 361.457 295.994C361.664 296.538 362.361 297.117 362.721 296.659C364.374 294.555 367.386 293.635 369.932 294.456C370.414 294.611 370.842 293.974 370.704 293.488C370.567 293.001 370.111 292.684 369.687 292.408C367.869 291.227 366.05 290.045 364.232 288.863C364.02 288.726 363.787 288.582 363.536 288.607C363.298 288.631 363.103 288.8 362.936 288.969V288.969ZM372.729 297.54C373.471 295.834 373.974 294.025 374.219 292.182C374.273 291.774 374.072 291.162 373.692 291.319C371.441 292.36 370.899 295.867 372.729 297.54V297.54Z" fill="#003B93"/>
<path d="M302.703 294.083C299.324 291.485 295.043 289.402 293.634 285.379C291.238 278.539 283.637 274.964 279.875 268.769C276.698 263.538 276.602 256.988 277.551 250.942C279.928 235.795 289.292 221.065 303.633 215.643C310.477 213.055 317.946 212.695 325.262 212.77C331.558 212.835 338.067 213.256 343.676 216.117C349.285 218.978 353.788 224.866 353.198 231.135C352.96 233.658 351.936 236.077 351.888 238.611C351.759 245.552 358.559 250.337 364.571 253.809C370.369 257.157 376.167 260.505 381.966 263.853C384.958 265.58 385.367 269.657 385.43 273.111C385.602 282.558 385.774 292.005 385.946 301.452C385.98 303.34 386.011 305.257 385.524 307.082C384.998 309.051 383.895 310.808 382.808 312.532C371.971 329.713 360.211 347.742 341.925 356.588C337.922 358.524 333.701 359.964 329.492 361.398C325.559 362.739 321.626 364.08 317.692 365.42C314.787 366.411 311.791 367.414 308.727 367.24C305.662 367.066 302.472 365.427 301.396 362.552C300.771 360.883 300.921 359.032 301.182 357.269C302.071 351.267 304.161 345.445 307.292 340.247C311.66 332.994 314.286 324.537 313.778 316.085C313.269 307.633 309.415 299.244 302.703 294.083ZM289.24 274.055C297.382 281.628 304.617 290.176 310.74 299.458C312.85 302.655 314.847 305.981 315.972 309.643C318.153 316.742 316.856 324.487 314.336 331.473C311.815 338.459 308.12 344.961 305.322 351.84C303.772 355.649 302.813 360.748 306.066 363.264C308.742 365.334 312.585 364.259 315.763 363.098C320.529 361.356 325.296 359.614 330.063 357.872C334.018 356.426 337.985 354.975 341.74 353.07C358.902 344.36 369.892 327.24 380.055 310.896C380.975 309.417 381.906 307.912 382.384 306.237C382.881 304.494 382.864 302.652 382.842 300.84C382.748 292.848 382.653 284.857 382.559 276.865C382.526 274.053 382.466 271.127 381.194 268.619C378.926 264.147 373.636 262.341 369.086 260.232C362.259 257.068 356.152 252.364 351.351 246.57C350.113 245.077 348.929 243.443 348.548 241.54C347.871 238.16 349.848 234.837 350.142 231.402C350.623 225.776 346.378 220.596 341.258 218.215C336.139 215.833 330.304 215.659 324.657 215.614C319.305 215.572 313.884 215.615 308.705 216.967C293.281 220.994 282.726 236.371 280.462 252.15C279.82 256.626 279.772 261.388 281.773 265.444C283.464 268.871 286.441 271.452 289.24 274.055Z" fill="#003B93"/>
<path d="M214.984 512.635C221 516.294 228.148 517.507 235.118 518.505C246.205 520.091 257.345 521.309 268.513 522.155C282.9 523.245 298.215 523.517 310.729 516.335C311.653 515.804 312.597 515.193 313.102 514.255C314.638 511.403 311.133 508.316 307.946 507.746C304.758 507.176 301.073 507.503 298.744 505.254C303.436 502.923 309.34 503.244 313.752 506.069C318.164 508.894 320.926 514.122 320.772 519.359C320.647 523.652 318.717 527.786 318.917 532.076C319.161 537.31 313.825 540.942 308.956 542.876C293.477 549.022 276.355 549.18 259.702 548.936C244.949 548.719 229.624 548.112 216.514 541.342C213.217 539.64 209.995 537.446 208.172 534.214C206.536 531.312 206.193 527.883 205.884 524.566C205.264 517.896 204.872 510.437 209.169 505.298C213.265 500.398 220.264 499.285 226.634 498.824C229.71 498.601 230.792 494.518 230.23 491.485C229.668 488.452 228.329 485.221 229.65 482.434C232.285 476.868 241.44 479.604 246.146 475.632C247.707 474.314 250.218 476.661 249.611 478.612C249.004 480.564 246.71 481.477 244.667 481.515C242.623 481.554 240.588 480.991 238.553 481.177C236.518 481.364 234.322 482.664 234.149 484.701C252.91 492.229 274.093 493.575 293.655 488.48C290.288 484.358 284.895 481.977 279.58 482.265C279.666 480.953 281.133 480.212 282.426 479.973C288.282 478.889 294.311 482.987 296.554 488.504C298.797 494.021 297.745 500.47 294.949 505.728C292.406 504.936 292.607 501.342 293.018 498.711C293.428 496.079 292.346 492.279 289.732 492.786C271.863 496.247 253.086 494.903 235.893 488.931C234.581 488.475 233.746 490.321 233.586 491.701C232.987 496.86 232.681 502.868 236.495 506.394C238.367 508.125 240.913 508.895 243.385 509.519C256.821 512.912 270.952 513.524 284.63 511.307C286.545 510.996 288.984 510.866 289.919 512.565C279.555 517.264 267.612 516.195 256.292 515.032C250.941 514.483 245.484 513.906 240.578 511.701C235.794 509.552 231.745 505.943 226.854 504.05C221.963 502.157 215.409 502.649 212.742 507.165C212.448 507.663 212.208 508.208 212.166 508.785C212.046 510.458 213.551 511.764 214.984 512.635ZM315.698 533.286C317.877 528.415 315.871 522.827 315.227 517.53C300.365 527.681 280.819 526.804 262.919 524.927C252.542 523.838 242.185 522.546 231.858 521.05C225.161 520.08 218.127 518.873 212.892 514.586C211.486 513.435 209.924 515.847 209.691 517.649C209.015 522.888 208.427 528.587 211.148 533.115C214.132 538.08 220.191 540.146 225.816 541.533C250.569 547.637 276.767 547.792 301.59 541.983C307.174 540.676 313.357 538.521 315.698 533.286V533.286Z" fill="#003B93"/>
<path d="M346.289 101.184C349.215 100.547 352.209 101.675 354.964 102.849C407.681 125.311 448.814 173.293 462.955 228.824C477.096 284.355 463.924 346.167 428.371 391.107C392.818 436.048 335.696 463.091 278.401 462.108C277.237 468.763 276.072 475.417 274.908 482.072C274.906 476.432 274.816 470.463 271.857 465.662C268.898 460.861 261.964 458.048 257.433 461.405C251.241 468.799 256.026 482.2 265.501 483.999C263.648 488.346 256.501 486.992 254.099 482.923C251.697 478.854 252.242 473.787 251.872 469.076C251.502 464.366 249.328 458.949 244.693 458.025C230.937 455.281 217.444 451.217 204.461 445.906C196.058 442.469 186.373 435.718 188.342 426.856C189.797 420.31 197.542 416.805 204.19 417.685C210.837 418.566 216.572 422.62 222.005 426.55C224.839 416.757 227.673 406.964 230.507 397.171C221.587 397.584 219.083 384.515 211.567 379.694C177.182 357.633 154.259 318.641 151.707 277.867C149.154 237.094 167.035 195.547 198.401 169.371C229.766 143.195 273.842 133.036 313.501 142.843C318.207 137.054 327.003 135.05 333.752 138.228C340.062 135.008 339.74 126.077 338.947 119.037C338.155 111.998 339.368 102.693 346.289 101.184V101.184ZM401.566 314.484C417.026 273.859 409.758 225.398 383.059 191.096C381.125 188.611 378.94 186.086 375.954 185.088C369.206 182.833 362.459 180.578 355.712 178.322C356.444 181.168 354.168 184.089 351.421 185.129C348.673 186.17 345.619 185.817 342.705 185.446C337.513 184.785 332.153 184.056 327.67 181.356C323.186 178.656 319.788 173.429 320.873 168.309C321.74 164.218 316.727 161.597 312.699 160.474C302.184 157.543 291.669 154.612 281.154 151.681C278.862 151.042 276.41 150.299 274.945 148.424C273.48 146.548 273.769 143.184 276.023 142.421C258.401 142.892 240.9 147.418 225.26 155.55C237.729 162.013 250.435 168.65 260.197 178.747C267.853 186.666 273.608 197.281 272.68 208.257C271.875 217.767 266.076 226.368 258.523 232.202C250.969 238.035 241.788 241.39 232.532 243.717C218.875 247.149 202.331 247.69 192.935 237.202C190.201 234.151 185.316 234.942 181.355 235.983C174.67 237.741 167.985 239.498 161.3 241.256C159.744 241.665 157.859 242.46 157.807 244.069C157.646 248.947 161.261 253.688 166.008 254.825C170.754 255.962 176.125 253.372 178.191 248.95C179.436 246.286 183.189 245.871 185.938 246.914C188.688 247.957 190.963 250.001 193.698 251.082C198.033 252.793 203.122 251.935 207.314 253.97C214.307 257.365 215.499 266.889 214.165 274.547C211.689 288.761 203.63 301.926 192.097 310.595C184.529 316.284 185.843 328.075 189.651 336.743C193.46 345.41 199.124 354.126 197.801 363.501C192.608 352.642 188.21 341.402 184.655 329.902C182.694 323.558 181.571 315.323 186.979 311.471C198.47 303.284 206.996 291.026 210.672 277.405C212.876 269.241 211.78 258.092 203.688 255.638C200.551 254.687 197.082 255.393 193.967 254.374C191.358 253.52 189.268 251.545 186.763 250.422C184.259 249.3 180.732 249.396 179.41 251.801C174.907 259.997 161.084 260.333 156.189 252.365C150.504 292.958 165.88 335.928 196.028 363.699C226.176 391.471 270.261 403.274 310.252 394.282C350.243 385.29 385.033 355.752 400.392 317.749C396.124 315.846 393.707 311.13 393.083 306.5C392.458 301.869 393.291 297.185 393.752 292.536C394.681 283.185 394.098 273.686 392.034 264.519C391.479 262.054 390.391 259.184 387.916 258.673C380.488 257.139 373.439 253.801 367.547 249.025C363.071 245.398 359.314 238.208 363.67 234.437C365.699 232.68 362.819 229.786 361.77 227.315C359.556 222.099 366.337 217.815 371.757 216.161C378.112 214.222 384.468 212.283 390.823 210.345C391.509 210.135 392.236 209.924 392.932 210.094C394.958 210.589 394.816 213.86 393.111 215.061C391.407 216.263 389.132 216.068 387.047 216.018C378.755 215.821 370.428 218.856 364.206 224.342C366.974 227.402 367.686 232.156 365.937 235.893C363.832 240.393 366.82 245.851 370.952 248.609C375.083 251.367 380.124 252.307 384.761 254.088C389.399 255.869 394.072 259.034 395.195 263.873C397.469 273.676 397.964 283.889 396.648 293.867C395.656 301.397 394.725 311.183 401.566 314.484V314.484ZM235.003 429.675C232.406 426.798 233.048 422.235 234.667 418.714C236.286 415.193 238.733 411.968 239.418 408.153C240.103 404.338 238.036 399.579 234.172 399.282C231.342 408.608 228.512 417.935 225.682 427.261C277.404 444.732 337.595 434.568 380.712 401.082C423.829 367.596 448.576 311.795 444.451 257.357C440.327 202.92 407.455 151.485 359.784 124.877C358.647 124.243 357.374 123.6 356.101 123.877C354.467 124.231 353.539 125.916 352.821 127.426C350.428 132.46 348.035 137.493 345.642 142.526C351.279 145.836 354.291 153.066 352.671 159.399C384.93 179.845 407.394 215.069 412.326 252.942C417.259 290.815 404.566 330.618 378.62 358.644C352.673 386.67 313.965 402.388 275.825 400.385C266.886 399.915 257.259 398.677 249.556 403.237C240.651 408.509 237.452 419.62 235.003 429.675H235.003ZM356.778 107.26C353.837 105.949 350.637 104.688 347.478 105.315C344.319 105.941 341.513 109.289 342.664 112.296C398.045 134.906 439.388 188.779 446.9 248.124C454.413 307.469 427.799 369.945 379.799 405.642C331.798 441.339 264.307 448.849 209.634 424.576C204.324 422.218 197.075 420.013 193.572 424.648C191.415 427.502 192.137 431.766 194.312 434.606C196.487 437.445 199.782 439.169 203.011 440.707C261.334 468.501 334.399 462.416 387.321 425.357C440.243 388.297 470.946 321.718 464.771 257.406C458.596 193.094 415.785 133.573 356.778 107.26V107.26ZM160.11 238.678C166.915 236.82 173.721 234.962 180.526 233.104C185.22 231.822 191.032 230.839 194.274 234.468C199.509 240.327 207.615 243.008 215.47 243.157C223.326 243.306 231.041 241.189 238.514 238.762C248.699 235.453 259.549 230.785 264.424 221.25C267.29 215.646 270.232 209.693 269.843 203.411C269.485 197.62 266.342 192.422 263.288 187.49C260.722 183.345 258.089 179.124 254.339 176.009C247.941 170.694 238.903 169.11 233.056 163.194C229.677 159.774 224.309 158.94 219.62 160.004C214.931 161.068 210.787 163.758 206.918 166.612C184.737 182.978 168.018 206.621 159.982 232.988C159.407 234.875 158.927 237.099 160.11 238.678ZM353.28 177.158C355.452 174.036 360.356 175.123 363.592 177.122C366.828 179.121 370.314 181.828 373.999 180.883C353.875 160.472 326.917 146.918 298.531 142.938C291.183 141.908 282.757 141.843 277.475 147.055C290.693 151.019 303.911 154.984 317.129 158.948C318.868 159.47 320.704 160.052 321.895 161.423C323.989 163.832 323.24 167.492 323.822 170.631C324.661 175.154 328.46 178.675 332.707 180.444C336.954 182.213 341.644 182.527 346.235 182.82C347.831 182.922 349.61 182.966 350.815 181.915C352.173 180.73 352.251 178.637 353.28 177.158ZM349.266 157.124C350.501 154.423 349.388 151.108 347.337 148.96C345.286 146.812 342.472 145.589 339.715 144.484C334.882 142.545 329.867 140.776 324.661 140.636C323.356 140.601 321.92 140.722 320.983 141.631C320.047 142.541 320.133 144.475 321.383 144.853C331.126 147.8 340.511 151.93 349.266 157.124ZM254.287 397.288C244.812 395.521 235.59 392.405 226.985 388.064C226.273 387.705 225.516 387.327 224.722 387.402C223.928 387.477 223.145 388.219 223.346 388.991C223.482 389.513 223.988 389.839 224.454 390.112C229.401 393.021 234.389 395.948 239.817 397.811C245.244 399.674 251.209 400.421 256.737 398.88C256.551 397.857 255.309 397.479 254.287 397.288V397.288ZM349.958 119.468C349.214 118.378 347.471 118.457 346.439 119.28C345.408 120.103 344.912 121.407 344.461 122.646C342.575 127.829 340.688 133.012 338.802 138.195C338.629 138.672 338.453 139.169 338.509 139.672C338.672 141.135 340.748 141.665 342.008 140.903C343.267 140.141 343.865 138.662 344.382 137.284C346.194 132.45 348.006 127.616 349.819 122.782C350.223 121.703 350.607 120.419 349.958 119.468V119.468Z" fill="#003B93"/>
</svg>
