<svg width="718" height="730" viewBox="0 0 718 730" fill="none" xmlns="http://www.w3.org/2000/svg">
<path fill-rule="evenodd" clip-rule="evenodd" d="M536.67 447.866C525.763 452.131 513.145 458.532 511.975 470.185C526.791 458.786 545.094 451.983 563.759 450.938C550.864 467.184 534.582 480.729 516.261 490.451C499.807 499.182 478.976 508.494 477.565 527.067C495.235 506.025 522.404 493.286 549.881 493.159C532.302 518.906 504.114 537.169 473.431 542.69C474.484 550.602 508.504 567.548 518.413 570.809C525.47 601.126 528.527 640.442 535.584 670.759C537.32 678.22 538.849 686.792 534.281 692.941C529.749 699.04 521.19 700.09 513.61 700.628C483.736 702.752 442.863 704.876 412.989 706.999C409.412 690.795 405.836 674.591 402.259 658.386C351.868 663.065 135.841 712.569 96.1973 686.599C-56.8418 586.345 138.31 552.194 142.504 430.135C143.465 402.148 59.3189 353.226 60.6549 324.628C61.5273 305.954 64.4181 287.713 73.6572 271.678C82.8963 255.644 97.5366 243.292 113.449 233.844C91.5415 228.213 74.9478 206.375 75.3917 183.76C75.8357 161.145 93.2737 139.975 115.385 135.209C104.96 122.785 88.5445 117.091 76.554 106.171C62.586 93.4503 55.5669 72.93 60.6549 54.7355C65.7429 36.541 83.6572 22.2259 102.533 23.0325C118.037 23.6951 131.681 33.5013 142.504 44.6233C159.288 61.8722 171.771 83.2757 178.52 106.378C183.018 121.776 199.504 129.609 213.427 137.578C227.349 145.547 241.808 159.428 237.885 174.982C232.699 153.697 309.777 179.05 379.681 185.257C388.963 186.081 398.951 187.28 405.812 193.585C415.672 202.645 430.475 205.95 443.251 201.943C447.316 212.02 450.307 223.339 446.851 233.641C443.396 243.943 431.156 251.806 421.372 247.08C423.926 260.219 426.48 273.359 429.034 286.498C454.05 286.799 479.063 287.31 504.071 288.031C517.325 288.413 531.178 289.016 542.698 295.582C554.217 302.149 569.635 292.846 581.018 268.945C573.651 307.945 582.379 323.528 597.431 327.765C597.462 327.47 598.632 327.61 598.666 327.316C603.147 288.776 629.299 254.557 665.695 241.02C662.476 248.436 639.448 263.085 623.457 281.792C607.837 300.065 600.361 324.528 599.587 328.921C624.388 322.418 632.657 340.895 674.735 324.628C655.507 347.745 618.455 353.437 593.175 337.157C581.249 350.458 581.916 365.186 573.467 380.927C587.819 363.09 606.876 378.904 591.758 390.465C599.782 391.235 608.458 392.293 614.278 397.87C620.098 403.447 620.243 415.185 612.736 418.121C587.381 428.036 562.025 437.951 536.67 447.866Z" fill="#0053CE" fill-opacity="0.32"/>
<path fill-rule="evenodd" clip-rule="evenodd" d="M495.513 359.969C496.431 358.224 497.428 356.394 499.117 355.378C500.806 354.361 503.397 354.571 504.307 356.32C505.274 358.182 503.834 360.426 502.144 361.668C500.453 362.911 498.374 363.787 497.275 365.575C503.213 369.487 509.15 373.399 515.087 377.311C519.737 380.376 524.998 384.752 524.046 390.239C523.488 393.456 520.762 395.957 517.725 397.157C514.688 398.357 511.35 398.482 508.086 398.576C486.15 399.208 464.194 399.097 442.266 398.243C440.744 398.184 439.048 398.042 438.034 396.906C437.249 396.025 437.087 394.77 436.96 393.597C435.698 381.926 434.436 370.255 433.174 358.583C433.127 358.152 433.083 357.702 433.237 357.297C433.886 355.593 436.436 356.643 437.861 357.78C447.955 365.837 464.093 364.891 473.176 355.709C475.37 353.49 479.107 353.777 481.926 355.115C484.746 356.452 487.105 358.628 489.933 359.947C489.631 358.311 491.073 356.586 492.736 356.593C494.399 356.599 495.828 358.336 495.513 359.969" fill="white"/>
<path fill-rule="evenodd" clip-rule="evenodd" d="M142.278 231.155C142.278 231.155 139.828 201.805 145.995 192.37C152.163 182.935 175.656 180.095 175.656 180.095C175.656 180.095 240.047 179.253 274.838 180.583C309.628 181.913 379.207 187.876 379.207 187.876C379.207 187.876 388.248 189.848 392.312 192.37C396.377 194.893 402.045 202.05 402.045 202.05C402.045 202.05 414.382 203.849 420.518 204.093C426.655 204.338 432.277 203.255 432.277 203.255C432.277 203.255 440.098 226.064 434.569 236.935C429.04 247.806 410.476 246.12 410.476 246.12L417.048 286.806C417.048 286.806 409.235 290.498 404.965 295.128C400.696 299.757 398.981 306.395 398.981 306.395L411.671 430.135C411.671 430.135 415.404 436.567 423.423 439.01C431.442 441.452 449.509 441.66 449.509 441.66C449.509 441.66 448.865 454.137 449.509 459.507C450.153 464.876 450.728 467.818 450.728 467.818L464.33 565.196C464.33 565.196 451.109 567.601 438.027 570.775C424.945 573.949 398.981 581.05 398.981 581.05C398.981 581.05 389.828 585.223 388.643 591.961C387.457 598.698 392.312 618.946 392.312 618.946L246.555 630.056C246.555 630.056 232.371 630.323 227.492 627.249C222.613 624.175 221.276 614.128 221.276 614.128L201.561 436.807C201.561 436.807 170.056 437.578 160.855 432.325C151.654 427.071 150.541 407.677 150.541 407.677C150.541 407.677 152.069 396.684 150.541 389.055C150.031 386.51 143.368 358.916 141.129 332.661C139.862 317.804 157.344 306.395 157.344 306.395L142.278 231.155Z" fill="white"/>
<path fill-rule="evenodd" clip-rule="evenodd" d="M245.126 190.334C243.992 191.932 244.941 194.315 246.579 195.39C248.217 196.465 250.281 196.586 252.238 196.674C273.502 197.631 294.765 198.588 316.029 199.545C318.101 199.638 320.395 199.658 321.965 198.303C323.535 196.948 323.327 193.715 321.279 193.389C297.634 189.63 273.641 188.069 249.708 188.732C248.028 188.779 246.099 188.963 245.126 190.334" fill="#E7EAEE"/>
<path fill-rule="evenodd" clip-rule="evenodd" d="M339.731 342.74L334.205 316.809C334.205 316.809 333.947 322.157 331.022 324.332C328.096 326.507 322.312 325.651 322.312 325.651C322.312 325.651 321.396 307.544 325.467 302.03C329.539 296.516 333.55 301.723 341.284 299.959C349.011 298.197 347.41 292.393 356.389 294.978C365.368 297.562 372.002 316.778 372.002 316.778C372.002 316.778 364.962 319.138 361.966 318.532C358.971 317.927 359.701 314.294 359.701 314.294C359.701 314.294 357.578 313.39 358.119 319.761C358.382 322.856 360.725 327.511 361.966 333.599C362.429 335.867 361.966 340.962 361.966 340.962C361.966 340.962 353.977 341.777 347.073 343.254C340.169 344.732 339.731 342.74 339.731 342.74Z" fill="#E7EAEE"/>
<path fill-rule="evenodd" clip-rule="evenodd" d="M143.555 278.239C140.896 276.807 138.733 274.623 136.613 272.471C131.145 266.921 125.609 261.281 121.816 254.476C121.454 253.828 121.099 253.084 121.307 252.372C121.516 251.66 122.603 251.256 123.009 251.876C129.604 261.944 137.931 270.873 147.515 278.151C146.654 279.31 144.826 278.923 143.555 278.239V278.239Z" fill="#003B93"/>
<path fill-rule="evenodd" clip-rule="evenodd" d="M151.521 150.821C153.092 149.202 153.93 147.025 154.653 144.888C156.909 138.226 158.446 131.321 159.23 124.331C159.371 123.072 159.602 121.622 160.694 120.98C161.923 126.974 160.401 133.151 158.888 139.079C157.558 144.29 156.085 149.763 152.313 153.596C151.931 153.984 151.443 154.379 150.907 154.29C150.183 154.169 149.893 153.207 150.151 152.52C150.41 151.834 151.01 151.347 151.521 150.821L151.521 150.821Z" fill="#003B93"/>
<path fill-rule="evenodd" clip-rule="evenodd" d="M530.722 203.097C531.47 202.898 532.231 203.487 532.557 204.189C532.883 204.891 532.907 205.689 533.052 206.449C533.62 209.42 536.298 211.857 539.308 212.143C539.683 213.016 538.853 213.889 538.197 214.576C536.703 216.139 535.76 218.218 535.568 220.372C535.444 221.769 535.15 223.714 533.747 223.695C532.62 223.681 532.125 222.317 531.719 221.265C530.727 218.696 528.489 216.641 525.845 215.871C525.29 215.71 525.057 215 525.209 214.443C525.362 213.885 525.785 213.449 526.189 213.035C527.926 211.253 529.689 209.143 529.67 206.654C529.66 205.308 529.422 203.445 530.722 203.097Z" fill="#B5D75C"/>
<path fill-rule="evenodd" clip-rule="evenodd" d="M583.38 436.901C581.047 439.298 580.221 443.05 581.331 446.205C580.102 446.754 579.183 445.06 578.574 443.859C577.662 442.055 575.936 440.684 573.974 440.201C576.816 438.408 578.585 435.034 578.443 431.676C579.586 430.931 580.865 432.483 581.193 433.807C581.522 435.132 582.016 436.854 583.38 436.901Z" fill="#E7EAEE"/>
<path fill-rule="evenodd" clip-rule="evenodd" d="M563.472 441.396C564.825 443.542 566.749 445.326 568.991 446.512C569.797 446.938 569.066 448.125 568.401 448.747C566.724 450.314 565.663 452.523 565.486 454.811C564.019 453.341 562.553 451.872 561.087 450.402C560.502 449.816 559.884 448.906 560.388 448.248C561.927 446.243 562.991 443.877 563.472 441.396Z" fill="#E7EAEE"/>
<path fill-rule="evenodd" clip-rule="evenodd" d="M465.525 182.942C466.859 174.444 470.085 166.092 475.751 159.62C481.418 153.148 489.691 148.73 498.293 148.737C506.895 148.744 515.583 153.616 519.158 161.44C521.007 165.489 521.461 170.046 521.335 174.495C521.096 182.957 518.823 191.354 514.762 198.782C511.099 205.479 505.834 211.503 498.999 214.901C492.163 218.299 483.644 218.755 476.999 214.999C471.737 212.025 468.056 206.687 466.302 200.903C464.548 195.119 464.587 188.913 465.525 182.942M518.101 176.511C518.256 171.242 517.387 165.801 514.616 161.317C512.932 158.59 510.572 156.285 507.808 154.663C498.893 149.435 486.759 152.244 479.354 159.454C471.95 166.663 468.74 177.319 468.409 187.649C468.233 193.159 468.825 198.809 471.168 203.799C473.511 208.789 477.797 213.057 483.137 214.429C490.123 216.223 497.496 212.845 502.974 208.152C512.114 200.323 517.747 188.541 518.101 176.511V176.511Z" fill="#B5D75C"/>
<path fill-rule="evenodd" clip-rule="evenodd" d="M553.551 177.041C552.129 178.901 550.641 181.344 551.733 183.415C552.123 184.156 551.113 185.018 550.309 184.784C549.504 184.551 549.047 183.701 548.833 182.891C548.619 182.081 548.549 181.212 548.12 180.494C547.69 179.775 546.714 179.275 546.003 179.718C544.992 179.598 544.888 178.074 545.476 177.242C546.064 176.41 547.03 175.838 547.391 174.885C547.677 174.131 547.524 173.285 547.659 172.49C547.795 171.695 548.472 170.846 549.252 171.049C549.226 172.446 549.388 173.896 550.097 175.101C550.806 176.306 552.163 177.207 553.551 177.041Z" fill="#B5D75C"/>
<path fill-rule="evenodd" clip-rule="evenodd" d="M426.305 174.288C427.417 172.995 428.814 171.888 430.453 171.417C432.092 170.946 433.994 171.194 435.274 172.321C436.667 173.548 437.104 175.597 436.807 177.429C436.511 179.261 435.587 180.925 434.615 182.506C433.354 184.557 431.984 186.542 430.513 188.448C430.054 189.044 429.55 189.658 428.846 189.923C427.917 190.274 426.881 189.933 425.964 189.55C422.744 188.204 419.75 186.315 417.149 183.988C414.767 181.857 412.569 178.733 413.535 175.686C414.15 173.745 416.028 172.341 418.042 172.041C420.056 171.741 422.144 172.451 423.745 173.708C424.512 174.31 425.67 175.026 426.305 174.288M416.131 175.416C414.61 177.508 416.261 180.439 418.177 182.177C420.569 184.344 423.408 185.946 426.221 187.529C426.582 187.732 426.986 187.943 427.391 187.855C427.753 187.777 428.021 187.481 428.259 187.199C430.164 184.941 431.871 182.516 433.353 179.96C434.493 177.994 435.33 175.106 433.493 173.768C432.04 172.709 429.922 173.562 428.69 174.871C427.458 176.181 426.683 177.891 425.336 179.082C424.285 177.425 423.167 175.703 421.462 174.731C419.757 173.758 417.285 173.828 416.131 175.416H416.131Z" fill="#B5D75C"/>
<path fill-rule="evenodd" clip-rule="evenodd" d="M404.521 117.103C408.008 114.384 411.885 112.167 415.996 110.539C418.516 109.541 421.392 108.773 423.883 109.841C427.874 111.554 428.652 117.285 426.552 121.087C424.452 124.888 420.469 127.193 416.677 129.311C409.241 133.464 401.805 137.618 394.37 141.771C395.834 138.848 394.182 135.418 392.829 132.442C389.782 125.74 388.187 118.382 388.186 111.019C388.185 108.694 388.359 106.298 389.379 104.208C390.4 102.118 392.436 100.385 394.761 100.33C398.481 100.242 400.955 104.117 402.21 107.621C403.309 110.689 404.085 113.873 404.521 117.103M420.28 111.774C414.266 112.996 408.663 116.16 404.511 120.679C404.102 121.124 403.307 120.928 402.933 120.452C402.56 119.977 402.488 119.34 402.417 118.74C401.949 114.765 400.909 110.858 399.341 107.176C398.466 105.123 397.002 102.856 394.771 102.82C393.118 102.793 391.679 104.117 391.069 105.654C390.46 107.192 390.511 108.903 390.628 110.552C391.28 119.752 393.701 128.823 397.718 137.125C404.296 133.439 410.874 129.752 417.452 126.066C419.505 124.916 421.594 123.737 423.189 122.009C424.785 120.28 425.835 117.878 425.371 115.571C424.908 113.265 422.586 111.306 420.28 111.774Z" fill="#B5D75C"/>
<path fill-rule="evenodd" clip-rule="evenodd" d="M358.493 572.766C377.692 570.578 397.016 569.477 416.339 569.469C419.884 569.467 422.968 566.713 424.408 563.474C425.848 560.236 425.963 556.582 425.965 553.037C425.972 539.867 424.733 526.732 423.496 513.62C422.994 508.303 422.493 502.985 421.991 497.668C421.686 494.441 421.363 491.143 420.005 488.2C417.647 483.094 412.426 479.774 406.987 478.344C401.548 476.914 395.831 477.11 390.211 477.316C371.551 477.999 352.891 478.682 334.23 479.365C344.987 475.421 356.702 475.236 368.159 475.096C376.942 474.988 385.725 474.881 394.508 474.774C403.485 474.664 413.743 475.115 419.47 482.029C423.17 486.496 423.986 492.613 424.605 498.38C426.552 516.538 427.978 534.752 428.881 552.992C429.181 559.037 428.939 566.14 424.017 569.662C421.264 571.632 417.693 571.927 414.316 572.156C393.752 573.549 373.188 574.942 352.624 576.335C347.796 576.662 342.708 576.941 338.364 574.807C336.855 574.066 335.305 572.389 336.115 570.917C342.8 574.557 350.93 573.628 358.493 572.766V572.766Z" fill="#003B93"/>
<path fill-rule="evenodd" clip-rule="evenodd" d="M277.165 281.484C277.55 282.06 277.638 282.778 277.715 283.466C277.895 285.068 278.075 286.671 278.255 288.273C278.469 290.175 278.513 292.475 276.936 293.56C276.096 294.138 275.012 294.185 273.993 294.213C252.541 294.793 231.09 295.372 209.639 295.952C208.259 295.989 206.662 295.929 205.816 294.838C205.285 294.154 205.203 293.233 205.154 292.368C204.997 289.65 204.954 286.926 205.023 284.206C205.034 283.791 205.058 283.346 205.315 283.021C205.623 282.631 206.166 282.536 206.658 282.469C228.823 279.466 251.286 278.674 273.607 280.106C274.925 280.191 276.431 280.387 277.165 281.484M276.284 291.91C274.105 290.733 276.3 287.283 275.508 284.937C274.827 282.922 272.241 282.445 270.117 282.324C249.891 281.172 229.559 281.891 209.464 284.467C208.724 284.562 207.903 284.704 207.454 285.3C207.01 285.889 207.09 286.706 207.191 287.436C207.348 288.566 207.504 289.696 207.66 290.827C207.784 291.717 207.972 292.716 208.72 293.215C209.263 293.577 209.962 293.573 210.613 293.557C232.503 293.008 254.394 292.459 276.284 291.91Z" fill="#003B93"/>
<path fill-rule="evenodd" clip-rule="evenodd" d="M317.518 319.461C317.62 317.08 317.723 314.7 317.825 312.319C318.024 307.676 318.267 302.86 320.425 298.745C322.583 294.629 327.241 291.431 331.763 292.5C334.592 293.169 337.2 295.393 340.045 294.796C342.522 294.276 344.042 291.827 346.134 290.403C351.123 287.009 358.076 290.162 362.202 294.565C366.648 299.311 369.539 305.491 370.33 311.946C370.397 312.494 370.431 313.109 370.078 313.534C369.787 313.885 369.308 314.007 368.863 314.109C367.145 314.502 365.428 314.896 363.71 315.289C362.248 315.624 360.731 315.96 359.262 315.656C357.793 315.352 356.382 314.219 356.263 312.724C355.825 321.082 362.084 329.066 360.34 337.252C359.691 336.898 359.043 336.543 358.395 336.189C359.924 327.98 352.609 320.033 354.136 311.824C354.338 310.737 354.774 309.58 355.746 309.053C356.717 308.526 358.253 309.125 358.215 310.23C358.154 311.999 360.063 313.321 361.834 313.306C363.604 313.291 365.214 312.341 366.727 311.421C367.266 311.093 367.118 310.283 366.893 309.694C365.22 305.303 363.019 301.113 360.354 297.242C358.553 294.626 356.382 292.04 353.389 290.978C350.396 289.915 346.442 290.999 345.341 293.978C344.051 297.465 339.177 297.7 335.598 296.695C332.019 295.689 328.002 294.12 324.809 296.023C322.138 297.615 321.245 301.007 320.744 304.075C319.886 309.339 319.49 314.678 319.562 320.01C319.707 320.825 320.744 321.087 321.571 321.065C325.924 320.953 329.967 317.519 330.782 313.241C331.956 314.59 332.374 316.418 332.754 318.165C334.068 324.216 335.382 330.267 336.696 336.318C337.101 338.181 336.628 341.044 334.753 340.705C333.903 334.105 332.644 327.559 330.985 321.115C327.85 321.827 324.714 322.54 321.578 323.253C320.616 323.472 319.54 323.674 318.698 323.16C317.536 322.45 317.46 320.822 317.518 319.461Z" fill="#003B93"/>
<path fill-rule="evenodd" clip-rule="evenodd" d="M409.248 483.802C410.848 485.536 408.362 488.737 409.827 490.586C410.588 491.545 410.046 493.067 409.038 493.762C408.031 494.457 406.74 494.55 405.518 494.621C384.511 495.842 363.504 497.063 342.497 498.283C341.069 498.366 339.363 498.318 338.583 497.119C338.242 496.596 338.159 495.951 338.086 495.33C337.894 493.716 337.702 492.102 337.51 490.488C337.45 489.981 337.396 489.438 337.635 488.987C338.027 488.243 339.003 488.082 339.841 488.008C361.919 486.059 384.022 484.411 406.145 483.066C407.244 482.999 408.501 482.993 409.248 483.802M406.837 486.529C406.769 486.131 406.679 485.695 406.36 485.446C406.043 485.198 405.599 485.215 405.197 485.245C385.609 486.673 366.021 488.101 346.433 489.528C344.85 489.644 343.208 489.776 341.825 490.556C340.442 491.336 339.4 492.961 339.815 494.493C339.943 494.968 340.217 495.419 340.638 495.674C341.153 495.986 341.797 495.963 342.399 495.931C363.08 494.809 383.76 493.687 404.441 492.565C406.899 492.432 407.253 488.956 406.837 486.529Z" fill="#003B93"/>
<path fill-rule="evenodd" clip-rule="evenodd" d="M425.822 464.992C429.54 474.776 430.726 485.309 431.881 495.712C434.565 519.881 437.248 544.049 439.932 568.218C437.935 568.382 437.015 565.819 436.766 563.831C432.701 531.312 431.392 498.374 424.517 466.331C424.952 465.885 425.387 465.438 425.822 464.992Z" fill="#003B93"/>
<path fill-rule="evenodd" clip-rule="evenodd" d="M305.883 296.638C305.304 296.391 305.316 295.488 305.759 295.042C306.203 294.596 306.875 294.489 307.499 294.409C312.17 293.816 316.88 293.527 321.588 293.544C321.338 295.554 318.744 296.141 316.722 296.234C313.324 296.391 309.926 296.548 306.528 296.705C306.31 296.715 306.083 296.724 305.883 296.638L305.883 296.638Z" fill="#003B93"/>
<path fill-rule="evenodd" clip-rule="evenodd" d="M332.236 542.42C331.848 535.227 331.46 528.033 331.072 520.84C330.028 501.478 328.951 481.918 323.561 463.292C322.873 460.915 322.087 458.501 320.562 456.55C316.746 451.667 309.682 451.106 303.485 451.106C279.591 451.107 255.698 453.379 232.232 457.882C229.848 458.34 227.369 458.865 225.466 460.373C222.443 462.77 221.646 466.983 221.365 470.831C220.852 477.856 221.36 484.954 222.867 491.834C222.004 491.691 221.142 491.547 220.28 491.403C217.118 484.817 215.677 477.415 216.139 470.124C216.34 466.958 216.922 463.734 218.553 461.013C222.611 454.247 231.542 452.623 239.387 451.783C259.292 449.651 279.271 448.215 299.276 447.479C307.329 447.182 316.427 447.408 321.954 453.272C324.733 456.222 326.141 460.186 327.246 464.085C331.085 477.632 332.144 491.788 333.184 505.829C334.2 519.549 335.216 533.269 336.232 546.989C336.471 550.213 336.707 553.488 336.055 556.655C333.929 566.974 322.939 573.252 312.477 574.5C302.015 575.748 291.483 573.357 280.948 573.181C266.781 572.945 252.53 576.712 238.558 574.359C234.534 573.681 230.255 572.255 228.043 568.826C226.508 566.447 226.231 563.498 225.997 560.677C224.339 540.778 222.682 520.879 221.025 500.979C220.914 499.647 221.905 497.661 222.929 498.521C224.756 517.688 226.583 536.856 228.41 556.024C228.657 558.619 228.926 561.288 230.132 563.599C231.883 566.953 235.416 569.086 239.078 570.036C242.741 570.985 246.58 570.908 250.364 570.859C266.371 570.649 282.386 571.048 298.363 572.053C303.707 572.389 309.107 572.791 314.385 571.894C319.663 570.998 324.9 568.646 328.177 564.411C332.843 558.381 332.647 550.034 332.236 542.42V542.42Z" fill="#003B93"/>
<path fill-rule="evenodd" clip-rule="evenodd" d="M305.072 288.859C306.561 287.696 305.309 285.315 305.602 283.449C306.018 280.808 309.304 279.901 311.959 279.594C329.015 277.623 346.19 276.691 363.359 276.805C364.788 276.814 366.476 276.973 367.196 278.208C368.06 279.69 367.255 282.276 368.89 282.795C369.657 283.039 370.642 282.588 371.223 283.145C372.185 284.066 370.393 285.31 369.067 285.429C348.975 287.232 328.84 288.552 308.685 289.386C307.452 289.437 306.144 289.469 305.072 288.859M365.088 280.538C364.618 279.358 363.048 279.185 361.778 279.205C345.591 279.451 329.413 280.251 313.28 281.603C311.389 281.762 309.157 282.156 308.368 283.882C307.99 284.864 308.712 285.993 309.665 286.439C310.618 286.884 311.72 286.827 312.77 286.76C328.885 285.738 345.001 284.716 361.116 283.693C362.107 283.631 363.141 283.555 363.996 283.049C364.851 282.542 365.455 281.462 365.088 280.538Z" fill="#003B93"/>
<path fill-rule="evenodd" clip-rule="evenodd" d="M386.809 517.013C389.294 518.988 388.231 523.314 390.393 525.638C391.398 526.719 392.904 527.141 394.32 527.555C395.231 527.822 396.358 528.49 396.068 529.394C395.772 530.319 394.424 530.17 393.519 529.815C390.566 528.658 387.236 526.735 387.072 523.567C386.953 521.255 386.266 518.974 385.088 516.98C385.42 516.419 386.298 516.607 386.809 517.013V517.013Z" fill="#003B93"/>
<path fill-rule="evenodd" clip-rule="evenodd" d="M398.562 549.771C397.753 539.347 396.943 528.922 396.134 518.497C396.015 516.965 395.879 515.376 395.12 514.04C394.362 512.703 392.79 511.696 391.305 512.094C384.59 513.896 377.616 514.731 370.665 514.567C364.587 514.423 358.369 513.535 352.522 515.199C352.63 518.094 352.739 520.99 352.848 523.885C352.879 524.731 352.928 525.628 353.409 526.324C354.757 528.275 358.105 526.788 358.865 524.541C359.625 522.295 358.939 519.837 359.069 517.469C359.092 517.05 359.176 516.573 359.533 516.351C360.292 515.879 361.021 517.005 361.215 517.877C361.773 520.375 362.329 522.99 361.671 525.464C361.013 527.938 358.718 530.179 356.18 529.852C353.549 529.513 352.473 533.108 352.409 535.76C352.282 541.051 352.155 546.343 352.028 551.635C351.988 553.301 352.587 555.602 354.243 555.414C358.516 554.93 362.79 554.445 367.064 553.961C368.096 553.843 369.207 553.741 370.116 554.246C371.024 554.751 371.504 556.127 370.76 556.852C365.74 557.292 360.721 557.732 355.701 558.172C354.235 558.3 352.714 558.422 351.331 557.919C349.948 557.417 348.743 556.101 348.869 554.635C350.104 540.239 350.38 525.761 349.695 511.329C349.55 508.259 353.29 506.7 356.311 506.134C365.9 504.336 375.68 503.556 385.433 503.812C388.703 503.898 392.267 504.222 394.638 506.475C397.052 508.768 397.526 512.383 397.859 515.696C399.106 528.114 400.354 540.533 401.601 552.951C401.669 553.621 401.685 554.417 401.149 554.825C400.829 555.068 400.4 555.094 399.999 555.111C395.837 555.284 391.675 555.457 387.512 555.63C385.307 555.722 382.934 555.769 381.097 554.544C379.838 553.704 379.006 552.369 378.274 551.044C376.52 547.864 375.117 544.49 374.102 541.004C372.51 544.99 371.502 549.208 371.12 553.483C369.109 553.701 368.734 550.682 369.202 548.714C370.167 544.652 371.132 540.59 372.097 536.529C372.244 535.91 372.478 535.193 373.085 535.002C373.977 534.722 374.662 535.79 374.988 536.667C376.347 540.32 377.707 543.973 379.066 547.626C380.236 550.77 383.611 552.66 386.943 553.047C390.275 553.434 393.615 552.595 396.865 551.763C397.507 551.599 398.237 551.362 398.487 550.747C398.611 550.442 398.588 550.1 398.562 549.771M353.28 511.602C356.294 511.641 359.309 511.68 362.323 511.719C364.587 511.749 366.852 511.778 369.117 511.735C377.291 511.581 385.448 510.485 393.373 508.474C391.605 506.66 388.769 506.558 386.236 506.603C377.171 506.765 368.112 507.293 359.089 508.183C356.675 508.422 353.674 509.208 353.28 511.602L353.28 511.602Z" fill="#003B93"/>
<path fill-rule="evenodd" clip-rule="evenodd" d="M339.788 503.796C339.616 502.853 340.838 502.339 341.785 502.192C352.721 500.497 363.802 499.748 374.867 499.955C375.025 499.958 375.189 499.962 375.336 500.024C375.855 500.24 375.83 501.058 375.418 501.441C375.006 501.824 374.399 501.888 373.838 501.931C363.302 502.721 352.612 502.315 342.29 504.568C341.332 504.777 339.965 504.761 339.788 503.796L339.788 503.796Z" fill="#003B93"/>
<path fill-rule="evenodd" clip-rule="evenodd" d="M584.344 481.154C584.948 479.73 585.614 478.226 586.896 477.36C587.977 476.629 589.332 476.468 590.63 476.327C594.48 475.909 598.33 475.491 602.18 475.073C604.084 474.866 606.542 474.063 606.469 472.15C606.236 465.969 606.714 458.85 611.624 455.089C616.116 451.647 622.842 452.592 627.45 455.874C632.059 459.157 634.979 464.27 637.497 469.337C638.612 471.581 641.666 471.989 644.135 471.557C646.603 471.125 649.105 470.154 651.54 470.745C655.289 471.655 657.184 475.75 658.472 479.386C664.938 497.636 669.327 516.662 677.369 534.274C680.377 540.861 679.425 549.081 674.991 554.806C674.444 550.26 675.206 545.563 677.162 541.423C678.084 539.472 675.016 538.19 672.858 538.196C650.873 538.252 628.793 538.315 607.051 541.576C606.387 541.676 605.681 541.798 605.186 542.251C604.705 542.692 604.517 543.36 604.351 543.991C603.677 546.551 603.003 549.112 602.329 551.673C601.906 553.277 602.171 555.768 603.822 555.601C625.34 553.422 646.974 552.382 668.602 552.489C670.877 552.5 673.982 553.403 673.687 555.658C650.647 555.93 627.522 556.208 604.731 559.6C601.102 560.14 598.596 555.646 599.007 552C599.419 548.354 601.51 545.084 602.099 541.462C602.607 538.341 601.972 535.157 601.288 532.07C600.201 527.162 598.986 522.282 597.646 517.437C596.338 512.708 594.91 508.014 593.482 503.32C591.323 496.221 589.163 489.121 587.004 482.021C584.034 486.37 582.711 491.815 583.354 497.041C583.802 500.68 585.151 504.136 586.162 507.66C587.607 512.699 588.365 517.904 589.12 523.091C590.606 533.307 592.093 543.523 593.579 553.74C593.798 555.243 593.366 557.458 591.863 557.236C585.181 536.565 587.016 513.711 579.13 493.469C580.868 489.364 582.606 485.259 584.344 481.154M634.111 484.904C636.288 483.693 637.416 480.866 636.669 478.489C635.923 476.111 633.382 474.436 630.902 474.687C624.823 475.303 618.744 475.919 612.665 476.535C612.103 476.592 611.475 476.685 611.138 477.137C610.872 477.494 610.867 477.976 610.892 478.42C611.054 481.198 612.018 483.925 613.638 486.187C614.897 487.945 616.638 490.049 615.655 491.975C614.427 494.381 610.39 493.032 609.389 490.523C608.388 488.014 609.1 485.182 608.914 482.486C608.728 479.791 606.791 476.689 604.126 477.137C599.757 477.873 595.388 478.608 591.018 479.344C590.391 479.449 589.572 479.837 589.756 480.446C595.077 498.057 600.397 515.668 605.718 533.28C606.381 535.475 607.876 538.191 610.108 537.67C630.602 532.884 652.21 537.41 673.019 534.265C666.785 514.719 660.336 495.242 653.671 475.839C653.475 475.267 653.252 474.658 652.763 474.301C652.222 473.905 651.494 473.917 650.825 473.945C647.703 474.077 644.582 474.21 641.461 474.342C640.226 474.394 638.542 474.983 638.813 476.189C639.661 479.97 640.509 483.752 641.358 487.533C641.504 488.183 641.647 488.88 641.404 489.501C640.744 491.191 638.255 490.765 636.595 490.033C635.506 489.553 634.36 489.028 633.687 488.046C633.014 487.065 633.07 485.483 634.111 484.904M626.066 457.47C623.672 455.713 620.524 454.447 617.762 455.535C616.799 455.914 615.963 456.551 615.141 457.18C613.678 458.301 612.17 459.473 611.306 461.101C610.503 462.616 610.337 464.377 610.187 466.086C610.056 467.579 609.925 469.072 609.793 470.565C609.712 471.491 609.679 472.555 610.35 473.198C610.994 473.815 612.005 473.77 612.893 473.686C619.251 473.081 625.609 472.476 631.968 471.871C632.874 471.785 633.981 471.539 634.22 470.66C634.314 470.313 634.238 469.945 634.153 469.596C632.981 464.778 630.064 460.403 626.066 457.47M623.685 473.266C623.045 473.446 623.756 474.647 624.222 474.172C624.817 473.928 624.157 472.81 623.656 473.213L623.685 473.266Z" fill="#B5D75C"/>
<path fill-rule="evenodd" clip-rule="evenodd" d="M422.097 330.331C421.986 329.959 422.207 329.57 422.468 329.282C423.749 327.872 425.894 327.767 427.799 327.762C439.352 327.735 450.905 327.709 462.459 327.682C463.272 327.68 464.143 327.696 464.807 328.165C465.47 328.635 465.73 329.743 465.092 330.248C464.753 330.516 464.285 330.533 463.852 330.538C450.431 330.687 437.009 330.836 423.587 330.985C423.003 330.991 422.264 330.892 422.097 330.331Z" fill="#003B93"/>
<path fill-rule="evenodd" clip-rule="evenodd" d="M426.379 342.258C425.683 341.858 425.779 340.736 426.364 340.186C426.95 339.636 427.803 339.507 428.6 339.411C433.383 338.834 438.192 338.517 442.999 338.201C445.647 338.026 448.295 337.852 450.943 337.678C454.386 337.451 457.829 337.224 461.272 336.997C462.366 336.925 463.587 336.894 464.41 337.617C465.234 338.34 465.033 340.079 463.939 340.147C451.788 340.9 439.636 341.653 427.485 342.405C427.108 342.429 426.706 342.447 426.379 342.258L426.379 342.258Z" fill="#003B93"/>
<path fill-rule="evenodd" clip-rule="evenodd" d="M491.513 357.969C492.432 356.224 493.428 354.394 495.117 353.378C496.806 352.361 499.398 352.571 500.307 354.32C501.275 356.182 499.835 358.426 498.144 359.668C496.453 360.911 494.374 361.787 493.276 363.575C499.213 367.487 505.15 371.399 511.087 375.311C515.737 378.376 520.999 382.752 520.047 388.239C519.489 391.456 516.762 393.957 513.725 395.157C510.689 396.357 507.35 396.482 504.086 396.576C482.151 397.208 460.194 397.097 438.266 396.243C436.745 396.184 435.048 396.042 434.035 394.906C433.249 394.025 433.087 392.77 432.961 391.597C431.698 379.926 430.436 368.255 429.174 356.583C429.128 356.152 429.083 355.702 429.238 355.297C429.887 353.593 432.436 354.643 433.861 355.78C443.956 363.837 460.093 362.891 469.176 353.709C471.371 351.49 475.107 351.777 477.927 353.115C480.746 354.452 483.105 356.628 485.934 357.947C485.632 356.311 487.074 354.586 488.737 354.593C490.4 354.599 491.828 356.336 491.513 357.969M492.755 365.489C492.035 362.84 488.12 362.284 485.96 363.979C483.801 365.674 483.102 368.627 482.914 371.366C482.844 372.387 481.164 372.489 480.589 371.642C480.013 370.795 480.247 369.654 480.566 368.682C481.409 366.114 482.708 363.697 484.383 361.577C485.212 360.527 483.996 359.107 482.902 358.338C479.04 355.622 473.571 352.943 470.028 356.064C460.32 364.614 444.835 365.754 433.98 358.716C434.109 367.477 434.755 376.23 435.912 384.915C436.029 385.79 436.178 386.725 436.783 387.368C437.583 388.219 438.892 388.279 440.06 388.28C458.917 388.304 477.774 388.328 496.631 388.352C498.466 388.355 500.961 387.699 500.818 385.87C500.484 381.613 502.369 377.242 505.694 374.563C503.079 372.663 500.464 370.763 497.849 368.863C497.051 368.284 496.216 367.688 495.244 367.522C492.31 367.019 490.349 370.382 489.312 373.173C487.721 370.33 489.575 366.194 492.755 365.489M443.471 394.559C463.108 394.713 482.746 394.68 502.382 394.46C507.956 394.398 514.465 393.832 517.488 389.147C490.373 390.339 463.218 390.634 436.084 390.031C435.746 393.288 440.197 394.533 443.471 394.559M510.674 377.055C510.089 376.685 509.485 376.307 508.803 376.19C506.747 375.837 505.125 377.89 504.232 379.776C503.716 380.866 503.267 381.988 502.889 383.134C502.601 384.007 502.352 384.935 502.533 385.836C502.714 386.737 503.453 387.589 504.372 387.6C507.711 387.638 511.051 387.602 514.388 387.493C515.176 387.468 516.032 387.412 516.621 386.889C517.315 386.274 517.4 385.214 517.226 384.303C516.597 381.007 513.508 378.851 510.674 377.055M498.878 355.738C498.842 354.721 497.484 354.205 496.545 354.597C495.606 354.99 495.029 355.923 494.514 356.8C493.891 357.861 493.268 358.921 492.645 359.981C492.318 360.537 492.141 361.484 492.77 361.623C494.428 360.245 496.086 358.867 497.744 357.489C498.299 357.027 498.904 356.46 498.878 355.738M488.135 357.396C487.853 358.767 488.556 360.282 489.785 360.952C490.211 359.54 489.962 357.939 489.126 356.724C489.074 356.38 488.608 356.182 488.324 356.382C488.105 356.659 488.027 357.042 488.12 357.382L488.135 357.396Z" fill="#003B93"/>
<path fill-rule="evenodd" clip-rule="evenodd" d="M420.62 316.96C420.121 314.548 419.623 312.135 419.125 309.722C418.931 308.785 418.753 307.744 419.245 306.922C419.915 305.802 421.45 305.653 422.755 305.63C454.807 305.072 486.871 305.194 518.918 305.996C521.104 306.051 522.899 307.939 523.564 310.022C524.229 312.106 524.011 314.355 523.785 316.53C523.663 317.706 523.469 319.016 522.532 319.736C521.764 320.325 520.715 320.34 519.748 320.33C487.559 319.978 455.371 319.627 423.183 319.275C422.653 319.27 422.092 319.255 421.644 318.973C420.988 318.56 420.776 317.719 420.62 316.96M425.047 307.746C422.678 307.729 420.998 310.544 421.59 312.838C422.182 315.132 424.398 316.711 426.701 317.269C429.004 317.827 431.414 317.558 433.773 317.337C462.842 314.62 492.236 319.813 521.284 316.882C521.436 315.115 521.581 313.288 521.012 311.608C520.442 309.928 518.959 308.423 517.186 308.41C486.473 308.189 455.76 307.968 425.047 307.746Z" fill="#003B93"/>
<path fill-rule="evenodd" clip-rule="evenodd" d="M227.348 386.842C226.275 388.875 224.796 390.94 222.578 391.545C218.353 392.698 214.86 388.008 213.707 383.783C211.907 377.188 212.363 370 214.98 363.685C216.38 360.306 215.213 356.312 213.017 353.387C208.877 347.871 201.152 345.456 194.515 347.332C187.878 349.209 182.64 355.113 181.252 361.869C181.034 362.927 181.188 364.413 182.257 364.562C187.592 365.309 190.041 371.57 190.853 376.895C191.473 380.96 191.742 385.22 190.363 389.095C188.984 392.969 185.609 396.373 181.508 396.684C177.828 394.206 175.057 390.408 173.821 386.147C171.522 378.222 174.508 369.821 177.591 362.166C179.473 357.495 181.492 352.712 185.066 349.164C192.706 341.581 206.972 342.481 213.597 350.965C216.146 354.228 217.609 358.282 220.433 361.31C222.562 363.593 225.377 365.191 227.319 367.634C231.538 372.941 230.512 380.846 227.348 386.842M176.158 372.19C174.224 377.522 174.763 383.695 177.592 388.61C178.056 389.418 178.609 390.221 179.421 390.677C180.233 391.134 181.365 391.141 182.007 390.466C183.931 388.443 184.171 385.385 184.165 382.594C184.157 379.292 183.954 375.992 183.556 372.715C183.393 371.373 183.115 369.891 182.03 369.085C180.945 368.279 178.909 368.953 179.079 370.294C179.575 374.194 180.071 378.095 180.566 381.995C180.679 382.882 180.778 383.842 180.334 384.618C179.889 385.394 178.661 385.756 178.098 385.061C176.639 382.084 176.199 378.619 176.868 375.373C177.109 374.205 177.274 372.608 176.158 372.19M220.812 387.658C221.305 387.274 221.535 386.649 221.719 386.051C223.165 381.355 223.181 376.229 221.763 371.524C221.224 369.736 219.763 367.643 217.994 368.243C216.971 368.589 216.453 369.708 216.128 370.737C214.648 375.414 214.845 380.602 216.674 385.154C217.025 386.026 217.458 386.907 218.201 387.484C218.943 388.06 220.071 388.236 220.812 387.658M186.093 370.781C187.382 377.313 187.108 384.148 185.3 390.555C185.134 391.145 185.803 391.605 186.363 391.854C189.075 385.276 189.418 377.751 187.317 370.954C186.968 370.705 186.497 370.638 186.093 370.781M223.717 369.017C223.316 369.656 222.916 370.295 222.515 370.935C223.836 370.711 224.44 372.513 224.51 373.851C224.674 376.942 224.837 380.034 225.001 383.125C226.231 382.664 226.453 381.049 226.476 379.736C226.528 376.778 226.579 373.82 226.631 370.862C226.188 370.81 225.745 370.758 225.302 370.706C225.257 369.869 224.55 369.116 223.717 369.017Z" fill="#003B93"/>
<path fill-rule="evenodd" clip-rule="evenodd" d="M368.719 374.627C359.907 374.207 351.057 374.589 342.313 375.768C341.54 375.872 340.674 375.96 340.052 375.488C339.43 375.016 339.498 373.763 340.274 373.678C349.018 372.717 357.799 372.099 366.592 371.825C367.548 371.796 368.618 371.813 369.3 372.484C369.981 373.156 369.675 374.673 368.719 374.627V374.627Z" fill="#003B93"/>
<path fill-rule="evenodd" clip-rule="evenodd" d="M164.019 339.441C166.521 339.206 169.023 338.971 171.524 338.736C172.785 338.617 174.045 338.499 175.305 338.38C183.321 337.627 191.337 336.874 199.36 336.205C199.675 336.178 200.004 336.154 200.296 336.275C201.165 336.636 201.031 338.039 200.274 338.597C199.518 339.155 198.494 339.123 197.555 339.092C185.739 338.698 173.963 342.249 162.202 341.048C161.438 340.97 160.438 340.577 160.573 339.82C161.717 339.657 162.869 339.549 164.019 339.441Z" fill="#003B93"/>
<path fill-rule="evenodd" clip-rule="evenodd" d="M433.467 599.1C433.074 595.659 432.792 591.915 430.478 589.337C428.702 587.36 429.621 583.684 432.118 582.774C434.615 581.864 437.683 584.086 437.597 586.743C437.567 587.655 437.235 588.525 436.977 589.4C435.212 595.377 436.851 601.807 439.008 607.653C441.193 613.573 444.538 619.875 450.541 621.821C457.485 624.072 465.17 619.09 468.248 612.47C471.327 605.851 470.858 598.165 469.783 590.944C469.675 590.22 469.481 589.383 468.816 589.076C466.115 587.829 465.705 583.447 468.128 581.721C470.551 579.994 474.559 581.813 474.856 584.773C474.956 585.777 474.7 586.778 474.509 587.769C473.182 594.645 474.937 601.854 473.483 608.705C472.572 612.994 470.389 617.005 467.281 620.099C463.986 623.379 459.536 625.641 454.887 625.72C448.627 625.826 442.772 621.944 439.234 616.779C435.696 611.613 434.178 605.321 433.467 599.1Z" fill="#003B93"/>
<path fill-rule="evenodd" clip-rule="evenodd" d="M250.914 316.585C251.088 318.942 251.254 321.37 250.519 323.616C249.785 325.863 247.919 327.909 245.564 328.112C233.425 329.155 221.284 330.199 209.121 330.919C192.537 331.9 175.924 332.279 159.315 332.657C158.722 332.67 158.088 332.672 157.593 332.346C156.851 331.856 156.712 330.843 156.644 329.957C156.464 327.635 156.284 325.313 156.105 322.991C156.05 322.285 156.009 321.522 156.389 320.925C156.947 320.05 158.14 319.9 159.176 319.838C189.724 318.027 220.314 316.943 250.914 316.585M245.803 324.729C247.755 324.599 248.15 321.527 246.719 320.194C245.288 318.86 243.115 318.831 241.159 318.88C216.019 319.504 190.869 320.129 165.778 321.836C163.972 321.959 162.092 322.109 160.53 323.026C158.968 323.942 157.84 325.87 158.437 327.58C159.285 330.009 162.562 330.276 165.129 330.105C192.02 328.313 218.912 326.521 245.803 324.729Z" fill="#003B93"/>
<path fill-rule="evenodd" clip-rule="evenodd" d="M219.7 375.255C219.724 375.894 219.748 376.533 219.772 377.171C219.823 378.5 219.872 379.838 219.68 381.154C218.013 380.978 217.497 378.833 217.399 377.16C217.353 376.364 217.337 375.475 217.871 374.882C218.404 374.289 219.67 374.459 219.7 375.255L219.7 375.255Z" fill="#003B93"/>
<path fill-rule="evenodd" clip-rule="evenodd" d="M339.733 380.698C341.369 379.188 343.856 379.235 346.08 379.298C353.119 379.498 360.179 378.954 367.104 377.678C367.921 377.528 368.36 378.797 367.851 379.453C367.343 380.109 366.423 380.247 365.598 380.331C357.793 381.125 349.955 381.595 342.111 381.74C341.176 381.758 339.991 381.596 339.733 380.698Z" fill="#003B93"/>
<path fill-rule="evenodd" clip-rule="evenodd" d="M602.509 407.087C601.737 409.698 599.173 411.312 596.727 412.508C584.487 418.495 570.098 419.961 556.903 416.565C552.471 415.424 547.421 412.786 547.232 408.213C547.092 404.852 549.775 402.035 552.617 400.233C556.975 397.47 562.057 396.074 567.123 395.09C576.897 393.191 587.492 392.799 596.339 397.366C600.045 399.279 603.691 403.087 602.509 407.087M550.253 407.705C550.261 411.398 554.381 413.56 557.953 414.497C570.358 417.751 583.927 416.347 595.403 410.622C597.245 409.703 599.188 408.492 599.773 406.519C600.559 403.869 598.506 401.199 596.227 399.634C589.37 394.922 580.3 395.566 572.027 396.452C565.369 397.165 558.275 398.096 553.2 402.463C551.632 403.813 550.249 405.636 550.253 407.705L550.253 407.705Z" fill="#003B93"/>
<path fill-rule="evenodd" clip-rule="evenodd" d="M242.372 190.774C241.955 188.4 243.592 186.041 245.702 184.875C247.812 183.709 250.299 183.484 252.705 183.343C274.159 182.08 295.579 185.526 317.041 186.658C319.803 186.804 322.715 186.957 325.039 188.457C327.363 189.958 328.727 193.326 327.119 195.577C326.342 196.666 325.056 197.27 323.781 197.673C320.101 198.836 316.153 198.681 312.298 198.516C292.235 197.653 272.171 196.791 252.108 195.928C248.124 195.757 243.063 194.701 242.372 190.774M245.126 187.334C243.992 188.932 244.941 191.315 246.579 192.39C248.217 193.465 250.281 193.586 252.238 193.674C273.502 194.631 294.765 195.588 316.029 196.545C318.101 196.638 320.395 196.658 321.965 195.303C323.535 193.948 323.328 190.715 321.279 190.389C297.635 186.63 273.641 185.069 249.708 185.732C248.028 185.779 246.099 185.963 245.126 187.334" fill="#003B93"/>
<path fill-rule="evenodd" clip-rule="evenodd" d="M477.636 170.171C480.899 163.371 486.192 156.361 493.712 155.781C498.722 155.395 504.037 156.271 508.002 159.358C515.194 164.956 515.695 175.811 513.125 184.555C510.096 194.861 503.336 204.406 493.64 209.028C491.327 210.131 488.812 210.955 486.252 210.855C479.449 210.588 474.495 203.904 473.03 197.255C471.023 188.143 473.599 178.583 477.636 170.171M486.096 208.365C491.124 209.05 495.863 205.847 499.41 202.218C506.059 195.416 510.523 186.51 511.994 177.112C512.418 174.404 512.593 171.594 511.857 168.954C510.407 163.76 505.485 160.007 500.202 158.928C495.122 157.889 489.54 159.128 485.624 162.527C483.742 164.16 482.28 166.223 481.004 168.363C476.841 175.345 474.475 183.469 474.765 191.593C474.896 195.262 475.591 198.993 477.449 202.16C479.307 205.327 482.457 207.87 486.096 208.365V208.365Z" fill="#B5D75C"/>
<path fill-rule="evenodd" clip-rule="evenodd" d="M312.725 458.788C313.394 458.753 314.111 458.73 314.678 459.087C315.377 459.529 315.633 460.409 315.834 461.212C316.275 462.969 316.719 464.797 316.364 466.574C316.008 468.35 314.607 470.057 312.797 470.136C308.179 470.338 303.562 470.539 298.945 470.741C297.134 470.82 295.013 471.079 294.113 472.652C293.503 473.718 293.685 475.042 293.885 476.254C294.451 479.689 296.051 484.032 299.53 483.905C301.844 483.821 303.907 485.578 304.903 487.668C305.899 489.759 306.048 492.138 306.18 494.45C306.305 496.626 305.749 499.6 303.57 499.655C301.813 499.698 301.328 502.073 301.384 503.83C301.772 516.051 302.16 528.271 302.548 540.491C302.611 542.46 300.088 543.288 298.128 543.486C281.702 545.144 265.106 545.1 248.689 543.356C248.101 543.293 247.349 543.063 247.336 542.471C247.032 528.663 246.728 514.855 246.424 501.047C246.407 500.242 246.012 499.129 245.235 499.341C242.789 500.01 240.329 497.74 239.822 495.255C239.316 492.769 240.185 490.233 241.041 487.845C241.437 486.742 241.881 485.572 242.828 484.88C244.85 483.404 248.587 484.455 249.493 482.121C249.643 481.735 249.672 481.312 249.657 480.899C249.531 477.293 246.173 474.447 242.636 473.734C239.099 473.021 235.453 473.959 232.008 475.033C231.219 472.055 231.017 468.922 231.416 465.866C231.511 465.145 231.657 464.387 232.142 463.845C232.833 463.071 233.984 462.964 235.019 462.909C260.921 461.535 286.823 460.162 312.725 458.788M243.665 486.764C243.167 487.342 243.057 488.149 242.967 488.907C242.733 490.882 242.499 492.858 242.266 494.833C242.216 495.249 242.17 495.688 242.338 496.071C242.696 496.892 243.781 497.034 244.677 497.056C249.432 497.174 254.187 497.292 258.942 497.411C259.744 497.431 260.585 497.442 261.297 497.073C262.442 496.479 262.913 494.866 262.267 493.75C262.848 493.69 263.43 493.631 264.012 493.571C263.756 495.294 265.511 496.737 267.235 496.99C268.958 497.243 270.69 496.717 272.426 496.58C276.067 496.292 279.703 497.72 283.329 497.291C283.711 497.246 284.118 497.167 284.386 496.89C284.735 496.529 284.728 495.964 284.699 495.462C284.562 493.055 284.425 490.647 284.287 488.239C284.244 487.481 284.179 486.666 283.692 486.083C282.996 485.251 281.749 485.225 280.666 485.267C275.431 485.47 270.196 485.672 264.961 485.875C264.596 485.889 264.191 485.92 263.938 486.184C263.654 486.479 263.674 486.944 263.712 487.352C263.888 489.225 264.064 491.099 264.24 492.973C263.545 493.04 262.864 493.243 262.246 493.567C262.091 492.091 261.937 490.615 261.782 489.138C261.641 487.793 261.114 486.068 259.761 486.05C255.44 485.992 251.12 485.935 246.799 485.877C245.676 485.862 244.398 485.913 243.665 486.764M268.558 501.288C268.486 500.294 268.055 498.978 267.064 499.085C260.903 499.747 254.667 499.709 248.515 498.972C248.667 512.378 248.917 525.783 249.264 539.186C249.309 540.911 251.486 541.602 253.203 541.778C258.302 542.3 263.436 542.479 268.559 542.311C268.979 542.297 269.434 542.268 269.754 541.996C270.175 541.638 270.202 541.01 270.196 540.458C270.049 527.388 269.503 514.324 268.558 501.288M299.368 500.549C299.2 500.261 298.816 500.2 298.483 500.172C293.183 499.723 287.855 499.597 282.54 499.795C282.058 499.813 281.543 499.845 281.161 500.14C280.582 500.588 280.546 501.434 280.562 502.167C280.855 515.547 281.148 528.927 281.441 542.308C287.293 542.873 293.251 542.32 298.899 540.688C299.25 540.587 299.623 540.466 299.85 540.18C300.095 539.871 300.111 539.444 300.116 539.05C300.227 530.441 300.005 521.832 299.783 513.226C299.678 509.171 299.573 505.117 299.468 501.062C299.464 500.886 299.457 500.701 299.368 500.549M233.651 466.63C232.635 468.228 233.727 470.483 235.397 471.376C237.067 472.268 239.069 472.182 240.959 472.072C252.396 471.409 263.833 470.746 275.27 470.084C286.178 469.452 297.086 468.82 307.975 467.933C309.57 467.803 311.246 467.64 312.564 466.732C313.882 465.824 314.647 463.906 313.763 462.572C312.877 461.234 310.97 461.173 309.367 461.255C285.602 462.481 261.837 463.707 238.072 464.932C236.43 465.017 234.533 465.243 233.651 466.63M279.365 541.996C278.561 528.934 278.402 515.833 278.888 502.756C278.916 502.005 278.941 501.224 278.641 500.534C277.766 498.521 274.95 498.527 272.781 498.862C271.789 499.016 270.522 499.49 270.597 500.491C271.527 513 272.458 525.529 272.249 538.071C272.221 539.731 273.172 541.372 274.626 542.174C276.08 542.977 277.975 542.905 279.365 541.996M303.91 493.776C303.627 492.05 303.332 490.286 302.49 488.753C301.649 487.22 300.141 485.936 298.395 485.849C295.076 485.683 291.757 485.518 288.439 485.353C287.575 485.31 286.381 485.57 286.423 486.434C286.549 489.06 286.676 491.687 286.802 494.313C286.857 495.459 287.071 496.843 288.133 497.278C288.476 497.418 288.855 497.429 289.225 497.437C293.552 497.536 297.879 497.635 302.206 497.734C303.032 497.753 303.724 497.027 303.95 496.232C304.175 495.438 304.043 494.591 303.91 493.776M282.96 480.834C282.527 479.011 282.076 477.144 281.039 475.583C280.002 474.021 278.243 472.801 276.374 472.939C273.493 473.151 270.612 473.362 267.731 473.574C265.936 473.706 263.903 473.964 262.851 475.425C261.579 477.19 262.452 479.655 262.108 481.804C261.987 482.559 262.577 483.282 263.283 483.576C263.989 483.869 264.783 483.834 265.546 483.795C270.704 483.53 275.861 483.264 281.018 482.999C281.775 482.96 282.684 482.822 282.986 482.126C283.16 481.724 283.062 481.261 282.96 480.834M291.998 477.531C291.017 476.187 291.041 474.196 292.055 472.876C290.247 471.753 287.715 471.961 286.115 473.363C284.514 474.765 283.975 477.248 284.85 479.188C285.158 479.871 284.981 480.682 285.199 481.399C285.507 482.419 286.574 483.06 287.632 483.191C288.689 483.322 289.75 483.044 290.78 482.769C292.13 482.408 293.774 481.686 293.761 480.288C293.75 479.173 292.656 478.432 291.998 477.531M259.769 482.317C260.368 480.358 259.562 478.124 258.024 476.77C256.487 475.417 254.333 474.889 252.292 475.073C251.473 475.146 250.618 475.35 250.024 475.92C249.431 476.491 249.219 477.518 249.753 478.143C250.148 478.606 250.824 478.741 251.238 479.187C251.869 479.867 251.656 480.955 251.945 481.837C252.598 483.829 255.303 484.017 257.39 483.826C258.105 483.761 258.893 483.66 259.364 483.118C259.561 482.89 259.681 482.605 259.769 482.317M260.107 475.726C260.591 475.258 260.679 474.435 260.304 473.875C259.471 473.627 258.539 474.123 258.1 474.874C258.426 475.62 259.342 476.052 260.125 475.827M283.891 473.646C284.013 473.319 283.941 472.928 283.712 472.665C282.921 472.415 282 472.639 281.412 473.225C282.017 473.91 283.117 474.096 283.912 473.645L283.891 473.646Z" fill="#003B93"/>
<path fill-rule="evenodd" clip-rule="evenodd" d="M602.736 418.121C577.381 428.036 552.025 437.951 526.67 447.866C515.763 452.131 503.145 458.532 501.975 470.185C516.792 458.786 535.094 451.983 553.759 450.938C540.864 467.184 524.583 480.729 506.261 490.451C489.807 499.182 468.976 508.494 467.565 527.067C485.235 506.025 512.404 493.286 539.881 493.159C522.302 518.906 494.114 537.169 463.431 542.69C464.484 550.602 465.537 558.514 466.59 566.426C477.015 566.056 487.504 567.548 497.413 570.809C504.47 601.126 511.527 631.442 518.584 661.759C520.32 669.22 521.849 677.792 517.281 683.941C512.749 690.04 504.19 691.09 496.61 691.628C466.737 693.752 436.863 695.876 406.989 697.999C403.413 681.795 399.836 665.591 396.259 649.386C345.869 654.065 295.478 658.744 245.088 663.423C234.476 664.409 223.253 665.292 213.651 660.669C178.822 643.901 136.59 676.357 99.8033 664.483C132.124 663.874 164.345 658.236 194.953 647.835C206.053 644.063 219.344 633.73 213.544 623.542C185.16 643.347 148.74 651.254 114.698 645.001C116.696 611.942 115.411 578.685 110.866 545.878C135.088 542.413 158.96 536.499 181.998 528.256C188.406 525.963 194.999 523.324 199.562 518.274C204.126 513.224 205.971 505.066 201.961 499.566C166.92 518.238 126.462 526.595 86.8913 523.334C88.9561 568.108 91.0209 612.883 93.0858 657.657C87.2367 612.915 84.1348 567.814 83.8033 522.692C104.173 520.886 124.542 519.08 144.911 517.273C141.636 502.734 138.34 487.862 140.023 473.053C141.705 458.244 149.327 443.248 162.724 436.717C152.589 415.1 137.271 395.934 118.42 381.283C96.3214 364.107 67.9094 351.157 57.8178 325.051C51.1453 307.79 54.4182 287.713 63.6573 271.678C72.8965 255.644 87.5367 243.292 103.449 233.844C81.5416 228.213 64.9479 206.375 65.3919 183.76C65.8358 161.145 83.2738 139.975 105.385 135.209C94.9602 122.785 78.5446 117.091 66.5542 106.171C52.5861 93.4503 45.5671 72.93 50.6551 54.7355C55.7431 36.541 73.6573 22.2259 92.5327 23.0325C108.037 23.6951 121.681 33.5013 132.504 44.6233C149.288 61.8722 161.771 83.2757 168.52 106.378C173.018 121.776 189.504 129.609 203.427 137.578C217.35 145.547 231.808 159.428 227.885 174.982C222.699 153.697 205.285 135.856 184.132 130.155C173.11 127.185 169.093 114.069 165.547 103.218C158.648 82.1024 146.87 62.5976 131.396 46.6603C119.766 34.6831 104.562 24.2317 87.8919 25.1315C70.7313 26.0578 55.6037 40.017 51.6804 56.7488C47.7571 73.4805 54.3351 91.8142 66.8566 103.585C79.6105 115.575 97.8564 121.448 108.139 135.614C85.8378 140.146 68.2068 161.608 68.0897 184.364C67.9725 207.121 85.3817 228.763 107.635 233.524C91.9526 242.704 77.2784 254.365 67.603 269.746C57.9276 285.128 53.7801 304.65 59.5693 321.874C72.9595 361.714 128.771 371.223 148.467 408.352C153.801 390.831 145.982 372.41 141.963 354.541C137.944 336.673 140.215 313.727 156.875 306.118C152.006 282.651 147.137 259.185 142.268 235.718C138.64 218.232 136.82 196.078 151.863 186.452C141.264 183.165 131.857 176.163 125.666 166.954C132.352 177.187 145.228 182.993 157.324 181.229C142.039 148.095 125.091 115.727 106.565 84.2901C126.527 114.389 144.193 146.01 159.361 178.787C229.515 176.889 299.777 179.05 369.682 185.257C378.963 186.081 388.952 187.28 395.812 193.585C405.672 202.645 420.475 205.95 433.251 201.943C437.316 212.02 440.307 223.339 436.851 233.641C433.396 243.943 421.156 251.806 411.372 247.08C413.926 260.219 416.48 273.359 419.034 286.498C444.05 286.799 469.063 287.31 494.071 288.031C507.325 288.413 521.178 289.016 532.698 295.582C544.217 302.149 552.346 316.694 547.215 328.921C550.488 318.817 553.76 308.712 557.033 298.608C568.568 316.918 574.234 338.865 573.002 360.47C576.998 354.39 580.994 348.31 584.99 342.23C570.793 319.886 568.986 290.188 580.368 266.287C591.532 284.775 597.82 306.177 598.431 327.765C602.594 288.858 630.16 253.389 666.834 239.748C660.471 254.409 654.109 269.071 647.746 283.732C642.298 296.285 635.378 310.208 622.288 314.196C613.653 316.826 601.15 316.667 599.584 325.557C624.385 319.053 650.783 318.731 675.735 324.628C656.508 347.745 619.455 353.437 594.175 337.157C582.249 350.458 571.916 365.186 563.467 380.927C577.819 363.09 600.154 351.936 623.035 351.178C610.742 365.707 596.876 378.904 581.758 390.465C589.782 391.235 598.458 392.293 604.278 397.87C610.099 403.447 610.244 415.185 602.736 418.121M268.045 271.702C274.695 271.625 282.143 271.862 286.785 276.624C290.327 280.257 291.276 285.616 292.048 290.63C295.579 313.562 298.884 336.528 301.964 359.524C302.737 365.292 297.901 370.615 292.376 372.444C286.851 374.273 280.845 373.47 275.083 372.649C279.887 368.502 287.997 371.474 293.167 367.795C297.804 364.496 297.777 357.721 297.222 352.057C295.14 330.822 292.306 309.66 288.725 288.626C288.092 284.908 287.317 280.952 284.683 278.253C281.176 274.657 275.571 274.418 270.549 274.412C249.932 274.386 229.315 274.361 208.698 274.335C205.145 274.331 201.406 274.373 198.321 276.136C189.444 281.21 192.717 294.611 197.129 303.835C209.631 301.301 222.405 300.112 235.159 300.298C246.458 300.462 260.548 304.131 262.454 315.269C266.64 339.74 270.825 364.21 275.011 388.68C277.206 401.511 278.416 417.099 268.162 425.118C263.039 429.125 256.239 430.08 249.786 430.896C233.92 432.902 218.053 434.908 202.187 436.914C208.795 494.775 215.403 552.637 222.012 610.498C222.749 616.952 224.098 624.371 229.773 627.532C233.13 629.402 237.202 629.249 241.039 629.04C291.594 626.283 342.1 622.632 392.526 618.089C390.509 613.493 390.469 608.069 392.418 603.443C397.526 633.344 402.633 663.245 407.741 693.146C416.683 686.982 415.308 673.602 412.934 663.004C406.923 636.171 400.913 609.338 394.902 582.505C392.469 586.969 390.035 591.433 387.602 595.897C386.407 590.324 389.751 584.557 394.39 581.244C399.028 577.93 404.745 576.571 410.319 575.376C427.455 571.702 444.776 568.896 462.196 566.972C457.134 531.262 452.072 495.553 447.009 459.843C415.887 468.391 382.929 465.701 350.772 462.944C341.248 462.128 329.144 458.922 328.235 449.406C325.952 425.484 323.669 401.562 321.386 377.64C321.088 374.521 319.281 370.321 316.306 371.303C308.996 373.717 304.648 363.302 304.05 355.626C302.173 331.553 300.296 307.479 298.419 283.405C298.173 280.248 298.109 276.604 300.463 274.486C302.112 273.003 304.486 272.731 306.694 272.53C322.446 271.089 338.198 269.649 353.951 268.209C362.946 267.386 373.163 266.961 379.709 273.186C384.329 277.579 385.879 284.241 386.854 290.541C388.651 302.153 389.246 313.95 388.627 325.683C387.378 314.214 386.13 302.745 384.882 291.276C384.32 286.115 383.634 280.643 380.374 276.604C374.81 269.709 364.458 269.825 355.628 270.551C339.854 271.849 324.081 273.147 308.307 274.445C306.183 274.62 303.881 274.871 302.337 276.34C300.328 278.252 300.385 281.416 300.586 284.181C302.276 307.447 303.966 330.712 305.656 353.978C305.975 358.369 306.409 363.063 309.185 366.48C311.961 369.898 317.984 370.971 320.578 367.413C317.025 359.601 321.94 350.035 329.216 345.482C336.492 340.929 345.421 340.128 353.977 339.445C368.732 338.268 383.487 337.091 398.243 335.914C397.232 305.373 393.938 274.909 388.399 244.858C383.295 243.431 378.648 240.414 375.267 236.334C372.736 242.852 365.199 246.995 358.34 245.637C351.481 244.279 346.091 237.577 346.235 230.586C345.421 238.631 338.413 245.609 330.364 246.387C322.316 247.166 314.1 241.66 311.76 233.92C307.906 238.218 302.905 241.922 297.155 242.446C291.406 242.969 285.046 239.338 284.111 233.641C276.56 243.437 259.011 242.443 252.614 231.857C246.035 242.715 227.304 242.448 221.037 231.407C218.223 241.615 202.513 242.431 194.973 234.998C187.432 227.565 185.964 216.115 184.915 205.579C172.468 217.572 170.222 236.838 172.585 253.96C174.947 271.083 181.103 287.577 182.597 304.797C186.007 305.654 189.747 305.113 192.774 303.324C189.504 293.443 187.354 280.168 196.23 274.733C199.79 272.553 204.196 272.442 208.37 272.393C228.262 272.163 248.153 271.933 268.045 271.702M465.097 437.988C491.19 436.692 518.107 440.093 542.904 431.87C546.741 430.597 550.672 428.92 553.144 425.721C546.81 422.81 540.083 417.791 540.238 410.821C540.34 406.244 543.512 402.288 547.085 399.426C550.836 396.421 555.203 394.19 559.836 392.911C560.211 391.764 558.195 391.516 557.196 392.193C556.198 392.871 554.682 393.709 554.018 392.702C553.839 392.431 553.803 392.094 553.771 391.772C551.282 366.444 547.594 341.235 542.723 316.255C541.259 308.745 539.083 300.379 532.463 296.541C528.889 294.468 524.605 294.12 520.483 293.835C489.455 291.688 458.369 290.374 427.27 289.892C419.921 289.779 411.699 290.052 406.546 295.294C402.638 299.271 401.518 305.177 401.104 310.738C399.823 327.956 403.51 345.096 405.909 362.194C408.782 382.677 409.816 403.366 411.712 423.962C411.964 426.703 412.27 429.559 413.752 431.878C416.294 435.853 421.454 437.1 426.127 437.755C433.03 438.723 440.011 439.132 446.98 438.978C453.027 438.844 459.056 438.288 465.097 437.988M250.954 305.128C242.121 301.245 232.004 302.285 222.419 303.398C207.921 305.081 193.423 306.764 178.925 308.447C171.957 309.256 164.982 310.066 158.088 311.366C156.426 311.68 154.759 312.025 153.191 312.658C147.046 315.142 143.383 321.767 142.531 328.34C141.678 334.912 143.139 341.538 144.54 348.016C148.892 368.148 152.752 388.468 153.799 409.039C154.006 413.111 154.11 417.237 155.23 421.158C156.349 425.079 158.634 428.851 162.208 430.815C164.956 432.326 168.186 432.639 171.316 432.845C200.004 434.73 228.677 430.104 257.055 425.493C261.093 424.837 265.341 424.088 268.488 421.476C273.349 417.441 274.076 410.342 274.041 404.024C273.976 392.357 272.564 380.698 269.84 369.352C266.655 356.083 261.653 343.03 261.521 329.385C261.462 323.366 262.252 316.881 259.112 311.746C257.257 308.712 254.21 306.559 250.954 305.128M114.44 557.802C118.296 585.512 119.592 613.577 118.305 641.524C118.237 642.998 120.027 643.748 121.476 644.025C140.027 647.571 159.133 643.027 177.135 637.311C187.368 634.062 197.609 630.359 206.46 624.28C210.508 621.499 214.605 617.309 213.848 612.456C208.984 581.278 206.309 549.76 205.849 518.208C189.469 531.007 168.683 536.438 148.538 541.563C138.989 543.992 129.312 546.437 119.46 546.355C117.078 546.335 115.101 548.427 114.435 550.714C113.77 553.001 114.112 555.443 114.44 557.802M490.946 571.809C460.263 568.821 428.964 572.33 399.705 582.037C401.461 595.402 403.862 608.681 406.895 621.815C408.109 627.074 409.425 632.309 410.741 637.544C413.303 647.739 415.865 657.933 418.427 668.128C418.784 669.547 419.231 671.098 420.454 671.9C421.545 672.617 422.958 672.535 424.26 672.427C454.556 669.9 484.836 667.163 515.095 664.215C508.48 634.728 501.865 605.241 495.25 575.755C494.996 574.622 494.69 573.401 493.789 572.669C493.008 572.036 491.946 571.907 490.946 571.809M445.717 442.369C439.04 442.709 432.264 443.041 425.745 441.56C419.226 440.079 412.882 436.526 409.534 430.739C407.613 432.951 403.793 433.117 401.687 431.08C399.581 429.043 399.619 425.22 401.765 423.225C393.284 423.302 384.803 423.378 376.321 423.455C380.197 425.738 379.879 432.47 375.872 434.515C371.865 436.56 366.319 433.106 366.226 428.608C366.185 426.59 367.423 424.323 369.434 424.142C368.6 422.713 366.435 423.559 364.788 423.403C362.306 423.168 360.95 420.464 360.079 418.128C356.548 408.654 353.335 399.065 350.123 389.479C352.373 393.16 357.438 394.816 361.428 393.175C362.837 392.595 362.88 390.568 362.28 389.167C361.232 386.721 358.844 384.835 356.191 384.627C353.538 384.419 350.777 386.04 349.88 388.545C348.55 387.551 349.117 385.252 350.512 384.351C351.907 383.451 353.694 383.53 355.351 383.63C370.994 384.575 386.695 384.56 402.336 383.585C403.048 383.541 403.833 383.461 404.318 382.939C404.867 382.348 404.814 381.436 404.727 380.634C404.129 375.132 403.531 369.63 402.933 364.128C402.867 363.518 402.773 362.851 402.317 362.44C401.815 361.987 401.058 362.008 400.384 362.056C380.777 363.453 361.221 365.564 341.768 368.382C339.697 368.682 337.771 366.944 337.118 364.956C336.464 362.969 336.766 360.809 337.075 358.739C337.183 358.013 337.321 357.227 337.859 356.727C338.354 356.267 339.072 356.159 339.743 356.073C359.982 353.49 380.353 351.94 400.75 351.431C400.255 353.446 397.627 353.88 395.552 353.917C376.622 354.253 357.713 355.771 338.971 358.458C337.475 361.017 339.526 364.464 342.288 365.54C345.051 366.616 348.145 366.041 351.059 365.493C367.116 362.471 383.407 360.69 399.739 360.171C402.07 360.097 402.349 356.742 401.859 354.461C400.721 349.164 399.583 343.867 398.445 338.571C387.135 340.712 375.582 341.567 364.081 341.113C357.275 340.844 350.506 342.033 343.798 343.218C338.098 344.225 332.023 345.418 327.904 349.485C323.089 354.238 322.226 361.671 322.518 368.431C322.998 379.521 325.812 390.369 327.201 401.382C328.899 414.839 328.462 428.479 329.765 441.979C330.116 445.616 330.617 449.321 332.248 452.591C333.878 455.861 336.843 458.668 340.457 459.207C370.154 463.635 400.434 464.138 430.263 460.699C433.018 460.381 435.798 460.023 438.399 459.061C442.504 457.542 446.024 454.497 448.119 450.654C448.959 449.111 449.587 447.347 449.28 445.617C448.974 443.887 447.471 442.28 445.717 442.369M208.297 518.235C211.404 552.428 214.512 586.621 217.62 620.814C218.179 626.96 218.717 633.309 216.796 639.173C214.875 645.038 209.822 650.339 203.654 650.541C207.275 655.837 213.524 658.866 219.844 659.975C226.163 661.084 232.643 660.497 239.031 659.907C291.673 655.043 344.314 650.179 396.955 645.316C395.825 638.737 394.695 632.159 393.565 625.581C393.312 624.105 392.587 622.232 391.093 622.344C354.899 625.041 318.705 627.738 282.511 630.435C267.649 631.543 252.713 632.651 237.859 631.436C230.342 630.821 221.059 627.834 220.318 620.329C214.384 560.282 207.515 500.327 199.713 440.494C199.593 439.574 199.444 438.59 198.814 437.907C197.974 436.996 196.584 436.927 195.345 436.921C187.944 436.883 180.543 436.845 173.142 436.807C175.303 449.069 178.109 461.217 181.544 473.185C182.179 475.397 183.235 477.979 185.501 478.377C193.639 479.806 200.062 486.5 203.41 494.054C206.758 501.608 207.549 510.007 208.297 518.235M179.861 305.398C173.508 273.178 168.134 240.766 163.746 208.22C163.498 206.379 163.258 204.471 163.8 202.694C164.916 199.032 168.921 197.114 172.646 196.23C179.928 194.503 187.533 195.079 194.997 195.629C263.237 200.661 331.7 202.674 400.118 201.662C397.397 196.142 391.924 192.378 386.104 190.382C380.283 188.386 374.063 187.942 367.924 187.518C307.698 183.356 247.381 179.456 187.015 180.183C179.63 180.272 172.158 180.442 165.027 182.365C157.896 184.288 151.034 188.161 146.92 194.295C140.437 203.961 142.005 216.73 144.012 228.194C148.711 255.042 154.428 281.712 161.146 308.126C167.385 307.217 173.623 306.308 179.861 305.398M326.795 242.425C330.056 242.459 333.445 242.276 336.331 240.757C341.413 238.082 343.669 231.918 344.005 226.185C344.341 220.451 343.209 214.705 343.573 208.973C343.657 207.667 344.386 205.935 345.654 206.263C346.572 212.862 347.489 219.46 348.407 226.058C348.914 229.701 349.441 233.412 351.037 236.726C352.633 240.039 355.502 242.952 359.114 243.646C361.189 244.044 363.355 243.687 365.332 242.944C370.066 241.164 374.033 236.634 373.853 231.58C373.605 224.602 373.356 217.623 373.108 210.645C373.01 207.885 371.983 204.206 369.225 204.351C350.832 205.314 332.385 205.229 314.003 204.096C312.663 204.013 312.309 205.912 312.451 207.248C313.187 214.169 313.922 221.091 314.658 228.012C315.214 233.238 316.4 239.38 321.195 241.531C322.932 242.31 324.89 242.405 326.795 242.425M421.126 676.745C420.245 677.362 419.663 678.312 419.127 679.245C416.337 684.101 414.096 689.271 412.458 694.626C444.653 692.377 476.822 689.763 508.958 686.786C510.166 686.674 511.476 686.516 512.343 685.667C512.905 685.116 513.194 684.351 513.466 683.612C514.669 680.344 515.871 677.077 517.074 673.809C517.66 672.219 518.18 670.241 517.035 668.991C516.084 667.953 514.467 667.986 513.064 668.098C483.682 670.452 454.315 672.987 424.965 675.702C423.629 675.826 422.225 675.974 421.126 676.745M477.879 478.39C477.009 468.232 475.235 456.832 466.946 450.898C463.711 459.805 460.446 468.847 459.706 478.295C458.966 487.743 461.054 497.812 467.391 504.858C468.282 505.848 469.272 506.809 469.744 508.054C470.216 509.299 469.977 510.943 468.821 511.604C460.206 504.108 456.641 492.087 456.842 480.67C457.044 469.254 460.543 458.184 464.01 447.305C464.772 444.915 462.593 442.4 460.147 441.843C457.701 441.286 455.175 442.103 452.8 442.911C452.338 443.068 452.134 443.596 451.988 444.062C450.345 449.295 448.688 454.844 449.96 460.179C455.441 483.168 454.733 507.295 460.312 530.26C460.518 531.108 460.741 531.974 461.235 532.693C464.935 525.458 468.635 518.224 472.335 510.989C474.074 507.59 475.822 504.166 476.908 500.505C479.018 493.387 478.513 485.787 477.879 478.39M608.768 311.524C609.483 312.114 610.442 312.3 611.363 312.403C621.826 313.573 631.7 306.451 637.494 297.66C643.288 288.87 646.025 278.484 649.824 268.665C653.389 259.449 657.948 250.619 663.398 242.376C652.487 252.614 639.055 259.783 627.666 269.487C616.277 279.191 606.585 292.801 607.388 307.741C607.463 309.122 607.701 310.644 608.768 311.524M189.716 212.517C191.203 219.037 190.588 226.282 194.2 231.91C197.702 237.365 205.089 239.965 211.236 237.906C217.383 235.847 221.713 229.321 221.221 222.857C221.109 221.388 220.778 219.946 220.447 218.51C219.152 212.885 217.857 207.26 216.562 201.635C216.433 201.075 216.289 200.486 215.892 200.071C215.323 199.476 214.412 199.407 213.589 199.375C205.677 199.073 197.765 198.77 189.852 198.467C189.091 198.438 188.256 198.432 187.664 198.911C186.915 199.519 186.872 200.634 186.97 201.593C187.349 205.333 188.88 208.851 189.716 212.517M403.897 218.598C404.086 227.604 409.953 235.435 416.141 241.981C416.745 242.62 417.365 243.262 418.12 243.714C419.341 244.444 420.827 244.616 422.244 244.495C427.024 244.084 431.113 240.469 433.131 236.116C435.148 231.763 435.376 226.784 434.941 222.006C434.507 217.228 433.449 212.522 433.023 207.744C432.937 206.785 432.585 205.534 431.623 205.538C423.164 205.57 414.705 205.602 406.246 205.635C405.164 205.639 404.017 205.661 403.103 206.24C402.189 206.819 401.679 208.172 402.357 209.015C404.428 211.592 403.827 215.293 403.897 218.598M532.533 497.173C509.357 496.765 488.111 510.504 471.901 527.072C469.169 529.865 466.501 532.795 464.682 536.253C464.36 536.865 464.106 537.717 464.634 538.164C464.914 538.402 465.316 538.416 465.684 538.415C479.167 538.367 492.134 532.672 503.089 524.811C514.044 516.95 523.274 506.974 532.533 497.173M245.761 236.271C249.072 234.365 251.203 230.57 251.106 226.751C251.057 224.814 250.485 222.935 250.025 221.053C248.84 216.21 248.38 211.191 248.663 206.214C248.724 205.154 248.814 204.065 248.496 203.052C248.177 202.039 247.332 201.108 246.271 201.05C237.514 200.572 228.756 200.093 219.998 199.615C219.683 199.598 219.339 199.589 219.085 199.775C218.69 200.065 218.713 200.651 218.786 201.134C219.863 208.261 223.312 214.974 223.533 222.179C223.615 224.829 223.26 227.546 224.003 230.092C224.953 233.353 227.669 235.927 230.82 237.195C233.97 238.464 237.505 238.536 240.848 237.933C242.558 237.625 244.255 237.137 245.761 236.271M596.196 333.84C602.539 335.629 608.147 339.37 614.3 341.73C627.941 346.962 644.178 344.778 655.951 336.127C661.007 332.412 666.062 328.697 671.117 324.982C664.955 326.441 658.58 326.999 652.259 326.635C641.695 326.026 631.263 322.862 620.712 323.655C611.736 324.329 603.007 327.955 596.196 333.84M415.073 285.03C413.826 278.124 412.58 271.218 411.333 264.312C409.662 255.056 407.991 245.801 406.32 236.545C406.202 235.888 406.058 235.184 405.572 234.727C405.085 234.27 404.136 234.269 403.871 234.881C402.202 238.733 398.785 241.786 394.771 243.013C392.335 243.757 392.127 247.08 392.41 249.611C394.407 267.469 396.772 285.285 399.501 303.046C400.295 295.782 406.52 289.474 413.773 288.583C415.184 288.41 415.326 286.429 415.073 285.03M281.818 228.859C281.043 221.414 280.066 213.99 278.887 206.598C278.644 205.074 277.995 203.174 276.453 203.106C268.482 202.756 260.51 202.407 252.539 202.057C252.255 202.045 251.955 202.035 251.703 202.169C251.06 202.51 251.165 203.448 251.355 204.151C253.193 210.977 254.169 218.034 254.251 225.102C254.271 226.841 254.251 228.647 254.979 230.227C256.051 232.552 258.49 233.886 260.808 234.972C264.847 236.864 269.264 238.528 273.672 237.841C278.08 237.154 282.28 233.296 281.818 228.859M285.265 228.901C286.069 232.796 287.543 237.327 291.359 238.447C294.58 239.392 298.062 239.653 301.293 238.742C304.523 237.831 307.469 235.662 308.915 232.633C309.944 230.477 310.176 228.036 310.31 225.651C310.677 219.117 310.425 212.547 309.557 206.06C309.51 205.713 309.459 205.356 309.283 205.052C308.818 204.247 307.722 204.134 306.792 204.114C298.675 203.937 290.558 203.76 282.441 203.583C281.778 203.569 280.852 204.258 281.413 204.612C282.321 212.762 283.607 220.87 285.265 228.901M558.01 309.515C551.669 323.851 549.802 340.127 552.731 355.526C553.901 361.678 556.202 368.206 561.527 371.501C563.094 372.471 565.706 372.757 566.286 371.008C573.022 350.685 569.879 327.333 558.01 309.515M147.017 489.504C149.707 491.35 152.739 492.695 155.912 493.451C159.923 494.407 164.087 494.418 168.208 494.517C177.839 494.749 187.457 495.487 197.01 496.727C198.342 496.899 199.444 495.457 199.409 494.114C199.374 492.77 198.556 491.584 197.709 490.54C192.614 484.264 185.174 479.938 177.199 478.615C171.549 477.678 165.773 478.203 160.048 478.039C154.324 477.874 148.349 476.905 143.784 473.447C143.542 476.735 143.523 480.04 143.726 483.331C143.808 484.663 143.943 486.044 144.622 487.193C145.191 488.156 146.095 488.871 147.017 489.504M378.709 234.084C379.607 235.714 381.05 236.971 382.528 238.103C384.129 239.33 385.859 240.479 387.826 240.929C392.668 242.038 397.62 238.45 399.661 233.921C401.702 229.391 401.495 224.199 401.023 219.254C400.665 215.515 400.179 211.788 399.564 208.082C399.462 207.465 399.343 206.819 398.955 206.327C398.273 205.465 397.026 205.365 395.927 205.336C390.024 205.179 384.12 205.022 378.216 204.865C376.909 204.831 375.053 205.456 375.441 206.704C377.178 212.294 377.936 218.187 377.669 224.034C377.513 227.447 377.06 231.092 378.709 234.084M587.638 337.869C593.906 327.754 595.782 315.018 592.697 303.526C589.97 293.365 583.631 284.363 581.621 274.036C576.937 288.25 572.22 303.551 576.457 317.904C578.629 325.26 583.016 331.748 587.638 337.869M483.8 497.005C502.441 492.203 519.649 481.967 532.765 467.876C536.689 463.66 540.706 459.531 544.813 455.492C534.753 456.871 524.932 459.982 515.914 464.647C502.155 471.764 490.082 482.846 483.799 497.005M597.376 373.268C604.232 366.825 611.088 360.381 617.945 353.937C594.758 356.893 573.104 370.291 560.111 389.721C563.46 392.301 568.265 390.782 572.171 389.166C577.605 386.919 583.085 384.647 587.922 381.305C591.328 378.951 594.359 376.104 597.376 373.268M146.425 514.096C146.482 514.691 146.553 515.321 146.913 515.798C147.703 516.843 149.312 516.586 150.568 516.219C164.956 512.015 179.143 507.119 193.061 501.555C194.065 501.154 195.235 500.519 195.255 499.439C184.578 498.698 173.9 497.958 163.222 497.217C160.61 497.036 157.988 496.853 155.428 496.307C151.576 495.485 147.904 493.834 144.733 491.499C144.965 499.05 145.695 506.576 146.425 514.096M483.733 441.849C482.871 442.471 482.523 443.569 482.227 444.589C481.21 448.092 480.189 451.808 481.133 455.331C481.614 457.126 482.579 458.747 483.533 460.342C486.172 464.754 488.812 469.165 491.451 473.577C491.697 473.987 491.963 474.418 492.387 474.641C493.647 475.302 494.891 473.748 495.476 472.45C499.275 464.025 503.159 455.116 502.298 445.915C502.165 444.5 501.781 442.894 500.517 442.246C499.936 441.948 499.262 441.91 498.61 441.877C494.697 441.683 490.784 441.489 486.872 441.294C485.789 441.241 484.611 441.213 483.733 441.849M543.537 410.658C543.437 416.588 548.61 421.546 554.284 423.272C559.958 424.998 566.047 424.255 571.944 423.622C582.312 422.509 593.278 421.591 601.802 415.583C603.693 414.25 605.481 412.605 606.325 410.451C607.643 407.09 606.318 403.122 603.841 400.496C601.363 397.87 597.929 396.369 594.491 395.268C582.205 391.335 568.565 391.789 556.568 396.528C550.239 399.028 543.652 403.854 543.537 410.658M145.448 471.231C146.565 472.273 148.829 472.539 149.264 471.075C150.756 466.059 154.111 461.758 158.062 458.326C162.014 454.894 166.569 452.244 171.095 449.615C172.316 448.906 172.239 447.147 172.003 445.755C171.546 443.059 171.089 440.363 170.632 437.667C170.516 436.984 170.288 436.17 169.619 435.987C169.072 435.838 168.532 436.207 168.085 436.556C164.838 439.092 161.592 441.627 158.345 444.162C151.84 449.242 144.869 455.07 143.458 463.202C142.967 466.035 143.346 469.27 145.448 471.231M170.773 453.083C163.482 457.636 155.764 462.677 152.451 470.609C152.244 471.103 152.054 471.622 152.07 472.157C152.102 473.212 152.953 474.102 153.928 474.507C154.902 474.913 155.988 474.931 157.044 474.943C163.286 475.017 169.528 475.09 175.769 475.164C176.073 475.167 176.402 475.163 176.642 474.976C177.02 474.681 176.982 474.107 176.907 473.633C175.911 467.341 174.915 461.049 173.92 454.756C173.778 453.861 173.489 452.791 172.616 452.547C171.98 452.369 171.333 452.733 170.773 453.083M480.879 442.235C476.283 441.05 471.326 441.308 466.879 442.965C467.74 445.791 469.266 448.413 471.299 450.556C478.151 457.78 480.177 468.268 480.955 478.194C481.37 483.495 481.516 488.818 481.393 494.135C484.403 489.492 487.412 484.849 490.422 480.206C490.721 479.745 491.03 479.256 491.062 478.707C491.095 478.157 490.846 477.634 490.593 477.145C487.623 471.41 483.259 466.465 480.503 460.624C477.748 454.783 476.903 447.325 480.879 442.235M172.982 199.203C170.447 199.606 167.556 200.25 166.352 202.516C165.52 204.083 165.766 205.979 166.033 207.733C167.135 214.957 168.236 222.182 169.338 229.406C174.976 219.268 180.255 208.936 185.532 198.607C184.555 197.502 182.824 197.642 181.368 197.873C178.573 198.317 175.777 198.76 172.982 199.203M519.981 444.496C520.762 445.531 522.799 444.385 522.32 443.18C529.849 445.342 538.057 443.803 545.169 440.519C552.281 437.234 558.49 432.313 564.601 427.412C562.035 427.053 559.468 426.695 556.902 426.336C556.378 426.263 555.699 426.273 555.499 426.762C554.117 430.145 551.142 432.679 547.857 434.279C544.571 435.879 540.956 436.654 537.382 437.416C534.902 437.944 532.421 438.473 529.941 439.001C526.099 439.819 521.767 440.998 519.981 444.496M383.766 392.11C384.248 391.988 384.766 391.843 385.074 391.452C385.553 390.847 385.313 389.976 385.188 389.214C385.063 388.452 385.255 387.438 386.016 387.306C386.709 387.444 387.029 388.266 387.046 388.973C387.063 389.68 386.907 390.417 387.163 391.076C387.732 392.544 389.758 392.602 391.319 392.403C392.243 392.285 393.167 392.167 394.091 392.05C394.38 392.013 394.689 391.967 394.905 391.77C395.588 391.144 394.637 390.122 394.425 389.22C394.262 388.522 394.588 387.768 394.374 387.085C394.01 385.921 392.462 385.742 391.242 385.783C381.917 386.092 372.592 386.402 363.266 386.711C363.426 388.476 363.909 390.211 364.684 391.804C364.85 392.148 365.047 392.502 365.378 392.692C365.715 392.885 366.126 392.872 366.513 392.854C368.831 392.747 371.149 392.639 373.467 392.531C373.665 392.522 373.872 392.51 374.037 392.401C374.46 392.121 374.313 391.476 374.119 391.008C373.784 390.201 373.449 389.395 373.115 388.589C372.823 387.887 374.093 387.472 374.628 388.011C375.162 388.551 375.182 389.397 375.434 390.113C375.957 391.6 377.538 392.507 379.102 392.698C380.667 392.889 382.238 392.498 383.766 392.11M519.199 441.476C519.707 440.935 518.586 440.37 517.85 440.46C513.65 440.975 509.451 441.49 505.252 442.005C504.691 442.074 503.949 442.382 504.083 442.931C505.462 448.581 504.945 454.678 502.632 460.014C502.192 461.031 501.903 462.583 502.957 462.924C507.336 455.064 512.82 447.821 519.199 441.476M376.121 396.372C375.989 395.915 375.841 395.436 375.494 395.113C375.099 394.745 374.529 394.652 373.993 394.593C371.242 394.292 368.438 394.481 365.751 395.148C366.592 397.874 367.432 400.599 368.272 403.325C368.432 403.841 368.646 404.421 369.147 404.623C369.404 404.727 369.691 404.709 369.967 404.69C372.683 404.499 375.4 404.309 378.116 404.118C377.526 401.517 376.861 398.934 376.121 396.372M358.435 405.902C358.737 406.067 359.106 406.017 359.445 405.961C361.905 405.56 364.364 405.16 366.823 404.759C365.936 401.915 365.048 399.071 364.161 396.227C364.031 395.81 363.869 395.352 363.484 395.144C363.18 394.98 362.811 395.015 362.467 395.055C360.275 395.31 358.082 395.565 355.889 395.82C355.477 395.868 354.989 395.971 354.836 396.357C354.732 396.619 354.83 396.913 354.928 397.177C355.894 399.784 356.86 402.391 357.826 404.998C357.955 405.346 358.108 405.724 358.435 405.902M386.066 394.541C385.546 394.089 384.776 394.12 384.09 394.177C381.924 394.355 379.758 394.533 377.592 394.711C378.24 397.486 379.055 400.223 380.032 402.9C380.16 403.251 380.305 403.621 380.603 403.846C380.975 404.127 381.485 404.111 381.951 404.083C383.429 403.994 384.908 403.905 386.386 403.816C387.067 403.775 387.895 403.629 388.124 402.987C388.233 402.678 388.162 402.337 388.091 402.017C387.641 400.014 387.191 398.011 386.742 396.009C386.621 395.474 386.48 394.901 386.066 394.541M373.145 414.48C372.931 414.514 372.703 414.554 372.547 414.705C372.243 414.998 372.382 415.502 372.542 415.893C373.111 417.285 373.68 418.678 374.249 420.07C374.46 420.587 374.698 421.136 375.169 421.435C375.605 421.711 376.153 421.717 376.668 421.714C378.634 421.702 380.599 421.69 382.564 421.679C382.852 421.677 383.164 421.667 383.386 421.483C383.788 421.151 383.638 420.513 383.453 420.026C382.697 418.033 381.941 416.04 381.185 414.047C380.942 413.407 380.052 413.398 379.376 413.504C377.299 413.829 375.222 414.155 373.145 414.48M389.68 394.147C389.267 394.148 388.803 394.171 388.524 394.477C388.188 394.845 388.295 395.421 388.422 395.903C388.981 398.015 389.54 400.128 390.098 402.24C390.197 402.611 390.311 403.008 390.609 403.251C391.005 403.574 391.577 403.513 392.082 403.436C393.945 403.152 395.808 402.867 397.671 402.583C397.471 400.42 397.128 398.272 396.644 396.155C396.493 395.493 396.284 394.771 395.711 394.407C395.282 394.135 394.742 394.128 394.234 394.13C392.716 394.136 391.198 394.141 389.68 394.147M393.472 421.43C392.869 419.238 392.265 417.045 391.661 414.852C391.431 414.015 391.104 413.066 390.294 412.75C389.895 412.595 389.451 412.629 389.025 412.666C387.037 412.839 385.048 413.012 383.06 413.185C383.584 415.149 384.205 417.087 384.919 418.99C385.279 419.948 385.824 421.034 386.834 421.197C389.026 421.552 391.262 421.63 393.472 421.43M396.933 421.278C398.735 421.425 400.713 421.525 402.17 420.454C401.538 417.998 400.907 415.542 400.275 413.086C400.133 412.533 399.943 411.917 399.436 411.654C399.064 411.46 398.617 411.513 398.202 411.571C396.416 411.82 394.631 412.068 392.845 412.317C393.27 414.917 393.99 417.468 394.988 419.906C395.141 420.281 395.314 420.669 395.634 420.915C395.996 421.194 396.479 421.241 396.933 421.278M557.521 386.314C558.897 383.489 560.274 380.664 561.65 377.839C561.795 377.542 561.943 377.221 561.891 376.895C561.839 376.578 561.608 376.324 561.387 376.09C559.428 374.019 557.469 371.947 555.509 369.875C554.695 370.987 554.789 372.498 554.919 373.871C555.345 378.374 555.772 382.878 556.198 387.382C556.798 387.515 557.252 386.866 557.521 386.314M398.913 393.82C398.656 393.802 398.363 393.797 398.183 393.982C397.982 394.19 398.026 394.525 398.085 394.808C398.473 396.678 398.86 398.548 399.248 400.418C399.392 401.111 399.562 401.852 400.085 402.329C401.777 403.873 405.037 401.218 406.61 402.883C406.887 400.227 406.688 397.523 406.026 394.937C405.979 394.755 405.924 394.563 405.785 394.438C405.624 394.293 405.39 394.271 405.174 394.256C403.087 394.111 401 393.966 398.913 393.82M359.981 407.689C359.755 407.72 359.52 407.754 359.334 407.886C358.923 408.178 358.939 408.784 358.998 409.285C359.155 410.623 359.329 412.007 360.028 413.157C360.728 414.308 362.11 415.16 363.411 414.812C365.274 414.312 367.138 413.812 369.002 413.312C368.921 411.531 368.56 409.763 367.937 408.092C367.782 407.675 367.586 407.236 367.203 407.01C366.805 406.776 366.308 406.831 365.85 406.893C363.894 407.158 361.937 407.424 359.981 407.689M403.449 392.06C404.01 391.975 404.608 391.873 405.025 391.488C406.266 390.341 404.847 388.01 405.853 386.653C406.246 386.123 405.284 385.648 404.625 385.676C401.681 385.8 398.737 385.925 395.793 386.049C395.907 387.267 396.119 388.476 396.425 389.66C396.767 390.98 398.054 391.883 399.386 392.176C400.717 392.468 402.101 392.265 403.449 392.06M379.655 407.917C379.276 406.096 376.838 405.67 375.009 406.011C373.181 406.352 371.138 407.012 369.584 405.99C369.683 407.912 370.132 409.817 370.903 411.581C371.065 411.951 371.261 412.338 371.613 412.537C372.01 412.761 372.501 412.69 372.951 412.612C374.753 412.301 376.556 411.99 378.359 411.678C379.252 411.524 380.43 410.817 379.96 410.041C379.585 409.423 379.802 408.624 379.655 407.917M368.519 415.393C367.046 415.642 365.573 415.892 364.1 416.141C363.303 416.276 362.32 416.596 362.235 417.4C362.02 419.434 364.046 421.073 366.05 421.478C368.054 421.883 370.134 421.487 372.169 421.688C372.085 419.96 371.723 418.245 371.102 416.63C370.954 416.246 370.778 415.849 370.452 415.598C369.923 415.19 369.177 415.281 368.519 415.393M407.334 411.448C405.38 411.241 403.393 411.345 401.47 411.754C402.533 414.284 403.287 416.943 403.712 419.654C403.907 420.897 405.681 420.921 406.9 420.611C407.355 420.495 407.851 420.351 408.111 419.96C408.334 419.623 408.324 419.188 408.305 418.784C408.2 416.552 408.096 414.319 407.991 412.087C407.985 411.946 407.975 411.797 407.894 411.681C407.775 411.51 407.542 411.47 407.334 411.448M375.419 431.449C377.262 429.609 376.317 425.896 373.819 425.161C371.321 424.425 368.516 427.035 369.069 429.58C369.64 432.21 373.513 433.35 375.419 431.449M389.905 409.885C391.077 408.355 389.322 406.096 387.423 405.763C385.524 405.43 383.6 406.158 381.672 406.13C380.962 406.119 380.932 407.188 381.163 407.859C381.462 408.728 381.76 409.597 382.059 410.466C382.181 410.822 382.402 411.248 382.777 411.225C384.152 411.139 385.526 411.053 386.901 410.967C387.998 410.898 389.236 410.758 389.905 409.885M408.904 424.659C408.762 424.275 408.552 423.9 408.221 423.658C407.924 423.442 407.553 423.35 407.188 423.306C404.303 422.958 401.503 425.836 401.929 428.71C403.157 430.17 405.469 430.573 407.118 429.615C408.767 428.657 409.563 426.449 408.904 424.659M391.096 407.282C391.033 408.546 392.145 409.625 393.363 409.966C394.582 410.307 395.879 410.087 397.125 409.865C397.763 409.751 398.478 409.587 398.812 409.031C399.524 407.847 398.11 405.676 399.415 405.222C398.539 405.101 397.664 404.981 396.788 404.861C395.631 404.702 394.435 404.545 393.313 404.866C392.191 405.186 391.155 406.116 391.096 407.282M401.565 408.9C402.892 410.053 405.113 409.894 406.346 408.641C407.579 407.387 407.739 405.263 406.81 403.77C404.487 404.201 402.165 404.632 399.842 405.062C400.135 406.46 400.487 407.962 401.565 408.9M581.018 386.702C579.209 387.372 577.401 388.042 575.592 388.712C574.694 389.045 573.783 389.384 573.005 389.943C575.963 391.097 579.694 389.589 581.018 386.702M412.927 243.173C412.88 242.374 412.035 241.721 411.25 241.877C411.3 242.69 412.111 243.373 412.921 243.286L412.927 243.173Z" fill="#003B93"/>
</svg>
