<svg width="710" height="736" viewBox="0 0 710 736" fill="none" xmlns="http://www.w3.org/2000/svg">
<path fill-rule="evenodd" clip-rule="evenodd" d="M145.66 511.687C190.669 560.632 396.019 493.783 465.154 511.687C512.254 523.885 677.33 536.182 612 366.432C404.763 -172.034 3.04685 356.604 145.66 511.687Z" fill="#0053CE" fill-opacity="0.32"/>
<ellipse cx="331.539" cy="137.383" rx="33.9459" ry="40.3799" fill="white"/>
<path fill-rule="evenodd" clip-rule="evenodd" d="M53.5034 642.938C43.0564 648.177 34.4782 654.472 37.6745 662.296C43.2444 675.931 60.744 680.959 80.6436 684.978C108.483 690.602 147.128 691.308 197.129 689.133C280.713 685.499 271.232 677.5 350.551 673.738C404.535 671.178 498.176 685.393 573.293 685.136C619.252 684.978 819.698 629.574 535.148 617.272C250.598 604.971 94.0924 622.586 53.5034 642.938Z" fill="white"/>
<path fill-rule="evenodd" clip-rule="evenodd" d="M53.5034 642.938C43.0564 648.177 34.4782 654.472 37.6745 662.296C43.2444 675.931 274.681 632.003 354 628.242C407.983 625.681 490.273 643.196 565.391 642.938C611.349 642.781 716.296 633.445 535.148 617.273C354 601.1 94.0924 622.586 53.5034 642.938Z" fill="#E7EAEE"/>
<path fill-rule="evenodd" clip-rule="evenodd" d="M202.671 615.366C126.889 620.506 74.4663 629.63 52.3828 640.704C46.2029 643.802 41.6842 646.748 38.6615 649.925C34.7599 654.025 33.44 658.542 35.3602 663.242C38.2525 670.322 44.0792 675.545 52.7439 679.516C59.4971 682.61 67.5183 684.851 79.3702 687.271L80.1486 687.429C106.757 692.803 143.677 693.96 197.238 691.631L201.67 691.432C232.73 689.993 249.06 688.229 273.213 684.373L279.805 683.309C304.051 679.418 319.23 677.749 349.554 676.289L352.093 676.17C373.395 675.241 393.041 676.246 447.273 680.55L478.037 683.01C485.047 683.559 490.994 684.008 496.993 684.438L503.376 684.886C530.389 686.74 552.337 687.672 572.255 687.638L573.302 687.636C585.137 687.595 606.545 684.027 627.366 678.615L628.992 678.189C651.661 672.186 670.196 664.947 679.673 657.749C692.68 647.871 689.126 637.671 668.416 630.675C645.997 623.102 602.332 617.675 535.256 614.775C401.84 609.007 289.241 609.495 202.671 615.366ZM535.04 619.77L539.01 619.946C603.394 622.867 645.407 628.18 666.815 635.412L667.785 635.746C676.363 638.757 680.986 641.961 682.021 644.932C682.861 647.342 681.205 650.307 676.649 653.767C667.829 660.466 649.78 667.512 627.692 673.36L626.108 673.776C605.922 679.023 585.172 682.506 573.732 682.632L573.285 682.636C552.188 682.708 528.795 681.678 499.42 679.598L489.864 678.902C483.727 678.444 477.179 677.932 469.108 677.285L449.441 675.706C392.37 671.165 372.83 672.179 350.433 673.241L346.02 673.457C317.654 674.891 302.542 676.596 279.02 680.371L271.6 681.567C247.241 685.436 230.807 687.144 198.14 688.587L197.021 688.636C144.366 690.926 107.985 687.825 81.9251 682.685L81.1386 682.528C56.2179 677.494 41.634 673.776 37.3927 661.451C35.637 656.348 42.8058 651.099 54.624 645.173C75.9254 634.492 127.87 625.451 203.009 620.355C289.38 614.497 401.798 614.01 535.04 619.77Z" fill="#003B93"/>
<path fill-rule="evenodd" clip-rule="evenodd" d="M302.806 117.88C308.773 103.604 324.844 94.2748 340.212 96.1664C330.325 90.9395 318.863 82.7698 320.67 71.7401C322.059 63.2591 331.151 58.1188 339.682 57.025C352.219 55.4175 366.375 61.1066 371.266 72.7518C376.157 84.3969 367.433 100.496 354.803 100.001C365.428 110.505 369.284 127.3 364.302 141.38C361.801 148.45 350.975 148.863 345.437 143.803C339.898 138.743 338.307 130.79 337.016 123.403C330.785 127.441 323.557 129.931 316.16 130.587C319.65 131.761 322.581 134.494 323.994 137.892C317.834 133.086 310.643 129.607 303.05 127.759C300.289 137.031 297.498 146.643 298.769 156.233C300.041 165.823 306.535 175.433 316.067 177.13C337.671 180.976 352.466 143.633 374.319 145.638C383.319 146.464 390.122 142.467 393.388 134.047C396.654 125.627 393.696 115.212 386.489 109.762C382.206 109.962 378.088 106.403 377.67 102.138C377.252 97.874 380.6 93.5839 384.841 92.9499C375.837 80.1234 378.104 60.6906 389.819 50.2769C401.534 39.8632 421.115 39.8758 432.817 50.3046C426.409 39.969 432.482 24.3539 444.113 20.7807C455.744 17.2075 469.395 26.3834 470.757 38.4649C472.118 50.5464 461.187 62.4209 449.019 62.3723C451.045 71.7216 459.612 79.262 469.15 80.09C465.073 84.8006 457.264 80.3611 453.884 75.1284C450.505 69.8956 447.296 63.0931 441.091 62.5136C448.714 71.4928 453.744 82.6455 455.427 94.2999C450.173 86.1498 446.408 77.0445 444.373 67.5657C445.118 75.1473 443.7 82.9289 440.33 89.7622C444.3 87.854 448.685 92.9118 448.046 97.2671C447.408 101.622 443.905 104.898 440.781 108.001C431.887 116.834 424.164 130.249 430.031 141.322C433.984 148.784 442.623 152.146 449.748 156.686C465.102 166.472 474.748 183.433 479.412 201.024C484.076 218.614 484.305 237.032 484.505 255.228C484.933 294.175 485.361 333.121 485.788 372.067C485.93 384.908 485.249 399.605 475.284 407.716C481.377 399.267 484.01 388.402 482.462 378.104C472.232 412.692 464.194 447.274 461.395 487.362C458.596 527.45 464.132 544.248 452.36 598.904C451.3 603.825 453.617 609.626 456.545 614.332C461.661 622.553 480.979 627.159 477.29 633.871C472.583 642.435 451.957 640.421 438.95 639.825C433.603 639.581 427.858 638.705 424.029 634.966C419.271 630.319 419.002 622.889 419.018 616.241C419.184 545.666 416.498 475.085 410.97 404.726C409.914 459.227 408.849 513.852 401.956 567.926C400.015 583.159 396.085 599.099 396.698 614.332C397.031 622.623 400.882 631.508 402.221 639.825C403.284 646.43 398.488 648.7 393.388 648.328C392.037 648.229 390.965 649.361 389.577 649.273C388.426 649.2 387.26 648.419 385.957 648.328C384.563 648.229 383.022 648.818 381.526 648.7C380.407 648.611 380.152 647.684 378.144 647.684C376.135 647.684 375.536 648.307 373.529 647.991C371.521 647.675 367.876 650.16 366.05 647.413C362.746 642.443 371.266 629.128 370.763 622.193C370.259 615.258 367.617 593.156 367.409 587.286C365.61 536.563 354.5 439.791 354.5 439.791C354.5 439.791 348.014 516.698 326.113 562.946C320.68 574.419 313.28 593.297 320.67 603.023C328.06 612.748 323.818 621.373 326.463 631.279C328.576 639.191 333.847 645.961 334.333 655.375C334.573 660.024 327.716 659.031 327.043 658.554C326.369 658.078 325.228 655.357 324.657 655.59C323.802 655.939 326.063 658.368 323.366 660.046C320.67 661.724 319.596 659.879 318.315 660.431C317.066 660.968 316.404 662.643 314.985 662.402C312.11 661.915 311.95 660.776 311.649 660.876C311.335 660.981 311.798 662.76 310.62 663.099C309.443 663.438 306.031 661.957 305.338 661.283C304.323 660.296 304.691 663.885 303.331 663.712C297.791 663.005 295.894 657.918 296.405 654.895C293.494 661.874 289.466 666.451 282.387 668.982C280.783 669.556 279.926 667.753 279.112 667.846C278.665 667.896 279.484 669.315 278.147 669.75C276.81 670.184 276.166 670.019 274.473 669.518C272.78 669.016 273.215 664.754 272.801 664.754C272.387 664.754 272.408 666.952 271.668 667.572C270.247 668.763 269.432 668.868 268.201 667.256C267.512 666.352 268.318 664.856 267.828 664.754C267.495 664.684 266.868 666.489 265.729 666.76C263.734 667.233 263.083 667.415 261.56 665.355C260.894 664.455 262.155 661.95 261.353 661.724C260.55 661.499 259.555 665.675 258.517 666.451C257.48 667.228 256.788 666.558 255.85 665.849C250.663 655.973 258.173 644.614 263.352 634.735C277.996 606.805 274.317 572.899 266.406 542.376C258.495 511.853 246.666 481.807 246.046 450.283C245.804 438.004 247.279 425.644 245.59 413.479C243.75 400.23 238.246 387.815 234.235 375.054C226.615 350.81 224.374 325.22 223.378 299.828C222.593 279.834 222.587 259.516 227.835 240.206C233.083 220.895 244.187 202.462 261.353 192.156C272.058 185.729 285.331 182.117 292.245 171.724C298.713 162.002 297.584 149.291 296.207 137.698C291.63 136.867 288.234 131.928 289.1 127.361C289.965 122.794 294.933 119.437 299.497 120.336C297.519 116.471 295.541 112.606 293.563 108.742C294.829 110.581 300.94 121.601 300.556 107.515C301.039 111.014 301.898 112.075 302.806 117.88Z" fill="white"/>
<path fill-rule="evenodd" clip-rule="evenodd" d="M276.431 366.629C274.45 367.775 271.884 369.26 270.236 367.707C265.735 363.463 258.232 362.905 253.106 366.333L252.8 366.544L252.557 369.42C257.682 365.567 265.571 366.006 270.236 370.405C271.715 371.799 273.935 370.745 275.806 369.685L276.855 369.086C282.13 366.212 289.071 366.678 293.896 370.266C296.596 372.273 299.843 371.006 303.205 369.695C306.014 368.599 308.902 367.473 311.619 368.198C312.889 368.537 314.141 369.268 315.368 369.985C317.616 371.299 319.78 372.563 321.814 371.272C325.842 368.717 331.406 368.846 335.311 371.585L334.958 369.499L334.803 368.552C330.934 366.142 325.67 366.128 321.814 368.575C319.781 369.865 317.616 368.601 315.368 367.288C314.141 366.571 312.889 365.839 311.619 365.5C308.902 364.775 306.014 365.902 303.205 366.998C299.843 368.309 296.596 369.576 293.896 367.568C288.972 363.907 281.846 363.497 276.534 366.569L276.431 366.629ZM276.393 397.302C274.457 398.523 271.95 400.106 270.244 398.617C265.583 394.549 252.643 401.007 252.643 401.007C253.423 401.357 255.21 400.994 257.413 400.546C261.564 399.703 267.192 398.559 270.348 401.313C271.879 402.649 274.057 401.51 275.886 400.38L276.911 399.741C282.072 396.666 289.025 396.865 293.985 400.265C296.759 402.168 299.956 400.777 303.265 399.338C306.029 398.135 308.873 396.898 311.615 397.519C312.897 397.809 314.176 398.492 315.43 399.161C317.727 400.387 319.938 401.567 321.921 400.2L322.197 400.015C324.46 398.553 329.46 399.463 333.993 400.288C337.29 400.889 340.34 401.444 341.908 401.007C341.908 401.007 325.577 394.911 321.817 397.504C319.835 398.872 317.624 397.692 315.326 396.465C314.073 395.796 312.793 395.113 311.511 394.823C308.769 394.203 305.926 395.44 303.161 396.642C299.852 398.082 296.656 399.472 293.881 397.57C288.82 394.1 281.684 393.964 276.494 397.238L276.393 397.302ZM278.009 286.441C276.238 287.715 273.457 288.505 272.113 286.786C267.894 281.392 258.053 282.283 254.873 288.348C258.589 286.291 262.969 284.18 266.9 285.79C267.994 286.238 268.998 286.959 269.991 287.673C271.646 288.862 273.272 290.03 275.235 289.879C276.695 289.766 277.955 288.921 279.208 288.081C280.554 287.178 281.892 286.28 283.464 286.298C285.209 286.318 286.629 287.452 288.051 288.587C289.468 289.719 290.885 290.851 292.624 290.879C294.048 290.902 295.344 290.164 296.628 289.433C298.064 288.616 299.485 287.807 301.053 288.079C302.924 288.402 304.048 290.074 305.174 291.748C306.293 293.412 307.413 295.078 309.271 295.421C310.372 295.624 311.463 295.288 312.526 294.879L313.58 294.463C316.064 293.497 318.836 292.961 321.396 293.704C323.595 294.343 325.553 296.124 326.071 298.301C326.04 297.817 326.003 297.335 325.961 296.855L325.896 294.104C323.077 291.775 319.135 290.871 315.582 291.744C314.973 291.893 314.373 292.092 313.774 292.29C312.621 292.672 311.47 293.053 310.263 293.081C308.429 293.124 306.348 291.925 306.335 290.092L306.328 289.895C306.13 286.857 301.834 285.852 298.809 286.644C298.166 286.813 297.513 287.017 296.857 287.223C294.356 288.007 291.798 288.808 289.529 287.691C288.652 287.26 287.911 286.57 287.178 285.886C286.152 284.93 285.14 283.987 283.788 283.783C282.128 283.532 280.65 284.486 279.25 285.519L278.009 286.441ZM255.02 264.601C256.227 261.717 256.194 258.53 256.05 255.978C256.05 255.978 253.957 259.662 251.173 259.265L250.977 259.244C249.724 259.153 248.411 259.869 247.175 260.544C245.506 261.455 243.976 262.29 242.919 260.959C240.325 257.697 236.085 255.815 231.924 256.077C230.742 256.152 229.491 256.43 228.671 257.284C227.851 258.138 227.712 259.71 228.652 260.429C229.615 258.021 232.979 257.559 235.384 258.533C236.755 259.088 237.959 259.954 239.164 260.821C240.073 261.475 240.984 262.131 241.968 262.654C244.259 263.872 247.477 264.162 249.134 262.167L249.263 262.021C250.557 260.662 253.058 260.688 254.291 262.121C254.876 262.8 255.105 263.713 255.02 264.601ZM266.658 227.867C263.832 229.137 260.711 226.901 258.607 224.628L257.598 223.545C255.741 221.584 253.638 219.69 251.027 219.831C249.617 219.907 248.32 220.595 247.112 221.325C243.506 223.502 240.211 226.192 237.358 229.288C240.126 229.523 242.431 227.619 244.715 225.732C247.114 223.751 249.489 221.789 252.353 222.342C254.538 222.764 256.059 224.539 257.575 226.308C259.133 228.126 260.685 229.938 262.949 230.269C264.45 230.488 265.921 229.979 267.375 229.475C267.728 229.352 268.081 229.23 268.433 229.119C275.422 226.908 283.634 229.282 288.362 234.879C290.521 237.435 294.552 236.223 297.606 234.679L298.446 234.245C301.501 232.703 305.545 231.51 307.683 234.083L307.886 234.319C311.323 238.161 317.357 237.826 322.597 236.94L323.53 236.775C323.585 237.089 323.638 237.43 323.69 237.798L323.794 238.569C324.921 234.614 324.476 233.711 323.53 235.806C321.835 234.287 318.525 234.75 316.303 235.247L316.099 235.291C313.904 235.736 311.112 235.561 310.292 233.512C308.792 229.763 303.314 230.286 299.581 231.832L299.099 232.03C295.441 233.516 290.899 234.96 288.244 232.148C282.874 226.46 273.794 224.66 266.658 227.867ZM325.061 223.786C325.103 222.527 325.235 221.029 325.475 219.326L325.535 218.913C322.962 217.307 319.696 216.854 316.782 217.7C314.384 218.396 312.364 216.743 310.294 215.05C308.451 213.543 306.57 212.003 304.347 212.06C302.556 212.105 301.087 213.179 299.601 214.264C298.401 215.141 297.189 216.027 295.787 216.386C292.371 217.26 289.227 214.869 286.432 212.526L285.318 211.588C282.255 209.012 277.418 206.931 274.573 209.746L274.391 209.917C271.992 212.061 268.072 211.299 265.237 209.684C264.338 209.172 263.47 208.588 262.603 208.004C260.664 206.699 258.729 205.397 256.466 204.913C253.192 204.214 248.971 206.453 249.412 209.769C251.812 207.229 255.85 206.399 259.059 207.786C260.57 208.439 261.979 209.531 263.365 210.606C265.889 212.563 268.338 214.461 271.194 213.546C272.062 213.267 272.812 212.742 273.565 212.216C274.201 211.771 274.839 211.325 275.551 211.027C279.161 209.513 282.523 212.085 285.926 214.688C289.214 217.202 292.54 219.746 296.163 218.663C297.508 218.262 298.686 217.377 299.848 216.505C301.439 215.31 303.001 214.137 304.919 214.26C306.879 214.385 308.388 215.842 309.833 217.237C309.927 217.328 310.021 217.418 310.114 217.508L310.513 217.886C312.173 219.438 314.679 220.77 316.613 219.575C319.71 217.66 323.89 220.316 325.061 223.786ZM327.798 208.565C328.433 207.803 329.029 206.837 329.588 205.666C330.343 204.085 330.355 201.363 329.588 202.969C328.657 204.919 326.503 206.469 324.397 205.974C323.471 205.756 322.68 205.187 321.891 204.621C321.015 203.992 320.142 203.365 319.093 203.227C317.906 203.071 316.786 203.574 315.671 204.073C315.313 204.234 314.956 204.394 314.598 204.532C313.123 205.1 311.083 205.103 310.361 203.698C307.87 198.855 300.123 197.975 296.608 202.137C295.16 203.852 292.283 202.752 290.76 201.104C290.38 200.693 290.018 200.247 289.656 199.8C288.567 198.458 287.472 197.108 285.847 196.661C284.017 196.158 282.244 196.979 280.453 197.809C278.837 198.557 277.207 199.313 275.507 199.108C273.757 198.898 272.37 197.735 270.989 196.576C270.524 196.185 270.059 195.795 269.582 195.442C267.686 194.043 264.617 193.365 263.254 195.286C265.595 195.629 267.626 196.889 269.66 198.151C270.519 198.684 271.379 199.217 272.262 199.682C275.239 201.248 279.368 201.855 281.607 199.346L281.741 199.206C283.391 197.603 286.331 198.919 287.924 200.671C288.215 200.99 288.503 201.328 288.793 201.668C290.134 203.242 291.524 204.873 293.518 205.054C295.306 205.216 296.843 204.134 298.381 203.052C299.909 201.977 301.439 200.9 303.217 201.042C305.038 201.187 306.379 202.544 307.724 203.903C309.043 205.237 310.366 206.575 312.147 206.773C313.103 206.88 314.041 206.629 314.98 206.378C315.371 206.273 315.763 206.168 316.156 206.089C319.816 205.355 323.484 206.862 326.885 208.476L327.585 208.811L327.798 208.565ZM260.456 240.202C260.981 240.49 261.483 240.972 261.541 241.606C261.599 242.239 260.962 242.905 260.436 242.618C258.386 241.499 255.906 242.367 253.843 243.458C253.601 243.586 253.358 243.717 253.114 243.849L253.114 243.849C251.279 244.843 249.385 245.867 247.365 245.681C245.616 245.52 243.991 244.472 242.402 243.446C240.291 242.083 238.243 240.761 236.048 241.614C234.935 242.046 234.101 242.966 233.262 243.893C232.639 244.581 232.012 245.272 231.266 245.771C231.053 245.913 230.81 246.044 230.562 246.003C229.881 245.892 229.912 244.802 230.207 244.129C232.128 239.756 237.603 237.71 241.613 239.868C242.312 240.244 242.967 240.726 243.62 241.206C244.746 242.034 245.866 242.857 247.189 243.124C249.33 243.555 251.419 242.423 253.387 241.357C253.521 241.284 253.656 241.211 253.789 241.139C255.873 240.018 258.38 239.062 260.456 240.202ZM277.066 245.862C280.055 247.491 283.981 247.295 286.786 245.376C288.781 244.01 291.554 245.163 293.435 246.676C293.807 246.976 294.175 247.292 294.544 247.61C296.041 248.898 297.561 250.206 299.492 250.48C301.065 250.704 302.584 250.188 304.113 249.67C305.376 249.241 306.646 248.81 307.96 248.792C310.153 248.761 312.125 249.862 314.063 250.944C314.478 251.177 314.892 251.408 315.307 251.627C317.653 252.867 320.676 253.717 322.865 252.225L312.869 248.019C311.491 247.439 310.073 246.85 308.575 246.789C307.212 246.734 305.877 247.119 304.547 247.502C303.011 247.945 301.482 248.386 299.925 248.143C297.968 247.838 296.424 246.54 294.888 245.247C294.382 244.821 293.877 244.395 293.358 244.007C291.263 242.437 287.972 241.527 286.205 243.446C284.624 245.162 281.813 245.105 279.618 244.264C278.579 243.866 277.603 243.329 276.628 242.792L276.628 242.792C275.543 242.195 274.458 241.598 273.288 241.193C271.066 240.424 268.216 240.566 266.817 242.428C266.681 243.035 267.414 243.526 268.046 243.49C268.45 243.467 268.827 243.316 269.205 243.164L269.205 243.164C269.417 243.078 269.629 242.993 269.847 242.93C271.765 242.375 273.516 243.552 275.254 244.72C275.858 245.126 276.459 245.531 277.066 245.862ZM328.121 342.182C327.317 344.255 324.47 344.565 322.526 343.601C321.388 343.037 320.424 342.188 319.458 341.337L319.458 341.337C318.774 340.734 318.088 340.131 317.339 339.626C315.532 338.41 312.884 337.915 311.382 339.517C307.651 343.496 301.731 345.096 296.601 343.513C294.638 342.906 292.834 341.89 291.027 340.873L291.027 340.873C290.016 340.303 289.003 339.733 287.962 339.234C285.06 337.844 281.605 337.03 278.71 338.436C277.605 338.972 276.668 339.791 275.73 340.611C274.926 341.314 274.121 342.018 273.208 342.546C270.113 344.335 266.122 343.813 263.069 341.948C262.545 341.628 262.038 341.271 261.531 340.913C260.374 340.097 259.218 339.282 257.874 338.924C255.942 338.409 253.413 339.395 253.202 341.452C251.844 339.405 254.029 336.469 256.418 336.277C258.807 336.085 260.978 337.592 262.941 339.017C264.905 340.441 267.113 341.914 269.495 341.64C271.489 341.41 273.035 340.048 274.603 338.668C275.666 337.732 276.738 336.787 277.966 336.182C282.039 334.172 286.823 336.23 290.8 338.437C294.776 340.645 299.224 343.105 303.562 341.824C305.27 341.319 306.751 340.278 308.232 339.237L308.233 339.237L308.233 339.237L308.233 339.237L308.233 339.237L308.233 339.237C308.806 338.834 309.379 338.432 309.965 338.06C312.067 336.728 314.701 335.769 316.962 336.785C317.955 337.23 318.75 338.002 319.546 338.776L319.546 338.776L319.546 338.776C319.907 339.126 320.267 339.476 320.646 339.796C322.719 341.546 325.459 342.421 328.121 342.182ZM349.201 424.795C346.881 427.793 342.189 426.768 338.639 425.434C335.089 424.1 330.436 423.006 328.042 425.945C326.681 427.615 323.991 427.35 322.107 426.303C321.299 425.854 320.556 425.295 319.814 424.737C318.827 423.994 317.841 423.253 316.707 422.774C312.295 420.909 307.489 423.5 303.202 425.812L302.781 426.038L302.505 426.187L302.441 426.221C297.967 428.617 291.66 430.144 288.426 426.234C286.216 423.563 281.922 424.238 278.814 425.778C278.184 426.091 277.554 426.431 276.922 426.773L276.921 426.774C274.439 428.117 271.919 429.48 269.165 429.237C266.722 429.021 264.519 427.566 262.362 426.142C259.626 424.334 256.964 422.576 253.981 423.463C253.044 423.741 252.199 424.272 251.359 424.8C250.292 425.47 249.233 426.136 248 426.276C248.004 423.22 251.346 421.047 254.404 421.101C257.332 421.152 260.008 422.624 262.583 424.042L262.926 424.23C265.607 425.702 268.543 427.127 271.582 426.778C273.68 426.537 275.535 425.486 277.394 424.434C278.194 423.981 278.996 423.527 279.817 423.137C282.546 421.843 286.266 421.45 288.195 423.772C290.707 426.795 295.417 426.854 299.119 425.53C300.867 424.904 302.517 424.039 304.165 423.173L304.166 423.173C306.007 422.207 307.847 421.241 309.823 420.611C313.569 419.417 318.336 419.835 320.517 423.103C321.854 425.106 324.886 424.962 327.107 424.029C327.725 423.769 328.334 423.465 328.943 423.16C330.522 422.371 332.1 421.582 333.839 421.571C335.688 421.56 337.484 422.428 339.241 423.277C341.574 424.405 343.836 425.499 346.057 424.451L349.201 424.795ZM299.562 315.835C297.047 316.276 294.793 314.928 292.509 313.563C290.548 312.39 288.565 311.204 286.375 311.126C283.769 311.032 281.431 312.507 279.116 313.967C276.567 315.576 274.045 317.166 271.224 316.627C270.102 316.412 269.087 315.87 268.069 315.327C267.564 315.056 267.057 314.786 266.537 314.555C262.639 312.827 257.812 313.52 254.536 316.279C255.164 313.377 258.069 311.393 260.98 311.155C263.89 310.917 266.747 312.112 269.213 313.704C271.313 315.06 274.111 314.5 276.335 313.367C277.225 312.913 278.075 312.377 278.923 311.842L278.923 311.842C280.195 311.039 281.465 310.237 282.867 309.717C286.771 308.27 291.462 309.36 294.363 312.388C296.128 314.23 299.144 313.737 301.485 312.768C301.821 312.629 302.16 312.482 302.5 312.334C304.53 311.454 306.629 310.544 308.737 311.046C310.606 311.49 312.087 312.959 313.537 314.398C315.303 316.151 317.024 317.86 319.35 317.62C320.108 317.542 320.816 317.247 321.526 316.952L321.526 316.952C322.047 316.735 322.57 316.518 323.114 316.385C324.4 316.072 326.092 316.517 326.369 317.833C322.687 319.236 318.392 320.598 315.008 318.559C313.946 317.92 313.044 316.978 312.152 316.046C310.739 314.571 309.353 313.124 307.407 312.956C305.819 312.819 304.402 313.605 302.968 314.401C301.871 315.01 300.764 315.625 299.562 315.835ZM282.836 267.052C284.18 266.204 285.524 265.354 287.093 265.228C289.481 265.035 291.489 266.528 293.435 267.976C293.869 268.299 294.299 268.619 294.731 268.918C297.096 270.558 300.98 271.396 302.541 269.046C303.455 267.669 305.641 267.588 307.165 268.337C308.274 268.882 309.153 269.735 310.031 270.589C310.36 270.909 310.689 271.228 311.031 271.532C312.46 272.803 314.222 273.841 316.174 274.02C318.125 274.198 320.26 273.348 321.113 271.676C316.491 272.619 311.355 270.554 308.859 266.749C307.601 264.829 304.487 265.753 302.449 266.927C300.41 268.101 297.412 269.18 295.976 267.375C292.63 263.169 285.399 262.423 281.176 265.85C279.115 267.522 275.873 266.409 273.802 264.748C273.259 264.313 272.736 263.839 272.212 263.365C270.74 262.032 269.265 260.697 267.334 260.198C263.941 259.323 260.053 261.926 259.792 265.247C260.746 265.36 261.747 264.863 262.191 264.055C263.178 262.257 265.88 261.921 267.851 262.709C269.419 263.336 270.669 264.461 271.912 265.581L271.912 265.581C272.232 265.87 272.552 266.158 272.877 266.437C274.462 267.798 276.424 269.038 278.557 268.878C280.135 268.759 281.486 267.906 282.836 267.052Z" fill="#B5D75C"/>
<path fill-rule="evenodd" clip-rule="evenodd" d="M302.806 117.88C308.773 103.604 324.844 94.2748 340.212 96.1664C330.325 90.9395 318.863 82.7698 320.67 71.7401C322.059 63.2591 331.151 58.1188 339.682 57.025C352.219 55.4175 366.375 61.1066 371.266 72.7518C376.157 84.3969 367.433 100.496 354.803 100.001C365.428 110.505 369.284 127.3 364.302 141.38C361.801 148.45 350.975 148.863 345.437 143.803C339.898 138.743 338.307 130.79 337.016 123.403C330.785 127.441 323.557 129.931 316.16 130.587C319.65 131.761 322.581 134.494 323.994 137.892C317.834 133.086 310.643 129.607 303.05 127.759C300.289 137.031 297.498 146.643 298.769 156.233C300.041 165.823 306.535 175.433 316.067 177.13C327.054 179.086 336.28 170.388 345.57 161.631C354.546 153.17 363.58 144.653 374.319 145.638C383.319 146.464 390.122 142.467 393.388 134.047C396.654 125.627 393.696 115.212 386.489 109.762C382.206 109.962 378.088 106.403 377.67 102.138C377.252 97.874 380.6 93.5839 384.841 92.9499C375.837 80.1234 378.104 60.6906 389.819 50.2769C401.534 39.8632 421.115 39.8758 432.817 50.3046C426.409 39.969 432.482 24.3539 444.113 20.7807C455.744 17.2075 469.395 26.3834 470.757 38.4649C472.118 50.5464 461.187 62.4209 449.019 62.3723C451.045 71.7216 459.612 79.262 469.15 80.09C465.073 84.8006 457.264 80.3611 453.884 75.1284C453.402 74.3813 452.923 73.6022 452.438 72.8137C449.527 68.08 446.41 63.0104 441.091 62.5136C448.714 71.4928 453.744 82.6455 455.427 94.2999C450.173 86.1498 446.408 77.0445 444.373 67.5657C445.118 75.1473 443.7 82.9289 440.33 89.7622C444.3 87.854 448.685 92.9118 448.046 97.2671C447.439 101.409 444.242 104.574 441.243 107.543C441.088 107.696 440.934 107.849 440.781 108.001C431.887 116.834 424.164 130.249 430.031 141.322C433.068 147.055 438.871 150.367 444.628 153.654C446.364 154.645 448.097 155.634 449.748 156.686C465.102 166.472 474.748 183.433 479.412 201.024C484.076 218.614 484.305 237.032 484.505 255.228L485.788 372.067C485.93 384.908 485.249 399.605 475.284 407.716C481.377 399.267 484.01 388.402 482.462 378.104C472.232 412.692 464.194 447.274 461.395 487.362C460.486 500.377 460.456 510.937 460.427 521.134C460.366 542.347 460.31 561.992 452.36 598.904C451.3 603.825 453.617 609.626 456.545 614.332C458.762 617.895 463.647 620.778 468.17 623.449C474.084 626.941 479.38 630.068 477.29 633.871C473.027 641.627 455.708 640.706 442.816 640.022C441.473 639.95 440.178 639.881 438.95 639.825C433.603 639.581 427.858 638.705 424.029 634.966C419.271 630.319 419.002 622.889 419.018 616.241C419.184 545.666 416.498 475.085 410.97 404.726C409.914 459.227 408.849 513.852 401.956 567.926C401.379 572.453 400.626 577.043 399.87 581.659C398.08 592.572 396.267 603.627 396.698 614.332C396.893 619.202 398.303 624.278 399.704 629.323C400.689 632.866 401.669 636.394 402.221 639.825C403.284 646.43 398.488 648.7 393.388 648.328C392.714 648.278 392.109 648.536 391.499 648.795C390.888 649.055 390.272 649.317 389.577 649.273C389.016 649.237 388.451 649.033 387.869 648.823L387.868 648.823C387.256 648.602 386.625 648.375 385.957 648.328C385.278 648.28 384.565 648.395 383.839 648.511C383.073 648.635 382.294 648.76 381.526 648.7C381.068 648.663 380.755 648.487 380.408 648.291C379.905 648.008 379.331 647.684 378.144 647.684C377.291 647.684 376.693 647.796 376.133 647.901C375.373 648.043 374.684 648.173 373.529 647.991C372.858 647.885 372.005 648.092 371.097 648.313C369.288 648.751 367.266 649.242 366.05 647.413C364.176 644.594 366.107 639.088 368.037 633.585C369.509 629.389 370.981 625.194 370.763 622.193C370.548 619.23 369.942 613.497 369.303 607.445C368.446 599.333 367.528 590.648 367.409 587.286C365.61 536.563 361.687 485.447 353.754 435.316C340.715 444.164 326.471 451.24 311.54 456.286C306.291 458.06 305.055 464.787 304.691 470.311C302.024 510.752 299.541 552.573 313.437 590.65C331.47 543.597 345.038 494.838 353.901 445.239C349.558 485.514 339.85 525.209 325.113 562.946C320.15 575.655 313.28 593.297 320.67 603.023C325.314 609.133 325.365 614.81 325.417 620.642C325.448 624.092 325.48 627.597 326.463 631.279C327.268 634.292 328.531 637.14 329.813 640.032C331.897 644.732 334.032 649.546 334.333 655.375C334.573 660.024 327.716 659.031 327.043 658.554C326.758 658.353 326.39 657.751 326.017 657.14C325.507 656.306 324.987 655.456 324.657 655.59C324.353 655.714 324.443 656.1 324.563 656.622C324.783 657.57 325.105 658.964 323.366 660.046C321.695 661.086 320.647 660.773 319.787 660.516C319.259 660.358 318.802 660.221 318.315 660.431C317.826 660.641 317.427 661.026 317.037 661.402C316.432 661.986 315.849 662.549 314.985 662.402C312.946 662.057 312.273 661.384 311.946 661.057C311.812 660.923 311.736 660.847 311.649 660.876C311.542 660.912 311.525 661.141 311.503 661.441C311.46 662.024 311.398 662.876 310.62 663.099C309.443 663.438 306.221 662.074 305.528 661.4C305.026 660.912 304.816 661.514 304.567 662.227C304.313 662.955 304.018 663.799 303.331 663.712C297.791 663.005 295.894 657.918 296.405 654.895C293.494 661.874 289.466 666.451 282.387 668.982C281.403 669.334 280.701 668.792 280.117 668.342C279.748 668.058 279.427 667.81 279.112 667.846C278.948 667.864 278.954 668.066 278.962 668.335C278.976 668.802 278.995 669.474 278.147 669.75C276.81 670.184 276.166 670.019 274.473 669.518C273.345 669.183 273.162 667.181 273.043 665.881C272.983 665.229 272.939 664.754 272.801 664.754C272.614 664.754 272.515 665.204 272.395 665.755C272.25 666.421 272.073 667.233 271.668 667.572C270.247 668.763 269.432 668.868 268.201 667.256C267.817 666.752 267.897 666.065 267.959 665.537C268.008 665.118 268.045 664.799 267.828 664.754C267.699 664.727 267.526 664.981 267.296 665.318C266.933 665.852 266.427 666.594 265.729 666.76L265.661 666.776C263.719 667.236 263.065 667.392 261.56 665.355C261.229 664.908 261.374 664.065 261.505 663.302C261.638 662.529 261.756 661.838 261.353 661.724C260.927 661.605 260.447 662.724 259.935 663.917C259.482 664.973 259.005 666.086 258.517 666.451C257.563 667.165 256.902 666.656 256.072 666.018C256 665.962 255.926 665.906 255.85 665.849C251.254 657.097 256.627 647.182 261.515 638.163L261.517 638.159L261.521 638.151C262.147 636.996 262.765 635.856 263.352 634.735C277.996 606.805 274.317 572.899 266.406 542.376C264.362 534.486 262.055 526.629 259.748 518.769C253.129 496.222 246.506 473.659 246.046 450.283C245.961 445.964 246.088 441.635 246.216 437.307C246.45 429.333 246.685 421.365 245.59 413.479C244.283 404.069 241.128 395.081 237.973 386.09L237.973 386.09C236.685 382.421 235.397 378.752 234.235 375.054C226.615 350.81 224.374 325.22 223.378 299.828C222.593 279.834 222.587 259.516 227.835 240.206C233.083 220.895 244.187 202.462 261.353 192.156C264.474 190.282 267.814 188.647 271.151 187.014C279.258 183.046 287.347 179.087 292.245 171.724C298.713 162.002 297.584 149.291 296.207 137.698C291.63 136.867 288.234 131.928 289.1 127.361C289.965 122.794 294.933 119.437 299.497 120.336L293.563 108.742C293.683 108.917 293.848 109.176 294.047 109.488L294.047 109.488C295.935 112.454 300.903 120.259 300.556 107.515C300.776 109.107 301.073 110.195 301.418 111.454C301.831 112.962 302.311 114.717 302.806 117.88ZM469.54 379.305C470.781 377.817 471.26 375.854 471.661 373.959C477.989 344.041 473.488 313.956 459.173 286.929C427.416 289.646 395.389 289.2 363.721 285.598C359.034 285.065 356.04 290.368 354.551 294.84C346.277 319.69 343.331 346.297 345.969 372.354C346.424 376.847 351.821 378.8 356.284 379.514C366.514 381.15 372.165 380.101 380.545 378.546L380.545 378.546L380.546 378.546L380.546 378.546L380.547 378.546L380.548 378.546C386.982 377.351 395.026 375.859 407.986 375.054C409.516 374.958 409.447 369.722 409.359 363.048C409.265 355.927 409.15 347.169 410.931 341.269C416.427 435.415 420.268 529.657 422.453 623.937C422.521 626.872 422.649 630.001 424.341 632.401C426.739 635.804 431.393 636.588 435.548 636.876C448.422 637.769 472.961 638.293 473.966 633.579C473.336 629.37 468.544 626.974 464.055 624.73C463.157 624.281 462.27 623.838 461.432 623.387C454.233 619.521 450.411 611.156 449.689 603.022C449.044 595.755 450.459 588.508 451.862 581.325C452.029 580.469 452.197 579.613 452.36 578.758C456.614 556.51 458.43 533.797 457.764 511.155C457.706 509.194 457.63 507.232 457.554 505.27C457.287 498.388 457.019 491.504 457.551 484.643C458.212 476.102 460.101 467.723 461.987 459.356L461.988 459.351L461.989 459.346L461.99 459.342L461.991 459.337C462.379 457.618 462.766 455.9 463.143 454.18C468.272 430.76 471.433 406.91 472.583 382.963C453.846 391.109 431.226 389.682 413.662 379.247C428.902 385.252 445.752 385.121 461.939 382.602C464.732 382.167 467.732 381.476 469.54 379.305ZM482.111 233.587C480.129 216.214 476.012 199.085 469.88 182.708C468.768 179.739 467.044 177.5 465.198 175.102C464.68 174.43 464.152 173.745 463.626 173.027C459.236 167.045 452.887 163.139 446.506 159.212C441.518 156.143 436.509 153.061 432.4 148.965C426.76 154.188 418.946 156.99 411.27 156.542C403.593 156.094 396.159 152.402 391.167 146.559C390.798 146.127 390.144 146.118 389.577 146.149C380.135 146.659 370.647 148.378 362.09 152.398C353.533 156.418 345.938 162.883 341.657 171.307C339.908 174.749 338.734 178.45 337.635 182.152C332.078 200.875 328.253 220.111 326.224 239.534C326.103 240.697 326.028 242 326.777 242.898C327.283 243.504 328.065 243.793 328.817 244.034C335.412 246.148 342.567 246.49 349.334 245.016L330.484 242.364C329.363 242.207 327.91 241.013 328.815 240.334C329.11 240.112 329.518 240.148 329.885 240.194L352.093 242.974C353.081 243.097 353.664 241.899 353.827 240.918C354.298 238.077 353.933 235.087 353.572 232.133C353.032 227.704 352.501 223.354 354.814 219.707C356.848 239.473 356.476 259.486 353.709 279.163C353.386 281.46 356.391 282.592 358.696 282.865C390.252 286.606 422.15 287.457 453.861 285.403C458.816 285.082 462.564 280.339 463.449 275.458C464.335 270.576 463.035 265.592 461.744 260.801L452.028 224.727C451.44 222.543 450.997 219.833 452.704 218.347L458.596 241.093C458.839 242.031 459.174 243.084 460.052 243.495C460.694 243.796 461.447 243.658 462.143 243.513L477.611 240.299C478.913 240.029 480.305 239.709 481.204 238.73C482.421 237.405 482.314 235.374 482.111 233.587ZM327.033 215.031L327.033 215.031C329.465 203.453 332.628 188.394 318.55 193.011L318.304 193.092C312.712 194.926 306.104 197.094 300.112 195.191C294.032 193.259 288.873 188.613 286.32 182.771C287.941 181.573 289.946 183.564 291.175 185.161C297.135 192.902 308.72 195.677 317.546 191.479C321.868 189.422 321.896 183.383 321.268 178.641C311.77 181.846 300.214 175.166 298.26 165.341C296.383 171.874 292.024 177.663 286.261 181.274C284.094 182.632 281.757 183.683 279.421 184.733L279.42 184.733L279.42 184.734L279.419 184.734L279.419 184.734L279.419 184.734L279.419 184.734L279.419 184.734L279.418 184.734L279.418 184.734L279.418 184.734L279.418 184.735L279.418 184.735L279.417 184.735L279.417 184.735L279.417 184.735C278.684 185.064 277.951 185.394 277.224 185.733C248.472 199.129 228.126 228.966 226.169 260.603C226.083 262.005 226.367 263.855 227.754 264.083L249.089 267.591C249.344 267.633 249.578 267.68 249.803 267.725C250.957 267.957 251.836 268.133 253.733 267.262C255.999 266.221 256.425 255.189 256.212 251.77C255.999 248.35 255.772 243.987 258.869 242.517C259.152 253.584 257.337 264.525 255.521 275.477C254.046 284.369 252.569 293.269 252.214 302.25C252.099 305.141 252.188 308.041 252.277 310.938C252.375 314.127 252.472 317.314 252.298 320.482C250.007 362.221 249.59 456.967 249.59 456.967C249.59 456.967 289.885 453.821 304.691 450.283C326.519 445.066 340.796 438.698 348.001 435.484C351.301 434.011 353.118 433.201 353.497 433.466C352.167 425.721 348.668 410.583 344.612 393.032L344.612 393.032C336.652 358.597 326.546 314.873 326.463 299.455C326.457 298.386 325.962 296.948 325.554 295.763C324.946 293.997 324.531 292.793 326.22 294.21L325.893 280.433C325.818 277.255 325.594 270.291 325.36 268.716C322.843 251.784 323.999 241.079 324.864 233.062C325.21 229.858 325.51 227.083 325.51 224.512C325.51 222.281 326.231 218.845 327.033 215.031ZM379.042 643.385C379.399 647.684 382.34 648.288 384.841 646.214C385.667 645.53 385.97 643.089 386.276 640.619C386.332 640.169 386.388 639.717 386.447 639.275C386.908 640.351 386.976 641.962 387.039 643.456C387.123 645.469 387.198 647.27 388.214 647.27C392.253 647.27 391.609 640.237 391.305 636.911C391.285 636.691 391.266 636.487 391.25 636.302C392.079 635.097 393.42 638.326 393.079 640.193C392.738 642.061 392.694 644.459 394.041 645.798C396.185 647.93 399.5 644.486 399.899 641.49C400.594 636.258 398.828 631.24 397.048 626.181C395.792 622.613 394.528 619.024 394.116 615.324C393.579 610.496 394.511 605.648 395.431 600.869L395.434 600.852C395.479 600.618 395.524 600.384 395.569 600.15C403.91 556.616 405.276 512.09 406.618 467.785L409.291 379.545C389.732 384.252 369.2 384.877 349.391 381.369C348.285 381.174 347.913 382.795 348.037 383.91C350.344 404.543 353.566 425.102 356.786 445.652C362.901 484.673 369.012 523.664 368.844 563.084C368.833 565.784 368.792 568.488 368.752 571.195C368.571 583.226 368.39 595.289 370.763 607.052C370.982 608.139 371.223 609.23 371.464 610.326C372.665 615.771 373.884 621.297 372.544 626.644C372.001 628.806 371.05 630.926 370.105 633.032C368.295 637.064 366.51 641.042 367.676 645.149C368.011 646.325 368.927 647.621 370.133 647.413C371.618 647.157 371.624 645.342 371.63 643.561C371.636 641.769 371.642 640.011 373.156 639.913C372.892 642.581 374.421 647.025 376.163 646.493C377.272 646.493 377.474 644.493 377.689 642.349C377.839 640.858 377.996 639.298 378.47 638.293C379.341 639.698 379.198 641.115 379.088 642.211C379.042 642.665 379.002 643.065 379.042 643.385ZM342.372 351.945C342.266 339.122 344.767 326.438 347.258 313.859C349.283 303.635 351.435 293.099 357.317 284.492C355.562 285.318 353.398 284.048 352.556 282.302C351.715 280.556 351.836 278.52 351.975 276.587L353.898 249.908C354.002 248.465 353.352 246.369 351.973 246.808C344.858 249.071 336.982 248.863 329.997 246.227C328.951 245.832 328.312 247.374 328.263 248.49C325.986 300.097 342.532 371.395 342.372 351.945ZM315.773 652.73C316.801 652.587 317.578 654.924 318.224 656.87C318.539 657.818 318.823 658.673 319.091 659.102C319.95 660.483 322.292 659.956 323.117 658.554C323.554 657.812 323.483 656.088 323.423 654.63C323.37 653.335 323.325 652.25 323.653 652.25C325.488 652.25 326.078 653.718 326.64 655.117C327.197 656.501 327.726 657.817 329.407 657.576C330.781 657.378 331.667 655.999 332.055 654.668C333.457 649.847 330.832 645.414 328.153 640.888C326.704 638.441 325.24 635.968 324.387 633.392C323.245 629.943 323.226 626.265 323.208 622.591C323.188 618.722 323.169 614.858 321.836 611.27C320.983 608.971 319.629 606.907 318.28 604.85C318.004 604.429 317.728 604.008 317.457 603.586C303.559 581.958 301.054 555.085 300.556 529.387C300.105 506.125 300.982 482.838 303.182 459.676L294.473 460.922L250.581 467.2C257.276 506.848 268.362 545.605 279.425 584.264C280.839 589.204 282.258 594.157 284.227 598.904C286.333 603.978 289.064 608.793 292.338 613.205C297.248 619.822 296.878 628.746 296.534 637.036L296.533 637.043L296.533 637.049L296.509 637.644L296.49 638.094C296.485 638.213 296.48 638.333 296.475 638.453L296.464 638.717C296.456 638.904 296.448 639.092 296.44 639.281L296.418 639.755C296.051 647.995 295.628 657.495 302.806 661.139C304.573 662.036 304.33 660.389 304.029 658.35C303.796 656.771 303.528 654.956 304.131 653.903C304.327 655.803 304.545 657.772 305.528 659.41C306.511 661.048 308.491 662.255 310.327 661.724C310.844 661.442 310.629 660.182 310.372 658.668C310.096 657.045 309.77 655.131 310.245 653.821C310.819 654.758 311.07 655.736 311.332 656.755C311.611 657.844 311.902 658.98 312.612 660.164C313.84 662.213 316.937 661.058 317.143 659.16C317.259 658.094 316.811 657.104 316.372 656.132C315.861 655.003 315.361 653.899 315.773 652.73ZM245.172 401.461C247.733 370.166 250.296 338.816 249.942 307.419C249.936 306.847 249.928 306.275 249.921 305.703L249.921 305.701C249.859 300.933 249.798 296.159 250.29 291.419C250.803 286.481 251.918 281.605 253.603 276.934L227.514 273.757C227.153 273.713 226.734 273.689 226.482 273.951C226.292 274.148 226.264 274.446 226.246 274.719C223.423 317.668 229.924 361.206 245.172 401.461ZM460.952 248.041L464.132 260.888C465.212 265.251 466.301 269.695 466.046 274.183C465.79 278.672 463.983 283.293 460.312 285.891C471.541 301.733 475.379 321.707 475.997 341.109C476.325 351.428 475.826 361.743 475.327 372.06V372.061V372.061V372.062V372.062V372.062V372.063V372.063V372.064V372.064V372.065V372.065V372.066V372.066V372.067V372.067C474.888 381.148 474.448 390.229 474.573 399.315C482.147 379.199 482.449 357.191 482.659 335.7L483.226 277.703C483.342 265.811 483.456 253.871 481.897 242.08L463.626 245.689C462.315 245.948 460.631 246.745 460.952 248.041ZM394.918 49.5569C386.618 53.7415 382.313 63.5937 382.506 72.8809C382.587 76.7563 383.682 81.1244 387.091 82.9741C389.284 84.1639 392.159 83.962 394.164 82.4773C396.169 80.9927 397.199 78.3026 396.698 75.8601C396.459 74.7005 398.035 73.8183 399.12 74.294C400.204 74.7697 400.728 76.0219 400.882 77.1956C400.942 77.6477 400.962 78.1054 400.983 78.5626V78.5629V78.5631C401.016 79.2925 401.049 80.0206 401.239 80.7228C401.764 82.661 403.569 84.1837 405.57 84.3759C407.57 84.5681 409.632 83.417 410.517 81.6142C410.746 81.1483 410.904 80.6434 411.062 80.1407C411.331 79.2842 411.597 78.4338 412.207 77.793C413.174 76.7759 415.512 77.2635 415.203 78.6321C414.571 81.4316 417.525 84.1921 420.38 83.8782C423.235 83.5644 425.431 80.8395 425.752 77.9875L425.765 77.8641L425.776 77.7706C425.947 76.2102 426.168 74.2011 427.686 74.0659C428.951 75.326 429.241 77.2129 429.527 79.0734C429.847 81.1517 430.161 83.1971 431.824 84.2992C434.183 85.8627 437.437 84.0966 439.041 81.7658C441.332 78.4378 441.786 74.0891 440.966 70.1341C440.147 66.179 438.165 62.5576 435.908 59.2065C434.209 56.6835 432.321 54.2556 429.999 52.2905C422.769 46.1746 412.328 45.3799 403.007 47.0694C400.222 47.5743 397.446 48.2826 394.918 49.5569ZM277.451 585.447C276.456 590.771 276.047 596.136 275.639 601.502C275.23 606.868 274.821 612.234 273.826 617.557C273.544 619.067 271.386 623.183 268.643 628.413C263.143 638.899 255.293 653.865 255.511 661.283C255.551 662.621 256.158 665.26 257.292 665.096C259.424 664.787 259.821 662.433 260.19 660.242C260.235 659.975 260.279 659.71 260.326 659.451C260.761 657.075 261.121 656.351 263.514 656.702C264.246 656.932 264.246 657.857 263.42 659.451C262.593 661.046 261.985 663.053 262.954 664.566C263.924 666.078 266.982 665.675 266.832 663.885C266.712 662.456 267.731 661.015 269.119 660.65C269.585 661.465 269.385 662.566 269.198 663.6C268.966 664.879 268.753 666.054 269.845 666.451C271.341 666.995 272.147 664.775 272.425 663.209C272.704 661.642 274.825 659.959 275.5 661.4C273.711 663.573 271.86 668.711 276.81 668.711C278.186 668.711 278.166 666.467 278.146 664.224C278.136 663.102 278.126 661.98 278.29 661.139C279.613 661.056 280.15 662.864 279.914 664.167C279.858 664.477 279.786 664.747 279.722 664.994C279.513 665.784 279.371 666.326 280.002 667.114C281.178 668.58 283.548 667.485 284.899 666.178C290.118 661.125 292.908 654.867 293.976 647.684C295.044 640.501 294.534 633.188 294.022 625.944C293.756 622.179 293.402 618.171 291.093 615.182C284.368 606.476 279.663 596.221 277.451 585.447ZM411.191 85.0051C408.6 87.6853 403.743 87.6569 401.184 84.9466C400.947 84.6952 400.727 84.4247 400.507 84.1545C400.057 83.601 399.608 83.0487 399.012 82.6645C398.126 82.0927 396.727 82.0895 396.215 83.0108C394.075 86.8636 388.263 88.0225 384.807 85.2856L391.975 112.578C393.31 117.658 394.784 122.99 398.488 126.718C400.826 129.07 403.882 130.586 407.006 131.703C408.686 132.303 410.439 132.806 412.222 132.755C414.219 132.699 416.135 131.952 417.901 131.02C425.308 127.11 430.578 119.9 433.549 112.075C436.521 104.25 437.402 95.7946 437.756 87.4327C433.736 88.8021 428.866 86.9388 426.79 83.2366C424.018 85.9137 419.642 86.7843 416.055 85.3724C415.92 85.3192 415.782 85.2636 415.642 85.2072C414.103 84.5879 412.297 83.8607 411.191 85.0051ZM362.602 117.101C360.145 109.185 354.031 102.209 346.077 99.8567C343.206 99.0074 340.182 98.7617 337.188 98.8281C322.888 99.1451 308.242 107.901 304.17 121.601C303.845 122.693 303.604 123.936 304.178 124.92C304.73 125.868 305.868 126.282 306.928 126.569C316.196 129.076 326.586 127.019 334.198 121.171L334.29 121.1L334.394 121.02L334.396 121.018C335.233 120.371 336.1 119.701 337.139 119.542C338.26 119.37 339.607 120.107 339.601 121.24C339.55 130.961 344.425 141.367 353.497 144.878C355.388 145.61 357.692 145.968 359.314 144.753C360.352 143.976 360.888 142.713 361.331 141.495C364.166 133.707 365.058 125.017 362.602 117.101ZM324.104 78.4389C325.837 82.3541 329.027 85.4308 332.362 88.1178C338.166 92.7936 345.01 96.7295 352.461 96.9969C359.912 97.2642 367.9 92.9115 369.819 85.7133C370.818 81.9663 370.114 77.9668 368.92 74.2774C367.673 70.4253 365.713 66.5374 362.247 64.4413C352.893 58.7859 340.776 57.9738 330.751 62.3307C328.613 63.2599 326.516 64.4514 325.055 66.267C322.371 69.6032 322.372 74.5237 324.104 78.4389ZM462.114 49.6181C466.271 41.9621 465.474 31.8941 460.164 24.9865C459.396 23.9883 458.52 23.0339 457.401 22.4558C456.306 21.8901 455.049 21.7217 453.818 21.6761C447.594 21.4456 441.332 24.3125 437.442 29.1723C433.553 34.0321 432.132 40.7669 433.726 46.782C434.614 46.3628 434.951 45.2977 435.2 44.3491C435.449 43.4005 435.798 42.3357 436.692 41.9313C437.586 41.5269 438.889 42.5915 438.292 43.3696C436.296 45.969 435.341 49.3442 435.679 52.603C436.01 53.3163 437.037 52.5163 437.322 51.7832L438.598 48.4955C438.898 47.7224 439.235 46.9013 439.923 46.4377C440.611 45.974 441.755 46.107 442.033 46.8884L438.87 53.424C438.462 54.2674 438.237 55.588 439.131 55.87L447.953 49.1321C449.08 50.4099 448.044 52.469 446.672 53.4799C446.251 53.7899 445.795 54.065 445.339 54.3397C444.309 54.9607 443.283 55.5795 442.679 56.5945C445.673 56.9502 448.707 56.9644 451.705 56.6368C453.305 56.4619 454.917 56.1832 456.378 55.5083C458.91 54.3386 460.784 52.0683 462.114 49.6181ZM395.543 146.786C398.761 150.11 403.457 151.495 407.986 152.445C414.703 153.856 422.411 154.375 427.729 150.04C428.82 149.151 429.834 147.712 429.243 146.436C426.744 141.045 425.817 134.938 426.605 129.049C425.499 128.862 424.613 129.889 423.893 130.747C421.169 133.998 417.197 136.331 412.958 136.52C407.069 136.781 401.828 133.083 397.108 129.554C396.75 133.537 395.648 137.451 393.877 141.037C392.934 142.947 394.062 145.256 395.543 146.786ZM250.239 463.002C251.765 463.965 253.713 463.833 255.511 463.666C282.311 461.169 309.935 457.964 333.333 444.672C313.754 451.899 292.884 454.781 272.206 457.617C264.703 458.646 257.067 459.674 249.59 458.469C248.114 459.508 248.712 462.038 250.239 463.002ZM323.039 179.36L323.653 186.874C323.704 187.509 323.763 188.168 324.078 188.723C324.46 189.397 325.16 189.818 325.83 190.208L331.094 193.276C331.347 193.424 331.64 193.577 331.919 193.488C332.254 193.381 332.39 192.99 332.479 192.65L337.266 174.436C332.4 175.685 327.636 177.334 323.039 179.36ZM251.465 273.815C251.912 273.834 252.374 273.849 252.788 273.681C253.908 273.225 254.108 271.754 254.138 270.546C244.836 269.725 235.601 268.147 226.555 265.833C225.218 266.812 225.473 269.033 226.645 270.205C227.817 271.376 229.544 271.76 231.177 272.042C237.871 273.198 244.678 273.532 251.465 273.815ZM295.51 133.683C296.92 134.174 298.24 132.62 298.547 131.16C298.648 130.677 298.698 130.178 298.748 129.679V129.679C298.849 128.67 298.949 127.666 299.477 126.818C300.258 125.564 299.18 123.79 297.746 123.431C296.312 123.071 294.811 123.742 293.633 124.634C291.699 126.097 290.218 128.754 291.332 130.907C292.12 132.431 293.89 133.119 295.51 133.683ZM445.13 94.2006C445.003 93.7031 444.822 93.204 444.481 92.8203C443.474 91.6867 441.475 92.1 440.489 93.2518C439.502 94.4036 439.258 95.9973 439.069 97.5016C438.832 99.3793 438.621 101.26 438.433 103.143C438.384 103.636 438.573 104.354 439.055 104.239C443.291 103.228 446.202 98.4184 445.13 94.2006ZM385.69 105.487C386.005 105.309 386.306 105.076 386.467 104.752C386.715 104.252 386.582 103.656 386.445 103.115L385.628 99.9102C385.307 98.6483 384.814 97.1944 383.574 96.7914C382.19 96.3413 380.79 97.5452 380.152 98.8526C379.209 100.786 379.296 103.347 380.832 104.853C382.083 106.079 384.166 106.351 385.69 105.487ZM447.031 60.0956C445.974 59.5645 444.728 59.4172 443.576 59.687C444.541 60.7672 446.174 61.1951 447.546 60.7275C447.938 60.5169 447.538 59.7675 447.144 59.9762L447.031 60.0956ZM459.523 239.968L477.586 235.583C477.899 235.507 478.255 235.436 478.529 235.59C479.241 235.992 478.384 236.916 477.608 237.207C472.687 239.056 467.455 240.245 462.142 240.723C461.165 240.811 459.944 240.759 459.523 239.968ZM308.849 140.42C309.402 140.117 309.608 139.541 309.815 138.962C309.903 138.717 309.992 138.471 310.106 138.244C310.492 137.485 311.876 137.002 312.203 137.784C313.371 140.575 316.558 142.556 319.837 142.53C321.013 142.521 321.49 144.115 320.78 144.968C320.07 145.822 318.783 146.052 317.612 146.146C316.63 144.759 314.937 144.033 313.245 143.308L313.245 143.308C311.53 142.574 309.818 141.841 308.849 140.42ZM338.915 158.397C338.337 158.309 337.946 157.788 337.565 157.279C337.142 156.714 336.73 156.164 336.085 156.24C333.829 156.506 332.447 153.871 331.734 151.697C331.448 150.828 331.726 149.361 332.57 149.699C334.728 152.073 337.716 153.664 340.877 154.124C342.103 154.302 343.678 154.596 343.889 155.825L340.26 157.971C339.846 158.216 339.389 158.47 338.915 158.397ZM328.361 163.937C321.315 166.391 312.502 163.228 309.168 157.048C308.798 156.362 307.517 156.651 307.212 157.364C306.908 158.077 307.259 158.875 307.662 159.545C309.723 162.975 313.341 165.594 317.466 166.643C321.591 167.692 326.17 167.157 329.873 165.193C329.645 164.522 329.079 163.687 328.361 163.937ZM321.483 148.359C322.089 147.552 322.761 146.734 323.689 146.341C324.616 145.948 325.867 146.137 326.369 147.012C324.518 148.679 322.844 150.544 321.387 152.567C320.834 153.335 320.287 154.228 320.437 155.164C320.588 156.099 321.843 156.817 322.512 156.148C323.012 155.649 323.988 156.17 324.029 156.877C324.07 157.584 323.433 158.187 322.745 158.347C322.058 158.507 321.341 158.332 320.662 158.138C319.466 157.795 318.139 157.251 317.731 156.073C317.356 154.992 317.916 153.828 318.495 152.843C319.405 151.293 320.403 149.795 321.483 148.359ZM402.409 91.8973C403.834 92.0099 405.682 92.9616 405.101 94.1676C404.094 94.9511 402.709 94.6875 401.351 94.4292C400.948 94.3524 400.546 94.2761 400.158 94.2279C398.507 94.0228 396.852 94.3896 395.204 94.7553C393.385 95.1587 391.572 95.5607 389.777 95.1909C389.291 94.8828 389.37 94.1479 389.781 93.7573C390.192 93.3666 390.802 93.2302 391.378 93.1111C395.006 92.3603 398.704 91.6048 402.409 91.8973ZM424.02 92.8953C426.482 93.1983 428.998 93.1378 431.439 92.7171C431.813 91.5734 430.066 90.9004 428.759 90.7741L422.625 90.1813C421.3 90.0532 419.872 89.9434 418.718 90.5472C417.564 91.1511 416.992 92.7768 417.983 93.5849C419.374 92.3084 421.622 92.5926 423.621 92.8453C423.755 92.8622 423.889 92.8791 424.02 92.8953ZM426.79 101.871C426.705 102.127 426.368 102.217 426.08 102.254C423.445 102.601 420.67 101.943 418.543 100.466C418.037 100.113 417.532 99.6584 417.477 99.0752C417.423 98.4921 418.105 97.8725 418.666 98.1463C421.603 99.5797 425.459 99.2134 428.017 97.258C428.624 96.7938 429.648 97.3573 429.731 98.0806C429.813 98.804 429.239 99.4673 428.565 99.8452C428.162 100.071 427.72 100.226 427.277 100.38L427.277 100.38C426.98 100.484 426.683 100.588 426.397 100.714C426.275 101.126 426.435 101.597 426.79 101.871ZM418.635 114.127C420.673 112.659 422.536 110.186 421.655 107.849C418.001 112.753 411.645 115.549 405.517 114.949C404.47 114.847 403.562 115.856 403.469 116.893C403.376 117.931 403.896 118.93 404.539 119.755C407.508 123.571 413.313 124.604 417.762 122.654C422.212 120.704 425.231 116.23 426.102 111.492C426.281 110.523 426.358 109.447 425.806 108.628C425.254 107.808 423.841 107.548 423.299 108.374C424.246 109.722 424.216 111.533 423.791 113.119C422.906 116.414 420.406 119.244 417.224 120.551C414.043 121.858 410.252 121.612 407.269 119.906C406.791 119.632 406.302 119.284 406.136 118.763C405.97 118.241 406.326 117.546 406.878 117.575C411.04 117.794 415.266 116.555 418.635 114.127ZM404.946 99.2311C402.818 103.862 396.779 104.993 392.119 103.445C390.782 103 390.978 100.696 392.172 99.9226C393.367 99.149 394.897 99.434 396.266 99.7534C397.636 100.073 399.157 100.379 400.369 99.6364C400.844 99.3451 401.221 98.9192 401.598 98.4923C401.921 98.1271 402.244 97.7612 402.631 97.4784C403.469 96.8651 404.947 96.9356 405.181 97.9816C405.276 98.4032 405.125 98.8411 404.946 99.2311ZM408.018 97.8582L407.029 106.321C406.954 106.964 406.885 107.645 407.163 108.232C407.585 109.124 408.748 109.522 409.723 109.286C410.697 109.051 411.474 108.305 411.977 107.454C412.49 106.586 412.163 104.949 411.199 105.286C410.941 105.376 410.757 105.601 410.576 105.822C410.358 106.087 410.146 106.347 409.817 106.358C409.054 106.383 409.066 105.24 409.32 104.534C410.376 101.599 410.539 98.3607 409.783 95.3377C408.634 95.2979 408.148 96.739 408.018 97.8582ZM336.548 143.076C339.829 144.274 342.786 146.335 345.036 148.992C345.3 149.303 345.562 149.642 345.628 150.043C345.724 150.635 345.299 151.266 344.71 151.402C341.329 147.588 336.649 144.932 331.625 143.976C332.397 142.316 334.821 142.445 336.548 143.076ZM316.004 531.823C315.105 531.748 314.183 531.67 313.42 531.352C313.008 531.179 312.646 530.934 312.284 530.689C311.937 530.455 311.591 530.221 311.201 530.05C310.402 529.7 309.215 529.751 308.849 530.458C311.491 532.848 315.659 533.882 319.361 533.068C318.753 532.054 317.405 531.941 316.004 531.823ZM447.934 484.014L454.583 482.579C455.159 482.455 455.985 482.555 456.019 483.279C453.002 485.869 449.045 486.702 445.507 485.493C445.985 484.502 447.016 484.212 447.934 484.014ZM354.702 322.887C353.371 323.212 352.03 323.54 350.898 324.253C353.433 325.451 356.513 324.66 359.095 323.553C364.9 321.062 369.933 317.03 373.446 312.056C374.807 310.129 375.976 307.754 375.151 305.58C373.831 305.822 373.214 307.202 372.712 308.366C369.754 315.223 363.246 320.662 355.608 322.66C355.308 322.739 355.005 322.813 354.702 322.887ZM468.283 325.932C467.59 326.941 466.008 326.642 464.876 326.144C456.097 322.278 450.237 312.81 450.8 303.4C450.825 302.984 450.88 302.528 451.19 302.244C451.501 301.959 452.142 302.04 452.206 302.451C452.782 306.165 453.368 309.915 454.771 313.411C456.173 316.908 458.483 320.179 461.8 322.065C462.487 322.455 463.219 322.79 463.949 323.124C465.565 323.862 467.175 324.598 468.283 325.932ZM380.067 488.758C377.948 488.189 375.817 487.617 373.674 487.838C377.889 491.337 384.277 492.29 389.425 490.186C389.613 489.361 388.204 489.29 387.338 489.495C384.93 490.064 382.506 489.413 380.067 488.758ZM399.715 303.8C400.569 303.981 401.247 303.116 401.688 302.363C403.537 299.21 404.745 298.061 407.161 295.764L407.321 295.611C407.449 297.362 407.586 298.384 407.723 299.406C407.86 300.428 407.997 301.451 408.125 303.201C408.167 303.769 408.221 304.373 408.571 304.822C409.546 306.077 411.609 304.999 412.438 303.644C414.362 300.501 413.791 296.053 411.135 293.498C410.453 292.842 411.46 291.61 412.388 291.793C413.317 291.975 413.886 292.898 414.282 293.757C415.433 296.251 416.102 299.08 415.492 301.758C414.882 304.436 412.769 306.883 410.049 307.283C409.089 307.424 408.021 307.277 407.321 306.606C406.553 305.869 406.41 304.713 406.312 303.654L405.993 300.204C405.09 300.753 404.511 301.679 403.936 302.6C403.305 303.611 402.678 304.616 401.628 305.11C399.973 305.887 397.859 304.911 397.002 303.297C396.146 301.683 396.361 299.668 397.133 298.012C397.904 296.356 399.167 294.986 400.426 293.662C401.187 292.861 401.999 292.036 403.05 291.695C404.102 291.353 405.457 291.676 405.912 292.683C401.869 293.634 398.712 297.517 398.611 301.667C398.589 302.538 398.862 303.619 399.715 303.8ZM270.456 518.273C270.619 518.502 270.874 518.617 271.121 518.712C275.767 520.486 280.772 518.084 285.21 515.73C285.715 515.462 286.312 514.841 285.974 514.34C285.801 514.084 285.472 514.058 285.187 514.074C283.466 514.167 281.801 514.939 280.157 515.701C277.92 516.738 275.722 517.757 273.469 517.03C273.298 516.974 273.126 516.909 272.954 516.843C272.429 516.642 271.901 516.44 271.36 516.528C270.642 516.645 270.003 517.636 270.456 518.273Z" fill="#003B93"/>
<path fill-rule="evenodd" clip-rule="evenodd" d="M340.905 81.9127C341.381 84.9259 343.154 87.7641 345.782 89.7232C346.867 90.5322 347.472 91.8212 347.354 93.0733C347.635 93.6798 346.346 93.7255 345.761 93.3242C342.332 90.9747 339.837 87.5753 338.806 83.8455C338.609 83.1335 338.486 82.3147 338.977 81.7243C339.468 81.134 340.79 81.1867 340.905 81.9127V81.9127Z" fill="#003B93"/>
<path fill-rule="evenodd" clip-rule="evenodd" d="M328.291 118.904C330.431 117.585 332.731 115.891 335.13 116.483C328.3 124.238 317.395 126.274 307.653 124.551C306.841 124.407 305.941 124.176 305.5 123.421C305.059 122.666 305.623 121.349 306.411 121.605C313.64 123.946 321.728 122.948 328.291 118.904V118.904Z" fill="#003B93"/>
<circle cx="305" cy="152" r="4" fill="#B5D75C"/>
<circle cx="335" cy="165" r="4" fill="#B5D75C"/>
<circle cx="397.5" cy="113.5" r="2.5" fill="#B5D75C"/>
<circle cx="430.5" cy="111.5" r="2.5" fill="#B5D75C"/>
</svg>
