<svg width="750" height="592" viewBox="0 0 750 592" fill="none" xmlns="http://www.w3.org/2000/svg">
<path fill-rule="evenodd" clip-rule="evenodd" d="M722.926 232.351C714.285 296.776 704.531 330.807 647.602 398.276C590.673 465.744 330.161 510.129 233.85 510.129C137.539 510.129 18.8465 435.863 26.3375 349.813C33.8285 263.764 72.9103 193.433 166.454 184.776C262.051 175.928 346.025 216.901 439.879 194.926C521.02 175.928 545.846 103.513 601.576 80.6662C714.285 34.4607 728.804 188.522 722.926 232.351Z" fill="#0053CE" fill-opacity="0.32"/>
<path d="M664.94 263.816C661.756 269.213 621.446 296.524 596.994 300.566C592.263 301.348 587.096 301.617 582.985 299.146C580.557 297.686 578.748 295.41 577.029 293.158C573.1 288.01 569.351 282.723 565.793 277.311C563.922 274.467 562.068 271.499 561.433 268.155C559.75 259.3 566.888 251.347 573.942 245.737C590.157 232.84 609.142 223.444 629.231 218.376C632.787 217.479 636.558 216.719 640.081 217.738C645.799 219.392 649.218 225.178 651.399 230.716C653.581 236.254 655.282 242.312 659.643 246.363C660.639 247.288 668.123 258.419 664.94 263.816Z" fill="white"/>
<path fill-rule="evenodd" clip-rule="evenodd" d="M448.343 499.104C409.221 505.794 427.867 477.361 433.262 441.772C442.127 383.293 453.059 294.425 453.059 294.425C453.059 294.425 460.188 429.839 460.188 462.811C460.188 495.784 453.058 498.298 448.343 499.104Z" fill="white"/>
<path d="M406.541 466.886C407.539 476.303 408.592 485.919 412.594 494.501C410.41 475.067 408.227 455.632 406.043 436.198C405.774 433.798 405.854 430.743 408.061 429.764C409.93 451.709 412.715 473.576 416.408 495.289C416.846 497.867 412.974 499.34 410.799 497.888C408.625 496.436 407.929 493.609 407.435 491.042C403.831 472.331 401.85 453.309 401.521 434.258C396.933 435.161 393.716 439.609 392.788 444.192C391.86 448.774 392.754 453.507 393.648 458.097C396.525 472.87 399.402 487.643 402.279 502.416C403.625 509.326 404.971 516.465 403.486 523.347C397.776 497.276 393.185 470.961 389.731 444.497C345.917 471.289 289.462 476.271 241.633 457.566C231.187 453.481 220.812 448.068 213.913 439.225C208.478 432.258 205.578 423.609 204.058 414.905C198.662 383.992 209.72 352.46 224.729 324.902C230.424 314.445 236.91 303.554 236.45 291.657C236.292 287.56 235.409 283.025 237.801 279.695C238.139 280.312 222.141 165.872 228.559 140.558C244.009 79.6171 294.201 71.364 326.337 72.1156C347.899 72.62 484.573 99.7817 504.32 136.719C530.273 185.264 524.763 226.079 520.154 252.991C518.782 261.005 453.076 293.834 453.058 294C449.302 328.92 424.094 405.011 402.953 433.057C404.149 444.333 405.345 455.61 406.541 466.886Z" fill="white"/>
<path fill-rule="evenodd" clip-rule="evenodd" d="M91.0622 324.798C78.7401 319.879 64.0558 321.337 52.9466 328.584C51.8711 329.286 50.3249 328.504 49.7924 327.336C49.26 326.169 49.4592 324.811 49.7315 323.558C53.2795 307.23 67.4139 294.737 83.1326 288.996C98.8513 283.254 116.045 283.238 132.754 284.22C134.412 284.317 136.145 284.446 137.559 285.316C138.973 286.185 139.925 288.043 139.22 289.544C132.647 303.541 127.696 318.295 124.496 333.42C123.977 335.872 121.436 337.5 118.933 337.704C116.43 337.909 113.978 336.985 111.707 335.916C104.628 332.584 98.3287 327.698 91.0622 324.798" fill="white"/>
<path fill-rule="evenodd" clip-rule="evenodd" d="M469.808 78.3129C470.42 68.9465 469.714 59.495 467.717 50.3234L467.674 50.1281L467.674 50.1277C467.335 48.577 466.987 46.982 467.299 45.43C467.99 41.9975 471.802 39.9315 475.303 40.0035C478.803 40.0756 482.046 41.7466 485.144 43.3785C499.999 51.2044 515.123 59.2278 526.819 71.2746C527.186 81.0275 524.888 90.652 522.619 100.153L522.406 101.046C512.933 140.757 505.177 180.877 499.165 221.258C498.588 225.128 497.496 229.694 493.825 231.049C491.192 232.021 488.13 230.779 486.259 228.686C484.388 226.593 483.494 223.814 482.87 221.077C481.331 214.325 481.146 207.267 482.329 200.443C483.052 196.27 484.274 192.211 485.497 188.151L485.498 188.15L485.498 188.15L485.498 188.149L485.498 188.149L485.498 188.149L485.498 188.148L485.498 188.148C486.596 184.504 487.694 180.858 488.431 177.129C489.168 173.399 489.54 169.608 489.901 165.823C491.818 145.696 493.444 125.541 494.779 105.367C494.967 102.516 495.139 99.576 494.205 96.8758C492.544 92.0734 487.706 89.038 482.819 87.6463C481.976 87.4064 481.121 87.2024 480.265 86.9984C478.274 86.5236 476.284 86.0492 474.467 85.1237C471.871 83.8007 469.618 81.2212 469.808 78.3129ZM478.885 77.5431C485.793 79.0009 492.544 81.2022 498.984 84.0967C500.281 84.6795 501.645 85.3617 502.345 86.5987C502.917 87.609 502.95 88.8257 502.967 89.9867C503.17 103.622 503.213 117.293 501.769 130.854C500.904 138.973 499.509 147.022 498.115 155.071C497.673 157.618 497.232 160.166 496.807 162.715C494.706 175.331 493.015 188.016 491.738 200.742C490.811 209.976 490.132 219.519 493.004 228.344C494.478 228.074 495.045 226.3 495.324 224.828L521.868 84.9203C522.511 81.5305 523.153 78.0258 522.396 74.6597C521.069 68.7666 515.838 64.669 510.795 61.3442C501.087 54.9437 490.753 49.4924 479.989 45.0934C479.093 55.8835 478.725 66.7172 478.885 77.5431ZM492.536 169.428C497.396 144.477 499.591 119.009 499.073 93.5943C499.034 91.6748 498.931 89.6121 497.757 88.093C496.896 86.9798 495.582 86.3279 494.298 85.7528C489.476 83.593 484.407 81.9859 479.222 80.973C477.721 80.6798 475.515 80.9975 475.58 82.5253L494.218 90.227C495.311 90.6787 496.476 91.1896 497.094 92.1984C497.7 93.1877 497.641 94.4305 497.562 95.588L492.536 169.428ZM475.192 42.6254C473.655 41.6068 471.435 42.6568 470.579 44.2896C469.723 45.9223 469.854 47.8769 470.048 49.7101C470.332 52.3998 470.707 55.0909 471.082 57.7824C472.121 65.2497 473.161 72.7199 472.278 80.1716C473.687 80.6553 475.261 79.662 475.944 78.3378C476.628 77.0137 476.646 75.4583 476.648 73.9681L476.696 47.0962C476.698 45.4538 476.56 43.5329 475.192 42.6254ZM488.992 227.737C488.146 221.097 487.924 214.376 488.331 207.694C488.548 204.121 488.944 200.561 489.341 197.001L489.341 197.001C489.865 192.293 490.389 187.587 490.499 182.854C486.628 194.375 485.166 206.7 486.235 218.808C486.513 221.957 487.029 225.259 488.992 227.737ZM491.123 176.048C491.746 175.769 492.007 174.894 491.64 174.319C491.007 174.63 490.739 175.513 491.09 176.125L491.123 176.048ZM485.334 118.344C454.528 99.3454 419.695 87.9627 384.86 78.1407C373.724 75.0009 362.495 71.9922 350.997 70.7041C316.929 66.8874 282.391 78.642 254.063 97.9491C242.702 105.692 231.74 115.217 226.832 128.06C223.19 137.589 223.215 148.079 223.566 158.274C224.778 193.436 229.289 228.391 233.796 263.283C237.319 262.648 237.667 257.775 237.157 254.232C232.471 221.691 229.844 188.855 229.296 155.984C229.142 146.766 229.19 137.316 232.38 128.667C238.155 113.01 253.048 102.77 267.661 94.712C286.067 84.5622 306.075 76.0301 327.089 75.5772C352.544 75.0286 376.672 86.3198 398.908 98.7206C411.305 105.634 423.874 113.354 431.761 125.156C438.922 135.872 441.524 148.932 443.403 161.683C449.366 202.153 449.585 243.222 449.792 284.128C449.8 285.783 449.699 287.679 448.403 288.708C447.516 289.411 446.306 289.499 445.176 289.558L403.648 291.719C422.999 297.283 444.466 295.089 462.291 285.724L508.434 261.484C512.741 259.221 517.186 256.845 520.155 252.991C524.24 247.687 524.825 240.551 525.017 233.859C525.729 209.142 523.258 184.336 517.683 160.245C519.616 186.305 519.884 212.488 518.485 238.582C518.247 243.038 517.889 247.714 515.466 251.461C512.878 255.463 508.378 257.73 504.091 259.814L454.293 284.017C456.354 245.325 454.756 206.439 449.526 168.046C447.767 155.134 445.523 142.04 439.614 130.425C425.648 102.975 394.738 89.3962 366.17 77.8903C408.881 90.3859 452.079 103.088 490.504 125.536C491.004 122.435 488.008 119.993 485.334 118.344ZM644.481 236.453C646.695 242.159 649.808 248.242 655.529 250.417C656.884 250.521 657.694 248.724 657.249 247.44C656.878 246.367 656.004 245.585 655.146 244.818C655.06 244.741 654.975 244.665 654.89 244.588C654.846 244.549 654.803 244.509 654.76 244.47L654.704 244.419L654.644 244.363C651.003 240.981 649.216 236.2 647.456 231.49L647.454 231.487C647.107 230.557 646.76 229.629 646.4 228.716C644.219 223.178 640.8 217.392 635.082 215.738C631.559 214.719 627.788 215.479 624.232 216.376C604.143 221.444 585.158 230.84 568.943 243.737C561.889 249.347 554.751 257.3 556.434 266.155C557.069 269.499 558.923 272.467 560.794 275.311C564.352 280.723 568.101 286.01 572.03 291.158C573.749 293.41 575.558 295.686 577.986 297.146C582.097 299.617 587.264 299.348 591.995 298.566C616.447 294.524 637.375 279.328 657.289 264.575C658.326 263.807 659.404 262.989 659.941 261.816C660.478 260.643 660.249 259.012 659.109 258.407C657.804 257.713 656.263 258.671 655.099 259.582C636.568 274.091 616.772 288.269 593.795 293.366C589.439 294.332 584.638 294.901 580.719 292.768C577.787 291.172 575.807 288.303 573.938 285.538L562.346 268.387C561.37 266.942 560.358 265.39 560.322 263.647C560.285 261.903 561.694 260.018 563.423 260.243C579.671 262.356 595.996 263.875 612.355 264.796C613.657 264.869 615.019 264.928 616.206 264.386C617.734 263.688 618.666 262.142 619.481 260.673C626.407 248.188 631.697 234.797 635.174 220.95C639.796 224.264 641.954 229.879 644.012 235.235L644.014 235.24C644.17 235.646 644.325 236.051 644.481 236.453ZM630.181 219.854C627.085 231.435 622.506 242.618 616.59 253.043C615.599 254.791 614.497 256.591 612.763 257.606C610.557 258.898 607.812 258.654 605.271 258.371L564.799 253.855C571.513 244.981 581.489 239.223 591.456 234.275C600.89 229.591 610.575 225.413 620.456 221.764C623.585 220.609 626.866 219.49 630.181 219.854ZM406.541 466.886C407.539 476.303 408.592 485.919 412.594 494.501L406.043 436.198C405.774 433.798 405.854 430.743 408.061 429.764C409.93 451.709 412.715 473.576 416.408 495.289C416.846 497.867 412.974 499.34 410.799 497.888C408.625 496.436 407.929 493.609 407.435 491.042C403.831 472.331 401.85 453.309 401.521 434.258C396.933 435.161 393.716 439.609 392.788 444.192C391.86 448.774 392.754 453.507 393.648 458.097L402.279 502.416C403.625 509.326 404.971 516.465 403.486 523.347C397.776 497.276 393.185 470.961 389.731 444.497C345.917 471.289 289.462 476.271 241.633 457.566C231.187 453.481 220.812 448.068 213.913 439.225C208.478 432.258 205.578 423.609 204.058 414.905C198.662 383.992 209.72 352.46 224.729 324.902C225.116 324.191 225.507 323.479 225.899 322.764L225.909 322.745L225.909 322.744L225.91 322.743L225.91 322.743L225.91 322.742L225.911 322.742C231.282 312.945 236.878 302.738 236.45 291.657C236.422 290.924 236.37 290.178 236.319 289.427C236.081 285.977 235.836 282.429 237.801 279.695C240.436 284.489 241.439 290.161 240.609 295.568C285.968 293.615 331.394 293.222 376.78 294.389C377.309 296.476 374.286 297.445 372.134 297.413C329.779 296.781 287.403 297.503 245.094 299.576C243.755 299.642 242.348 299.729 241.212 300.442C240.017 301.193 239.321 302.51 238.679 303.766C226.671 327.261 214.624 351.098 208.82 376.837C205.835 390.074 204.692 404.561 210.809 416.672C213.13 421.267 216.412 425.325 220.077 428.939C239.751 448.345 269.212 454.295 296.843 453.831C314.478 453.534 332.074 450.999 349.075 446.306C367.099 441.33 385.074 433.486 397.377 419.406C404.601 411.137 409.512 401.123 413.812 391.02C422.023 371.729 428.321 351.624 432.583 331.096C435.253 331.657 435.29 335.432 434.674 338.089C427.053 370.965 418.196 406.007 393.096 428.566C370.426 448.94 338.481 455.258 308.049 456.963C290.47 457.947 272.614 457.639 255.587 453.158C238.561 448.677 222.303 439.712 211.494 425.815C214.647 437.835 225.326 446.414 236.444 451.966C265.635 466.543 300.107 465.772 332.34 460.705C353.812 457.33 375.851 451.791 392.561 437.891C406.844 426.01 415.947 409.041 422.798 391.772C430.382 372.656 435.643 352.62 438.429 332.245C440.163 331.148 441.449 334.214 441.229 336.254C437.473 371.174 424.094 405.011 402.953 433.057L406.541 466.886ZM386.24 526.601C384.378 523.455 383.178 519.919 382.744 516.29L380.067 525.359L373.314 499.602C372.79 497.604 371.515 495.103 369.494 495.533C367.53 495.95 367.31 498.646 367.602 500.632C369.074 510.624 371.88 520.419 375.923 529.674L368.74 523.372C368.391 526.372 369.181 529.492 370.916 531.964C367.175 529.209 362.157 528.27 357.673 529.486C360.877 533.938 365.227 537.558 370.188 539.899L364.119 531.428C369.025 534.26 374.164 536.686 379.468 538.675L374.326 532.227L380.679 533.988C375.817 522.928 370.865 511.446 370.982 499.365C372.823 509.193 375.516 518.861 379.024 528.224C379.618 529.81 380.278 531.451 381.544 532.577C382.811 533.703 384.868 534.127 386.194 533.073C387.226 532.253 387.527 530.84 387.76 529.544L390.622 513.674L393.765 533.355C396.148 527.335 403.899 525.827 410.372 525.786C418.921 525.733 427.533 526.675 436.123 527.614H436.124H436.124H436.124H436.124H436.125H436.125H436.125H436.125C451.611 529.308 467.024 530.993 481.862 526.828C481.426 529.122 480.664 531.353 479.605 533.435C491.578 531.692 503.692 530.927 515.789 531.15C520.898 531.244 526.022 531.513 531.146 531.782H531.146H531.147H531.147H531.147H531.148H531.148H531.149H531.149C544.696 532.493 558.243 533.204 571.515 530.689L483.425 529.915C485.08 529.819 486.348 527.895 485.784 526.337C485.22 524.778 483.015 524.111 481.682 525.096C480.815 522.342 476.921 521.117 474.634 522.88C475.96 518.792 478.582 515.135 482.028 512.568C478.139 512.359 474.188 513.55 471.062 515.873L480.537 472.022C479.736 471.332 478.4 471.796 477.808 472.671C477.222 473.538 477.157 474.64 477.095 475.686L477.093 475.718C476.206 490.692 470.926 505.379 462.076 517.49L458.6 507.436L453.619 519.446C451.362 517.697 448.16 517.256 445.514 518.329C446.19 520.897 448.244 523.058 450.775 523.862L451.953 520.704L459.735 525.916C456.761 522.799 456.116 517.701 458.221 513.942L462.93 521.84L472.057 503.789C472.109 511.037 469.002 517.887 465.957 524.465C469.267 521.873 472.111 518.69 474.316 515.111C476.444 518.879 474.12 523.933 470.418 526.176C466.717 528.42 462.14 528.542 457.815 528.359C451.217 528.08 444.569 527.251 437.929 526.424L437.929 526.423C423.017 524.565 408.146 522.711 393.981 527.101L391.939 508.268C388.819 513.906 386.866 520.187 386.24 526.601ZM475.115 527.103C474.795 526.721 474.797 526.107 475.119 525.727L475.376 525.824C475.809 524.788 477.628 524.873 477.962 525.944C477.123 526.55 476.138 526.951 475.115 527.103ZM523.24 327.002C512.981 321.817 500.772 323.216 489.384 324.777C486.166 325.218 482.885 325.681 479.97 327.114C477.055 328.547 474.517 331.142 474.014 334.35C446.2 330.878 419.547 318.635 398.791 299.799C394.286 295.71 389.689 289.889 391.715 284.153C392.352 282.35 393.591 280.828 394.88 279.416C404.557 268.806 417.899 262.425 430.888 256.3C416.167 257.591 402.042 264.751 392.299 275.861C390.066 278.408 388.007 281.252 387.238 284.551C385.339 292.695 391.665 300.335 397.995 305.798C418.195 323.232 443.602 334.553 470.072 337.915C471.659 338.117 471.741 340.349 471.596 341.942C470.951 349.03 474.814 355.947 480.17 360.635C485.525 365.323 492.232 368.139 498.888 370.66C519.5 378.467 540.891 384.217 562.639 387.797C564.076 388.033 566.05 387.921 566.353 386.497C561.334 383.177 555.293 381.912 549.387 380.675L549.386 380.675L549.007 380.596C548.814 380.555 548.622 380.515 548.43 380.475C533.455 377.322 518.681 373.216 504.226 368.19C498.296 366.127 492.352 363.876 487.182 360.314C482.011 356.753 477.62 351.722 475.966 345.665C475.15 342.675 476.258 338.21 479.335 338.586C491.865 340.119 504.74 341.632 516.975 338.524C519.744 337.82 522.63 336.76 524.318 334.455C526.006 332.15 525.79 328.291 523.24 327.002ZM491.634 335.282C487.333 334.542 482.938 334.344 478.588 334.694C480.702 330.678 485.865 329.621 490.362 329.009C500.134 327.678 510.311 326.381 519.674 329.479C520.293 329.684 520.953 329.945 521.288 330.504C521.728 331.24 521.407 332.242 520.781 332.828C520.155 333.415 519.302 333.681 518.476 333.911C509.777 336.343 500.536 336.815 491.634 335.282ZM349.302 537.858C356.5 537.657 363.742 539.248 370.193 542.449C368.469 544.927 365.003 545.274 361.986 545.389L283.136 548.381C282.414 548.291 282.278 547.175 282.789 546.658C283.301 546.14 284.102 546.073 284.829 546.038L361.802 542.284C357.354 541.876 353.015 540.339 349.302 537.858ZM197.558 277.085C196.434 282.458 200.981 288.192 206.456 288.598C197.503 302.091 181.376 308.749 165.88 313.45C156.209 316.383 145.481 318.792 136.262 314.653C135.118 315.352 136.338 317.073 137.546 317.656C146.518 321.979 157.155 319.57 166.698 316.722C180.694 312.545 195.12 307.147 204.644 296.073C205.033 295.62 205.421 295.153 205.812 294.684L205.813 294.683L205.813 294.683L205.813 294.682C208.264 291.737 210.82 288.665 214.506 287.983C226.37 285.789 236.252 278.357 246.017 271.014L246.017 271.014L246.018 271.013L246.018 271.013L246.019 271.013C248.233 269.348 250.441 267.687 252.665 266.093C266.184 256.404 281.179 248.776 296.972 243.555C298.367 243.094 300.063 242.238 299.939 240.775C280.359 242.572 263.244 254.248 247.463 265.977L246.936 266.368C236.211 274.342 225.004 282.674 211.807 284.65C216.117 281.25 215.207 273.394 210.344 270.847C205.48 268.3 198.682 271.711 197.558 277.085ZM201.212 280.368C200.332 277.762 201.69 274.661 204.104 273.34C204.789 272.965 205.556 272.716 206.337 272.715C208.915 272.712 210.798 275.47 210.814 278.048C210.831 280.625 209.525 283.003 208.255 285.246C205.284 284.791 202.173 283.216 201.212 280.368ZM494.203 222.927C493.474 222.114 493.698 221.02 493.93 219.886C494.094 219.085 494.263 218.264 494.101 217.509C493.961 216.855 493.579 216.298 493.196 215.738C492.858 215.244 492.518 214.748 492.344 214.182C492.383 213.434 493.384 213.05 494.065 213.36C494.747 213.671 495.129 214.403 495.367 215.113C496.235 217.705 495.789 220.7 494.203 222.927ZM428.197 166.053C430.021 161.727 433.638 157.891 438.25 157.013C439.742 156.729 439.696 154.269 438.388 153.495C437.081 152.722 435.401 153.179 434.029 153.832C427.64 156.873 423.606 163.568 422.026 170.465C420.445 177.362 420.968 184.546 421.499 191.602L424.324 229.108C424.42 230.384 424.537 231.723 425.247 232.786C426.694 234.953 429.795 235.021 432.395 234.856L445.553 234.02C442.629 231.728 438.704 230.763 435.05 231.438C432.917 231.832 430.773 230.425 429.643 228.573C428.512 226.721 428.181 224.505 427.901 222.353C426.067 208.277 425.394 194.05 425.892 179.864C426.056 175.172 426.372 170.378 428.197 166.053ZM461.793 498.971C461.046 499.513 460.297 498.279 460.188 497.362C455.103 454.619 454.336 411.495 453.575 368.458L453.062 339.444C453.047 338.618 453.059 337.712 453.59 337.079C454.505 335.989 456.428 336.489 457.226 337.666C458.025 338.844 458.026 340.369 458 341.792C457.217 384.143 457.731 426.576 461.786 468.74C461.835 469.252 461.885 469.766 461.935 470.28C462.865 479.857 463.808 489.58 461.793 498.971ZM419.519 229.547C418.405 228.936 417.031 229.282 415.812 229.642C359.44 246.315 303.197 263.507 247.782 283.129C246.745 283.496 245.558 284.025 245.32 285.099C245.068 286.237 246.139 287.324 247.285 287.535C248.432 287.746 249.591 287.336 250.685 286.934C306.219 266.504 362.59 248.347 419.608 232.523C420.832 232.183 420.632 230.159 419.519 229.547Z" fill="#00160A"/>
<path fill-rule="evenodd" clip-rule="evenodd" d="M620.367 484.587C619.054 485.164 617.633 485.701 616.22 485.458C614.808 485.215 613.486 483.888 613.77 482.483C616.364 469.636 613.107 455.724 605.078 445.364C602.265 441.734 598.915 438.539 596.173 434.854C594.446 432.531 592.909 429.611 593.785 426.852C595.032 422.927 600.053 421.972 604.162 421.692C613.714 421.041 623.267 420.39 632.819 419.739C637.22 419.439 642.29 419.394 645.228 422.685C653.407 431.846 669.348 432.462 678.208 423.958C679.58 422.642 681.306 425.262 681.252 427.161C681.081 433.134 678.619 439.013 674.483 443.326C673.507 444.343 672.259 445.34 670.857 445.194C669.455 445.048 668.421 443.035 669.539 442.176C671.937 440.334 674.38 438.445 676.062 435.931C677.744 433.417 678.559 430.122 677.412 427.323C671.242 435.129 665.012 442.889 658.725 450.601C647.822 463.972 636.163 477.649 620.367 484.587M637.596 445.241C636.027 445.675 634.353 445.341 632.786 444.899C621.512 441.713 611.125 432.904 599.592 434.966C613.039 445.796 620.179 463.955 617.709 481.044C626.57 479.147 633.566 472.532 639.842 465.996C649.13 456.321 657.95 446.196 666.259 435.669C660.287 435.619 654.337 433.897 649.262 430.747C642.993 432.298 643.821 443.519 637.596 445.241M645.784 427.453C642.049 423.05 635.338 423.186 629.586 423.692C622.084 424.351 614.582 425.009 607.08 425.668C604.034 425.936 600.536 426.47 598.948 429.083C611.933 431.801 624.591 436.071 636.57 441.772C638.11 436.933 641.198 432.599 645.269 429.563C645.727 429.222 646.251 428.783 646.19 428.216C646.159 427.925 645.974 427.676 645.784 427.453V427.453Z" fill="#B5D75C"/>
<path fill-rule="evenodd" clip-rule="evenodd" d="M89.6086 322.457C78.3093 317.939 64.844 319.279 54.657 325.936C53.6708 326.58 52.2529 325.862 51.7647 324.79C51.2765 323.718 51.4591 322.47 51.7088 321.319C54.9623 306.319 67.9234 294.842 82.3373 289.567C96.7511 284.293 112.517 284.278 127.84 285.18C129.36 285.269 130.949 285.388 132.246 286.187C133.543 286.985 134.415 288.693 133.769 290.072C127.741 302.93 123.201 316.484 120.267 330.378C119.791 332.631 117.461 334.126 115.166 334.314C112.871 334.502 110.622 333.654 108.539 332.671C102.048 329.611 96.2719 325.122 89.6086 322.457M90.9002 307.28C89.8932 308.098 88.3192 307.666 87.3716 306.78C86.4241 305.893 85.8842 304.667 85.1393 303.604C81.1442 297.905 71.9761 298.378 66.5418 302.726C61.1074 307.075 58.4777 313.945 56.0831 320.48C72.0262 313.555 91.6629 316.04 105.378 326.719C107.251 328.177 109.109 329.82 111.415 330.381C113.721 330.942 116.626 329.934 117.21 327.633C120.33 315.345 124.175 303.24 128.718 291.404C120.001 302.239 101.694 298.511 90.9002 307.28M87.431 300.732C88.3263 301.857 89.9518 302.155 91.3669 301.901C92.7819 301.647 94.0675 300.943 95.386 300.37C99.9254 298.396 104.953 297.956 109.82 297.054C114.687 296.152 119.706 294.625 123.132 291.052C115.402 291.029 107.672 291.006 99.9425 290.983C92.1742 290.959 83.8031 291.124 77.5624 295.75C81.3614 295.889 85.0635 297.757 87.431 300.732Z" fill="#B5D75C"/>
<path fill-rule="evenodd" clip-rule="evenodd" d="M452.627 321.421C452.609 314.622 452.591 307.823 452.572 301.024C452.567 299.071 452.562 297.118 452.557 295.166C452.553 293.819 452.779 292.134 454.059 291.716C455.026 291.399 456.092 292.095 456.544 293.007C456.997 293.919 456.992 294.982 456.976 296.001C456.835 305.489 456.694 314.977 456.553 324.466C456.532 325.83 456.304 327.509 455.026 327.988C452.895 326.781 452.634 323.87 452.627 321.421H452.627Z" fill="#00160A"/>
<path fill-rule="evenodd" clip-rule="evenodd" d="M439.054 315.129C438.07 315.56 437.562 313.939 437.714 312.875C438.258 309.067 438.804 305.252 439.73 301.519C440.307 299.195 441.138 296.75 443.057 295.318C444.977 293.887 448.273 294.137 449.212 296.34C449.667 297.407 449.477 298.626 449.269 299.767C447.976 306.83 446.236 313.811 444.061 320.655C443.969 320.945 443.868 321.248 443.648 321.459C443.113 321.972 442.147 321.627 441.776 320.985C441.406 320.343 441.454 319.551 441.513 318.812C442.397 318.748 442.809 317.708 443.021 316.848C443.888 313.334 444.755 309.82 445.621 306.306C446.296 303.572 446.911 300.459 445.341 298.121C443.729 299.113 443.123 301.122 442.644 302.953C441.678 306.638 440.713 310.323 439.748 314.008C439.632 314.449 439.471 314.946 439.054 315.129L439.054 315.129Z" fill="#00160A"/>
</svg>
