<svg width="560" height="715" viewBox="0 0 560 715" fill="none" xmlns="http://www.w3.org/2000/svg">
<path fill-rule="evenodd" clip-rule="evenodd" d="M348.409 128.313C349.584 85.3375 294.383 11.9721 203.952 24.7548C104.942 38.7498 33.1008 150.846 47.4123 276.135L47.9574 280.947C56.7432 359.201 59.6788 420.844 44.4986 507.645C33.1489 572.543 113.857 716.223 292.387 693.494C470.917 670.764 568.979 459.829 484.73 360.301C372.203 227.361 345.838 222.373 348.409 128.313Z" fill="#0053CE" fill-opacity="0.32"/>
<path fill-rule="evenodd" clip-rule="evenodd" d="M242.385 253.609C239.322 245.843 233.52 239.5 228.498 232.796C215.069 214.873 206.741 193.279 204.701 171.091C203.612 159.246 207.747 101.434 229.614 87.8716C218.818 84.5965 207.747 81.1815 198.892 74.2712C190.037 67.3609 183.77 56.0634 186.153 45.1837C189.76 28.7168 211.465 21.6472 227.655 27.0596C243.846 32.4719 255.492 46.1644 266.268 59.2429C276.572 58.3876 279.13 43.428 288.541 39.2065C294.889 36.3589 302.269 39.2784 308.423 42.5131C326.332 51.9264 343.106 64.8345 352.575 82.5246C362.045 100.215 362.865 123.307 350.799 139.39C355.194 134.432 364.302 140.598 363.782 147.161C363.261 153.724 357.377 158.487 351.76 162.05C346.143 165.614 339.866 169.309 337.646 175.518C332.059 191.148 323.182 205.629 311.742 217.775C304.752 225.196 296.728 231.874 291.543 240.615C286.359 249.357 284.627 261.105 290.674 269.29C298.715 260.858 312.574 258.486 323.03 263.755C333.485 269.023 339.647 281.482 337.416 292.842C351.985 294.074 365.073 305.446 368.137 319.534C397.676 348.873 421.803 383.486 438.993 421.184C449.904 445.112 458.007 470.172 466.085 495.167C469.246 504.948 472.445 515.193 470.684 525.31C467.109 545.854 444.491 557.957 423.482 560.388C397.324 563.416 370.067 555.898 349.306 539.929C338.217 573.909 327.147 611.025 339.754 644.487C342.454 651.653 337.055 659.792 330.002 662.977C322.95 666.161 314.832 665.696 307.093 665.167C263.716 662.204 220.34 659.242 176.963 656.279C167.873 655.658 155.445 650.389 158.663 641.989C165.848 623.231 167.901 602.592 164.549 582.816C161.991 596.135 157.557 609.103 151.412 621.231C151.412 621.231 129.76 665.167 108.168 642.619C95.8609 618.117 95.3303 589.426 98.963 562.322C102.596 535.219 110.105 508.697 113.04 481.512C115.898 455.028 114.379 428.23 117.175 401.74C119.97 375.249 127.697 348.121 146.047 328.566C160.566 313.094 175.085 297.622 189.604 282.15C193.513 277.985 197.633 273.677 203.038 271.722C208.444 269.768 215.51 271.011 218.29 275.979C221.717 271.778 225.727 267.25 231.167 266.688C236.608 266.126 242.285 272.693 238.793 276.841C245.052 271.239 245.448 261.376 242.385 253.609Z" fill="white"/>
<path fill-rule="evenodd" clip-rule="evenodd" d="M358.137 319.534C387.676 348.873 411.803 383.486 428.993 421.184C439.904 445.112 448.007 470.172 456.085 495.167C459.246 504.948 462.445 515.193 460.684 525.31C457.109 545.854 434.491 557.957 413.482 560.388C387.324 563.416 361.745 554.328 340.984 538.359C329.895 572.339 317.147 611.025 329.754 644.487C330.896 647.52 333.876 650.95 332.606 653.882C330.876 657.878 324.07 661.14 320.002 662.977C318.931 663.46 321.791 653.463 321.666 638.792C321.454 613.823 310.829 527.076 335.838 532.807C396.92 546.803 442.973 544.633 443.939 529.702C448.842 453.901 355.073 305.446 358.137 319.534Z" fill="#E7EAEE"/>
<path fill-rule="evenodd" clip-rule="evenodd" d="M235.385 253.609C232.984 247.52 228.899 242.306 224.826 237.108L224.825 237.107L224.825 237.106L224.824 237.106L224.824 237.105L224.823 237.104L224.823 237.104L224.822 237.103L224.822 237.102L224.821 237.101L224.821 237.101L224.82 237.1L224.819 237.099L224.819 237.098L224.818 237.098L224.818 237.097C223.698 235.668 222.58 234.241 221.498 232.796C208.069 214.873 199.741 193.279 197.701 171.091C196.612 159.246 200.747 101.434 222.614 87.8716C211.818 84.5965 200.747 81.1815 191.892 74.2712C183.037 67.3609 176.77 56.0634 179.153 45.1837C182.76 28.7168 204.465 21.6472 220.655 27.0596C236.846 32.4719 248.492 46.1644 259.268 59.2429C264.943 58.7718 268.269 54.0219 271.683 49.1442C274.468 45.1661 277.313 41.1029 281.541 39.2065C287.889 36.3589 295.269 39.2784 301.423 42.5131C319.332 51.9264 336.106 64.8345 345.575 82.5246C355.045 100.215 355.865 123.307 343.799 139.39C348.194 134.432 357.302 140.598 356.782 147.161C356.261 153.724 350.377 158.487 344.76 162.05C344.461 162.24 344.16 162.43 343.858 162.621C338.486 166.015 332.748 169.64 330.646 175.518C325.059 191.148 316.182 205.628 304.742 217.775C302.882 219.75 300.948 221.672 299.014 223.595C293.682 228.897 288.348 234.2 284.543 240.615C279.359 249.357 277.627 261.105 283.674 269.29C291.715 260.858 305.574 258.486 316.03 263.755C326.485 269.023 332.647 281.482 330.416 292.842C344.985 294.074 358.073 305.446 361.137 319.534C390.676 348.873 414.803 383.486 431.993 421.184C442.904 445.112 451.007 470.172 459.085 495.167C462.246 504.948 465.445 515.193 463.684 525.31C460.109 545.854 437.491 557.957 416.482 560.388C390.324 563.416 363.067 555.898 342.306 539.929C331.217 573.909 320.147 611.025 332.754 644.487C333.87 647.45 333.602 650.578 332.405 653.454C324.196 635.878 322.692 615.815 324.888 596.579C327.102 577.187 332.889 558.388 338.649 539.717C339.604 536.621 334.613 535.804 331.359 535.365C325.581 534.584 321.389 529.734 317.775 525.224L303.084 506.886C293.602 495.051 282.67 482.348 267.545 480.056C263.35 479.42 259.105 479.652 254.854 479.883H254.854H254.853H254.852H254.851H254.851H254.85H254.849H254.848H254.847H254.847H254.846H254.845H254.844H254.844H254.843C252.257 480.024 249.669 480.166 247.088 480.111C237.05 479.899 227.1 476.644 218.927 470.898C216.967 469.52 214.978 467.794 214.576 465.455C214.183 463.17 216.278 460.492 218.503 461.074L218.661 461.121C218.622 461.108 218.584 461.097 218.546 461.086L218.529 461.081L218.503 461.074C211.422 458.969 204.678 455.764 198.598 451.612C197.478 450.847 196.335 449.999 195.758 448.782C194.51 446.153 196.575 442.933 199.296 441.823C202.018 440.714 205.1 441.118 208.014 441.541C204.538 440.845 200.954 440.105 198.041 438.111C195.129 436.117 193.042 432.516 193.944 429.136C194.845 425.756 199.573 423.664 202.238 425.97C201.075 422.558 203.596 418.778 206.894 417.229C210.192 415.681 214.013 415.803 217.661 416.002C232.965 416.834 248.227 418.443 263.363 420.821L261.146 390.14C261.056 388.888 260.946 387.578 260.258 386.522C259.376 385.171 257.744 384.526 256.215 383.968C225.404 372.721 193.708 363.831 161.505 357.403L168.719 490.574C168.941 494.657 170.095 499.836 174.19 500.5C199.631 504.626 224.588 511.649 248.404 521.383C251.749 522.751 254.195 518.136 254.811 514.619L260.914 479.767C261.762 494.5 259.623 509.394 254.659 523.317C258.455 524.196 260.652 519.255 261.259 515.46L266.77 481.018C267.709 493.227 266.625 505.585 263.576 517.455C262.875 520.18 261.812 523.194 259.225 524.381C257.036 525.385 254.472 524.733 252.154 524.067L171.566 500.91C170.299 500.546 168.977 500.151 168.037 499.237C166.64 497.878 166.449 495.755 166.341 493.823L159.634 373.745C159.199 365.961 159.631 358.159 160.062 350.374L162.273 310.509C149.302 355.531 148.077 403.256 153.541 449.747C159.006 496.238 171.009 541.732 184.16 586.705C178.627 577.378 174.585 567.195 172.23 556.644C165.798 565.715 159.049 576.055 160.884 586.973C163.966 605.308 162.001 624.443 155.253 641.798C153.714 645.756 156.481 650.322 160.269 652.33C164.058 654.337 168.551 654.437 172.853 654.489L230.117 655.19C228.538 653.215 229.108 649.937 231.265 648.592C230.687 654.725 238.67 657.612 244.863 658.442C274.123 662.364 305.227 666.041 332.119 654.1C330.327 657.91 326.92 661.208 323.002 662.977C315.95 666.161 307.832 665.696 300.093 665.167L169.963 656.279C160.873 655.658 148.445 650.389 151.663 641.989C158.848 623.231 160.901 602.592 157.549 582.816C154.991 596.135 150.557 609.103 144.412 621.231C146.932 600.98 153.823 581.268 164.492 563.783C172.086 551.337 167.711 535.5 163.811 521.497C145.342 455.194 142.479 384.721 155.51 317.176C127.699 337.207 116.088 372.751 112.79 406.538C111.41 420.665 111.182 434.889 110.955 449.104C110.637 468.889 110.32 488.657 106.9 508.119C105.338 517.011 103.134 525.798 100.931 534.578C97.4506 548.451 93.9743 562.308 93.0403 576.536C91.5816 598.754 96.3886 620.857 101.168 642.619C88.8609 618.117 88.3303 589.426 91.963 562.322C93.6301 549.884 96.1137 537.568 98.597 525.255L98.5971 525.254L98.5972 525.254C101.525 510.736 104.452 496.221 106.04 481.512C107.479 468.174 107.809 454.756 108.138 441.338C108.463 428.113 108.787 414.889 110.175 401.74C112.97 375.249 120.697 348.121 139.047 328.566L182.604 282.15C186.513 277.985 190.633 273.677 196.038 271.722C201.444 269.768 208.51 271.011 211.29 275.979C214.717 271.778 218.727 267.25 224.167 266.688C229.608 266.126 235.285 272.693 231.793 276.841C238.052 271.239 238.448 261.376 235.385 253.609ZM332.119 654.1C332.22 653.886 332.315 653.671 332.405 653.454C332.472 653.597 332.539 653.739 332.606 653.882C332.538 653.912 332.469 653.943 332.401 653.974L332.246 654.043L332.119 654.1ZM460.711 514.072C462.184 526.172 455.6 538.336 445.831 545.81C436.062 553.285 423.554 556.57 411.215 557.405C385.235 559.163 358.681 550.386 339.031 533.548C354.115 518.314 354.958 491.553 340.861 475.427C352.989 469.868 365.39 464.232 378.686 462.791C391.982 461.351 406.574 464.828 415.217 474.887C416.694 476.605 417.972 478.48 419.249 480.353L419.249 480.354C420.817 482.655 422.384 484.954 424.317 486.96C422.642 476.052 414.013 466.941 403.683 462.685C393.354 458.43 381.603 458.525 370.673 460.919C359.744 463.314 349.449 467.879 339.243 472.415C337.302 473.277 335.85 470.525 335.534 468.451L333.706 456.431C332.952 451.476 333.032 444.991 337.769 443.172C341.328 441.805 340.395 436.456 338.04 433.494C337.645 432.997 337.222 432.499 336.796 431.995C334.675 429.491 332.449 426.863 333.011 423.78C338.981 391.032 344.984 358.153 355.607 326.57C355.936 325.592 356.336 324.531 357.241 324.014C358.464 323.316 360.01 323.92 361.241 324.605C371.193 330.147 377.14 340.047 383.075 349.925C385.169 353.411 387.262 356.895 389.529 360.184C393.026 365.258 397.033 369.955 401.041 374.654L401.041 374.654C404.017 378.143 406.994 381.633 409.763 385.279C426.834 407.749 435.209 434.777 443.601 461.861L443.601 461.862L443.601 461.863C447.429 474.217 451.261 486.583 455.924 498.534L456.044 498.843L456.114 499.02C456.24 499.343 456.367 499.666 456.495 499.99C458.299 504.576 460.117 509.198 460.711 514.072ZM326.962 443.351C329.397 443.328 331.947 443.277 334.08 442.118C336.213 440.958 337.72 438.303 336.734 436.109C335.797 434.026 333.098 433.275 330.805 433.57C329.477 433.741 328.207 434.169 326.936 434.598C326.013 434.909 325.089 435.22 324.14 435.434C319.42 436.498 314.602 435.096 309.81 433.701C304.623 432.191 299.466 430.691 294.497 432.338C297.711 427.095 297.499 420.611 297.297 414.451L297.297 414.425L297.296 414.398C297.286 414.093 297.276 413.79 297.266 413.487C296.246 380.772 303.613 347.836 318.495 318.574C313.002 322.446 309.059 328.398 307.673 334.911C307.508 335.685 307.377 336.47 307.245 337.255C306.908 339.271 306.571 341.287 305.668 343.112C302.008 350.512 291.672 351.06 283.351 350.321C276.533 349.715 269.387 348.833 263.833 344.888C261.047 342.909 258.805 340.252 256.574 337.611C253.605 334.094 250.658 330.603 246.481 328.772C239.552 325.735 232.148 328.266 224.656 330.827C217.889 333.14 211.05 335.478 204.426 333.757C200.693 332.787 198.112 337.302 196.992 340.942L192.111 356.8C189.834 348.132 192.615 338.353 199.132 332.113C196.341 330.309 197.093 326.606 197.837 322.939C198.59 319.225 199.337 315.549 196.386 313.923C187.479 309.013 185.716 297.352 184.956 287.324C173.623 291.447 167.158 303.516 165.165 315.257C163.99 322.177 164.004 329.2 164.018 336.231V336.231C164.027 341.128 164.036 346.029 163.644 350.901C197.812 357.492 231.49 366.545 264.32 377.965C266.33 378.664 268.441 379.443 269.782 381.076C271.224 382.832 271.493 385.225 271.705 387.475C272.777 398.849 273.789 410.695 269.659 421.369L269.694 388.104C269.696 386.263 269.376 383.957 267.597 383.393C264.83 382.515 263.532 386.681 263.76 389.537L265.737 414.265C266.007 417.65 266.507 421.463 269.271 423.491L219.597 418.574C214.437 418.063 208.253 417.978 205.235 422.134C205.732 426.109 210.555 427.778 214.535 428.595L246.155 435.091C236.26 437.107 225.861 435.299 216.499 431.553C215.788 431.268 215.079 430.972 214.369 430.675C211.405 429.437 208.431 428.194 205.253 427.78C201.315 427.268 196.864 428.325 194.577 431.526C208.725 440.744 225.167 446.517 242.043 448.19C241.941 449.995 239.498 450.535 237.669 450.404C232.909 450.062 228.331 448.687 223.749 447.31L223.749 447.31L223.747 447.309C221.621 446.67 219.493 446.031 217.347 445.495C210.573 443.802 202.979 443.242 196.966 446.751C210.5 457.627 228.345 461.407 245.456 464.853L217.123 464.258C222.134 473.044 233.377 476.281 243.59 476.814C246.611 476.971 249.658 476.967 252.705 476.963C259.96 476.954 267.208 476.944 274.066 479.118C286.514 483.064 295.53 493.472 303.858 503.406L319.916 522.563C322.105 525.175 326.277 525.464 329.371 523.987C332.465 522.51 334.648 519.663 336.36 516.725C339.76 510.887 341.782 504.031 340.685 497.388C339.587 490.744 334.935 484.466 328.38 482.572C317.119 479.319 309.125 469.458 303.599 459.258C301.702 455.756 299.998 452.143 298.295 448.533L298.294 448.532C295.036 441.625 291.781 434.726 287.189 428.629C285.812 426.801 284.312 425.038 282.813 423.276C279.107 418.921 275.403 414.569 273.569 409.239C283.003 418.233 291.009 428.678 297.209 440.079C297.881 441.315 298.622 442.649 299.921 443.223C300.752 443.591 301.697 443.589 302.609 443.58L326.962 443.351ZM324.365 164.446C326.645 164.154 328.448 162.47 330.078 160.873L338.01 153.099C323.357 188.874 302.432 223.463 270.713 246.079C264.273 250.67 256.617 254.9 248.792 253.522C244.693 252.8 241.016 250.585 237.756 248.032C230.966 242.717 225.595 235.834 221.001 228.587C208.032 208.127 200.831 184.083 200.94 159.96C201.05 135.837 208.537 111.726 222.549 91.9444C223.031 91.2644 223.571 90.5507 224.366 90.2798C225.173 90.0049 226.057 90.2487 226.874 90.4934C256.242 99.2897 285.33 108.996 314.079 119.593C318.63 121.27 320.525 126.548 321.352 131.266C323.056 140.984 322.602 151.063 320.031 160.593C319.44 162.782 322.086 164.739 324.365 164.446ZM305.203 92.1177C308.667 92.1482 311.083 96.7131 309.125 99.5291C307.167 102.345 301.975 101.774 300.695 98.6026C299.259 95.0449 295.555 93.1137 292.062 91.292L292.061 91.2916C291.691 91.0984 291.323 90.9065 290.96 90.7139C279.219 84.4829 270.193 74.5884 261.211 64.742C258.855 62.1588 256.501 59.5789 254.103 57.0694C249.546 52.3017 244.766 47.7404 239.785 43.4048C234.321 38.6499 228.524 34.1118 221.834 31.2586C215.145 28.4053 207.41 27.3656 200.525 29.7262C203.626 29.8812 206.056 33.3635 205.092 36.2721C204.129 39.1808 200.082 40.5796 197.485 38.9016C194.888 37.2236 194.578 33.0088 196.901 30.9788C189.861 33.0324 183.945 38.5187 181.439 45.3188C180.945 46.6596 180.577 48.1424 181.029 49.4976C181.284 50.2617 181.784 50.9403 182.279 51.6112C182.977 52.5588 183.664 53.491 183.632 54.6268C183.378 63.7177 192.411 71.9488 201.59 70.9896C203.387 70.8017 204.112 72.5681 204.863 74.4006C205.221 75.2749 205.586 76.1643 206.076 76.8635C206.952 78.1128 208.416 78.8088 209.817 79.4404C224.063 85.8609 238.803 91.2148 253.87 95.4406C255.616 95.9304 258.006 96.1344 258.747 94.5012C259.74 92.3097 262.627 91.172 264.881 92.0839C267.134 92.9959 268.376 95.8049 267.519 98.0518C267.135 99.0586 268.395 99.8748 269.421 100.241L320.746 118.525C319.799 114.783 324.625 111.062 328.084 112.868C331.543 114.674 331.13 120.697 327.455 122.028L346.214 131.348L349.582 104.223C349.739 102.956 349.225 101.071 347.983 101.434C345.681 102.106 342.968 100.823 342.059 98.6341C341.15 96.4449 342.174 93.6565 344.293 92.5461C345.924 91.6915 346.532 89.5852 346.171 87.7998C345.811 86.0145 344.695 84.4792 343.581 83.0267C331.534 67.3133 316.273 53.9357 298.77 44.4284C294.079 41.8804 288.393 39.5843 283.545 41.8295C280.739 43.1291 278.851 45.6869 277.006 48.1874C276.712 48.5853 276.42 48.9817 276.125 49.3714C272.434 54.2468 267.867 58.4765 262.701 61.8048L279.055 78.1986C277.702 75.3214 279.76 71.4453 282.931 70.9C286.101 70.3547 289.37 73.3145 289.087 76.4731C288.804 79.6317 285.058 81.9804 282.034 80.8957C288.863 86.3326 296.424 92.0406 305.203 92.1177ZM326.021 314.172C328.506 314.352 331.03 312.881 332.068 310.649C333.106 308.416 332.588 305.573 330.827 303.835C328.626 301.665 331.174 297.611 334.271 297.296C337.368 296.981 340.182 298.93 342.665 300.782L354.631 309.708C356.082 310.79 357.709 312.408 357.075 314.088C343.408 350.301 334.424 388.227 330.409 426.66C330.084 429.775 327.037 432.068 323.909 432.626C320.782 433.185 317.586 432.403 314.507 431.627L303.498 428.851C302.751 428.663 301.967 428.455 301.411 427.928C300.616 427.174 300.494 425.982 300.428 424.897C298.192 387.887 305.918 350.338 322.606 317.109C323.32 315.688 324.417 314.056 326.021 314.172ZM301.773 290.96C298.794 288.745 299.477 283.338 302.916 281.911C294.404 282.636 286.639 286.374 278.866 290.115C271.368 293.724 263.864 297.336 255.676 298.252C260.596 301.541 262.918 307.845 262.252 313.667C261.585 319.488 258.276 324.789 253.975 328.835C257.657 335.783 263.738 341.469 270.973 344.727C273.522 345.876 276.444 346.734 279.099 345.848C279.678 345.655 280.296 345.396 280.925 345.134C283.218 344.176 285.646 343.161 286.797 345.043C288.955 348.573 294.463 347.764 298.036 345.622C300.477 344.159 302.748 342.178 303.753 339.543C304.758 336.908 304.163 333.543 301.814 331.941C299.862 330.611 299.206 327.738 300.391 325.712C301.576 323.687 304.427 322.805 306.573 323.801C308.448 324.671 310.203 322.503 311.323 320.785C313.958 316.741 317.84 313.498 322.32 311.598C320.527 309 320.779 305.21 322.901 302.864C317.418 298.916 313.02 293.52 310.29 287.393C309.84 291.043 304.751 293.174 301.773 290.96ZM229.167 276.824L229.167 276.825C229.099 277.261 229.031 277.696 228.978 278.129C228.731 280.146 228.952 282.492 230.592 283.722C236.852 276.246 240.531 266.711 240.893 257.026C240.966 255.091 243.942 255.371 245.798 256.008C251.275 257.888 257.424 256.95 262.737 254.657C268.05 252.365 272.686 248.815 277.26 245.301C275.921 254.082 277.087 263.221 280.59 271.402L262.507 284.783C261.792 285.312 261.121 286.524 261.941 286.878C268.794 284.688 274.612 280.236 280.31 275.876L280.844 275.467C286.713 270.979 292.858 266.476 300.05 264.641C307.242 262.805 315.8 264.253 320.383 270.015C322.643 272.855 323.724 276.408 324.758 279.87L327.96 290.589C328.654 292.913 329.336 295.474 328.337 297.687C327.337 299.9 323.821 300.99 322.418 299.001L315.861 289.706C312.737 285.278 309.194 280.546 303.919 279.109C298.164 277.542 292.23 280.375 286.879 282.984C277.502 287.557 267.902 291.685 258.123 295.349C255.116 296.475 251.781 295.376 248.519 294.3C244.805 293.075 241.184 291.881 238.249 294.038C237.159 294.838 235.619 294.401 234.363 293.889C225.724 290.372 217.985 284.732 212.043 277.623L224.483 269.661C226.212 268.554 228.617 270.143 229.204 272.09C229.665 273.619 229.415 275.227 229.167 276.824V276.824ZM238.313 324.32C232.652 319.76 229.916 311.943 231.521 304.914C231.929 303.127 230.045 301.744 228.521 300.694C226.998 299.645 225.49 297.6 226.666 296.182C227.299 295.418 226.436 294.348 225.644 293.743L210.423 282.117C208.597 280.722 206.714 279.26 205.66 277.234C203.754 273.572 198.668 271.92 194.926 273.748C189.612 276.343 188.871 283.382 188.842 289.226C188.835 290.603 189.228 292.431 190.624 292.509C194.191 292.708 195.88 298.166 193.032 300.292C190.242 302.374 192.233 306.889 195.007 308.991C195.613 309.449 196.261 309.889 196.912 310.33C199.246 311.913 201.621 313.524 202.229 316.152C202.682 318.108 202.013 320.182 201.359 322.207C200.541 324.74 199.748 327.198 201.203 329.257C202.985 331.778 206.786 331.533 209.85 330.967C219.437 329.196 228.939 326.977 238.313 324.32ZM305.956 446.528C312.855 445.98 319.801 445.993 326.698 446.568C327.276 446.616 327.887 446.68 328.352 447.023C329.067 447.551 329.195 448.538 329.275 449.415C329.935 456.617 331.323 463.753 333.413 470.685C333.088 471.535 332.166 471.741 331.208 471.955C330.582 472.095 329.941 472.238 329.441 472.566C327.824 473.624 328.295 476.159 329.496 477.661C329.921 478.193 330.413 478.678 330.904 479.162C331.802 480.047 332.696 480.928 333.162 482.076C318.366 477.509 307.58 464.452 301.817 450.269C301.468 449.41 301.131 448.452 301.449 447.58C301.766 446.709 303.071 446.195 303.669 446.909C303.905 447.19 303.965 447.572 304.017 447.933L305.024 455.02C305.155 455.946 306.694 455.956 307.216 455.175C307.737 454.394 307.545 453.364 307.333 452.453L305.956 446.528ZM257.995 307.1C256.007 301.456 250.653 297.107 244.651 296.262C242.455 295.952 239.979 296.172 238.407 297.715C234.95 301.105 233.585 306.275 234.396 311.014C235.207 315.752 238.03 320.028 241.752 323.133C244.534 325.453 248.457 327.21 251.76 325.691C252.744 325.238 253.583 324.527 254.332 323.753C258.512 319.426 259.982 312.744 257.995 307.1ZM323.943 158.254C325.575 147.062 327.093 134.994 321.73 124.998C321.357 124.303 320.972 123.387 321.507 122.802L338.341 131.021C339.676 131.673 341.256 132.934 340.635 134.269C339.91 135.827 339.772 137.549 339.635 139.273C339.577 140.002 339.518 140.73 339.416 141.447C338.796 145.783 336.509 149.754 333.609 153.071C330.709 156.388 327.201 159.126 323.716 161.842C323.596 160.646 323.77 159.443 323.943 158.254ZM340.893 479.669C338.962 476.99 336.38 474.365 333.061 474.039C331.781 473.913 330.058 475.193 330.988 476.069C339.026 483.641 344.409 494.478 343.414 505.391C342.418 516.304 334.063 526.719 323.072 528.381C326.323 532.185 332.525 532.481 336.932 530.056C341.338 527.63 344.171 523.112 345.958 518.461C350.835 505.767 348.873 490.734 340.893 479.669ZM168.371 353.958C180.565 355.841 192.462 359.219 204.322 362.589L236.638 371.771C246.474 374.566 256.421 377.406 265.291 382.441C261.084 382.29 256.993 381.106 252.967 379.893C245.848 377.749 238.752 375.484 231.656 373.219C208.635 365.872 185.597 358.519 161.679 355.247C163.207 353.445 166.017 353.595 168.371 353.958ZM345.065 142.374C343.214 144.012 342.33 146.456 341.798 148.851C341.642 149.554 341.51 150.265 341.377 150.975L341.377 150.975C341.059 152.683 340.741 154.39 340.093 156C339.987 156.264 339.872 156.531 339.755 156.799C339.173 158.145 338.57 159.537 339.005 160.896C345.985 160.455 352.3 154.913 353.551 148.133C353.971 145.857 353.722 143.184 351.893 141.734C349.955 140.196 346.916 140.735 345.065 142.374ZM309.328 53.353C310.131 55.599 308.919 58.3557 306.707 59.3142C304.494 60.2727 301.613 59.2894 300.476 57.1879C299.225 54.8744 300.368 51.6226 302.804 50.5674C305.239 49.5122 308.444 50.8804 309.328 53.353ZM226.236 55.4728C226.375 53.4307 225.073 51.3706 223.153 50.5913C220.708 49.5993 217.565 50.9184 216.598 53.3425C215.63 55.7666 217.019 58.8418 219.494 59.7565C222.4 60.8305 226.03 58.5245 226.236 55.4728ZM320.778 76.0442C320.847 78.6279 323.253 80.9308 325.876 80.9237C328.658 80.9162 331.137 78.2802 330.934 75.546C330.742 72.9684 328.229 70.7793 325.609 70.9078C322.989 71.0364 320.709 73.4606 320.778 76.0442ZM246.005 79.0443C244.104 81.3862 239.952 81.3922 238.043 79.0557C236.134 76.7193 237.027 72.7243 239.755 71.3937C242.483 70.063 246.248 71.7862 246.976 74.6986C247.349 76.1905 246.98 77.8447 246.005 79.0443ZM230.582 118.079C228.973 120.557 228.629 123.792 229.683 126.544C230.073 127.565 230.655 128.531 231.483 129.256C234.136 131.582 238.673 130.599 240.907 127.879C243.141 125.158 243.448 121.319 242.789 117.88C242.527 116.509 242.043 115.045 240.855 114.285C240.029 113.756 238.989 113.66 238.006 113.73C235.028 113.94 232.191 115.602 230.582 118.079ZM284.024 143.439C283.147 142.555 282.568 141.417 282.209 140.232C280.876 135.843 282.752 130.7 286.616 128.15C288.363 126.997 290.616 126.356 292.594 127.062C295.019 127.927 296.351 130.534 296.811 133.034C297.469 136.612 296.678 140.622 294.004 143.129C291.33 145.635 286.606 146.037 284.024 143.439ZM217.071 192.795C217.16 190.584 217.342 188.377 217.617 186.181C217.712 185.42 218.38 184.766 219.153 184.678C219.511 190.093 219.678 195.521 219.653 200.948C217.222 199.192 216.951 195.762 217.071 192.795ZM307.367 169.285C306.637 165.992 304.127 163.137 300.924 161.955C300.389 161.757 300.413 160.913 300.863 160.565C301.314 160.217 301.955 160.252 302.51 160.386C305.556 161.119 307.44 164.063 308.832 166.831C309.201 167.563 309.563 168.417 309.239 169.169C308.914 169.921 307.544 170.083 307.367 169.285ZM251.68 649.094C251.36 648.382 250.547 648.042 249.804 647.775C238.171 643.596 225.821 641.366 213.44 641.206C211.676 641.184 209.614 641.352 208.643 642.803C209.588 643.587 210.945 643.586 212.18 643.567C225.288 643.373 238.431 645.771 250.599 650.577C251.333 650.866 252 649.806 251.68 649.094ZM258.123 149.671C257.423 150.239 256.651 150.712 255.879 151.185C255.008 151.719 254.137 152.253 253.371 152.922C251.926 154.185 250.882 156.227 251.629 157.981C252.551 160.149 255.515 160.558 257.862 160.141C257.96 160.123 258.059 160.105 258.157 160.087L258.157 160.087C258.9 159.949 259.658 159.808 260.38 160.003C261.199 160.224 261.918 161.073 261.637 161.863C261.44 162.417 260.851 162.726 260.296 162.939C256.857 164.265 252.565 163.772 250.013 161.141C247.462 158.511 247.398 153.695 250.312 151.461L261.698 142.734C261.582 145.402 260.216 147.972 258.123 149.671ZM301.723 172.2C302.43 176.14 301.405 180.19 299.953 183.928C293.703 200.02 278.946 212.632 261.894 216.453C255.032 217.991 247.461 218.081 241.354 214.635C235.247 211.189 231.322 203.437 233.999 197.025C237.143 189.498 246.874 187.387 255.132 187.217C255.851 187.202 256.578 187.191 257.31 187.18L257.313 187.18L257.316 187.18L257.32 187.18L257.323 187.18C264.986 187.068 273.167 186.948 278.713 181.921C280.686 180.132 282.11 177.881 283.537 175.625C284.739 173.724 285.943 171.82 287.48 170.187C290.841 166.616 297.423 164.91 300.377 168.815C301.118 169.795 301.507 170.995 301.723 172.2ZM298.214 178.205C299.065 174.998 298.691 170.384 295.363 169.899C294.125 169.719 292.891 170.265 291.863 170.968C289.305 172.716 287.666 175.35 286.018 177.998L286.018 177.998C284.71 180.1 283.396 182.211 281.613 183.895C276.957 188.294 269.993 189.073 263.566 189.621L251.215 190.675C248.065 190.944 244.801 191.247 242.059 192.799C236.91 195.715 235.124 203.168 238.406 208.046C241.956 213.32 249.358 214.465 255.751 213.856C275.457 211.978 293.204 197.078 298.214 178.205ZM305.252 424.729C304.582 424.805 303.885 424.618 303.346 424.219C302.981 423.949 302.689 423.585 302.506 423.173C301.911 421.833 302.714 420.072 304.126 419.621C305.538 419.171 307.237 420.133 307.552 421.562C307.867 422.991 306.726 424.562 305.252 424.729ZM328.097 424.91C327.61 424.489 326.959 424.258 326.312 424.278C324.719 424.325 323.441 426.095 323.917 427.592C324.393 429.09 326.469 429.825 327.803 428.968C329.138 428.112 329.295 425.945 328.097 424.91ZM280.069 310.895C278.415 309.019 278.557 305.867 280.372 304.142C282.188 302.418 285.39 302.394 287.232 304.092C289.199 305.905 289.226 309.367 287.286 311.21C285.347 313.052 281.836 312.899 280.069 310.895ZM258.422 326.538C258.043 327.539 258.011 328.665 258.334 329.686C259.251 332.589 263.324 333.97 265.86 332.238C268.397 330.507 268.516 326.265 266.08 324.398C263.644 322.531 259.501 323.689 258.422 326.538ZM214.62 319.154C214.049 321.013 212.242 322.437 210.276 322.578C207.375 322.787 204.665 319.95 205.052 317.109C205.438 314.268 208.811 312.235 211.554 313.189C213.909 314.008 215.343 316.799 214.62 319.154Z" fill="#003B93"/>
</svg>
