<svg width="750" height="705" viewBox="0 0 750 705" fill="none" xmlns="http://www.w3.org/2000/svg">
<path d="M638.487 515.299C634.32 596.563 569.209 670.205 489.395 686.045C409.581 701.886 322.229 659.753 283.339 588.278C279.047 580.39 275.225 572.117 271.404 563.845C261.538 542.489 251.675 521.14 233.74 506.451C213.263 489.678 186.927 485.192 160.326 480.661C143.434 477.784 126.435 474.888 110.761 468.817C72.977 454.181 43.6396 419.508 35.4615 379.822C22.2087 315.511 64.187 249.85 120.167 215.531C176.146 181.211 243.413 171.652 308.662 164.287C333.621 161.47 353.896 142.66 368.377 122.136C373.983 114.191 379.027 105.841 384.067 97.4985C392.046 84.2909 400.015 71.0988 410.191 59.5474C453.279 10.6346 533.518 2.38079 588.401 37.552C643.283 72.7232 669.552 145.045 654.957 208.575C652.443 219.517 648.875 230.172 645.307 240.827L645.306 240.829C641.89 251.029 638.474 261.229 635.982 271.683C630.657 294.028 629.64 317.152 629.034 340.115C628.311 367.493 628.141 394.943 630.705 422.211C631.597 431.697 632.819 441.17 634.042 450.642C636.819 472.165 639.596 493.678 638.487 515.299Z" fill="#0053CE" fill-opacity="0.32"/>
<path d="M308.571 144.878C338.414 130.032 362.166 104.248 377.124 74.4605C379.085 70.5549 380.943 66.4051 380.875 62.0352C380.806 57.6654 378.263 53.0368 374.036 51.927C367.978 50.3366 362.769 56.1448 358.991 61.1404C333.041 95.4578 295.27 122.399 252.648 128.274C236.279 130.531 219.659 129.683 203.157 128.831L177.381 127.5C156.621 126.428 135.572 125.378 115.251 129.759C94.93 134.139 75.0737 144.675 63.9127 162.213C60.3602 167.795 57.6992 174.373 58.6822 180.917C59.6894 187.622 64.4558 193.313 70.1972 196.921C75.9385 200.528 82.6087 202.333 89.2191 203.843C94.0589 204.949 99.0022 205.928 103.954 205.58C112.051 205.01 119.398 200.984 126.547 197.066C127.024 196.805 127.499 196.545 127.974 196.286C140.469 189.469 153.416 183.415 166.92 178.917C186.613 172.358 207.319 169.148 227.975 165.946C255.801 161.632 283.535 157.333 308.571 144.878Z" fill="#0053CE" fill-opacity="0.32"/>
<path d="M153.377 540.395L153.395 540.396C154.611 540.444 155.827 540.493 157.039 540.556C176.216 541.553 195.193 546.255 212.617 554.325C219.261 557.402 225.989 561.253 229.721 567.552C234.338 575.347 239.88 582.593 246.193 589.089C248.643 591.609 251.295 594.074 254.565 595.362C257.836 596.649 261.874 596.531 264.527 594.227C267.75 591.427 267.959 586.455 266.966 582.303C265.338 575.498 261.278 569.568 257.26 563.84C244.075 545.044 230.194 526.251 211.845 512.449C193.496 498.648 169.816 490.291 147.357 495.059C139.602 496.705 131.916 500.06 126.775 506.095C121.633 512.129 119.601 521.211 123.304 528.22C126.242 533.781 132.197 537.203 138.295 538.745C143.209 539.987 148.298 540.191 153.376 540.395H153.377Z" fill="#0053CE" fill-opacity="0.32"/>
<path d="M672.086 257.686C666.959 255.753 661.153 258.087 656.814 261.432C648.244 268.039 643.174 278.374 640.867 288.946C638.56 299.518 638.746 310.454 638.944 321.274L640.638 414.235C640.762 421.026 641.064 428.346 645.24 433.703C646.547 435.379 648.336 436.851 650.451 437.067C653.014 437.328 655.385 435.71 657.236 433.918C667.358 424.117 668.687 408.679 669.899 394.608L669.943 394.097C671.723 373.441 674.806 352.898 679.167 332.63C680.393 326.93 681.741 321.194 684.306 315.959C692.348 299.546 690.425 278.711 679.514 264.048C677.54 261.396 675.179 258.852 672.086 257.686Z" fill="#0053CE" fill-opacity="0.32"/>
<path d="M488.456 383.515C493.866 385.005 498.711 389.51 499.242 395.095C500.268 392.873 502.521 391.268 504.956 391.023L501.421 394.78L505.894 394.869L499.739 398.307C503.555 405.364 502.937 414.068 500.491 421.709C498.994 426.385 496.829 431.07 497.251 435.962C497.667 440.774 501.94 445.69 506.61 444.705L506.844 444.651C512.458 443.232 518.605 444.054 523.65 446.896C530.899 450.979 535.296 458.562 540.278 465.225C544.675 471.107 549.88 476.577 556.386 479.985C562.892 483.392 570.87 484.517 577.647 481.688C581.01 480.284 584.021 477.96 587.589 477.221C591.158 476.481 594.814 478.465 596.125 481.847C596.704 483.343 595.458 488.885 592.282 495.359C592.799 495.211 593.339 495.115 593.905 495.079C610.596 493.995 627.442 490.366 641.807 481.796C646.373 479.072 650.639 475.88 654.873 472.661L657.341 470.78L658.834 469.63C668.127 462.432 677.299 454.408 681.12 443.459L681.32 442.87L681.743 441.576C682.56 439.126 683.596 436.594 685.961 435.833C689.235 434.78 692.215 437.949 694.205 440.753L708.542 460.966C708.91 461.485 709.287 462.022 709.427 462.643C710.049 465.389 705.949 466.777 703.307 465.802C698.502 464.028 694.646 458.744 689.605 459.651C686.062 460.288 683.945 463.719 682.194 466.951L681.751 467.775C671.141 487.639 653.288 503.53 632.329 511.766C626.926 513.889 621.344 515.516 615.77 517.139L604.511 520.419L606.495 520.773C623.295 523.719 641.219 525.517 656.477 518.072C666.634 513.115 674.459 504.582 681.841 495.958L684.52 492.81L685.624 491.496C690.154 486.061 694.459 480.243 695.782 473.355C696.29 470.71 699.627 469.449 702.224 470.165C704.821 470.882 706.797 472.935 708.636 474.904L722.573 489.821C723.671 490.996 724.827 492.294 724.988 493.894C725.149 495.494 723.714 497.305 722.169 496.856L707.056 492.467C705.638 492.055 704.068 491.653 702.734 492.284C701.711 492.767 701.051 493.758 700.465 494.736L684.217 522.175C679.642 529.902 671.162 534.381 662.831 537.732C642.852 545.766 621.172 549.541 599.653 548.732C597.316 548.645 594.977 548.503 592.666 548.139C583.986 546.771 576.146 542.357 568.556 537.893C569.887 542.76 568.701 546.866 560.796 547.178C553.795 547.454 536.645 518.626 531.311 517.131C502.2 508.968 497.42 492.854 488.068 481.847C488.068 481.847 469.168 484.289 456.69 481.688C427.44 475.59 407.783 456.831 400.696 455.636C393.61 454.442 388.936 458.984 386.748 456.229L386.748 454.233C387.087 453.684 390.473 450.52 400.134 452.575C413.623 455.445 435.187 466.279 451.656 468.303C468.943 470.427 483.587 467.615 483.507 467.143C483.342 466.181 487.688 462.09 484.216 460.025C480.744 457.959 430.341 437.73 419.386 420.872L419.254 420.661C417.371 417.535 415.94 409.765 419.73 413.322L420.791 411.44C424.873 415.289 438.272 424.086 452.191 432.759C466.907 441.928 487.688 447.8 488.068 447.543C496.537 441.815 489.026 437.668 487.624 436.45C484.343 433.6 479.987 432.047 477.16 428.746C470.378 420.829 475.222 406.667 467.47 399.697C466.297 398.642 464.874 397.812 464.025 396.483C462.569 394.207 463.284 391.038 465.048 388.99C466.811 386.942 469.39 385.798 471.942 384.907C477.239 383.058 483.047 382.026 488.456 383.515Z" fill="white"/>
<circle cx="493" cy="424" r="2" fill="#FFB61D"/>
<ellipse cx="480.806" cy="424" rx="1.48322" ry="2" fill="#FFB61D"/>
<path d="M408.329 433.692C389.734 428.884 370.191 427.774 351.171 430.447C352.61 423.338 354.411 416.304 356.566 409.379C350.378 411.376 343.072 405.704 343.472 399.214C343.872 392.723 351.82 387.992 357.716 390.734C359.741 386.061 359.87 380.597 358.066 375.833C357.201 373.548 360.65 372.229 363.094 372.229L376.596 372.226C378.483 372.225 381.115 371.349 380.646 369.52C379.534 365.185 382.515 360.232 386.866 359.184C391.138 358.156 395.948 361.081 397.052 365.321L397.109 365.557C398.134 370.11 403.901 371.556 408.568 371.467L410.89 371.411C414.926 371.326 419.132 371.457 421.833 374.28C425.064 377.656 424.342 383.033 423.277 387.617L423.206 387.921C421.697 394.283 420.088 400.622 418.38 406.934C421.697 433.626 413.484 435.025 408.329 433.692Z" fill="white"/>
<path d="M253.236 411.406C251.265 398.576 251.268 385.446 253.244 372.617L253.344 371.996C253.835 369.085 254.696 366.011 257.129 364.408C258.95 363.207 261.25 363.117 263.444 363.116L280.239 363.162C281.003 363.164 281.841 363.193 282.416 363.697C282.99 364.201 282.975 365.358 282.238 365.562C280.479 366.05 279.468 368.078 279.681 369.891C279.895 371.704 281.074 373.274 282.458 374.464C285.759 377.302 290.891 378.31 294.545 375.944C298.199 373.578 299.058 367.482 295.596 364.844C303.441 364.684 311.29 364.709 319.134 364.917L322.075 365.004C323.026 365.035 324.077 365.111 324.741 365.792C325.24 366.303 325.404 367.046 325.516 367.751C326.385 373.181 325.435 378.886 322.854 383.742C322.443 384.516 321.491 385.368 320.842 384.779C318.086 382.277 313.451 382.618 310.631 385.048C307.81 387.477 306.72 391.513 307.219 395.202C307.698 398.752 310.286 402.544 313.865 402.365C316.683 402.224 319.817 399.759 321.946 401.611L318.358 417.641C317.721 420.489 316.577 423.868 313.723 424.478C297.249 428.002 279.976 427.735 263.618 423.705L262.824 423.504C260.839 422.985 258.862 422.312 257.313 420.987C254.617 418.679 253.775 414.913 253.236 411.406Z" fill="white"/>
<path d="M382.484 285.607L422.295 286.408V286.408L422.946 286.424C424.141 286.461 425.346 286.566 426.423 287.069C428.856 288.204 429.972 291.004 430.712 293.586C434.662 307.366 434.174 322.382 429.339 335.877L429.135 336.429C428.506 338.09 427.683 339.745 426.197 340.679C424.973 341.448 423.482 341.609 422.031 341.686L421.721 341.702C415.801 341.983 409.861 341.831 403.963 341.249C407.034 339.358 407.81 334.755 405.86 331.721C403.909 328.687 399.788 327.42 396.319 328.405C394.204 329.006 392.234 330.451 391.469 332.512C390.703 334.573 391.443 337.22 393.398 338.227C394.75 338.923 394.517 341.115 393.333 342.07C392.149 343.024 390.504 343.092 388.984 343.116L369.01 343.44C367.509 343.465 365.93 343.471 364.612 342.752C362.743 341.732 361.883 339.535 361.357 337.472C360.086 332.494 359.914 327.238 360.857 322.188C361.993 326.177 366.908 328.599 370.763 327.069C374.617 325.54 376.535 320.407 374.627 316.725C372.719 313.043 367.419 311.649 363.947 313.917L363.803 312.63C363.304 308.119 362.917 303.549 363.784 299.107C364.732 294.241 367.439 289.462 371.876 287.251C375.112 285.639 378.849 285.55 382.484 285.607V285.607Z" fill="white"/>
<path d="M261.742 330.39C256.136 330.412 250.529 330.182 244.943 329.699L244.401 329.649C242.401 329.45 240.303 329.049 238.993 327.562C237.224 325.554 237.656 322.528 238.187 319.879L238.241 319.616C240.614 307.996 241.547 296.083 241.011 284.235L240.912 282.192C240.763 278.519 240.998 274.354 244.049 272.465C244.977 271.89 246.055 271.623 247.129 271.407L247.487 271.336C267.023 267.531 287.365 267.916 306.743 272.46C309.294 273.058 310.004 276.514 309.158 278.995C308.312 281.475 306.495 283.56 305.815 286.092C305.135 288.623 306.381 292.049 309.001 292.131C314.452 292.302 319.073 297.841 318.341 303.245C317.608 308.65 311.766 312.75 306.418 311.676C305.163 311.425 304.719 313.279 304.857 314.552L306.383 328.661V328.661C306.632 330.964 303.364 331.691 301.055 331.512L287.582 330.463V330.463C285.465 330.298 282.627 330.663 282.301 332.761C281.488 337.985 276.133 342.063 270.881 341.458C265.63 340.852 261.343 335.661 261.742 330.39Z" fill="white"/>
<path fill-rule="evenodd" clip-rule="evenodd" d="M225.476 417.223C226.971 417.586 229.111 418.232 228.993 419.645C226.6 448.136 216.302 442.893 207.12 451.062C204.693 453.221 203.243 458.326 202.201 458.443C206.065 460.228 211.674 467.388 221.326 467.716C248.218 468.628 258.006 449.005 258.006 449.005C258.639 442.713 255.448 431.382 259.431 434.555C262.18 436.745 261.636 426.075 265.392 427.137C266.521 427.457 264.549 434.551 265.392 434.975C265.858 435.21 266.546 433.276 267.747 431.737C268.749 430.454 270.294 429.504 270.614 429.784C270.831 429.974 270.623 431.808 269.721 433.359C268.453 435.54 266.333 437.639 266.63 437.988C266.956 438.373 272.547 433.171 272.887 433.626C275.149 436.643 260.822 471.372 236.647 477.929L234.733 478.443C220.64 482.187 214.722 482.698 201.665 477.929C195.474 475.667 191.623 496.789 188.182 503.819C186.009 508.258 175.455 519.137 170.635 515.847C164.277 511.506 159.092 503.427 153.681 499.341L153.333 499.085C149.646 496.441 141.305 492.429 128.312 487.048L128.897 486.778C131.608 485.546 138.591 482.532 143.952 477.929C151.571 471.388 155.697 457.338 161.007 449.761C166.251 442.28 173.288 443.382 169.041 442.059C169.041 442.059 158.28 436.358 153.333 435.836C136.813 434.092 115.276 441.9 108.386 446.931C98.933 453.835 108.325 463.995 95.2634 459.015C90.91 457.356 102.578 435.855 118.673 427.137C141.044 415.02 162.197 411.687 183.405 430.976C192.036 438.826 192.89 445.815 195.205 451.143L194.731 449.837C220.315 448.15 181.982 422.537 213.984 416.127C217.345 415.453 220.873 416.154 224.241 416.933L225.476 417.223Z" fill="white"/>
<circle cx="209" cy="435" r="2" fill="#FFB61D"/>
<circle cx="220" cy="439" r="2" fill="#FFB61D"/>
<path fill-rule="evenodd" clip-rule="evenodd" d="M103.894 512.563C125.572 527.574 97.835 506.84 121.521 531.549C126.305 536.539 150.523 508.041 153.021 524.93C153.932 531.09 151.945 537.503 153.157 543.611C154.287 549.311 179.078 545.889 180.992 543.396C187.934 534.359 166.331 511.145 161.802 507.435C136.525 486.729 128.184 488.165 104.566 509.588L103.894 512.563Z" fill="white"/>
<path fill-rule="evenodd" clip-rule="evenodd" d="M667.836 137.355C672.088 137.863 676.042 138.335 676.042 133.38C676.042 132.2 661.731 121.842 657.491 125.831C652.038 130.961 647.707 136.843 643.513 142.541C634.706 154.502 626.499 165.65 609.765 167.311L609.563 167.333C603.077 168.116 615.162 173.874 628.734 167.311C638.065 162.798 650.48 148.523 656.377 141.742C657.921 139.968 659.017 138.706 659.496 138.268L659.619 138.163C661.629 136.613 664.808 136.993 667.836 137.355ZM688.024 150.767L702.183 162.006C704.942 164.196 701.711 168.915 698.197 169.141C696.158 169.272 694.202 168.644 692.236 168.014C690.814 167.557 689.386 167.099 687.918 166.926C679.603 165.943 673.264 173.774 668.105 180.369C663.392 186.396 658.23 192.074 652.678 197.338L651.927 198.044L651.144 198.764C646.678 202.825 641.668 206.503 635.776 207.562C627.1 209.123 618.481 204.68 611.395 199.438C609.665 198.158 607.967 196.816 606.267 195.473C601.004 191.314 595.732 187.147 589.491 184.812C584.081 187.763 579.019 191.33 574.396 195.399L574.602 195.236C582.363 203.015 587.791 213.094 590.013 223.856L588.528 223.595L587.548 223.428C578.377 221.89 568.556 220.98 560.805 225.888C558.074 227.617 555.638 230.033 553.229 232.421C551.552 234.083 549.889 235.733 548.148 237.129C548.59 237.391 549.043 237.664 549.506 237.948C558.082 241.456 567.172 243.703 576.395 244.594C577.805 244.73 579.23 244.838 580.659 244.947C587.274 245.449 593.975 245.958 599.628 249.279L601.611 250.465C604.793 252.348 608.335 254.141 611.001 251.96C611.768 251.333 612.27 250.473 612.773 249.609L612.774 249.609C613.08 249.083 613.387 248.556 613.756 248.079C614.73 246.818 616.662 245.931 617.873 246.966L618.364 250.82C618.721 248.341 621.113 246.326 623.616 246.395C626.12 246.465 628.396 248.61 628.614 251.105C629.01 255.634 623.875 258.344 619.517 259.786L596.928 267.066C588.857 269.666 579.909 268.319 572.128 264.947C564.884 261.808 558.493 257.03 552.385 252.009L551.032 250.889C546.419 247.051 540.185 242.882 534.952 245.817C544.045 246.37 550.677 254.206 556.1 261.617L556.621 262.333C557.499 263.543 558.403 264.817 558.62 266.297C559.227 270.438 554.523 273.187 550.549 274.504C553.898 276.297 552.238 281.505 549.644 284.279C545.869 288.315 540.926 291.22 535.594 292.658L535.107 294.343C535.076 294.456 535.062 294.515 535.065 294.517C537.58 294.342 539.131 297.721 538.106 300.024C537.082 302.328 534.553 303.554 532.127 304.24C524.133 306.5 515.104 304.717 508.569 299.588L507.299 300.25C501.778 303.107 496.067 305.764 489.931 306.665C483.323 307.635 476.049 306.273 471.272 301.606L471.587 302.293C472.262 303.791 472.869 305.341 472.891 306.974C472.916 308.857 471.942 310.891 470.158 311.495C467.213 312.493 464.641 309.346 463.113 306.639C462.276 308.723 463.139 311.068 463.978 313.349C464.936 315.95 465.862 318.467 464.198 320.415C462.465 322.443 459.177 321.924 456.792 320.727C447.858 316.246 443.66 304.966 445.596 295.16C447.531 285.353 454.582 277.141 462.978 271.718C457.278 267.54 453.108 261.319 451.409 254.459C451.861 255.043 453.882 253.164 456.753 250.496L456.753 250.496C462.005 245.614 470.101 238.09 476.642 238.16C477.895 238.173 479.919 239.143 481.901 240.092L481.901 240.092L481.901 240.092C483.336 240.78 484.749 241.457 485.833 241.754C485.923 241.638 486.032 241.533 486.158 241.442L484.92 240.553C482.43 238.784 479.831 237.121 476.883 236.388C473.444 235.533 469.372 236.237 467.181 239.022C461.823 245.832 455.035 251.512 447.387 255.585L451.921 263.956C450.047 264.851 447.712 264.687 445.973 263.558L445.759 263.413L445.893 263.58C448.505 266.986 446.21 272.925 441.935 273.598C437.597 275.419 433.222 269.981 433.649 265.296C433.949 262.012 435.575 259.102 437.205 256.187C437.9 254.942 438.597 253.697 439.19 252.421C441.196 248.111 442.078 243.323 442.955 238.565C444.156 232.044 445.346 225.581 449.406 220.484C452.25 216.914 456.232 214.432 460.317 212.396C476.527 204.316 495.71 202.384 513.206 207.069C516.186 196.393 522.093 186.549 530.113 178.898L530.591 178.449C533.659 175.623 537.476 173.097 541.545 173.561L541.867 173.604C545.908 174.22 549.42 171.102 552.357 168.216L553.263 167.327L553.972 166.643C559.801 161.077 566.567 155.939 574.53 155.385C581.614 154.892 588.395 158.144 594.509 161.755C601.427 165.841 608.008 170.498 614.162 175.662L615.243 176.579L615.56 176.85L615.912 177.153L616.114 177.326C621.918 182.311 628.268 187.766 635.823 187.314C643.569 186.85 649.227 180.421 654.441 174.496L654.442 174.494L654.445 174.492C654.865 174.014 655.283 173.539 655.699 173.071C662.131 165.831 669.455 159.457 676.868 153.213L680.048 150.543C681.01 149.736 682.046 148.896 683.291 148.734C685.043 148.507 686.64 149.669 688.024 150.767ZM548.03 273.499C546.456 273.185 544.308 273.322 541.587 273.909C543.379 273.916 544.887 273.884 546.112 273.813C546.705 273.74 547.295 273.648 547.875 273.531L548.03 273.499ZM489.726 238.831C490.3 238.241 490.906 237.62 491.578 237.088C492.828 236.429 494.236 236.095 495.654 236.229C500.45 236.685 504.083 241.787 503.455 246.564C500.923 252.838 494.657 256.419 488.459 259.96L488.459 259.96C484.641 262.141 480.85 264.308 477.973 267.08C478.695 265.889 479.485 264.939 480.286 264.356C482.788 262.535 485.403 260.957 487.868 259.47L487.869 259.469C489.941 258.219 491.907 257.033 493.609 255.821C496.288 253.914 498.087 252.101 499.481 250.696L499.482 250.696L499.482 250.696L499.482 250.696L499.482 250.696C500.548 249.622 501.377 248.787 502.182 248.33C502.247 248.292 505.27 242.165 497.963 238.16C492.445 235.136 489.987 238.961 488.666 241.017C488.237 241.684 487.928 242.165 487.674 242.165C487.607 242.165 487.515 242.155 487.4 242.134C487.582 241.482 487.86 240.852 488.215 240.263C488.71 239.873 489.205 239.365 489.726 238.831ZM491.286 237.25C490.031 237.977 488.954 239.033 488.215 240.263L488.033 240.4C487.669 240.665 487.304 240.859 486.928 240.948C486.168 241.127 484.36 239.74 482.828 238.565C481.912 237.862 481.095 237.235 480.66 237.065C477.796 235.941 477.46 235.926 475.474 235.831C475.139 235.815 474.756 235.797 474.306 235.771L473.482 235.72C473.302 235.709 473.103 235.701 472.891 235.692L472.891 235.692L472.891 235.692C471.244 235.623 468.875 235.523 469.348 234.243C477.81 211.341 513.965 206.357 507.987 232.246C507.493 234.387 506.195 236.26 504.897 238.134C504.248 239.071 503.6 240.008 503.051 240.978C500.715 237.658 498.169 235.908 495.414 235.728C493.878 235.627 492.645 236.244 491.578 237.088L491.286 237.25ZM556.867 216.704L556.875 216.691C554.885 220.473 552.748 225.026 550.465 230.349C552.182 225.619 554.332 221.051 556.867 216.704ZM572.987 220.192L572.71 220.203C570.504 220.295 568.525 220.625 566.773 221.193C564.829 221.823 562.761 222.876 560.568 224.352C564.405 222.227 568.646 220.805 572.987 220.192Z" fill="white"/>
<path fill-rule="evenodd" clip-rule="evenodd" d="M460.176 316.112C458.443 318.141 455.931 317.487 453.629 315.243C448.812 310.547 446.877 301.487 448.812 291.681C450.747 281.874 458.291 277.834 466.687 272.411C462.92 270.859 456.094 261.02 455.409 251.459C457.731 254.455 457.854 259.834 460.176 262.83C462.38 265.674 466.784 269.136 468.987 271.979C469.269 272.342 469.511 272.952 469.112 273.179C461.063 277.751 455.847 279.264 451.1 291.68C446.352 304.096 455.991 315.581 457.272 315.243C458.849 314.826 458.29 312.733 457.384 311.376C454.828 307.547 457.259 302.443 459.343 298.338C460.457 299.587 457.779 303.17 458.343 306.895C458.894 310.532 461.719 314.306 460.176 316.112Z" fill="#E7EAEE"/>
<circle cx="493" cy="275" r="2" fill="#FFB61D"/>
<circle cx="486" cy="267" r="2" fill="#FFB61D"/>
<path d="M186.91 286.642C188.066 288.8 186.249 291.885 183.801 291.92C181.704 280.135 179.444 267.94 172.622 258.104C159.559 239.27 132.642 233.084 121.458 213.078C113.843 218.498 102.2 217.116 96.0647 210.065C92.2493 205.679 85.5986 205.141 79.8688 206.12C74.139 207.098 68.541 209.261 62.7312 209.077C60.2102 208.997 57.4635 208.319 55.9963 206.268C54.5291 204.216 55.3767 200.605 57.8735 200.248C68.751 198.691 79.6285 197.134 90.5059 195.577C91.3601 195.455 92.2666 195.309 92.9151 194.74C93.6488 194.096 93.8792 193.066 94.0695 192.109C95.6442 184.183 96.7788 174.736 90.9431 169.147C86.1066 164.515 78.4731 164.675 71.9023 165.967C65.3315 167.259 58.5595 169.385 52.0839 167.679C45.6083 165.973 40.1928 158.281 43.6837 152.566C46.0219 148.738 43.3855 143.634 39.7788 140.967C36.1722 138.301 31.6838 136.987 28.188 134.177C24.6922 131.367 22.4736 125.945 25.2581 122.429C26.4827 120.882 28.4002 120.068 30.2814 119.474C36.5076 117.51 43.45 117.36 49.4516 119.93C55.4532 122.5 60.3269 128.008 61.3036 134.463C62.0992 139.722 60.5874 145.84 64.0639 149.865C68.6092 155.128 77.0099 152.176 83.9635 152.113C91.0754 152.048 98.1081 155.819 101.99 161.778C105.872 167.737 106.478 175.694 103.545 182.173C111.805 173.768 122.932 167.32 134.709 167.759C145.587 168.164 155.581 174.421 162.857 182.518C170.132 190.615 175.095 200.477 179.961 210.214C181.775 213.841 186.373 215.807 190.248 214.612C194.124 213.416 196.815 209.2 196.268 205.182C199.645 205.918 199.997 210.483 200.101 213.938C200.32 221.197 202.949 228.363 207.475 234.042C208.99 231.248 210.145 228.26 210.904 225.175C214.209 228.974 215.441 234.472 214.076 239.318C212.71 244.164 208.787 248.209 203.985 249.723C201.43 250.529 198.306 250.916 197.038 253.276C201.829 261.667 205.951 270.439 209.349 279.484C211.172 284.334 212.487 290.574 208.651 294.056C204.215 290.782 201.695 285.588 199.342 280.602C195.671 272.825 192 265.048 188.33 257.271" fill="white"/>
<path fill-rule="evenodd" clip-rule="evenodd" d="M199.018 208.793C198.054 218.211 201.579 227.989 208.33 234.625C210.737 233.173 212.276 230.385 212.223 227.574C214.753 231.733 213.335 237.374 210.19 241.09C207.044 244.805 202.531 247.033 198.151 249.159C195.642 250.378 193.036 251.62 190.248 251.704C185.994 251.831 182.183 249.273 178.705 246.82L168.5 239.625C173.772 249.463 185.773 255.192 196.738 253.106C204.364 263.803 209.033 276.585 210.098 289.679L208.048 285.892C208.029 285.846 208.004 285.799 207.973 285.754L208.048 285.892C208.342 286.618 207.19 287.421 206.415 287.046C205.59 286.646 205.278 285.653 205.035 284.769C202.033 273.883 196.653 263.66 189.38 255.021L200.392 278.353C202.745 283.338 205.266 288.532 209.701 291.807C213.537 288.325 212.222 282.084 210.4 277.234C207.001 268.19 202.88 259.417 198.088 251.027C199.118 249.11 201.372 248.495 203.551 247.9L203.551 247.9L203.552 247.899L203.552 247.899L203.552 247.899L203.552 247.899C204.056 247.762 204.556 247.625 205.036 247.474C209.837 245.96 213.76 241.914 215.126 237.068C216.492 232.223 215.259 226.724 211.955 222.925C211.195 226.011 210.04 228.999 208.526 231.792C203.999 226.114 201.37 218.948 201.152 211.689C201.047 208.234 200.696 203.669 197.319 202.932C197.865 206.951 195.174 211.167 191.299 212.362C187.424 213.558 182.825 211.592 181.012 207.965C176.145 198.228 171.182 188.366 163.907 180.269C156.632 172.172 146.637 165.915 135.759 165.51C123.982 165.071 112.856 171.518 104.595 179.924C107.529 173.445 106.922 165.488 103.04 159.529C99.1583 153.569 92.1256 149.798 85.0137 149.863C83.2097 149.88 81.3083 150.091 79.4021 150.302C73.9607 150.905 68.4802 151.513 65.1141 147.616C62.7367 144.863 62.6921 141.132 62.6471 137.366C62.6263 135.625 62.6054 133.876 62.3538 132.213C61.3772 125.758 56.5034 120.25 50.5018 117.681C44.5002 115.111 37.5578 115.261 31.3317 117.225C29.4504 117.818 27.5329 118.633 26.3083 120.179C23.5238 123.696 25.7424 129.118 29.2382 131.928C31.0781 133.407 33.1928 134.471 35.3093 135.537C37.2142 136.495 39.1206 137.455 40.829 138.718C44.4357 141.384 47.0721 146.489 44.734 150.316C41.243 156.031 46.6585 163.724 53.1341 165.43C58.4872 166.84 64.0427 165.632 69.5197 164.441C70.6683 164.191 71.8134 163.942 72.9525 163.718C79.5233 162.426 87.1568 162.266 91.9933 166.898C97.829 172.486 96.6944 181.934 95.1197 189.859C94.9294 190.817 94.699 191.847 93.9653 192.491C93.3168 193.06 92.4103 193.205 91.5561 193.328L58.9237 197.999C56.4269 198.356 55.5793 201.967 57.0465 204.018C58.5137 206.07 61.2604 206.748 63.7814 206.827C67.636 206.949 71.3973 206.038 75.1658 205.126C77.0773 204.663 78.9907 204.199 80.919 203.87C86.6488 202.892 93.2995 203.43 97.1149 207.815C103.25 214.867 114.894 216.248 122.508 210.828C128.393 221.356 138.635 228.057 148.922 234.787C158.184 240.847 167.483 246.932 173.672 255.855C180.494 265.691 182.754 277.886 184.851 289.671C187.299 289.636 189.117 286.55 187.96 284.392L185.66 287.426C184.811 268.852 175.324 250.85 160.482 239.65C156.806 236.876 152.776 234.444 148.754 232.018C139.916 226.687 131.12 221.38 126.226 212.524C125.786 211.727 125.375 210.882 125.304 209.974C125.214 208.825 125.672 207.716 126.114 206.647L126.177 206.494C127.941 202.215 129.173 197.519 128.307 192.972C127.44 188.426 124.017 184.126 119.44 183.442C127.188 188.398 128.777 200.699 122.541 207.461C116.306 214.223 103.918 213.635 98.3505 206.313C93.8887 200.445 84.967 201.163 77.7856 202.828C70.6042 204.492 62.1474 206.234 56.5998 201.379C68.4685 198.116 80.6815 196.107 92.9702 195.395C95.8976 195.226 97.0459 191.574 97.4402 188.669C98.0463 184.202 98.6525 179.663 97.9884 175.205C97.3244 170.746 95.2052 166.298 91.4218 163.848C86.8785 160.905 81.0133 161.361 75.6296 161.924L61.3225 163.421C58.2397 163.744 55.0715 164.06 52.0826 163.239C49.0937 162.418 46.2814 160.19 45.7083 157.144C45.3464 155.22 45.8972 153.325 46.4524 151.415C46.8522 150.04 47.2543 148.657 47.3198 147.249C47.5065 143.241 44.9169 139.568 41.7703 137.078C39.8424 135.552 37.6941 134.351 35.5439 133.149C34.1846 132.39 32.8246 131.629 31.5188 130.786C29.061 129.2 26.5393 126.636 27.2226 123.791C27.6597 121.972 29.3059 120.711 30.9609 119.838C36.5488 116.893 43.5333 116.76 49.2288 119.492C54.9244 122.224 59.1933 127.753 60.3941 133.955C60.6904 135.485 60.825 137.083 60.9594 138.677C61.2701 142.366 61.5794 146.037 63.8841 148.808C66.637 152.119 71.3949 152.953 75.6955 152.748C77.17 152.678 78.6444 152.512 80.1176 152.347C82.9411 152.031 85.7601 151.715 88.5673 152.069C98.0065 153.258 105.444 163.079 104.029 172.487C103.95 173.007 103.85 173.532 103.749 174.059C103.388 175.935 103.025 177.83 103.666 179.593C104.487 181.85 108.077 183.052 109.215 180.937C114.312 171.458 126.003 166.683 136.692 167.935C147.382 169.187 156.948 175.623 163.965 183.782C170.983 191.942 175.757 201.761 180.111 211.603C181.644 215.07 186.21 216.325 189.858 215.294C193.506 214.262 196.4 211.535 199.018 208.793ZM179.863 225.313C179.966 225.298 180.207 225.769 180.569 226.479C181.462 228.225 183.093 231.419 185.245 232.391C185.149 233.296 183.726 232.811 183.134 232.12C181.452 230.154 179.666 227.893 179.863 225.313ZM184.942 240.827C186.052 242.454 179.402 243.264 177.191 241.844C177.58 241.77 178.093 241.809 178.661 241.854C179.335 241.906 180.086 241.964 180.8 241.844C181.845 241.669 182.855 241.348 183.616 241.106C184.355 240.87 184.862 240.709 184.942 240.827ZM183.345 234.78C180.698 235.234 177.445 231.708 177.445 228.391C178.208 230.843 180.919 232.788 182.417 233.863C183.179 234.41 183.627 234.731 183.345 234.78ZM192.83 248.646C189.304 248.646 187.706 242.701 189.304 242.319C189.687 242.146 189.704 242.678 189.731 243.464C189.759 244.291 189.796 245.399 190.277 246.261C190.811 247.22 191.942 247.86 192.602 248.234C193.101 248.516 193.331 248.646 192.83 248.646ZM196.758 240.551C197.532 240.977 198.238 241.638 198.439 242.499C198.639 243.36 198.158 244.403 197.292 244.583C197.021 244.184 197.168 243.931 197.323 243.664C197.551 243.272 197.796 242.85 196.758 241.894C196.321 241.491 195.812 241.316 195.455 241.193C195.181 241.099 194.996 241.035 195.003 240.923C195.048 240.207 196.13 240.205 196.758 240.551ZM190.158 232.803C189.984 232.924 189.864 233.008 189.966 233.103C190.285 233.4 190.66 233.541 191.035 233.326C191.32 233.162 191.465 232.829 191.532 232.507C191.909 230.705 190.007 228.845 188.214 229.261C188.373 229.681 188.677 229.815 189.047 229.978C189.474 230.166 189.987 230.392 190.464 231.138C191.106 232.144 190.517 232.554 190.158 232.803ZM189.556 249.784C187.48 249.179 185.427 244.276 186.532 243.905C187.221 243.673 187.217 243.71 187.177 244.098C187.141 244.454 187.073 245.103 187.48 246.109C187.984 247.359 188.691 248.373 189.141 249.018C189.449 249.461 189.637 249.73 189.556 249.784ZM665.077 138.468C660.619 139.015 657.107 142.61 654.891 146.516C653.82 148.405 652.963 150.404 652.106 152.403C651.19 154.538 650.275 156.672 649.099 158.671C643.491 168.209 632.835 173.423 622.623 177.684C620.862 178.418 617.777 178.073 618.327 176.246C635.046 173.073 649.439 159.836 653.997 143.44C654.534 141.508 652.021 139.878 650.083 140.389C648.329 140.851 647.08 142.314 645.953 143.765L645.601 144.222C636.288 156.335 622.919 166.576 607.654 167.237C606.573 167.284 605.027 166.625 605.503 165.653C616.809 165.274 627.467 159.694 635.862 152.112C644.257 144.529 650.659 135.026 656.648 125.429C657.574 123.944 659.798 124.262 661.455 124.826C666.536 126.559 671.412 128.897 675.945 131.774C678.379 133.319 676.451 137.44 673.684 138.248C672.094 138.712 670.434 138.6 668.766 138.486C667.532 138.403 666.293 138.319 665.077 138.468ZM660.735 129.016L660.344 128.897C659.155 128.556 657.826 128.367 656.869 129.105C656.498 129.392 656.233 129.787 655.989 130.19L652.807 135.555C654.477 135.941 656.078 136.625 657.511 137.566C658.682 138.334 660.296 138.363 661.494 137.638C662.693 136.914 663.416 135.471 663.279 134.077C663.228 133.557 664.08 133.416 664.436 133.798C664.702 134.084 664.781 134.476 664.86 134.866C664.887 134.998 664.914 135.131 664.948 135.258C665.082 135.763 665.494 136.307 666.006 136.203C666.525 135.71 666.809 134.979 666.759 134.265C666.945 133.527 668.095 134.185 668.273 134.924C668.451 135.663 668.785 136.714 669.519 136.516C670.598 136.25 670.937 134.747 670.411 133.767C669.886 132.788 668.828 132.234 667.819 131.767C665.519 130.701 663.151 129.782 660.735 129.016ZM651.064 137.738C652.725 139.41 655.142 140.299 657.491 140.103C656.051 138.29 653.602 137.343 651.317 137.694L651.064 137.738ZM532.126 304.24C524.132 306.5 515.103 304.717 508.568 299.588C502.653 302.688 496.538 305.695 489.93 306.665C483.322 307.635 476.048 306.273 471.271 301.606C472.06 303.316 472.865 305.09 472.89 306.974C472.915 308.857 471.941 310.891 470.156 311.495C467.212 312.493 464.64 309.346 463.112 306.639C462.275 308.723 463.138 311.068 463.977 313.349C464.935 315.95 465.861 318.467 464.197 320.415C462.464 322.443 459.176 321.924 456.791 320.727C447.856 316.246 443.659 304.966 445.595 295.16C447.53 285.353 454.581 277.141 462.977 271.718C457.277 267.54 453.107 261.319 451.408 254.459C452.569 255.957 453.43 257.698 454.291 259.438L454.291 259.439C455.153 261.179 456.014 262.92 457.175 264.418C458.277 265.839 459.678 267.019 461.08 268.198L461.08 268.198C462.482 269.378 463.884 270.557 464.986 271.979C465.267 272.342 465.51 272.952 465.111 273.179C457.062 277.751 450.176 285.036 447.892 294.006C445.608 302.977 448.786 313.566 456.669 318.419C458.058 319.275 459.715 319.962 461.292 319.545C462.87 319.128 464.053 317.148 463.147 315.791C460.591 311.963 460.28 306.745 462.364 302.64L468.969 310.046C470.488 309.656 470.863 307.613 470.459 306.098C470.331 305.617 470.155 305.143 469.98 304.67C469.603 303.651 469.227 302.635 469.328 301.569C469.477 300.008 471.514 298.611 472.59 299.752C476.886 304.305 483.787 305.596 489.965 304.594C496.144 303.592 501.803 300.626 507.338 297.703L513.871 294.254C513.399 296.138 511.872 297.72 510.005 298.257C516.311 302.787 524.743 304.21 532.187 302.002C533.469 301.621 534.785 301.095 535.617 300.047C536.448 298.999 536.583 297.295 535.578 296.412C535.456 296.304 535.319 296.21 535.182 296.115C534.914 295.93 534.646 295.745 534.493 295.463C534.261 295.038 534.62 294.322 535.064 294.517C537.579 294.342 539.13 297.721 538.105 300.024C537.081 302.328 534.552 303.554 532.126 304.24ZM487.496 270.806C486.06 270.344 484.448 271.335 483.824 272.708C483.2 274.081 483.377 275.695 483.849 277.128C483.999 275.512 484.205 274.293 484.817 273.231C485.081 272.773 485.897 272.341 486.615 271.961C487.543 271.47 488.306 271.066 487.496 270.806ZM486.279 266.745C488.374 266.223 490.74 267.029 492.081 268.722C493.421 270.415 493.663 272.903 492.674 274.823C492.437 274.536 492.381 274.016 492.31 273.364C492.103 271.438 491.77 268.36 486.279 266.745ZM484.461 281.626C483.798 282.454 486.107 284.641 489.718 283.133C490.387 282.853 489.841 282.821 488.981 282.771C488.196 282.725 487.15 282.664 486.526 282.385C485.998 282.15 485.728 281.773 485.525 281.49C485.225 281.072 485.074 280.862 484.461 281.626ZM491.778 284.394C494.092 283.241 492.641 286.622 487.8 286.207C487.363 286.17 486.792 286.001 486.797 285.561C486.799 285.407 487.208 285.371 487.845 285.316C488.834 285.23 490.371 285.096 491.778 284.394ZM477.5 277.979C478.371 278.829 479.639 278.852 480.485 278.688C481 278.589 481.253 278.128 480.781 277.979C480.67 277.944 480.487 277.915 480.267 277.88C479.765 277.801 479.07 277.691 478.604 277.41C478.305 277.23 478.134 276.614 477.988 276.086C477.837 275.543 477.713 275.093 477.5 275.304C477.082 275.721 476.629 277.128 477.5 277.979ZM478.273 280.856C478.695 281.498 477.089 281.277 476.744 280.856C476.399 280.435 476.059 278.852 476.637 278.852C476.805 278.852 476.862 279.101 476.931 279.4C476.994 279.676 477.067 279.994 477.246 280.196C477.592 280.589 477.824 280.647 477.995 280.69C478.111 280.719 478.198 280.741 478.273 280.856ZM550.493 277.671C551.358 279.4 549.843 281.339 548.383 282.607C542.447 287.761 535.352 291.573 527.778 293.679C535.941 293.735 544.067 290.241 549.643 284.279C552.238 281.505 553.897 276.297 550.549 274.504C554.522 273.187 559.226 270.438 558.619 266.297C558.403 264.817 557.498 263.543 556.621 262.333L556.1 261.617C550.676 254.206 544.044 246.37 534.951 245.817C540.185 242.882 546.419 247.051 551.032 250.889L552.384 252.009C558.492 257.03 564.883 261.808 572.128 264.947C579.909 268.319 588.856 269.666 596.928 267.066L619.516 259.786C623.875 258.344 629.009 255.634 628.613 251.105C628.395 248.61 626.119 246.465 623.616 246.395C621.112 246.326 618.72 248.341 618.364 250.82L617.873 246.966C616.662 245.931 614.73 246.818 613.755 248.079C613.387 248.556 613.079 249.083 612.773 249.609C612.269 250.473 611.767 251.333 611.001 251.96C608.335 254.141 604.792 252.348 601.611 250.465L599.628 249.279C593.974 245.958 587.274 245.449 580.658 244.947L580.656 244.946C579.228 244.838 577.804 244.73 576.395 244.594C567.172 243.703 558.081 241.456 549.505 237.948C557.37 244.397 567.646 245.48 578.012 246.572C583.235 247.122 588.482 247.675 593.454 248.918C597.398 249.904 601.757 251.914 602.725 255.862C604.13 261.596 597.319 266.036 591.441 266.573C581.827 267.45 572.459 263.361 564.296 258.143L563.377 257.548C560.423 255.609 557.56 253.522 554.698 251.437L554.697 251.436C549.447 247.61 544.201 243.787 538.404 240.881C544.391 241.183 548.763 236.848 553.229 232.421C555.637 230.033 558.073 227.617 560.805 225.888C568.832 220.805 579.081 221.962 588.528 223.595L590.012 223.856C587.79 213.094 582.363 203.015 574.602 195.236L587.939 221.456C573.897 216.778 557.057 222.624 548.934 234.996C555.204 213.838 570.119 195.382 589.49 184.812C595.731 187.147 601.004 191.314 606.267 195.473L606.268 195.474L606.268 195.474C607.967 196.817 609.665 198.159 611.394 199.438C618.481 204.68 627.099 209.123 635.775 207.562C642.014 206.44 647.264 202.383 651.926 198.044L652.677 197.338C658.23 192.074 663.391 186.396 668.105 180.369C673.263 173.774 679.602 165.943 687.917 166.926C689.386 167.099 690.813 167.557 692.235 168.014C694.201 168.644 696.157 169.272 698.196 169.141C701.711 168.915 704.941 164.196 702.183 162.006L688.023 150.767C686.639 149.669 685.042 148.507 683.29 148.734C682.045 148.896 681.01 149.736 680.047 150.543L676.867 153.213C669.454 159.457 662.13 165.831 655.698 173.071C655.281 173.541 654.862 174.017 654.441 174.496C649.226 180.421 643.568 186.85 635.823 187.314C628.267 187.766 621.917 182.311 616.113 177.326L616.096 177.311L616.05 177.271C615.779 177.039 615.511 176.808 615.243 176.579L614.161 175.662C608.007 170.498 601.427 165.841 594.509 161.755C588.394 158.144 581.613 154.892 574.529 155.385C566.241 155.962 559.25 161.504 553.262 167.327L552.357 168.216C549.42 171.102 545.907 174.22 541.867 173.604L541.545 173.561C537.475 173.097 533.659 175.623 530.591 178.449L530.112 178.898C522.093 186.549 516.185 196.393 513.205 207.069C495.71 202.384 476.526 204.316 460.316 212.396C456.231 214.432 452.249 216.914 449.406 220.484C445.346 225.581 444.155 232.044 442.954 238.565L442.954 238.566C442.078 243.323 441.196 248.111 439.19 252.421C438.596 253.697 437.9 254.942 437.204 256.187C435.574 259.102 433.948 262.012 433.649 265.296C433.221 269.981 437.596 275.419 441.935 273.598C446.28 272.914 448.58 266.787 445.758 263.412C447.517 264.672 449.968 264.888 451.92 263.956L447.386 255.585C455.035 251.512 461.823 245.832 467.18 239.022C469.371 236.237 473.443 235.533 476.882 236.388C479.83 237.121 482.429 238.784 484.92 240.553L486.157 241.442C484.715 242.49 485.546 245.279 487.327 245.367C486.177 240.688 490.856 235.774 495.653 236.229C500.45 236.685 504.082 241.787 503.455 246.564C500.922 252.839 494.656 256.419 488.458 259.96C481.733 263.802 475.089 267.598 473.384 274.739C471.667 281.934 477.216 289.991 484.549 290.953C491.883 291.915 499.321 285.561 499.517 278.167C499.517 278.167 500.603 278.279 500.987 277.128C501.592 275.314 502.165 273.306 502.733 271.315C503.802 267.571 504.852 263.892 506.064 261.694C509.464 255.53 515.793 250.65 522.83 250.48C525.065 250.426 527.285 250.095 529.504 249.763C532.337 249.34 535.167 248.918 538.019 249.075C543.103 249.355 548.676 252.332 549.409 257.371C543.771 256.276 537.889 256.461 532.331 257.907L552.008 260.248C556.329 260.762 557.138 267.452 554.058 270.527C551.154 273.425 546.73 273.902 542.589 274.086L541.84 274.117C542.563 275.593 544.363 275.746 546.164 275.899C547.96 276.051 549.759 276.204 550.493 277.671ZM655.166 191.683C649.066 198.456 641.934 205.735 632.825 206.075C624.86 206.372 617.892 201.239 611.448 196.491L610.972 196.14L609.433 195.016C602.233 189.793 594.775 184.925 587.097 180.435C581.151 176.958 574.312 173.599 567.643 175.324L578.2 178.647C576.42 179.601 575.786 182.2 576.926 183.867C577.17 181.37 580.058 179.783 582.537 180.173C585.015 180.563 587.031 182.383 588.566 184.367C575.257 189.471 563.933 199.575 557.352 212.219C556.128 214.571 555.063 217.003 553.999 219.435C552.556 222.73 551.115 226.024 549.278 229.112C546.087 234.48 541.361 239.362 535.281 240.784C534.43 240.983 533.557 241.114 532.685 241.245C530.937 241.506 529.194 241.767 527.64 242.577C527.502 242.649 527.36 242.724 527.215 242.802L527.099 242.863C525.273 243.838 523.023 245.04 521.898 243.455C520.055 240.859 517.116 239.067 513.964 238.618C519.176 221.108 532.584 206.228 549.46 199.227C550.415 198.831 550.049 197.402 549.527 196.509L541.852 183.375C541.143 182.162 541.973 180.512 543.222 179.869C544.471 179.225 545.96 179.322 547.354 179.495C556.233 180.601 564.781 184.244 571.728 189.883C572.839 190.785 574.66 191.671 575.472 190.493C567.548 182.501 556.212 178.795 545.056 177.302C554.699 176.359 564.671 179.396 572.152 185.553L572.516 185.851C574.304 187.302 576.467 188.844 578.528 187.955C570.173 179.941 558.749 175.211 547.175 174.975C549.556 173.204 551.78 171.235 554.004 169.266L554.006 169.265L554.006 169.264C556.266 167.264 558.525 165.265 560.949 163.472C565.76 159.914 571.511 157.136 577.485 157.485C581.822 157.739 585.889 159.61 589.726 161.647C597.837 165.954 605.474 171.152 612.455 177.118C612.937 177.53 613.422 177.948 613.911 178.369L613.947 178.401C620.583 184.119 627.822 190.357 636.398 189.551C641.627 189.06 646.261 185.9 649.941 182.153C651.977 180.08 653.793 177.809 655.609 175.538L655.611 175.536C657.077 173.703 658.544 171.869 660.127 170.138C662.411 167.64 665.057 165.292 668.304 164.338C671.552 163.385 675.51 164.174 677.439 166.956L655.166 191.683ZM444.996 238.07C446.173 231.634 447.336 225.27 451.685 220.585C453.815 218.29 456.54 216.638 459.314 215.187C473.505 207.764 490.055 204.939 505.905 207.233C509.784 207.794 514.59 209.97 514.528 213.653C514.504 213.878 514.483 214.103 514.463 214.329C514.503 214.098 514.524 213.873 514.528 213.653C516.108 198.255 525.077 183.768 538.181 175.518C539.343 183.621 542.893 191.367 548.273 197.538C534.015 203.543 522.176 215.09 515.817 229.194L515.716 229.416C513.91 233.37 511.045 238.225 506.862 237.241L508.933 224.445C509.123 223.271 509.298 222.001 508.742 220.95C508.121 219.778 506.793 219.237 505.498 218.847L505.044 218.715C497.547 216.593 489.136 214.555 482.289 218.274C478.667 220.241 476.067 223.539 473.635 226.924L471.83 229.46C467.545 235.442 462.748 241.057 457.508 246.224C455.398 248.305 453.116 250.373 450.291 251.269C447.466 252.164 443.955 251.562 442.278 249.118C443.616 245.625 444.308 241.836 444.996 238.07ZM491.202 287.932C486.75 289.583 483.128 288.769 479.654 286.746C478.167 285.88 476.767 284.766 475.929 283.263C474.673 281.009 474.862 278.211 475.586 275.734C476.669 272.032 478.884 268.669 481.858 266.214C483.915 264.516 486.283 263.269 488.65 262.023L488.651 262.023C489.468 261.593 490.285 261.163 491.089 260.715C498.94 256.335 505.713 250.037 510.652 242.524C511.638 241.024 513.716 240.538 515.455 240.981C517.194 241.424 518.643 242.615 519.897 243.899C520.795 244.817 521.46 246.644 520.263 247.108C511.879 250.354 505.127 257.556 502.43 266.132C502.356 266.367 502.285 266.603 502.213 266.839C501.804 268.196 501.389 269.569 500.509 270.666C499.476 271.956 497.402 276.495 498.46 278.647C498.46 278.647 495.653 286.281 491.202 287.932ZM502.833 219.997C504.192 220.301 505.671 220.739 506.416 221.915C507.026 222.878 506.987 224.101 506.892 225.237C506.513 229.729 505.569 234.174 504.088 238.432C503.837 239.152 503.064 240.017 502.501 239.504C501.862 236.281 498.916 233.66 495.641 233.4C492.365 233.14 489.043 235.263 487.903 238.345C487.678 238.954 486.888 239.18 486.261 239.012C485.792 238.886 485.39 238.602 485.006 238.295L484.627 237.986C480.724 234.816 475.442 233.408 470.48 234.216C473.124 229.767 476.477 225.741 480.376 222.336C481.971 220.943 483.701 219.629 485.716 218.976C487.612 218.361 489.649 218.367 491.64 218.468C495.405 218.66 499.154 219.172 502.833 219.997ZM680.78 163.373C678.883 161.351 676.283 159.998 673.536 159.613L676.653 155.655C677.641 154.414 678.796 153.141 680.355 152.945C681.479 152.804 682.584 153.265 683.607 153.753C687.031 155.384 690.257 157.427 693.196 159.824C694.176 160.624 695.163 161.517 695.589 162.708C696.015 163.9 695.672 165.459 694.53 166.004C693.387 166.549 691.742 165.356 692.211 164.18L692.256 164.048C692.448 163.38 692.145 162.59 691.541 162.238L690.437 164.354C690.336 164.539 690.218 164.718 690.036 164.818C689.299 165.225 688.7 164.081 688.653 163.241L688.644 163.124C688.566 162.297 688.132 161.242 687.371 161.5C687.268 162.917 686.255 164.226 684.909 164.68C683.563 165.134 681.963 164.706 681.024 163.641L680.78 163.373ZM443.16 267.795L441.828 262.742C441.194 262.565 440.577 263.199 440.487 263.851C440.427 264.285 440.523 264.714 440.653 265.138L440.858 265.769C441.543 267.914 441.526 270.276 440.811 272.411C439.49 269.708 438.801 266.699 438.814 263.691C437.953 263.219 437.367 264.661 437.429 265.641L437.801 271.49C435.995 269.864 435.359 267.224 435.668 264.813C435.976 262.403 437.108 260.177 438.38 258.107C439.045 257.026 439.78 255.943 440.837 255.241C441.894 254.539 443.349 254.298 444.428 254.965C445.324 255.519 445.741 256.503 446.162 257.5C446.482 258.254 446.804 259.016 447.34 259.606C447.53 259.815 447.751 260.028 447.977 260.246C448.849 261.087 449.781 261.986 449.171 262.892C447.293 261.739 445.575 260.325 444.082 258.704C443.541 262.052 444.036 265.561 445.482 268.629C445.778 269.257 444.801 269.855 444.186 269.534C443.571 269.212 443.337 268.466 443.16 267.795ZM623.544 251.264C624.506 250.413 625.386 249.634 625.811 249.846C627.051 250.465 623.683 253.182 621.9 253.95C622.029 254.811 623.278 254.425 624.008 253.95C624.738 253.474 626.781 252.963 626.381 253.48C623.889 256.704 619.077 259.266 614.628 259.767C612.825 259.97 610.595 259.489 610.021 257.767C609.496 256.197 610.663 254.647 611.897 253.48L612.194 253.208C612.713 252.744 613.546 252.291 614.024 252.797C615.295 254.142 617.517 253.042 618.981 251.909C618.981 251.909 622.787 248.238 623.425 248.473C624.059 248.707 621.526 252.847 621.526 252.847C622.154 252.494 622.87 251.861 623.544 251.264ZM605.328 254.672C605.783 254.568 606.258 254.752 606.651 255.004C608.081 255.922 608.764 257.857 608.226 259.47C607.689 261.082 605.982 262.221 604.287 262.098C604.046 262.08 603.795 262.035 603.606 261.884C603.211 261.567 603.261 260.962 603.349 260.462L603.987 256.81C604.142 255.929 604.455 254.87 605.328 254.672ZM524.721 246.38C527.172 245.966 529.71 246.067 532.121 246.675C531.982 247.67 530.821 248.121 529.837 248.325C526.803 248.952 523.668 249.087 520.591 248.724C521.362 247.275 523.102 246.653 524.721 246.38ZM678.422 165.405L671.988 161.605C675.158 161.132 678.539 162.797 680.095 165.599C679.649 166.006 678.942 165.712 678.422 165.405ZM537.431 241.609C534.703 242.331 532.006 243.171 529.351 244.125C532.109 245.65 536.026 244.431 537.431 241.609ZM510.768 238.16C511.519 238.315 511.178 239.496 510.579 239.975C508.756 241.431 505.986 241.556 504.038 240.271L510.768 238.16ZM681.99 150.023C682.431 149.919 682.886 150.097 683.3 150.284C685.987 151.498 688.448 153.209 690.521 155.306L681.275 150.585C681.417 150.306 681.685 150.095 681.99 150.023ZM541.122 175.53L541.213 175.593C542.047 175.473 542.908 175.544 543.712 175.798C543.011 177.124 542.035 178.303 540.864 179.241C540.278 178.078 540.38 176.599 541.122 175.53ZM699.343 162.557L699.362 162.615C700.384 163.03 701.079 164.138 701.009 165.239C698.904 164.147 697.201 162.301 696.283 160.116C697.54 160.551 698.639 161.428 699.343 162.557ZM507.9 243.259L507.747 243.468C507.214 244.192 506.579 244.979 505.686 245.083C504.792 245.186 503.877 244.031 504.507 243.389C505.565 242.914 506.808 242.867 507.9 243.259ZM444.62 252.231C445.417 252.417 446.317 252.998 446.192 253.807C444.366 253.569 442.564 253.147 440.823 252.549C442.014 252.051 443.362 251.938 444.62 252.231ZM614.198 252.076C613.784 252.256 613.409 251.499 613.803 251.278C613.803 251.278 616.525 246.503 616.643 249.846C616.701 250.678 614.941 251.696 614.198 252.076ZM499.152 276.593C499.354 275.143 499.735 272.411 500.509 272.411C501.606 272.295 501.184 274.163 500.886 275.48C500.804 275.843 500.732 276.164 500.703 276.39C500.603 277.18 499.865 277.802 499.019 277.421C499.052 277.305 499.095 277 499.151 276.594L499.152 276.593ZM243.943 326.699C249.528 327.182 255.135 327.412 260.741 327.39C260.343 332.661 264.629 337.852 269.881 338.458C275.132 339.063 280.488 334.985 281.3 329.761C281.626 327.663 284.465 327.298 286.581 327.463L300.054 328.512C302.364 328.691 305.632 327.964 305.383 325.661L303.857 311.552C303.719 310.279 304.163 308.424 305.418 308.676C310.766 309.749 316.608 305.65 317.34 300.245C318.073 294.841 313.452 289.302 308 289.131C305.381 289.049 304.135 285.623 304.815 283.092C305.18 281.731 305.874 280.499 306.57 279.265L306.57 279.265L306.57 279.264C307.168 278.204 307.766 277.142 308.158 275.995C309.004 273.514 308.294 270.058 305.742 269.459C286.364 264.916 266.022 264.531 246.486 268.336L246.129 268.407C245.054 268.623 243.977 268.89 243.048 269.465C239.997 271.354 239.762 275.519 239.911 279.192L240.011 281.235C240.546 293.083 239.614 304.996 237.24 316.616L237.187 316.879C236.655 319.528 236.224 322.554 237.992 324.562C239.303 326.049 241.4 326.45 243.4 326.649L243.943 326.699ZM278.312 329.541C278.468 330.303 278.273 331.098 277.966 331.814L277.868 332.032C276.065 335.838 270.698 337.47 267.102 335.244C263.437 332.976 262.539 327.276 265.328 323.99C258.241 324.839 251.06 324.894 243.961 324.156C241.764 323.927 238.892 322.741 239.341 320.578C242.431 305.706 243.396 290.394 242.198 275.252C241.981 272.508 245.359 271.084 248.066 270.587C265.536 267.379 283.612 267.512 301.032 270.976C303.261 271.419 306.13 273.112 305.142 275.159C302.817 279.976 301.887 285.458 302.495 290.773C302.65 292.128 303.711 293.902 304.894 293.223C308.08 291.393 312.692 292.86 314.235 296.195C315.778 299.529 313.911 303.994 310.453 305.238C306.996 306.482 302.713 304.229 301.777 300.676C300.942 307.995 301.24 315.441 302.657 322.67C303.148 325.175 299.5 326.121 296.954 325.931L276.628 324.417C276.006 325.398 276.644 326.412 277.316 327.479C277.734 328.144 278.166 328.83 278.312 329.541ZM383.485 283.607L423.296 284.408L423.946 284.424C425.142 284.461 426.346 284.566 427.423 285.069C429.857 286.204 430.972 289.004 431.712 291.586C435.662 305.366 435.175 320.382 430.339 333.877L430.136 334.429C429.506 336.09 428.683 337.745 427.197 338.679C425.973 339.448 424.482 339.609 423.031 339.686L422.721 339.702C416.801 339.983 410.861 339.831 404.963 339.249C408.035 337.358 408.81 332.755 406.86 329.721C404.91 326.687 400.789 325.42 397.319 326.405C395.204 327.006 393.234 328.451 392.469 330.512C391.704 332.573 392.443 335.22 394.398 336.227C395.75 336.923 395.517 339.115 394.333 340.07C393.15 341.024 391.505 341.092 389.984 341.116L370.01 341.44C368.509 341.465 366.93 341.471 365.612 340.752C363.743 339.732 362.884 337.535 362.357 335.472C361.086 330.494 360.915 325.238 361.858 320.188C362.993 324.177 367.908 326.599 371.763 325.069C375.618 323.54 377.535 318.407 375.627 314.725C373.719 311.043 368.42 309.649 364.948 311.917L364.803 310.63C364.305 306.119 363.918 301.549 364.784 297.107C365.733 292.241 368.439 287.462 372.876 285.251C376.112 283.639 379.849 283.55 383.485 283.607ZM426.943 287.772C425.946 287.172 424.744 287.069 423.575 287.02L423.283 287.008C410.9 286.546 398.507 286.311 386.115 286.306L381.984 286.312C379.371 286.322 376.672 286.359 374.281 287.412C370.712 288.984 368.399 292.629 367.456 296.412C366.513 300.196 366.739 304.161 366.971 308.053C373.246 306.325 379.997 312.701 379.252 319.168C378.507 325.634 371.339 330.304 364.95 329.057C364.66 331.099 364.375 333.22 364.975 335.195C365.575 337.169 367.327 338.954 369.39 338.888L387.908 338.292C389.055 338.255 390.639 337.662 390.306 336.564C388.414 330.331 393.873 323.054 400.387 323.128C406.901 323.202 412.194 330.599 410.162 336.788C414.233 337.705 418.465 337.897 422.601 337.355C423.945 337.178 425.347 336.894 426.376 336.012C427.387 335.146 427.884 333.835 428.306 332.572C432.604 319.694 433.074 305.565 429.643 292.43C429.2 290.732 428.584 288.905 427.162 287.914L426.943 287.772ZM251.237 410.406C249.265 397.576 249.268 384.446 251.245 371.617L251.345 370.996C251.835 368.085 252.696 365.011 255.129 363.407C256.95 362.207 259.251 362.117 261.444 362.116L278.239 362.162C279.004 362.164 279.841 362.193 280.416 362.697C280.991 363.201 280.975 364.358 280.238 364.562C278.479 365.05 277.468 367.078 277.682 368.891C277.895 370.704 279.074 372.274 280.458 373.464C283.76 376.301 288.891 377.31 292.545 374.944C296.2 372.578 297.059 366.482 293.596 363.844C301.441 363.684 309.29 363.709 317.134 363.917L320.075 364.004C321.026 364.035 322.077 364.111 322.741 364.792C323.24 365.303 323.404 366.046 323.517 366.751C324.385 372.181 323.435 377.886 320.854 382.742C320.443 383.516 319.491 384.368 318.843 383.779C316.087 381.277 311.451 381.618 308.631 384.048C305.811 386.477 304.721 390.513 305.219 394.202C305.699 397.752 308.287 401.544 311.865 401.365C312.873 401.315 313.922 400.967 314.95 400.626L314.951 400.625C316.797 400.013 318.579 399.422 319.947 400.611L316.359 416.641C315.721 419.489 314.577 422.868 311.723 423.478C295.249 427.002 277.976 426.735 261.618 422.705L260.825 422.504C258.84 421.985 256.862 421.312 255.313 419.987C252.617 417.679 251.776 413.913 251.237 410.406ZM316.767 403.477C312.106 405.669 306.034 403.788 303.118 399.543C300.201 395.299 300.487 389.233 303.479 385.041C306.472 380.85 311.851 378.622 316.983 379.06L317.411 379.098C318.13 379.159 318.868 379.185 319.479 378.826C320.252 378.371 320.581 377.436 320.796 376.565C321.653 373.093 321.606 369.402 320.66 365.952L298.947 366.111C299.343 372.138 294.382 378.02 288.374 378.646C282.366 379.272 276.299 374.539 275.444 368.56L275.324 367.671C275.196 366.774 274.994 365.888 274.325 365.319C273.854 364.919 273.237 364.761 272.626 364.64L272.398 364.596C266.08 363.401 258.072 362.906 254.756 368.414C253.627 370.29 253.324 372.534 253.094 374.712C251.775 387.211 252.089 399.881 254.025 412.3L254.119 412.881C254.434 414.729 254.927 416.627 256.303 417.867C257.248 418.719 258.49 419.141 259.721 419.489L260.029 419.575C275.782 423.907 292.554 424.486 308.57 421.257L309.459 421.074C310.246 420.908 311.065 420.717 311.683 420.202C312.489 419.532 312.8 418.451 313.068 417.438L316.767 403.477ZM433.938 435.24C433.938 435.24 434.028 432.742 434.343 431.921C434.912 430.438 436.592 428.331 436.592 428.331C436.475 428.901 436.312 429.512 436.143 430.142C435.566 432.301 434.928 434.686 435.897 436.45C436.645 437.811 447.584 444.98 451.343 446.66C467.421 453.845 483.579 460.347 499.813 466.879L499.814 466.88L499.815 466.88L499.816 466.881L499.826 466.885C506.461 469.554 513.109 472.23 519.769 474.958C508.325 473.564 497.787 468.235 487.52 462.991C485.303 475.286 492.155 487.681 501.398 496.086C508.129 502.206 516.051 506.743 523.973 511.279L523.973 511.28L523.974 511.28C526.931 512.973 529.887 514.666 532.782 516.442L533.845 517.101C544.115 523.53 553.938 531.645 558.472 542.839C559.304 544.892 561.857 546.061 563.955 545.349C566.053 544.636 567.366 542.155 566.776 540.019C568.971 541.821 567.705 545.848 565.045 546.843C562.385 547.839 559.335 546.488 557.372 544.436C555.893 542.889 554.861 541.001 553.829 539.114L553.829 539.113L553.829 539.112L553.828 539.112L553.828 539.111L553.825 539.106C553.489 538.491 553.153 537.876 552.802 537.274C546.462 526.405 535.263 519.655 524.153 513.478L518.938 510.59C506.881 503.858 494.528 495.771 489.364 483.026C470.618 486.001 451.102 483.983 433.36 477.237C429.566 475.794 425.85 474.139 422.136 472.485L422.135 472.485C416.219 469.85 410.307 467.217 404.087 465.445C400.621 464.458 395.845 464.352 394.547 467.714C394.547 467.712 394.545 467.715 394.542 467.722C394.504 467.788 394.258 468.22 393.152 468.315C392.634 468.359 392.157 467.45 392.01 466.848C391.883 466.679 391.84 466.203 391.84 465.225C391.84 464.699 392.914 462.396 394.934 460.972C396.338 459.982 397.92 459.622 398.748 459.434C399.121 459.349 399.342 459.299 399.323 459.242C399.281 459.109 397.844 458.736 396.539 459.369C395.532 459.858 394.578 460.504 393.701 461.097L393.701 461.097C392.344 462.015 391.172 462.809 390.27 462.704C389.049 462.563 388.183 461.993 388.17 460.764C388.156 459.535 388.482 458.041 389.43 457.269C391.456 455.62 394.072 454.711 396.684 454.748C397.248 454.756 397.873 454.836 398.241 455.264C398.609 455.692 398.428 456.545 397.864 456.571C394.478 456.723 390.563 457.29 389.245 460.764C388.862 461.775 391.285 461.937 392.222 461.398C392.766 461.085 393.233 460.665 393.701 460.244C394.039 459.939 394.377 459.634 394.745 459.369C395.846 458.577 397.214 458.163 398.569 458.211C399.116 458.231 399.718 458.357 400.04 458.798C400.362 459.24 400.135 460.043 399.588 460.052C396.078 460.109 392.873 463.152 392.633 466.654C392.646 466.78 392.743 467.359 393.152 467.496C393.629 467.657 394.157 467.267 394.179 467.229C396.006 463.965 399.344 461.784 402.931 462.876C404.287 463.289 405.592 463.918 406.891 464.544C409.164 465.638 411.419 466.724 413.897 466.633L412.409 458.746C406.38 453.219 397.293 451.271 389.528 453.84C388.697 454.115 387.799 454.513 387.46 455.321C387.121 456.128 387.865 457.3 388.683 456.987C387.397 458.176 385.224 456.158 385.713 454.476C386.203 452.795 388.047 451.93 389.742 451.49C399.253 449.018 408.732 453.327 417.892 457.49L417.893 457.491L417.904 457.496C419.6 458.267 421.286 459.033 422.959 459.75C441.612 467.745 462.687 469.981 482.602 466.079C481.739 468.443 478.793 469.158 476.292 469.439C458.553 471.434 440.333 468.993 423.744 462.399C421.718 464.973 422.684 468.972 424.989 471.298C427.295 473.625 430.557 474.682 433.695 475.62C451.283 480.877 469.931 484.897 487.903 481.159L484.99 464.118L484.931 463.807C484.787 463.127 484.522 462.424 483.887 462.208L483.726 462.153C460.691 454.331 443.134 448.368 420.339 426.639C420.293 426.595 420.248 426.55 420.204 426.504C420.037 433.035 417.965 434.472 409.328 432.692C390.484 428.808 371.19 426.774 352.171 429.447C353.609 422.338 355.411 415.304 357.566 408.379C351.377 410.376 344.071 404.704 344.471 398.214C344.871 391.723 352.819 386.992 358.715 389.734C360.741 385.061 360.869 379.597 359.066 374.833C358.2 372.548 361.649 371.229 364.093 371.229L377.595 371.226C379.482 371.225 382.114 370.349 381.645 368.52C380.533 364.185 383.514 359.232 387.866 358.184C392.138 357.156 396.947 360.081 398.051 364.321L398.108 364.557C399.133 369.11 404.901 370.556 409.567 370.467L411.89 370.411C415.926 370.326 420.132 370.457 422.833 373.28C426.064 376.656 425.341 382.033 424.277 386.617L424.205 386.921C423.686 389.111 422.929 390.891 422.167 392.681C420.716 396.09 419.25 399.538 419.38 405.934C419.433 408.542 419.527 410.936 419.634 413.127C420.009 411.587 420.339 410.569 420.339 410.569C420.339 410.569 464.348 443.337 491.528 447.785C494.785 444.907 492.905 439.3 489.624 436.45C488.241 435.249 486.668 434.278 485.098 433.31C482.943 431.981 480.795 430.656 479.16 428.746C475.911 424.953 475.33 419.727 474.754 414.545C474.128 408.91 473.508 403.328 469.47 399.697C469.11 399.373 468.726 399.07 468.343 398.768L468.342 398.767C467.477 398.085 466.614 397.404 466.025 396.483C464.569 394.207 465.285 391.038 467.048 388.99C468.811 386.942 471.39 385.798 473.942 384.907C479.239 383.058 485.047 382.025 490.456 383.515C495.866 385.005 500.711 389.51 501.242 395.095C502.268 392.873 504.521 391.268 506.957 391.023L503.422 394.78L507.895 394.869L501.74 398.307C505.555 405.364 504.938 414.068 502.492 421.709C502.193 422.643 501.867 423.577 501.541 424.513L501.54 424.514L501.539 424.518C500.232 428.268 498.914 432.049 499.251 435.962C499.667 440.774 503.94 445.69 508.61 444.705L508.844 444.651C514.458 443.232 520.606 444.054 525.651 446.896C531.534 450.21 535.538 455.83 539.502 461.392C540.422 462.683 541.339 463.97 542.278 465.225C546.676 471.107 551.88 476.577 558.386 479.985C564.892 483.392 572.87 484.517 579.648 481.688C580.894 481.168 582.092 480.521 583.288 479.875C585.319 478.779 587.344 477.686 589.59 477.221C593.158 476.481 597.701 478.227 598.125 481.847C596.279 478.763 591.906 478.216 588.465 479.256C586.524 479.843 584.733 480.802 582.939 481.762L582.938 481.763C581.554 482.504 580.169 483.246 578.712 483.818C571.413 486.684 562.913 484.947 556.193 480.906C549.684 476.991 544.585 471.145 539.985 465.089L539.542 464.502C539.075 463.882 538.611 463.258 538.146 462.634L538.145 462.632L538.144 462.631L538.143 462.629L538.142 462.628L538.141 462.627L538.14 462.625L538.139 462.624L538.138 462.623C534.904 458.276 531.646 453.898 527.376 450.591C522.588 446.882 516.156 444.691 510.392 446.471L510.039 446.585C504.524 448.453 498.684 443.177 497.691 437.439C496.698 431.702 499.037 425.969 501.326 420.615C503.688 415.092 499.352 408.649 493.886 406.16C488.813 403.85 482.722 403.902 477.69 406.298C476.06 407.075 475.766 409.214 475.82 411.043L475.827 411.245C476.11 417.701 477.835 424.487 482.547 428.908C483.949 430.223 485.568 431.285 487.184 432.345C489.206 433.671 491.224 434.994 492.805 436.806C495.648 440.066 496.085 446.172 492.135 447.936C498.913 449.159 505.62 450.779 512.209 452.786C476.758 449.159 444.164 432.438 420.762 412.242C420.283 413.178 419.945 414.168 419.74 415.184C419.795 416.195 419.85 417.158 419.903 418.075C419.977 419.37 420.046 420.572 420.101 421.685C421.227 425.394 423.86 428.663 427.477 430.1C427.191 427.496 428.068 424.786 429.827 422.844C428.686 425.395 426.876 430.287 433.938 435.24ZM488.39 385.335C485.235 384.747 482.029 384.434 478.821 384.401C478.603 384.805 478.52 385.28 478.589 385.734C482.167 386.032 485.69 386.974 488.938 388.503C487.581 389.86 485.338 389.047 483.516 388.387L483.408 388.348C480.295 387.221 476.877 386.948 473.624 387.568C471.965 387.883 470.306 388.452 469.028 389.556C467.75 390.66 466.915 392.379 467.2 394.043C467.564 396.169 469.563 397.622 471.559 398.44C476.507 400.467 482.438 399.895 486.908 396.961C487.27 396.724 487.781 397.12 487.803 397.553C487.824 397.986 487.532 398.369 487.224 398.674C485.443 400.448 482.792 401.012 480.283 401.159C479.55 401.201 478.814 401.216 478.077 401.23H478.077H478.077H478.076H478.076H478.076C476.29 401.265 474.505 401.3 472.78 401.737C473.012 403.16 474.79 403.649 476.228 403.754C481.723 404.153 487.299 403.413 492.5 401.595C493.803 401.14 495 402.445 495.768 403.591L501.371 411.953C503.212 410.22 503.102 407.226 502.234 404.852C501.895 403.924 501.463 403.029 501.032 402.136C500.36 400.743 499.689 399.353 499.373 397.846C499.199 397.015 499.136 396.163 499.074 395.312V395.312C498.986 394.117 498.899 392.925 498.503 391.8C497.11 387.84 492.517 386.103 488.39 385.335ZM420.704 461.662L415.618 458.74C415.053 458.416 414.013 458.361 414.071 459.01C413.897 461.635 414.111 464.851 415.799 467.039C416.862 468.418 417.63 469.124 421.386 470.056L421.11 462.704C421.095 462.314 421.042 461.857 420.704 461.662ZM498.151 421.665C498.769 421.306 499.163 420.668 499.531 420.055C500.19 418.959 500.868 417.798 500.897 416.52C500.927 415.242 500.043 413.847 498.765 413.797C498.13 413.772 497.525 414.074 497.006 414.442C495.854 415.257 494.965 416.439 494.5 417.771C495.088 418.619 496.419 417.862 497.011 417.017C497.603 416.172 498.48 415.104 499.421 415.526C498.8 417.682 497.7 419.698 496.225 421.388C496.62 421.984 497.532 422.024 498.151 421.665ZM508.325 483.768C506.911 481.522 505.384 479.096 502.864 478.366C508.455 488.889 517.12 497.755 527.512 503.586C531.141 505.621 534.968 507.293 538.791 508.964C544.124 511.294 549.449 513.62 554.218 516.926C560.193 521.068 565.136 526.688 568.479 533.145C567.165 523.939 559.467 516.892 551.25 512.54C547.53 510.569 543.621 508.981 539.715 507.394L539.714 507.393C534.991 505.474 530.271 503.556 525.891 500.966C518.908 496.836 512.923 491.031 508.583 484.177C508.498 484.041 508.412 483.905 508.325 483.768ZM525.888 486.881L526.043 487.228C526.732 488.82 527.208 490.821 525.916 491.899C524.887 492.758 523.326 492.43 522.112 491.86C519.487 490.627 517.317 488.451 516.092 485.822C517.625 485.518 519.061 484.747 520.162 483.638C521.076 482.717 522.693 482.903 523.723 483.693C524.754 484.482 525.339 485.705 525.888 486.881ZM525.054 490.649C526.376 488.274 523.678 484.771 522.361 484.544C521.788 484.445 521.196 485.013 520.56 485.623C519.908 486.249 519.209 486.919 518.437 486.958C518.437 486.958 523.731 493.023 525.054 490.649ZM591.762 497.477C623.879 496.421 655.233 480.775 675.387 455.747C676.43 454.452 678.496 454.43 679.946 455.244C681.397 456.058 682.376 457.488 683.304 458.869C684.314 458.721 684.344 457.153 683.648 456.405C683.305 456.037 682.873 455.769 682.442 455.502C681.999 455.227 681.556 454.952 681.209 454.568C679.806 453.014 680.555 450.57 681.377 448.644L685.041 440.064C685.532 438.915 686.3 437.574 687.55 437.591C688.464 437.604 689.168 438.368 689.748 439.075C696.072 446.778 701.937 454.857 707.305 463.255C703.996 463.768 700.815 462.137 697.677 460.529C694.172 458.733 690.72 456.965 687.205 458.239C684.142 459.35 682.338 462.434 680.716 465.259C675.411 474.502 669.334 483.404 661.636 490.774C643.76 507.889 618.814 515.296 594.513 519.98C609.545 525.67 626.104 527.266 641.946 524.552C651.012 522.999 660.052 519.939 667.118 514.051C669.979 511.666 672.461 508.867 674.93 506.079L693.129 485.536C694.194 484.333 696.161 485.488 697.153 486.751C698.146 488.015 699.493 489.59 701.007 489.051C699.923 486.624 698.042 484.562 695.725 483.26C695.588 480.363 695.501 477.259 697.042 474.801C698.582 472.343 702.423 471.146 704.422 473.248C710.975 480.142 717.254 487.296 723.239 494.688C719.727 495.24 716.39 493.728 713.078 492.228L713.077 492.228L713.077 492.228L713.076 492.228L713.075 492.227L713.075 492.227C712.052 491.764 711.031 491.301 710.009 490.901C705.674 489.206 699.598 489.242 697.621 493.456C692.215 504.98 686.598 516.8 677.318 525.513C661.819 540.066 639.174 543.351 618.05 545.747C608.681 546.809 599.058 547.817 589.936 545.431C583.296 543.695 577.255 540.241 571.303 536.824L566.581 534.112C565.191 534.46 566.307 536.567 567.541 537.295C575.449 541.958 583.599 546.71 592.667 548.139C594.977 548.503 597.317 548.645 599.654 548.732C621.172 549.541 642.852 545.766 662.831 537.732C671.163 534.381 679.642 529.902 684.217 522.175L700.341 494.945C700.958 493.903 701.638 492.801 702.734 492.283C704.068 491.653 705.638 492.055 707.056 492.467L722.17 496.856C723.714 497.305 725.149 495.494 724.988 493.894C724.827 492.294 723.672 490.996 722.574 489.821L708.636 474.904C706.797 472.935 704.821 470.882 702.224 470.165C699.628 469.449 696.29 470.71 695.782 473.355C694.283 481.164 688.949 487.599 683.801 493.658C675.832 503.037 667.537 512.675 656.477 518.072C640.617 525.811 621.876 523.563 604.511 520.419L615.771 517.139C621.344 515.516 626.926 513.889 632.329 511.766C653.288 503.53 671.142 487.639 681.751 467.775C683.593 464.327 685.758 460.343 689.605 459.651C692.767 459.082 695.462 460.949 698.218 462.857C699.856 463.992 701.516 465.141 703.307 465.802C705.949 466.777 710.049 465.389 709.427 462.643C709.287 462.022 708.91 461.485 708.542 460.966L694.205 440.753C692.216 437.948 689.235 434.78 685.962 435.833C683.332 436.679 682.345 439.715 681.476 442.392C681.423 442.552 681.371 442.712 681.32 442.87C677.239 455.305 666.265 463.992 655.85 471.918C651.293 475.386 646.725 478.862 641.807 481.796C627.442 490.366 610.597 493.995 593.905 495.079C589.188 495.385 586.225 499.809 583.512 503.858C583.189 504.34 582.87 504.816 582.552 505.279C577.907 512.049 571.291 517.449 563.728 520.645C564.993 522.044 567.297 521.206 568.896 520.206C576.485 515.464 582.922 508.893 587.508 501.208C588.519 499.513 589.789 497.541 591.762 497.477ZM490.994 424.923C490.255 426.54 488.609 427.705 486.838 427.862C485.067 428.02 483.241 427.164 482.229 425.703C481.857 425.166 481.861 424.117 482.511 424.173C483.866 425.972 486.69 426.437 488.549 425.167C489.354 424.617 490.751 423.979 490.994 424.923ZM476.758 413.17C476.919 411.815 478.061 410.638 479.41 410.437C480.759 410.236 482.196 411.028 482.744 412.277C481.758 412.277 481.097 412.099 480.546 411.95C479.426 411.648 478.765 411.469 476.758 413.17ZM487.215 420.716L485.68 421.375L485.591 421.324C485.193 422.082 484.021 421.224 483.931 420.372C483.912 420.196 483.903 420.01 483.894 419.821C483.86 419.1 483.825 418.35 483.228 418.026C482.483 419.1 482.142 420.512 482.575 421.745C483.009 422.979 484.328 423.914 485.614 423.682C486.901 423.45 487.825 421.873 487.215 420.716ZM489.059 410.25C491 410.406 491.517 410.511 492.053 411.788C492.158 412.039 491.328 411.803 490.537 411.577L490.537 411.577C489.955 411.411 489.395 411.251 489.243 411.296C482.744 413.223 487.117 410.093 489.059 410.25ZM488.51 413.606C489.582 414.457 489.272 417.845 487.688 417.208C487.024 416.941 486.231 411.8 488.51 413.606ZM539.881 504.342C539.368 503.704 539.949 502.565 540.766 502.605C541.127 502.839 541.373 503.242 541.415 503.67C541.105 504.174 540.464 504.449 539.886 504.328L539.881 504.342ZM525.287 497.737L526.403 497.567L526.492 497.535C526.88 496.81 525.613 495.984 525.106 496.631C524.996 497.001 525.064 497.421 525.287 497.737ZM533.232 502.138C532.586 502.314 532.498 501.203 532.862 500.64L534.407 501.343C534.168 501.76 533.727 502.055 533.25 502.114L533.232 502.138ZM513.942 485.947C513.771 485.523 513.156 485.36 512.798 485.644L512.896 485.743C512.587 486.148 512.832 486.839 513.328 486.958C513.783 486.914 514.113 486.371 513.942 485.947ZM480.006 417.287C479.384 417.287 478.733 416.678 478.765 415.622C478.797 414.565 479.085 413.589 480.006 414.108C480.927 414.626 480.647 417.287 480.006 417.287ZM190.376 288.906C190.75 289.398 191.606 289.182 191.935 288.659C192.265 288.135 192.223 287.468 192.164 286.853C191.302 277.949 188.991 269.187 185.35 261.017C184.313 258.69 183.222 255.788 184.81 253.795C188.481 262.97 192.183 272.258 193.52 282.049C193.884 284.721 194.015 287.647 192.526 289.895C191.036 292.143 187.324 293.005 185.668 290.876C188.214 290.344 190.162 287.766 189.978 285.172C191.154 285.973 191.357 287.875 190.376 288.906ZM220.047 465.694C233.366 464.963 248.797 463.04 255.783 451.677C257.595 448.73 257.208 444.097 256.89 440.28C256.634 437.213 256.422 434.672 257.429 433.954C259.69 432.343 261.498 436.499 261.498 436.499C261.564 436.224 261.64 435.883 261.726 435.499C262.357 432.668 263.52 427.452 265.346 428.432C266.098 428.835 265.839 431.37 265.661 433.113C265.619 433.522 265.582 433.887 265.564 434.171C265.521 434.44 265.515 434.665 265.547 434.824C265.572 434.814 265.599 434.799 265.627 434.78C265.639 434.778 265.652 434.771 265.667 434.757C265.676 434.749 265.686 434.739 265.697 434.726C265.992 434.477 266.397 433.861 266.847 433.176L266.847 433.176C267.78 431.755 268.907 430.038 269.663 430.669C270.85 431.661 266.63 437.988 266.63 437.988C266.63 437.988 271.642 432.48 272.065 434.824C272.488 437.168 261.073 458.34 250.769 466.644C240.465 474.947 225.946 479.596 212.818 477.931C213.111 472.725 214.84 465.98 220.047 465.694ZM265.697 434.726C265.673 434.747 265.649 434.765 265.627 434.78C265.547 434.793 265.538 434.558 265.564 434.171C265.66 433.558 265.947 432.719 266.405 431.917C266.318 432.192 266.231 432.458 266.149 432.709C265.784 433.831 265.519 434.643 265.794 434.58C265.756 434.645 265.724 434.694 265.697 434.726ZM268.178 429.949C267.439 430.416 266.843 431.149 266.405 431.917C267.088 429.75 267.781 427.019 266.097 426.8C263.243 426.43 260.452 431.076 260.948 433.545C260.155 431.578 256.859 432.429 256.06 434.393C255.448 435.9 255.708 437.551 255.967 439.19L255.967 439.19L255.967 439.19C256.046 439.687 256.124 440.182 256.177 440.672C257.035 448.504 251.164 455.824 244.046 459.202C237.334 462.386 229.718 462.834 222.269 463.065L220.531 463.115C216.278 463.227 211.672 463.129 208.427 460.414C205.082 457.617 205.086 450.98 209.285 449.807C219.945 446.83 228.077 436.443 228.408 425.38C228.506 422.11 230.626 419.39 232.675 416.761C232.859 416.524 233.043 416.289 233.224 416.054L233.675 415.465C235.969 412.422 237.854 408.229 235.928 404.941C232.944 408.77 227.353 410.314 222.827 408.559C220.939 407.827 219.266 406.604 217.603 405.388C215.376 403.761 213.168 402.146 210.486 401.742C205.242 400.953 200.041 406.263 200.938 411.49C199.519 410.298 197.315 412.102 197.162 413.949C197.071 415.034 197.357 416.09 197.643 417.151C197.845 417.895 198.046 418.642 198.119 419.402C198.205 420.288 198.114 421.174 198.023 422.061C197.962 422.661 197.9 423.261 197.893 423.862C197.855 426.973 199.241 429.853 200.606 432.688L200.608 432.692L200.61 432.695C200.746 432.979 200.883 433.263 201.018 433.546L201.383 434.324C202.937 437.694 204.09 441.704 202.434 445.026C200.777 448.347 195.139 449.387 193.541 446.037C185.712 429.619 167.967 418.441 149.778 418.468C128.718 418.5 109.77 432.379 97.3589 449.393C95.811 451.515 94.296 453.801 93.9586 456.405C93.6213 459.01 94.83 462 97.3079 462.871C99.7858 463.742 102.999 461.305 102.191 458.806C103.449 460.273 106.02 458.886 106.612 457.046C106.945 456.013 106.94 454.923 106.936 453.829C106.933 452.976 106.93 452.121 107.087 451.289C107.854 447.209 112.051 444.852 115.829 443.129L116.59 442.783C125.488 438.757 134.758 435.162 144.491 434.478C154.501 433.775 165.183 436.557 172.063 443.863C162.676 446.091 157.225 455.509 152.879 464.209L152.277 465.422C147.889 474.232 142.143 483.844 132.522 485.711C132.888 487.61 134.564 489.18 136.482 489.421L101.212 510.39L103.917 513.746C95.3297 526.908 85.6173 539.335 74.9205 550.848C69.1047 557.108 61.5529 563.594 53.1336 562.137C51.6112 561.874 50.1351 561.351 48.6642 560.83C46.5102 560.067 44.3673 559.308 42.1057 559.373C38.2998 559.481 34.4803 564.111 37.0637 566.908C42.7852 573.103 49.3153 578.549 56.4359 583.066L56.6203 583.182C57.4872 583.722 58.4406 584.226 59.4457 584.111C60.4618 583.994 61.2891 583.271 62.0448 582.582L109.812 539.028C113.725 535.49 118.03 531.95 123.241 531.429L123.681 531.377C127.535 530.84 130.711 528.403 133.895 525.96C135.282 524.895 136.67 523.83 138.117 522.92C143.012 519.839 151.132 519.523 153.036 524.984C154.048 527.887 152.723 530.839 151.418 533.749L151.418 533.749C151.029 534.616 150.642 535.479 150.319 536.336C148.911 540.069 150.064 545.811 154.053 545.741L176.377 545.346C177.18 545.338 178.025 545.383 178.648 545.874C179.301 546.387 179.53 547.242 179.656 548.08L179.708 548.464C180.548 555.301 180.432 562.256 179.364 569.061C178.207 576.437 175.126 584.549 168.168 587.253C163.778 588.958 158.889 588.073 154.266 587.014L126.176 580.453C126.129 577.051 129.207 574.282 132.487 573.38C135.269 572.616 138.19 572.849 141.084 573.08H141.084C141.262 573.094 141.439 573.108 141.617 573.122L142.637 573.198C149.746 573.687 156.933 573.027 163.834 571.25L153.877 546.331C154.892 554.604 157.129 562.726 160.494 570.351L127.76 571.413C124.91 571.493 121.745 571.367 119.829 569.287C119.337 568.752 118.927 568.095 118.521 567.444C117.686 566.107 116.868 564.795 115.386 564.623C114.107 564.475 112.947 565.33 111.967 566.166C105.567 571.625 100.253 578.352 96.4247 585.842C97.8049 589.26 102.378 590.216 105.931 589.235C108.009 588.661 109.906 587.628 111.807 586.592C113.155 585.857 114.505 585.122 115.924 584.548C123.837 581.35 132.536 583.517 140.892 586.034L145.856 587.545C155.665 590.491 167.625 592.002 174.975 584.871C179.313 580.662 180.893 574.399 181.752 568.417C184.23 551.154 182.221 533.266 175.975 516.983C182.939 514.297 186.226 506.506 188.781 499.493L193.784 485.757C195.456 481.168 199.253 475.537 203.774 477.386C216.697 482.671 231.961 480.436 243.993 473.352C256.024 466.268 265.031 454.793 271.097 442.218L271.259 441.878C272.446 439.379 273.96 433.548 272.608 432.902C272.104 432.507 271.207 433.164 270.595 433.611C270.264 433.853 270.017 434.034 269.961 433.954C269.927 433.906 270.038 433.583 270.195 433.125C270.813 431.325 272.146 427.438 268.178 429.949ZM182.659 507.052C181.096 510.567 178.509 514.704 174.69 514.237C172.645 513.987 171.101 512.444 169.712 510.858L168.967 509.996C160.897 500.628 149.934 494.401 138.915 488.67L135.243 486.774C144.219 485.008 149.756 476.131 153.71 467.882L154.97 465.253C158.585 457.758 162.699 450.046 170.156 446.672C171.187 446.205 172.369 445.834 173.432 446.221C173.593 446.28 173.767 446.347 173.948 446.416C175.26 446.921 176.95 447.571 176.923 446.328C174.531 445.363 174.137 441.873 175.517 439.694C176.777 437.704 178.96 436.555 181.121 435.566L181.737 435.287C180.359 433.386 177.371 434.984 175.81 436.739L175.681 436.881C174.115 438.6 171.71 440.482 169.902 439.085C162.43 433.312 152.473 431.459 143.074 432.365C133.676 433.271 124.709 436.708 116.123 440.636C112.976 442.076 109.78 443.646 107.445 446.2C105.638 448.175 105.451 450.805 105.263 453.448C105.208 454.222 105.152 454.997 105.056 455.757C104.825 457.594 103.814 457.665 102.923 457.726C102.446 457.76 102.004 457.79 101.734 458.089C101.712 458.114 101.642 458.221 101.537 458.382C101.003 459.203 99.5563 461.425 98.9029 461.203C97.9433 460.878 98.4326 458.806 98.4326 458.806C98.4326 458.806 95.5848 459.62 95.3728 458.806C94.6312 455.958 98.9029 450.13 98.9029 450.13C106.085 439.565 116.736 430.798 128.445 425.702C140.371 420.512 154.288 419.51 166.48 424.041C180.225 429.15 191.11 441.354 194.619 455.591C195.493 459.141 199.622 460.708 203.23 461.298C203.568 461.353 203.91 461.407 204.254 461.46L204.259 461.461C207.589 461.981 211.129 462.535 213.251 465.077C213.877 465.826 213.704 466.935 213.489 467.887L213.426 468.162C212.635 471.557 211.254 475.357 207.955 476.388C204.956 477.324 201.404 474.907 201.174 471.774C201.154 471.498 201.148 471.206 201.142 470.91C201.117 469.693 201.09 468.41 200.068 467.908L182.659 507.052ZM154.304 525.621C153.183 519.859 149.775 514.676 145.303 510.873C145.478 513.138 146.436 515.335 147.977 517.004C140.4 519.412 133.255 523.172 126.978 528.053C125.299 529.359 122.445 530.551 121.461 528.664C117.59 521.241 111.429 515.032 104.035 511.105L134.433 493.637C135.807 492.847 137.26 492.035 138.844 492.02C140.073 492.008 141.239 492.478 142.35 493.026L142.901 493.304C154.276 499.163 164.459 507.326 172.652 517.155C174.681 519.588 175.625 522.704 176.429 525.787L180.044 539.913C180.284 540.848 180.459 542.006 179.726 542.635C179.314 542.989 178.733 543.05 178.191 543.091L177.557 543.14C168.556 543.833 161.294 544.392 152.276 543.091C150.931 540.512 151.947 537.315 152.997 534.013C153.897 531.185 154.821 528.279 154.304 525.621ZM109.082 516.934C112.455 519.905 115.496 523.252 118.129 526.893C118.411 527.283 118.701 527.718 118.671 528.198C118.636 528.758 118.182 529.189 117.76 529.558L78.4715 563.945C76.8333 565.379 74.2199 565.127 72.3849 563.956C70.7793 562.931 69.6313 561.359 68.5779 559.757L68.1312 559.07C78.3705 553.689 84.9387 544.05 91.5653 534.324C95.7218 528.224 99.9013 522.09 105.024 516.952C105.522 516.453 106.084 515.936 106.785 515.857C107.652 515.76 108.427 516.358 109.082 516.934ZM223.496 421.018L224.499 421.326C226.452 421.93 226.777 424.547 226.528 426.577C225.499 434.981 220.275 443.299 212.222 445.91L211.934 446.007C206.686 447.86 202.934 453.35 203.158 458.919C199.635 459.579 195.858 456.761 195.488 453.196C195.414 452.485 195.625 451.562 196.331 451.453C199.531 450.962 202.475 448.997 204.158 446.231C205.84 443.464 206.231 439.947 205.195 436.879C204.984 436.252 204.715 435.625 204.445 434.996C203.68 433.21 202.912 431.417 203.45 429.616C204.676 429.729 204.909 431.411 204.779 432.636L204.765 432.785C204.666 433.993 204.879 435.542 206.051 435.703C206.823 433.93 206.984 431.945 207.143 429.974C207.344 427.487 207.543 425.023 208.97 423.041C210.601 420.775 213.527 419.733 216.319 419.7C218.762 419.672 221.15 420.306 223.496 421.018ZM46.9663 562.704L47.2183 562.413C48.6244 562.105 49.9671 563.906 49.2707 565.166C48.8239 565.974 50.1979 566.774 50.9651 566.26C51.7322 565.745 51.887 564.701 51.9714 563.782C52.7432 563.54 53.4109 564.424 53.5566 565.219C53.5951 565.43 53.619 565.647 53.6429 565.865C53.7094 566.471 53.7761 567.078 54.1585 567.534C54.6782 568.154 56.055 567.833 55.8292 567.057C55.4923 565.898 56.8609 564.952 58.0553 564.781C58.3425 564.74 58.639 564.716 58.9363 564.692C59.8756 564.615 60.8225 564.537 61.5063 563.927L61.6094 563.844C62.4771 563.229 63.5515 564.367 64.2064 565.379L64.511 565.869C65.9511 568.108 68.399 569.675 71.038 570.033C71.5551 570.104 71.292 570.91 70.9121 571.268L62.0056 579.655C61.5738 580.062 60.8742 579.773 60.3684 579.463C55.0816 576.226 50.201 572.326 45.8773 567.884C44.5151 566.485 45.6703 564.252 46.9663 562.704ZM124.856 578.315C124.599 579.373 123.869 580.557 122.783 580.476C120.167 580.283 117.514 580.599 115.016 581.4C115.245 580.335 114.78 579.153 113.885 578.531C113.232 579.465 113.499 580.911 114.442 581.55L111.952 584.011L110.76 581.271C110.172 581.428 110.155 582.149 110.195 582.811L110.224 583.221C110.343 584.956 108.872 586.642 107.138 586.759C105.404 586.876 103.72 585.402 103.605 583.668C103.48 581.778 104.927 580.193 106.273 578.861L115.826 569.4C116.029 569.208 116.262 569.027 116.536 569.032C116.839 569.038 117.085 569.268 117.298 569.483L121.026 573.245C121.749 573.975 121.293 575.091 120.847 576.179C120.389 577.298 119.943 578.388 120.808 578.995C121.651 579.044 122.353 578.313 122.677 577.534C122.842 577.136 122.943 576.716 123.043 576.296C123.139 575.893 123.236 575.49 123.39 575.106C123.704 574.323 124.382 573.577 125.226 573.595C126.07 573.613 126.721 574.819 126.069 575.354C125.373 575.925 125.174 576.853 124.981 577.755L124.981 577.756C124.94 577.945 124.9 578.132 124.856 578.315ZM59.5354 582.498C50.9483 577.905 43.3578 571.459 37.4331 563.73C38.21 562.994 39.3784 563.776 40.1298 564.611L40.3158 564.829C45.9452 571.795 53.015 577.591 60.9491 581.746C60.8848 582.373 60.0907 582.795 59.5354 582.498ZM100.718 580.739C104.438 575.874 108.559 571.317 113.027 567.128C113.719 566.479 115.158 566.041 115.333 566.974C110.132 571.938 105.158 577.14 100.43 582.558C99.9167 582.112 100.305 581.279 100.718 580.739ZM72.1505 568.576C69.5548 567.653 67.2408 565.953 65.5829 563.753C64.959 562.925 64.5656 561.487 65.5108 561.061C66.2578 560.725 66.9755 561.431 67.4966 562.116L67.8872 562.647C69.5662 564.863 71.9611 566.529 74.6246 567.326C74.6293 568.036 74.041 568.702 73.3352 568.785C72.9333 568.832 72.5318 568.712 72.1505 568.576ZM199.528 424.613C200.748 424.642 201.781 425.914 201.559 427.114L201.588 427.132C201.757 428.002 201.646 428.924 201.275 429.729C199.941 428.42 199.273 426.465 199.528 424.613ZM222.774 424.643C222.929 424.629 223.091 424.615 223.255 424.613C223.461 424.611 223.698 424.648 223.922 424.682C224.526 424.776 225.032 424.854 224.554 424.106C223.9 423.082 221.984 422.966 221.67 424.141C221.758 424.733 222.215 424.692 222.774 424.643ZM224.316 429.71C224.326 429.674 224.335 429.639 224.344 429.604C224.81 427.84 224.54 426.448 223.255 426.448C222.759 426.486 222.002 429.011 222.074 429.776C222.147 430.542 223.01 431.25 223.678 430.87C224.074 430.645 224.201 430.155 224.316 429.71ZM215.839 429.174C214.943 427.93 214.849 426.158 215.609 424.826C215.722 424.627 215.859 424.432 216.057 424.318C216.56 424.03 217.232 424.42 217.454 424.955C217.675 425.491 217.579 426.098 217.479 426.669C217.479 426.669 216.735 430.419 215.839 429.174ZM405.623 429.211C389.257 425.196 372.159 424.181 355.433 426.233C358.336 419.47 359.611 412.014 359.119 404.67C354.76 407.724 347.604 404.141 347.439 398.821C347.274 393.501 354.194 389.481 358.733 392.26C359.937 392.996 361.26 391.469 361.741 390.143C363.38 385.625 363.396 380.537 361.785 376.009C361.158 374.245 363.819 373.289 365.691 373.326L381.574 373.64C382.64 373.661 383.773 373.666 384.684 373.11C385.595 372.555 386.112 371.219 385.443 370.389C382.694 366.978 385.853 360.875 390.225 361.15C394.596 361.424 396.966 367.875 393.813 370.915C393.224 371.481 394.368 372.211 395.184 372.23L415.952 372.708C420.082 372.803 423.001 377.204 423.17 381.332C423.312 384.825 422.072 388.171 420.847 391.475C420.74 391.763 420.633 392.051 420.527 392.339L420.188 393.273C416.51 403.595 415.326 414.795 416.765 425.657C417.046 427.776 415.095 429.662 413.007 430.12C411.165 430.525 409.268 430.124 407.424 429.663L405.623 429.211Z" fill="#003B93"/>
<path fill-rule="evenodd" clip-rule="evenodd" d="M184.261 239.125C184.413 238.146 185.717 237.581 186.66 237.917C187.603 238.253 188.444 239.605 187.754 240.37C186.66 241.581 183.968 241.025 184.261 239.125Z" fill="#FFB61D"/>
<path fill-rule="evenodd" clip-rule="evenodd" d="M594.67 492.609C594.054 493.126 592.817 493.313 592.703 492.517C595.108 490.069 596.763 486.894 597.391 483.52C598.176 483.31 598.403 484.56 598.206 485.349C597.543 488.007 596.768 490.847 594.67 492.609Z" fill="#003B93"/>
<path d="M63.626 201.025C63.6016 201.814 62.4048 201.768 61.6811 201.453C61.9416 200.749 62.9977 200.514 63.5327 201.04L63.626 201.025Z" fill="#003B93"/>
<path fill-rule="evenodd" clip-rule="evenodd" d="M405.135 417.768C404.301 418.51 402.899 417.376 403.023 416.267C403.146 415.158 404.129 414.364 405.072 413.767C408.451 411.626 412.364 410.336 416.353 410.048C416.46 411.569 414.488 412.197 412.991 412.489C409.815 413.108 406.789 414.485 404.235 416.471C404.697 416.754 405.032 417.237 405.135 417.768V417.768Z" fill="#003B93"/>
<path fill-rule="evenodd" clip-rule="evenodd" d="M416.467 419.709C414.595 420.612 412.69 421.447 410.757 422.211C410.976 423.027 412.148 423 412.943 422.713C413.737 422.426 414.782 422.124 415.297 422.794C413.99 424.789 410.752 425.1 409.089 423.39C408.366 422.647 407.057 423.136 406.123 422.685C404.787 422.04 405.036 420.022 405.823 418.764C407.465 416.138 410.597 414.518 413.69 414.695C414.868 414.763 416.275 415.344 416.353 416.521C412.659 416.289 408.893 417.812 406.399 420.547C407.816 421.643 409.848 420.825 411.446 420.015C413.044 419.206 415.154 418.49 416.467 419.709Z" fill="#003B93"/>
<path fill-rule="evenodd" clip-rule="evenodd" d="M219.826 430.187C220.886 431.248 221.326 431.733 221.326 433.294C221.326 434.854 220.48 435.855 219.051 436.313C218.393 436.525 217.481 436.363 217.31 435.693C222.07 434.721 220.321 432.646 219.826 430.187Z" fill="#003B93"/>
<path fill-rule="evenodd" clip-rule="evenodd" d="M213.476 423.55C213.983 421.866 216.192 420.956 217.738 421.794C218.35 422.125 218.859 422.728 218.891 423.423C217.086 423.465 215.599 422.298 213.476 423.55Z" fill="#003B93"/>
<path fill-rule="evenodd" clip-rule="evenodd" d="M217.797 438.59C207.728 433 215.611 440.163 217.797 438.59Z" fill="#003B93"/>
</svg>
