<svg width="692" height="547" viewBox="0 0 692 547" fill="none" xmlns="http://www.w3.org/2000/svg">
<path fill-rule="evenodd" clip-rule="evenodd" d="M390.089 516.784C462.518 516.784 526.079 462.907 490.383 389.729C454.687 316.551 587.319 318.914 626.28 268.338C673.794 206.659 660.034 -55.1615 355.013 104.457C306.153 130.026 180.668 78.1524 139.044 103.891C90.0483 134.188 21.1144 196.227 90.0483 259.776C124.004 291.079 2.26541 372.328 55.5844 445.106C107.61 516.119 144.08 448.423 223.288 462.907C302.497 477.392 336.297 516.784 390.089 516.784Z" fill="#0053CE" fill-opacity="0.32"/>
<path d="M306.021 389.475C306.021 389.475 322.698 381.63 328.924 376.173C335.15 370.715 342.891 357.155 342.891 357.155C342.891 357.155 427.914 418.559 483.352 409.8C496.125 407.782 521.014 399.291 522.601 384.332C526.935 343.483 466.971 333.044 480.069 312.329C488.065 299.685 512.902 318.504 512.902 318.504L615.92 369.176C615.92 369.176 580.33 456.905 493.962 460.421C387.718 464.746 306.021 389.475 306.021 389.475Z" fill="white"/>
<path fill-rule="evenodd" clip-rule="evenodd" d="M224.345 45.9051C223.378 45.5255 218.185 39.1674 211.593 38.0102C208.598 37.4844 211.316 41.2988 208.02 41.3331C198.201 41.4353 182.244 39.5906 179.288 41.3331C177.091 42.624 181.929 47.1339 179.288 47.3409C154.366 49.2944 116.346 74.1777 108.098 86.2498C105.472 90.0917 126.704 83.5734 123.321 85.4728C119.524 87.6045 115.313 101.563 112.796 112.344C111.053 119.768 109.955 129.322 109.568 139.715C109.245 148.688 109.374 150.173 110.665 155.079C112.15 160.566 113.312 162.18 115.313 161.406C116.024 161.147 116.346 160.179 116.346 158.372C116.346 156.951 117.121 152.691 118.089 148.882L119.768 142.039L120.478 144.88C121.382 148.172 126.675 158.372 131.452 165.795C131.71 166.189 132.818 165.688 133.818 163.272C134.729 161.07 134.359 157.553 135.907 153.784C139.431 145.197 146.352 134.032 154.366 125.096C166.21 111.888 170.139 96.6028 181.241 84.3328C201.961 61.4347 227.964 47.3261 224.345 45.9051Z" fill="white"/>
<path fill-rule="evenodd" clip-rule="evenodd" d="M123.616 88.5884C120.292 91.261 115.358 112.939 115.274 113.302C113.531 120.725 111.851 146.506 113.568 151.387C115.286 156.268 120.094 138.673 120.094 138.673C120.094 138.673 127.363 157.547 133.786 162.722C134.06 162.943 126.152 139.371 123.616 125.609C120.268 107.444 125.507 87.0673 123.616 88.5884Z" fill="#E7EAEE"/>
<path fill-rule="evenodd" clip-rule="evenodd" d="M247.496 468.251C253.693 466.896 264.15 462.175 268.154 460.561C272.157 458.946 284.357 441.719 288.747 422.288C291.91 407.957 293.524 387.558 291.716 384.136C291.449 383.651 290.473 374.374 293.072 377.403C298.85 384.136 305.709 394.706 327.35 375.766C333.245 370.607 341.057 363.949 339 358.064C333.245 341.596 308.295 308.435 304.492 305.924C299.944 302.92 276.959 305.472 242.752 295.376C203.958 283.926 187.805 250.209 172.624 254.598C160.347 258.148 130.932 279.96 123.55 293.773C88.6985 358.984 130.932 404.679 140.55 417.803L149.889 421.836L150.212 430.164L150.663 435.393C151.503 445.399 151.825 446.303 156.344 449.66C167.641 458.245 189.913 466.25 210.054 469.091C219.415 470.382 239.75 469.93 247.496 468.251Z" fill="white"/>
<path fill-rule="evenodd" clip-rule="evenodd" d="M153.561 427.116L154.013 432.344C154.853 442.351 155.175 443.254 159.694 446.611C166.359 451.676 176.843 456.539 188.455 460.259C196.527 462.844 205.145 464.877 213.404 466.042C222.765 467.333 243.099 466.881 250.846 465.203C254.675 464.373 223.179 439.629 204.624 446.611C190.375 451.973 156.791 411.074 170.446 400.389C185.764 388.402 157.695 341.126 156.791 330.862C155.887 320.598 152.328 318.146 152.224 318.506C152.12 318.866 152.12 320.094 152.399 323.053C153.604 335.806 153.561 427.116 153.561 427.116Z" fill="#E7EAEE"/>
<path fill-rule="evenodd" clip-rule="evenodd" d="M150.199 327.932C151.554 327.668 152.866 328.553 153.13 329.908C158.002 354.939 178.611 371.885 215.462 380.746C252.533 389.66 277.784 389.179 291.088 379.665C292.211 378.861 291.374 385.74 290.551 386.267C281.874 391.832 252.371 400.135 217.163 392.63C172.146 383.035 151.009 345.183 148.222 330.864C147.959 329.508 148.843 328.196 150.199 327.932Z" fill="#B5D75C"/>
<path fill-rule="evenodd" clip-rule="evenodd" d="M131.426 282.771C132.625 282.085 177.336 333.328 238.696 344.927C300.056 356.526 314.912 349.149 317.3 333.328C317.506 331.963 318.78 331.023 320.145 331.229C321.511 331.435 322.45 332.709 322.244 334.074C319.218 354.126 290.825 358.895 237.855 349.856C185.55 340.931 149.69 319.724 130.498 286.182C129.812 284.984 130.228 283.456 131.426 282.771Z" fill="#B5D75C"/>
<path fill-rule="evenodd" clip-rule="evenodd" d="M388.963 279.929C387.284 279.348 385.477 278.057 384.315 276.572L382.378 274.183L389.221 267.405C399.744 257.076 407.813 246.489 414.785 233.901C417.109 229.705 422.983 215.697 422.983 214.341C422.983 213.889 423.694 212.081 424.533 210.209C425.824 207.498 426.792 206.465 429.568 204.916C432.86 202.979 436.605 202.334 438.218 203.431C441.317 205.497 441.317 212.017 438.218 223.249C434.797 235.579 430.214 244.424 420.724 257.141C419.239 259.078 416.463 262.886 414.462 265.533C409.104 272.634 405.618 276.056 400.906 278.702C396.258 281.285 393.546 281.607 388.963 279.929ZM435.313 274.119L439.961 276.185C440.925 276.63 451.558 281.738 464.329 287.875C484.92 297.769 511.071 310.334 511.23 310.334C511.489 310.334 512.7 307.533 512.973 304.266C513.619 297.23 516.007 287.675 518.783 281.026C520.074 278.057 521.107 274.345 521.107 274.023C521.107 273.875 520.058 273.452 518.34 272.759C516.294 271.934 513.302 270.727 510.004 269.148C493.736 261.337 461.91 245.392 457.972 243.003C454.099 240.744 453.324 240.55 453.324 242.035C453.324 243.972 449.386 252.945 446.352 257.786C444.739 260.433 441.575 265.21 439.316 268.374L435.313 274.119ZM510.133 298.714C511.984 299.787 508.777 301.361 508.003 301.619C503.441 302.007 498.071 301.149 493.671 298.585C491.371 296.954 473.256 286.89 461.24 280.215C455.747 277.163 451.528 274.819 450.678 274.313C447.966 272.699 445.384 270.956 444.932 270.439C443.577 268.696 444.868 267.922 448.676 268.244C450.966 268.438 506.134 296.397 510.133 298.714ZM247.716 467.72C252.696 466.63 260.426 463.368 265.348 461.291C266.552 460.783 267.587 460.346 268.374 460.029C272.378 458.414 284.577 441.188 288.967 421.756C292.13 407.425 293.744 387.026 291.937 383.604C290.847 381.623 297.321 388.27 302.143 393.221C303.605 394.721 304.915 396.066 305.816 396.967C333.962 424.92 375.858 447.385 419.368 457.907C441.059 463.201 456.488 465.073 477.21 465.073C512.005 465.073 539.441 458.23 564.359 443.189C565.543 442.474 566.652 441.818 567.709 441.192C576.395 436.049 581.57 432.986 595.733 417.044C611.619 399.162 625.751 357.653 630.464 343.322C632.529 336.866 637.565 311.19 637.565 304.783C637.565 297.197 634.918 293.615 631.303 289.935C624.912 283.673 616.261 281.414 609.096 284.125L605.739 285.416L604.706 281.995C603.221 276.83 600.123 272.699 595.346 269.6C588.245 264.888 587.212 264.565 580.821 264.565C575.85 264.565 574.494 264.823 571.331 266.308L567.651 267.986L566.877 265.662C565.392 260.885 560.412 254.226 556.548 252.299C553.121 250.591 547.189 250.434 543.056 251.202C534.018 252.88 527.563 257.076 524.916 262.951C524.141 264.758 523.173 266.179 522.786 266.179C522.463 266.179 509.746 262.627 494.575 255.913C492.016 254.777 489.612 253.711 487.355 252.711C460.113 240.636 454.208 238.019 454.745 234.74C455.196 231.964 455.067 230.415 454.293 228.027C452.937 224.024 451.388 222.927 446.998 222.927C443.512 222.927 443.512 222.927 443.899 221.184C445.965 211.307 445.901 205.626 443.706 202.011C442.221 199.622 440.478 198.654 436.475 198.073C434.151 197.75 433.054 197.944 430.472 199.364C428.729 200.268 427.244 200.913 427.115 200.784C426.986 200.655 427.438 197.105 428.148 192.909C433.441 161.858 429.352 135.104 415.86 106.7C415.731 106.428 415.581 106.107 415.41 105.739C411.308 96.9328 394.815 61.5239 347.648 43.6571C345.513 42.8484 343.493 42.0665 341.551 41.3151L341.551 41.3149C325.484 35.0958 314.803 30.9614 289.032 31.0043C260.146 31.0524 250.363 35.1358 231.319 43.8508C228.673 45.0773 226.349 45.7874 226.155 45.5292C225.961 45.2064 224.735 44.4318 223.508 43.7862C222.282 43.1407 219.635 41.5268 217.698 40.2357C212.146 36.4915 208.725 34.9422 206.982 35.3295C204.981 35.8459 204.981 37.5244 206.982 38.299C207.821 38.6218 208.79 39.7192 209.177 40.8167C210.016 43.1407 210.984 43.3989 211.565 41.4622C211.824 40.7521 212.211 40.2357 212.405 40.3648C212.478 40.4015 212.724 40.5166 213.099 40.6921L213.099 40.6922C214.043 41.1339 215.804 41.9586 217.698 42.8824C220.345 44.1735 223.25 45.5292 224.025 45.852C225.445 46.3684 224.993 46.7557 218.86 50.3708C194.91 64.4439 175.415 86.328 164.505 111.246C162.826 114.991 161.342 117.314 159.792 118.606C155.854 121.898 148.108 131.258 146.3 134.938C145.332 136.939 143.266 140.038 141.652 141.845C140.103 143.653 138.424 145.977 137.843 146.945C137.327 147.978 136.811 148.688 136.617 148.559C136.488 148.366 136.681 145.202 137.133 141.523C138.102 132.937 138.102 130.677 137.327 130.484C136.165 130.161 134.487 134.68 133.776 140.296C133.26 143.718 133.131 148.882 133.454 154.175L133.841 162.568L129.258 155.144C127.682 152.662 126.13 150.179 125.027 148.416L125.027 148.415L125.026 148.415L125.026 148.414L125.024 148.41L125.022 148.409L125.022 148.408L125.022 148.407L125.021 148.406L125.019 148.403C124.32 147.284 123.802 146.457 123.577 146.106C121.898 143.653 120.93 139.973 121.64 138.747C122.027 138.037 121.963 137.714 121.317 137.714C119.962 137.714 117.315 142.039 115.572 147.01C114.733 149.334 113.893 151.27 113.635 151.27C112.667 151.27 113.119 128.16 114.152 120.736C116.282 106.082 121.898 88.0065 124.416 88.0065C124.932 88.0065 125.384 87.7483 125.384 87.3609C125.384 86.1989 123.706 86.6508 122.35 88.1356C119.316 91.4279 115.314 101.563 112.796 112.344C111.053 119.768 109.956 129.322 109.568 139.715C109.246 148.688 109.375 150.173 110.666 155.079C112.151 160.566 113.313 162.18 115.314 161.406C116.024 161.147 116.347 160.179 116.347 158.372C116.347 156.951 117.121 152.691 118.09 148.882L119.768 142.039L120.478 144.88C121.382 148.172 126.675 158.372 131.452 165.795C134.745 170.831 134.809 171.153 135.907 179.029C136.488 183.484 138.295 194.318 142.491 210.984C146.199 225.71 167.041 240.317 172.246 243.965L172.246 243.965L172.249 243.967C172.933 244.446 173.346 244.736 173.413 244.811C174.059 245.521 174.963 245.908 175.479 245.715C176.06 245.521 176.383 245.779 176.383 246.489C176.383 247.135 176.835 247.974 177.351 248.361C177.997 248.813 178.449 250.556 178.578 253.59C178.901 259.659 183.419 271.278 186.905 275.087C189.165 277.54 193.877 278.573 199.106 277.669C202.528 277.153 203.496 276.766 203.173 275.991C202.98 275.475 204.206 276.12 205.885 277.411C225.509 292.388 245.392 301.361 267.728 305.234C276.379 306.719 290.71 307.558 298.521 306.977C305.429 306.526 305.429 306.526 305.106 307.881C304.654 309.689 305.235 310.786 314.724 326.86C322.277 339.578 322.923 340.417 331.315 349.003C349.132 367.401 368.563 381.668 390.577 392.707C411.299 403.035 444.383 411.621 474.628 414.333C504.872 417.044 526.594 389.285 526.53 382.184C526.401 372.436 525.045 366.045 521.753 359.848C518.525 353.844 516.395 351.779 506.711 345.323C495.931 338.158 489.282 332.283 484.892 326.021C482.116 322.083 481.083 317.629 481.083 315.241C481.083 313.691 483.084 310.205 486.054 309.495C488.765 308.785 489.282 308.85 492.316 310.334C494.123 311.174 498.836 313.368 502.709 315.241C506.647 317.048 510.456 318.856 511.23 319.243C513.514 319.877 514.48 324.348 515.003 326.771C515.12 327.312 515.215 327.751 515.297 328.022C516.201 331.379 520.478 335.714 523.238 337.189C528.083 339.781 540.023 340.127 543.315 336.577C544.155 335.673 546.937 334.562 547.51 334.898C548.084 335.235 550.157 338.028 550.157 340.288C550.222 344.161 552.223 347.712 556.483 351.262C564.553 357.976 570.815 359.59 577.141 356.62C580.433 355.071 583.132 354.466 583.132 354.466C583.132 354.466 585.823 357.9 585.985 359.073C587.253 368.246 600.832 372.091 604.448 372.478C605.276 372.561 606.889 372.206 608.526 371.846C610.716 371.365 612.951 370.874 613.421 371.403C614.343 372.444 597.992 399.485 595.733 402.906C574.236 435.184 532.404 454.938 481.212 457.004C447.966 458.359 407.103 449.063 371.662 432.15C349.003 421.24 328.927 407.877 307.43 389.156C303.686 385.928 299.36 382.249 297.811 380.958C296.262 379.731 292.582 375.535 289.742 371.662C284.965 365.206 282.253 362.882 282.253 365.077C282.253 366.045 285.352 371.984 288.902 377.859C290.323 380.183 291.226 381.797 290.904 381.539C290.581 381.28 289.548 385.928 288.58 391.867C285.416 410.911 280.187 429.697 274.894 441.381C271.989 447.708 266.419 452.432 264.74 453.723C258.543 458.436 249.266 460.554 236.419 461.845C220.151 463.459 196.201 459.844 177.932 453.001C173.091 451.194 160.631 445.965 159.792 445.384C159.742 445.333 159.456 443.476 159.057 440.884C158.944 440.153 158.823 439.364 158.695 438.541C156.371 422.596 153.143 361.204 153.143 332.799C153.143 321.05 153.014 318.468 152.239 318.468C150.625 318.468 149.98 320.018 149.27 325.569C147.656 338.222 147.979 404.262 149.722 418.141L150.109 421.305L147.914 420.078C144.557 418.141 131.775 405.166 127.321 399.162C123.55 394.03 121.309 387.456 119.632 382.538C119.242 381.394 118.883 380.34 118.541 379.414C109.181 353.463 112.473 324.343 125.384 298.133C136.359 275.797 149.851 263.403 169.605 257.399C172.832 256.431 175.673 255.398 175.996 255.14C177.222 253.978 169.346 254.559 165.021 255.914C150.948 260.24 136.23 272.053 126.224 287.159C112.151 308.333 105.824 339.578 110.278 366.239C111.311 372.565 115.507 386.251 116.669 387.219C116.772 387.322 117.303 388.436 118.106 390.121C120.327 394.779 124.627 403.8 127.708 407.877C131.452 412.977 142.75 424.08 147.462 427.502L150.432 429.632L150.884 434.861C151.723 444.867 152.046 445.771 156.564 449.128C167.862 457.714 190.133 465.719 210.274 468.559C219.635 469.85 239.97 469.398 247.716 467.72ZM465.913 407.102C428.406 403.81 383.088 385.927 350.294 358.298C336.48 346.613 318.533 323.891 311.432 311.303C309.947 308.72 308.85 307.494 307.559 307.171C306.203 306.784 307.365 306.396 312.917 305.493C336.35 301.49 359.138 291.742 377.537 277.863L380.248 275.862L381.023 277.734C382.766 281.93 389.479 286.191 394.45 286.191C396.451 286.191 403.165 283.157 407.232 280.381L410.008 278.509L412.267 280.768C414.333 282.834 414.72 282.963 418.594 282.963C423.048 282.963 428.406 280.962 431.376 278.121L432.989 276.637L437.573 279.671C440.026 281.414 446.869 285.222 452.743 288.256C461.523 292.775 470.819 298.004 479.663 303.427L481.083 304.331L479.727 306.138C478.307 308.075 475.662 311.755 475.662 317.371C475.662 323.697 482.24 335.064 494.833 342.87C504.727 349.003 521.753 361.066 521.107 378.698C521.029 380.828 518.654 386.122 515.491 390.899C513.425 393.933 507.68 398.452 502.451 401.099C493.542 405.553 477.855 408.135 465.913 407.102ZM121.705 117.315C123.448 117.702 124.61 118.283 124.351 118.541C123.512 119.38 119.058 118.993 118.025 117.96C116.411 116.411 116.798 115.313 119.058 114.861C120.22 114.668 121.963 113.699 122.931 112.731C123.9 111.763 124.739 111.311 124.739 111.634C124.739 112.473 121.511 115.442 119.897 116.088C118.864 116.54 119.187 116.734 121.705 117.315ZM147.398 118.347C149.27 117.314 148.882 116.604 146.687 116.927C144.493 117.25 144.364 116.992 145.784 114.797C146.365 113.958 146.687 112.731 146.558 112.086C146.365 111.246 145.913 111.634 144.88 113.699C144.105 115.184 143.008 116.411 142.491 116.411C140.878 116.411 140.748 117.702 142.298 118.283C144.299 119.122 145.848 119.122 147.398 118.347ZM125.062 83.1003C123.512 83.3585 118.671 85.2952 114.41 87.4255C110.085 89.4912 106.405 91.2342 106.147 91.1697C99.5623 90.4596 108.729 79.4852 125.384 68.2526C141.329 57.4719 152.11 51.791 162.116 48.8861C168.378 47.0785 175.415 46.8203 177.416 48.3051C178.513 49.1443 178.126 49.2088 173.349 49.2734C163.02 49.2734 151.077 54.5669 131.646 67.5425C121.576 74.2562 109.891 83.8749 109.891 85.4243C109.891 85.747 111.763 85.1015 114.087 84.0686C119.058 81.8092 124.158 80.6472 126.417 81.1636C128.806 81.8092 128.289 82.6484 125.062 83.1003ZM150.044 88.652C156.113 87.4255 156.371 87.3609 156.371 86.7154C156.371 86.3926 154.047 86.0698 151.142 85.9407L145.913 85.747L150.754 80.2599C153.401 77.2258 156.5 74.1917 157.597 73.4816C159.986 71.9322 160.115 70.8348 158.178 70.1893L156.694 69.7374L158.307 69.1564C159.211 68.8336 160.89 68.7045 162.052 68.8982C163.795 69.1564 164.182 69.0273 163.988 68.1235C163.795 67.2197 163.085 67.0261 159.921 67.0906C150.69 67.2197 146.752 69.6728 153.982 70.8348C155.983 71.1576 157.662 71.674 157.662 71.9968C157.662 72.255 157.339 72.5132 156.952 72.5132C155.725 72.5132 145.332 83.0357 144.041 85.6179C142.04 89.4267 143.137 90.0077 150.044 88.652ZM192.651 63.6046C190.779 63.7337 190.327 64.0565 190.456 64.9603L190.476 65.0918C190.548 65.5693 190.59 65.8436 190.483 65.9269C190.338 66.0394 189.923 65.8037 188.947 65.25L188.777 65.154C187.551 64.5084 187.422 64.1856 188.132 63.6692C188.584 63.2819 189.81 62.7009 190.779 62.5072L192.586 62.0553L191.231 60.6351C190.52 59.7959 190.133 59.0212 190.327 58.763C190.843 58.2466 197.17 58.9567 198.073 59.6668C198.461 59.9895 199.042 59.925 199.429 59.5377C200.333 58.6339 201.559 59.344 201.559 60.7642C201.559 61.5389 201.366 61.6034 200.785 61.0224C200.268 60.506 199.816 60.506 199.235 60.9579C198.719 61.4098 198.332 61.4098 198.009 60.8933C197.815 60.5705 196.589 60.2478 195.298 60.2478C194.106 60.2478 193.543 60.2478 193.428 60.4748C193.325 60.6784 193.583 61.0645 194.071 61.7971C195.101 63.406 195.04 63.411 192.673 63.6029L192.651 63.6046ZM182.838 46.433C182.838 45.5938 182.064 44.109 181.095 43.1407L179.288 41.3331L188.971 41.7204C194.329 41.9787 200.397 42.5597 202.528 43.1407C204.658 43.6571 207.111 44.0444 208.015 44.0444C209.371 44.0444 209.112 43.7862 206.595 42.4306C202.205 40.1711 196.589 39.0737 185.808 38.299C172.897 37.3953 166.377 38.6218 167.603 41.8496C167.797 42.4951 168.83 42.8179 170.379 42.8179C173.542 42.8179 178.707 44.69 180.45 46.433C182.322 48.3051 182.838 48.3051 182.838 46.433ZM151.335 217.375C156.564 224.089 163.472 231.706 166.7 234.288C168.636 235.838 170.315 237.129 170.444 237.129C170.508 237.129 169.088 234.159 167.281 230.544C159.986 216.019 155.725 201.559 153.724 184.904C153.272 181.224 152.562 178.125 151.787 176.834C150.238 174.252 150.238 170.895 151.852 167.732C152.691 166.054 153.143 163.923 153.143 161.599V158.049L150.044 161.277C147.01 164.44 144.105 165.731 144.105 163.794C144.105 162.374 148.882 155.531 151.4 153.401C153.401 151.722 153.659 151.141 154.305 146.106C154.757 143.072 155.79 137.714 156.629 134.163C157.533 130.613 158.049 127.579 157.92 127.45C157.468 126.998 142.298 144.421 140.232 149.979C139.778 151.2 138.554 153.336 137.585 154.627L135.907 156.782C135.907 156.782 136.428 159.8 137.004 163.593C137.586 167.424 137.859 170.058 138.103 172.404C138.428 175.543 138.7 178.166 139.586 182.451C140.619 187.744 141.652 192.328 141.91 192.65C142.104 193.038 142.943 196.007 143.783 199.299C145.59 206.594 148.624 213.824 151.335 217.375ZM413.3 278.444L411.945 277.088C411.945 277.088 434.445 248.501 438.477 237.968C441.553 229.93 443.364 227.65 445.807 227.65C447.174 227.65 448.289 227.962 448.805 228.737C449.709 230.092 450.58 231.771 449.418 237.516C447.482 246.812 444.512 252.945 435.603 266.179C433.538 269.213 430.891 272.57 429.729 273.732C427.018 276.249 420.918 278.831 417.367 279.412C415.108 279.735 414.462 279.606 413.3 278.444Z" fill="#003B93"/>
<path d="M592.053 341.596C600.085 319.713 598.869 315.051 597.476 314.595C597.476 314.595 594.409 316.338 593.053 320.018C590.536 326.925 581.918 345 578.691 348.228C574.882 352.037 574.882 352.037 571.008 352.037C567.135 352.037 555.964 346.204 554.443 340.454C552.01 331.255 562.487 299.295 562.745 297.488L561.002 296.261C559.84 297.359 544.726 343.193 524.852 331.25C522.576 329.883 517.75 323.439 517.363 320.018C515.212 310.076 525.082 275.313 526.76 268.173C528.263 261.782 536.084 255.85 545.703 255.85C560.486 255.85 558.5 268.772 565.122 273.326C568.056 275.343 572.879 271.685 574.365 271.408C582.693 269.858 585.884 271.662 591.989 276.507C596.701 280.247 600.188 287.65 604.026 290.258C606.158 291.706 608.42 289.726 609.161 289.354C612.198 287.829 618.715 288.967 620.522 290.258C623.172 291.413 629.666 297.655 630.691 301.285C635.341 317.739 620.66 354.217 615.117 361.06C605.943 372.387 584.022 363.478 592.053 341.596Z" fill="white"/>
<path fill-rule="evenodd" clip-rule="evenodd" d="M220.926 281.637C238.614 292.805 256.853 300.099 277.64 302.1C294.037 303.65 316.145 301.52 332.025 296.355C345.388 292.03 363.464 280.048 375.536 269.913C398.969 250.288 413.752 219.634 420.208 187.099C421.111 182.515 422.49 170.994 422.425 159.568C422.425 146.269 416.573 109.929 398.84 88.9748C362.266 45.7575 302.147 26.2893 251.621 42.9236C233.394 48.9241 213.988 59.7959 199.334 73.998C180.871 92.0089 167.25 116.54 161.828 141.587C156.147 168.055 163.537 199.687 176.383 225.638C186.647 246.296 203.561 270.598 220.926 281.637ZM393.288 203.625C381.152 240.098 349.52 267.341 309.754 275.604C303.686 276.83 299.49 277.282 290.968 277.411C284.965 277.605 278.961 277.54 277.735 277.411C249.911 274.054 228.737 263.79 209.242 244.294C200.72 235.709 197.105 231.061 191.812 221.894C183.484 207.369 179.03 192.521 177.674 174.639C173.026 113.377 216.859 62.3135 278.574 57.02C302.782 54.9542 329.637 62.3781 350.036 76.8384C357.589 82.1965 371.275 95.7531 375.536 102.079C377.279 104.597 394.192 129.322 397.162 143.524C400.97 161.987 399.486 185.097 393.288 203.625Z" fill="white"/>
<path fill-rule="evenodd" clip-rule="evenodd" d="M422.448 159.568C422.448 202.898 401.952 250.269 375.5 270.5C362.88 280.152 346.387 291.84 332.025 296.355C310.977 302.972 277.639 302.101 277.639 302.101C277.639 302.101 311.651 297.554 324.255 292.481C360.398 277.936 380.128 255.608 392.312 234.184C416.361 191.895 422.448 158.515 422.448 159.568Z" fill="#E7EAEE"/>
<path fill-rule="evenodd" clip-rule="evenodd" d="M278.38 269.665C261.144 267.47 244.037 261.337 230.222 252.235C222.024 246.877 209.629 234.288 203.625 225.315C195.04 212.404 189.359 198.589 186.583 183.742C184.582 172.961 184.646 156.37 186.647 146.752C188.713 136.939 191.36 129.451 196.072 119.961C201.56 108.987 207.37 100.918 216.084 92.2026C230.932 77.3549 248.168 67.9299 268.697 63.411C275.346 61.9908 299.425 60.8288 300.264 61.9262C300.458 62.249 301.749 63.0882 303.105 63.7983C304.46 64.573 308.076 67.2843 311.045 69.9311C315.499 73.8044 317.501 76.2575 321.374 82.3257C324.021 86.4572 326.151 90.2014 326.151 90.5242C326.151 91.2343 328.217 92.5254 329.379 92.5254C330.993 92.5254 332.09 87.6837 332.413 79.1625C332.606 74.4499 332.994 70.5766 333.252 70.5766C334.156 70.5766 344.097 76.0638 348.745 79.1625C357.848 85.2306 366.95 93.7519 373.664 102.661C376.698 106.663 377.15 107.696 377.15 110.149C377.15 112.408 377.795 114.151 379.796 117.637C384.832 126.417 388.769 137.456 391.158 149.657C392.707 157.855 392.707 173.348 391.093 181.934C386.704 205.561 373.664 229.059 356.686 243.972C342.29 256.56 326.99 264.307 308.915 268.115C302.717 269.471 284.126 270.375 278.38 269.665ZM232.223 225.509C232.804 224.863 233.192 223.895 232.998 223.443C232.94 223.308 232.131 222.928 230.948 222.371C228.19 221.075 223.395 218.82 221.317 216.471C213.054 207.046 210.02 200.01 208.148 185.485C206.34 171.347 207.859 161.79 211.117 146.429C212.707 138.936 216.932 132.746 219.56 128.895C221.348 126.277 222.397 124.74 221.378 124.609C218.86 124.222 218.473 124.416 215.826 126.933C210.145 132.356 207.563 136.681 204.852 145.009C200.656 158.049 199.845 193.29 208.148 209.176C216.451 225.063 230.738 227.187 232.223 225.509ZM324.021 171.283C322.924 181.311 318.275 195.814 312.853 202.14C310.335 205.109 301.093 210.209 293.292 209.176C285.757 208.179 279.865 204.658 274.83 197.105C270.504 190.585 268.271 182.67 266.76 172.703C264.152 155.491 275.54 135.455 280.446 130.484C285.417 125.384 288.967 123.576 293.486 123.512C297.876 123.512 300.716 124.48 305.171 127.643C313.305 133.324 326.151 151.796 324.021 171.283ZM237 117.896C238.291 116.411 238.485 115.701 238.098 112.925C237.84 110.343 237.323 109.31 235.967 108.212C233.579 106.276 230.609 106.276 228.415 108.341C226.865 109.826 226.672 110.343 226.865 113.893C227.059 117.702 227.188 117.96 229.318 119.122C232.159 120.671 234.935 120.22 237 117.896ZM277.283 78.065C265.663 86.3926 260.628 89.814 255.399 93.0418C251.267 95.624 249.976 95.6886 249.976 93.3646C249.976 92.138 250.88 90.7824 253.204 88.6521L256.431 85.6825L250.17 84.8433C243.133 83.9395 236.29 82.0029 234.805 80.5181C232.352 78.0005 234.483 77.4195 241.455 78.7106C244.553 79.227 250.557 79.8726 254.818 80.0017L262.564 80.3244L268.18 76.2575C280.51 67.3489 293.292 62.3136 299.425 63.8629C303.234 64.7667 302.782 65.7995 298.457 66.316C293.486 66.897 290.452 68.5754 277.283 78.065Z" fill="white"/>
<path d="M293.873 200.332C293.873 200.01 294.26 199.687 294.777 199.687C295.293 199.687 295.939 200.01 296.132 200.332C296.326 200.72 295.939 200.978 295.229 200.978C294.454 200.978 293.873 200.72 293.873 200.332Z" fill="white"/>
<path d="M297.747 199.751C297.747 199.041 299.36 198.396 301.168 198.396C302.588 198.46 302.588 198.46 301.362 199.364C299.941 200.462 297.747 200.655 297.747 199.751Z" fill="white"/>
<path d="M287.741 198.073C287.547 197.557 287.289 196.653 287.095 196.136C286.901 195.491 287.224 195.168 288.063 195.168C288.773 195.168 289.354 195.555 289.354 196.072C289.354 196.588 289.548 197.427 289.742 198.008C290 198.719 289.806 199.041 289.096 199.041C288.515 199.041 287.87 198.589 287.741 198.073Z" fill="white"/>
<path d="M291.162 196.459C290.839 194.522 291.549 193.877 293.873 193.877C294.583 193.877 295.164 194.522 295.423 195.62C295.939 197.492 295.1 198.396 292.84 198.396C291.807 198.396 291.356 197.944 291.162 196.459Z" fill="white"/>
<path d="M284.577 196.782C283.351 195.814 283.351 195.814 284.706 195.814C285.546 195.814 286.127 196.201 286.127 196.782C286.127 197.944 286.127 197.944 284.577 196.782Z" fill="white"/>
<path d="M297.553 196.717C296.714 195.878 297.101 193.36 298.134 192.973C300.006 192.263 300.845 192.586 301.233 194.264C301.491 195.233 301.62 196.072 301.491 196.136C300.974 196.717 297.94 197.105 297.553 196.717Z" fill="white"/>
<path d="M303.298 195.362C303.105 195.168 302.911 194.329 302.911 193.554C302.911 192.457 303.428 192.005 304.977 191.682C306.333 191.424 307.172 191.553 307.559 192.069C308.205 193.102 308.205 194.393 307.624 194.716C306.462 195.362 303.75 195.749 303.298 195.362Z" fill="white"/>
<path d="M281.608 193.36C281.608 192.586 282.189 191.94 283.028 191.747C284.707 191.295 284.642 191.23 284.965 192.909C285.094 193.877 284.771 194.264 283.415 194.393C281.995 194.587 281.608 194.329 281.608 193.36Z" fill="white"/>
<path d="M286.514 193.425C285.61 192.457 286.191 190.649 287.417 190.649C288.257 190.649 288.709 191.101 288.709 191.876C288.709 193.102 287.224 194.135 286.514 193.425Z" fill="white"/>
<path d="M290.387 191.488C289.871 190.262 290.968 189.358 293.098 189.358C294.067 189.358 294.519 189.745 294.519 190.585C294.519 191.295 293.938 191.94 293.098 192.198C290.968 192.715 290.839 192.715 290.387 191.488Z" fill="white"/>
<path d="M309.044 191.295C309.237 190.972 309.56 190.649 309.754 190.649C309.948 190.649 309.883 190.972 309.689 191.295C309.496 191.682 309.173 191.94 308.979 191.94C308.786 191.94 308.85 191.682 309.044 191.295Z" fill="white"/>
<path d="M296.197 190.197C295.681 188.906 296.326 188.261 298.392 187.938C299.554 187.809 300.071 188.067 300.2 188.971C300.652 191.101 296.972 192.263 296.197 190.197Z" fill="white"/>
<path d="M280.704 189.1C280.123 186.969 280.252 186.776 281.931 186.776C282.834 186.776 283.544 187.034 283.544 187.357C283.544 187.68 283.738 188.39 283.932 188.906C284.125 189.552 283.738 189.939 282.641 190.133C281.414 190.391 280.962 190.133 280.704 189.1Z" fill="white"/>
<path d="M302.265 188.39C302.265 187.228 302.717 186.711 303.944 186.388C305.751 185.937 306.784 186.84 306.784 188.906C306.784 189.745 306.268 190.004 304.525 190.004C302.523 190.004 302.265 189.81 302.265 188.39Z" fill="white"/>
<path d="M278.767 188.39C278.574 187.873 278.703 187.421 279.025 187.421C279.413 187.421 279.671 187.873 279.671 188.39C279.671 188.906 279.542 189.358 279.413 189.358C279.284 189.358 279.025 188.906 278.767 188.39Z" fill="white"/>
<path d="M285.287 188.906C284.384 188.067 284.9 186.259 286.062 185.937C286.772 185.743 287.482 185.807 287.676 186.001C288.451 186.711 287.999 188.583 287.03 188.971C285.804 189.423 285.804 189.423 285.287 188.906Z" fill="white"/>
<path d="M308.334 188.454C307.623 186.582 308.398 185.162 310.206 184.968C311.561 184.775 311.949 185.033 311.949 186.066C311.949 188.196 311.239 189.358 309.947 189.358C309.237 189.358 308.527 188.971 308.334 188.454Z" fill="white"/>
<path d="M289.806 187.615C289.032 186.905 289.29 185.614 290.387 185.226C291.614 184.775 294.196 186.066 293.486 186.776C292.582 187.55 290.258 188.131 289.806 187.615Z" fill="white"/>
<path d="M295.422 186.001C294.841 185.097 296.907 183.548 298.586 183.548C299.36 183.548 299.683 183.935 299.554 184.646C299.296 185.937 296.003 186.969 295.422 186.001Z" fill="white"/>
<path d="M277.734 185.549C277.734 185.227 277.541 184.516 277.347 183.935C277.153 183.354 277.218 182.903 277.605 182.903C278.444 182.903 279.09 185.356 278.315 185.872C277.993 186.066 277.734 185.937 277.734 185.549Z" fill="white"/>
<path d="M279.477 184.064C279.09 182.644 279.865 181.611 281.35 181.611C282.189 181.611 283.028 184.129 282.512 184.968C281.801 186.066 279.8 185.42 279.477 184.064Z" fill="white"/>
<path d="M283.996 184.387C283.028 183.419 283.609 181.095 284.9 180.772C285.868 180.514 286.385 180.837 286.901 181.999C287.288 182.838 287.482 183.677 287.353 183.806C286.707 184.387 284.383 184.839 283.996 184.387Z" fill="white"/>
<path d="M301.426 184.387C300.587 183.548 300.974 183.032 302.911 182.322C304.525 181.805 304.977 181.87 305.3 182.644C305.881 184.194 302.653 185.678 301.426 184.387Z" fill="white"/>
<path d="M307.107 182.903C306.461 181.87 307.365 180.966 309.043 180.966C311.045 180.966 311.626 182.644 309.818 183.161C307.881 183.677 307.559 183.613 307.107 182.903Z" fill="white"/>
<path d="M312.594 181.353C312.594 180.385 313.756 179.352 314.273 179.868C314.725 180.32 313.821 182.257 313.175 182.257C312.852 182.257 312.594 181.87 312.594 181.353Z" fill="white"/>
<path d="M276.895 180.514C276.637 180.32 276.443 179.481 276.508 178.771C276.508 177.544 276.572 177.544 277.153 178.965C277.799 180.514 277.67 181.289 276.895 180.514Z" fill="white"/>
<path d="M278.122 179.546C277.541 177.286 277.605 177.093 279.284 177.093C281.156 177.093 282.318 179.481 280.898 180.385C279.413 181.289 278.574 181.03 278.122 179.546Z" fill="white"/>
<path d="M300.329 180.837C300.329 180.643 300.651 179.61 301.039 178.448C301.942 175.866 303.944 175.737 304.396 178.255C304.589 179.223 304.654 180.062 304.589 180.127C304.266 180.514 300.329 181.095 300.329 180.837Z" fill="white"/>
<path d="M282.705 179.223C282.447 179.029 282.253 178.255 282.253 177.544C282.253 176.512 282.447 176.447 283.222 177.093C283.738 177.544 284.19 178.319 284.19 178.771C284.19 179.739 283.415 179.998 282.705 179.223Z" fill="white"/>
<path d="M305.945 177.932C305.558 175.931 306.397 175.027 308.398 175.285C309.366 175.414 309.689 175.995 309.689 177.415C309.689 179.029 309.431 179.417 308.011 179.546C306.591 179.739 306.268 179.417 305.945 177.932Z" fill="white"/>
<path d="M312.271 178.19C311.432 175.608 311.69 174.833 313.433 174.639C314.982 174.446 315.176 174.639 315.176 176.318C315.176 177.738 314.789 178.319 313.82 178.577C313.11 178.771 312.4 178.577 312.271 178.19Z" fill="white"/>
<path d="M275.927 174.51C275.927 173.284 276.056 172.767 276.25 173.413C276.379 173.994 276.379 175.027 276.25 175.672C276.056 176.253 275.927 175.737 275.927 174.51Z" fill="white"/>
<path d="M277.541 175.35C276.702 174.575 277.089 172.057 278.122 171.67C279.607 171.089 280.317 171.799 280.317 173.929C280.317 175.285 279.994 175.801 279.155 175.801C278.509 175.801 277.734 175.608 277.541 175.35Z" fill="white"/>
<path d="M281.414 173.607C281.156 172.638 281.027 171.605 281.285 171.412C281.93 170.766 282.318 171.799 282.124 173.671L281.93 175.479L281.414 173.607Z" fill="white"/>
<path d="M302.265 173.155C302.265 172.445 302.588 172.057 302.911 172.251C303.298 172.445 303.556 173.09 303.556 173.607C303.556 174.123 303.298 174.51 302.911 174.51C302.588 174.51 302.265 173.929 302.265 173.155Z" fill="white"/>
<path d="M305.17 173.994C304.267 173.026 304.977 171.283 306.461 170.895C308.334 170.443 308.398 170.443 308.979 172.315C309.366 173.477 309.108 173.736 307.43 173.994C306.397 174.188 305.364 174.123 305.17 173.994Z" fill="white"/>
<path d="M311.109 172.767C310.399 172.122 310.593 169.991 311.303 169.991C311.69 169.991 311.948 169.733 311.948 169.346C311.948 169.023 311.561 168.7 311.045 168.7C309.947 168.7 309.044 165.537 309.947 164.633C311.109 163.471 312.4 164.698 313.175 167.861C313.627 169.54 314.079 171.476 314.272 172.122C314.531 172.961 314.272 173.219 313.046 173.219C312.207 173.219 311.303 173.026 311.109 172.767Z" fill="white"/>
<path d="M314.595 169.346C314.144 167.409 312.982 163.536 312.142 160.696C310.851 156.564 310.722 155.531 311.432 155.079C311.884 154.756 312.465 154.498 312.659 154.498C313.369 154.498 315.951 167.732 315.693 170.314L315.499 172.896L314.595 169.346Z" fill="white"/>
<path d="M275.281 169.023C275.281 167.99 275.41 167.603 275.604 168.248C275.733 168.829 275.733 169.733 275.604 170.185C275.41 170.572 275.281 170.121 275.281 169.023Z" fill="white"/>
<path d="M276.572 168.894C276.831 166.635 278.703 166.118 279.219 168.184C279.671 169.862 279.8 169.669 277.863 170.314C276.508 170.702 276.379 170.572 276.572 168.894Z" fill="white"/>
<path d="M303.815 168.313C303.298 166.441 304.396 165.344 306.461 165.602C308.011 165.795 308.592 168.571 307.301 169.41C305.687 170.443 304.202 169.991 303.815 168.313Z" fill="white"/>
<path d="M280.316 167.797C280.316 166.699 280.639 166.118 281.349 166.118C281.995 166.118 282.253 166.57 282.124 167.538C281.801 169.604 280.316 169.798 280.316 167.797Z" fill="white"/>
<path d="M274.571 165.085C274.571 164.375 274.765 164.182 274.959 164.698C275.152 165.15 275.088 165.731 274.894 165.925C274.7 166.183 274.507 165.795 274.571 165.085Z" fill="white"/>
<path d="M275.798 164.892C275.798 163.923 276.185 163.536 277.154 163.536C278.057 163.536 278.38 163.859 278.251 164.633C277.928 166.312 275.798 166.506 275.798 164.892Z" fill="white"/>
<path d="M279.348 164.311C278.897 163.149 278.897 163.149 280.833 162.632C281.995 162.245 282.253 162.439 282.253 163.407C282.253 164.956 279.929 165.731 279.348 164.311Z" fill="white"/>
<path d="M302.717 163.407C302.265 161.793 303.104 160.954 305.364 160.954C306.461 160.954 306.784 161.341 306.784 162.568C306.784 163.536 306.397 164.182 305.88 164.182C305.364 164.182 304.525 164.375 304.008 164.569C303.427 164.763 302.975 164.375 302.717 163.407Z" fill="white"/>
<path d="M308.334 161.922C307.817 160.631 308.592 159.663 310.077 159.663C310.981 159.663 311.303 160.115 311.303 161.277C311.303 162.439 310.981 162.89 310.012 162.89C309.302 162.89 308.527 162.439 308.334 161.922Z" fill="white"/>
<path d="M275.152 161.018C275.152 159.663 276.637 158.113 277.283 158.823C277.541 159.017 277.735 159.921 277.735 160.76C277.735 161.793 277.347 162.245 276.443 162.245C275.604 162.245 275.152 161.793 275.152 161.018Z" fill="white"/>
<path d="M278.703 160.244C278.186 158.63 278.767 157.92 280.962 157.597C282.964 157.339 283.609 159.469 281.866 160.76C280.188 161.987 279.155 161.793 278.703 160.244Z" fill="white"/>
<path d="M302.072 159.856C301.62 159.469 301.426 157.08 301.814 157.08C301.878 157.08 302.847 156.822 304.009 156.499C305.945 155.918 306.074 155.983 306.01 157.726C305.945 159.017 305.558 159.663 304.59 159.921C302.847 160.373 302.588 160.373 302.072 159.856Z" fill="white"/>
<path d="M299.683 158.372C299.683 157.92 299.877 157.726 300.135 157.92C300.329 158.178 300.329 158.565 300.135 158.823C299.877 159.017 299.683 158.823 299.683 158.372Z" fill="white"/>
<path d="M306.913 157.339C307.107 156.241 309.108 154.627 309.56 155.144C309.754 155.337 310.076 156.112 310.27 156.951C310.722 158.242 310.528 158.372 308.721 158.372C307.171 158.372 306.72 158.113 306.913 157.339Z" fill="white"/>
<path d="M275.798 157.274C275.798 156.951 276.121 156.306 276.443 155.789C276.96 155.015 277.089 155.079 277.089 156.306C277.089 157.08 276.831 157.726 276.443 157.726C276.121 157.726 275.798 157.532 275.798 157.274Z" fill="white"/>
<path d="M277.734 155.854C277.734 154.046 279.09 153.465 280.123 154.821C280.768 155.789 280.768 156.112 280.123 156.564C278.767 157.403 277.734 157.145 277.734 155.854Z" fill="white"/>
<path d="M297.359 155.015C296.197 153.724 296.197 153.659 297.295 154.046C297.94 154.305 298.779 154.498 299.102 154.498C299.425 154.498 299.683 154.95 299.683 155.467C299.683 156.822 298.779 156.693 297.359 155.015Z" fill="white"/>
<path d="M283.48 154.95C280.704 152.82 280.317 148.043 282.899 148.043C284.642 148.043 286.256 150.754 285.997 153.272C285.804 155.596 285.029 156.112 283.48 154.95Z" fill="white"/>
<path d="M301.168 155.337C301.426 155.144 301.814 155.144 302.072 155.337C302.265 155.596 302.072 155.789 301.62 155.789C301.168 155.789 300.974 155.596 301.168 155.337Z" fill="white"/>
<path d="M310.916 152.82C311.11 152.239 311.303 151.658 311.303 151.529C311.303 151.4 311.626 151.271 311.949 151.271C312.336 151.271 312.594 151.852 312.594 152.562C312.594 153.336 312.142 153.853 311.561 153.853C310.851 153.853 310.658 153.53 310.916 152.82Z" fill="white"/>
<path d="M277.089 152.626C277.089 151.141 278.445 148.688 279.219 148.688C280.575 148.688 279.607 152.82 278.186 153.078C277.605 153.207 277.089 153.013 277.089 152.626Z" fill="white"/>
<path d="M291.614 151.916L289.677 151.464L291.42 151.012C293.228 150.496 294.519 150.883 294.519 151.981C294.519 152.626 294.454 152.626 291.614 151.916Z" fill="white"/>
<path d="M289.354 148.817C289.354 146.171 290.839 145.783 292.195 148.107C293.099 149.657 293.163 149.979 292.324 149.979C291.808 149.979 290.968 150.173 290.387 150.367C289.613 150.69 289.354 150.302 289.354 148.817Z" fill="white"/>
<path d="M300.587 149.721C297.682 148.43 295.81 145.009 295.81 140.942C295.81 138.037 296.068 137.327 297.811 135.713C298.909 134.68 300.006 133.841 300.329 133.841C301.749 133.841 306.978 138.811 308.721 141.91L310.722 145.46L308.592 147.72C306.139 150.302 303.428 151.012 300.587 149.721Z" fill="white"/>
<path d="M287.095 148.043C286.901 147.72 287.03 147.397 287.353 147.397C287.74 147.397 288.063 147.72 288.063 148.043C288.063 148.43 287.934 148.688 287.805 148.688C287.611 148.688 287.289 148.43 287.095 148.043Z" fill="white"/>
<path d="M278.638 147.01C278.832 146.429 279.025 145.848 279.025 145.719C279.025 145.59 279.606 145.461 280.316 145.461C281.93 145.461 281.995 146.493 280.381 147.397C278.638 148.301 278.186 148.236 278.638 147.01Z" fill="white"/>
<path d="M283.738 146.235C282.253 146.042 281.801 145.202 282.77 144.621C283.028 144.428 284.19 144.105 285.352 143.847C287.095 143.459 287.417 143.588 287.417 144.686C287.417 146.042 286.062 146.623 283.738 146.235Z" fill="white"/>
<path d="M288.709 144.04C288.709 143.266 288.774 142.814 288.903 142.943C288.967 143.072 289.484 143.718 289.936 144.363C290.71 145.267 290.646 145.461 289.742 145.461C289.096 145.461 288.709 144.944 288.709 144.04Z" fill="white"/>
<path d="M279.671 143.588C279.671 143.201 279.994 142.749 280.316 142.556C280.704 142.362 280.962 142.62 280.962 143.137C280.962 143.718 280.704 144.169 280.316 144.169C279.994 144.169 279.671 143.911 279.671 143.588Z" fill="white"/>
<path d="M282.06 142.62C281.543 141.329 286.126 139.909 286.901 141.135C287.482 142.168 286.901 142.62 284.448 143.137C282.963 143.459 282.318 143.33 282.06 142.62Z" fill="white"/>
<path d="M288.128 140.554C288.128 139.844 288.322 139.651 288.515 140.167C288.709 140.619 288.644 141.2 288.451 141.394C288.257 141.652 288.063 141.264 288.128 140.554Z" fill="white"/>
<path d="M282.641 139.521C283.415 138.101 285.675 135.777 286.256 135.777C286.901 135.777 286.966 138.811 286.32 139.199C285.997 139.328 284.965 139.651 283.996 139.909C282.576 140.232 282.253 140.167 282.641 139.521Z" fill="white"/>
<path d="M287.805 138.037C287.095 136.1 287.418 135.261 288.967 135.003C290.581 134.68 290.581 134.68 289.548 136.681C288.257 139.263 288.321 139.263 287.805 138.037Z" fill="white"/>
<path d="M287.417 134.163C287.417 134.034 288.709 133.131 290.322 132.227C292.259 131.065 293.615 130.677 294.583 130.936C295.745 131.323 295.422 131.581 292.582 132.937C289.419 134.357 287.417 134.874 287.417 134.163Z" fill="white"/>
<path d="M323.246 76.9675C321.503 74.4499 317.823 70.3829 315.176 67.9298C312.53 65.4767 310.787 63.4755 311.303 63.4755C312.723 63.4755 323.569 66.4451 326.28 67.6071C328.539 68.5754 328.604 68.7045 328.023 70.7057C327.7 71.8677 327.442 74.7727 327.442 77.1612C327.442 79.6143 327.248 81.551 326.99 81.551C326.667 81.551 325.053 79.4852 323.246 76.9675Z" fill="white"/>
<path d="M191.876 272.505C189.229 271.149 188.648 270.375 185.291 263.726C180.45 254.3 180.321 252.106 184.904 257.464C186.711 259.594 190.908 263.984 194.2 267.211C199.816 272.634 200.074 273.021 198.202 272.763C196.847 272.57 196.33 272.699 196.653 273.215C197.428 274.377 194.975 274.054 191.876 272.505Z" fill="white"/>
<path fill-rule="evenodd" clip-rule="evenodd" d="M300.063 390.119C299.527 388.846 300.124 387.38 301.397 386.845L302.788 386.255C316.31 380.469 324.072 376.993 329.346 371.474C334.619 365.955 335.25 357.849 336.241 352.916C336.513 351.563 339.578 353.94 340.932 354.212C342.286 354.484 343.163 355.802 342.891 357.155C341.699 363.086 338.491 368.74 333.327 374.107C328.18 379.456 318.214 385.19 303.337 391.453C302.064 391.989 300.599 391.391 300.063 390.119Z" fill="#003B93"/>
<path fill-rule="evenodd" clip-rule="evenodd" d="M361.213 132.544C362.4 131.838 363.934 132.227 364.64 133.413C371.712 145.292 375.5 158.872 375.5 173C375.5 215.802 340.802 250.5 298 250.5C286.626 250.5 275.595 248.047 265.494 243.373C264.241 242.793 259.507 238.177 264.274 240.055C269.042 241.932 287.488 246.146 298.133 246.146C338.173 246.146 366.5 213.041 366.5 173C366.5 159.778 361.213 148.043 360.344 135.971C360.243 134.571 360.027 133.25 361.213 132.544Z" fill="#003B93"/>
<path fill-rule="evenodd" clip-rule="evenodd" d="M113.619 321.756C114.502 320.695 116.079 318.551 117.14 319.435C121.492 323.06 126.136 327.26 131.104 328.07C136.274 328.914 142.407 328.914 149.495 328.056C150.866 327.89 152.111 328.867 152.277 330.237C152.443 331.608 151.466 332.854 150.096 333.02C142.568 333.931 135.972 333.931 130.299 333.005C124.424 332.046 118.96 329.458 113.94 325.276C112.879 324.393 112.735 322.816 113.619 321.756Z" fill="#003B93"/>
<path d="M166.7 234.288C163.472 231.706 156.564 224.089 151.335 217.375C148.624 213.824 145.59 206.594 143.782 199.3C142.943 196.007 142.104 193.038 141.91 192.65C141.652 192.328 140.619 187.744 139.586 182.451C138.037 174.962 138.365 172.55 137.004 163.593C136.428 159.8 135.907 156.782 135.907 156.782L137.585 154.627C138.553 153.336 139.778 151.2 140.232 149.979C142.298 144.421 157.468 126.998 157.92 127.45C158.049 127.579 157.533 130.613 156.629 134.163C155.79 137.714 154.757 143.072 154.305 146.106C153.659 151.141 153.401 151.722 151.4 153.401C148.882 155.531 144.105 162.374 144.105 163.794C144.105 165.731 147.01 164.44 150.044 161.277L153.143 158.049V161.599C153.143 163.923 152.691 166.054 151.852 167.732C150.238 170.895 150.238 174.252 151.787 176.834C152.562 178.125 153.272 181.224 153.724 184.904C155.725 201.559 159.986 216.019 167.281 230.544C169.088 234.159 170.508 237.129 170.444 237.129C170.315 237.129 168.636 235.838 166.7 234.288Z" fill="white"/>
<path fill-rule="evenodd" clip-rule="evenodd" d="M435.313 274.119L439.961 276.185C440.925 276.63 451.558 281.738 464.329 287.875C484.92 297.769 511.071 310.334 511.23 310.334C511.489 310.334 512.7 307.533 512.973 304.266C513.619 297.23 516.007 287.675 518.783 281.026C520.074 278.057 521.107 274.345 521.107 274.023C521.107 273.875 520.058 273.452 518.34 272.759C516.294 271.934 513.302 270.727 510.004 269.148C493.736 261.337 461.91 245.392 457.972 243.003C454.099 240.744 453.324 240.55 453.324 242.035C453.324 243.972 449.386 252.945 446.352 257.786C444.739 260.433 441.575 265.21 439.316 268.374L435.313 274.119ZM510.133 298.714C511.984 299.787 508.777 301.361 508.003 301.619C503.441 302.007 498.071 301.149 493.671 298.585C491.371 296.954 473.256 286.89 461.24 280.215C455.747 277.163 451.528 274.819 450.678 274.313C447.966 272.699 445.384 270.956 444.932 270.439C443.577 268.696 444.868 267.922 448.676 268.244C450.966 268.438 506.134 296.397 510.133 298.714Z" fill="white"/>
<path d="M388.963 279.929C387.285 279.348 385.477 278.057 384.315 276.572L382.378 274.183L389.221 267.405C399.744 257.076 407.49 245.788 414.462 233.2C416.786 229.004 423.694 212.081 424.533 210.209C425.824 207.498 426.792 206.465 429.568 204.916C432.861 202.979 436.605 202.334 438.219 203.431C441.317 205.497 441.317 212.017 438.219 223.249C434.797 235.579 430.214 244.424 420.724 257.141C419.239 259.078 416.464 262.886 414.462 265.533C409.104 272.634 405.618 276.056 400.906 278.702C396.258 281.285 393.546 281.607 388.963 279.929Z" fill="white"/>
<path d="M413.3 278.444L411.944 277.088C411.944 277.088 434.445 248.501 438.476 237.968C441.553 229.93 443.364 227.65 445.807 227.65C447.173 227.65 448.289 227.962 448.805 228.737C449.709 230.092 450.58 231.771 449.418 237.516C447.481 246.812 444.512 252.945 435.603 266.179C433.537 269.213 430.891 272.57 429.729 273.732C427.017 276.249 420.917 278.831 417.367 279.412C415.108 279.735 414.462 279.606 413.3 278.444Z" fill="white"/>
<path fill-rule="evenodd" clip-rule="evenodd" d="M451.094 248.551C452.396 245.573 453.324 242.975 453.324 242.035C453.324 240.55 454.099 240.744 457.972 243.003C461.91 245.392 493.736 261.337 510.004 269.148C516.072 272.053 521.107 273.7 521.107 274.023C521.107 274.345 449.714 251.709 451.094 248.551Z" fill="#E7EAEE"/>
<path fill-rule="evenodd" clip-rule="evenodd" d="M230.222 252.235C222.023 246.877 209.628 234.288 203.625 225.315C195.039 212.404 189.358 198.589 186.582 183.742C184.581 172.961 184.646 156.37 186.647 146.752C188.713 136.939 191.359 129.451 196.072 119.961C201.559 108.987 207.369 100.918 216.084 92.2026C224.63 83.6564 186.647 118.998 196.072 182.233C203.625 235.223 236.085 256.098 230.222 252.235Z" fill="#E7EAEE"/>
</svg>
